<?xml version="1.0" encoding="UTF-8" standalone="no"?>
<svg
   version="1.1"
   width="93.5716pt"
   height="296.107pt"
   viewBox="0 0 93.5716 296.107"
   id="svg2108"
   sodipodi:docname="edge_cuts.svg"
   inkscape:version="1.3.2 (091e20e, 2023-11-25)"
   xmlns:inkscape="http://www.inkscape.org/namespaces/inkscape"
   xmlns:sodipodi="http://sodipodi.sourceforge.net/DTD/sodipodi-0.dtd"
   xmlns="http://www.w3.org/2000/svg"
   xmlns:svg="http://www.w3.org/2000/svg">
  <sodipodi:namedview
     id="namedview2108"
     pagecolor="#ffffff"
     bordercolor="#000000"
     borderopacity="0.25"
     inkscape:showpageshadow="2"
     inkscape:pageopacity="0.0"
     inkscape:pagecheckerboard="0"
     inkscape:deskcolor="#d1d1d1"
     inkscape:document-units="pt"
     inkscape:zoom="11.313709"
     inkscape:cx="58.645666"
     inkscape:cy="41.719298"
     inkscape:window-width="1920"
     inkscape:window-height="1016"
     inkscape:window-x="0"
     inkscape:window-y="0"
     inkscape:window-maximized="1"
     inkscape:current-layer="svg2108" />
  <defs
     id="defs2">
    <clipPath
       id="clip_0">
      <path
         transform="matrix(1,0,0,-1,0,296.107)"
         d="M0 296.107H93.572V0H0Z"
         id="path1" />
    </clipPath>
    <clipPath
       id="clip_1">
      <path
         transform="matrix(1,0,0,-1,0,296.107)"
         d="M0 296.107H93.572V0H0Z"
         id="path2" />
    </clipPath>
  </defs>
  <g
     id="g2108"
     data-name="Cutkontur"
     style="display:inline">
    <g
       clip-path="url(#clip_1)"
       id="g2107">
      <path
         transform="matrix(1,0,0,-1,74.7581,63.758394)"
         stroke-width="0.25"
         stroke-linecap="butt"
         stroke-miterlimit="10"
         stroke-linejoin="miter"
         fill="none"
         stroke="#ec008c"
         d="m 0,0 c 0.007,0.079 0.015,0.157 0.023,0.236 0.05,0.449 0.13,0.885 0.158,1.337 0.027,0.45 0.03,0.901 0.019,1.352 -0.011,0.448 -0.035,0.894 -0.061,1.342 -0.294,4.875 -1.755,9.767 -1.063,14.602 0.624,4.349 -0.755,8.466 -4.191,11.749 -0.477,0.455 -0.736,1.115 -0.88,1.758 -0.502,2.236 1.365,6.033 -0.508,7.354 -5.171,3.65 -10.053,5 -16.253,6.269 0.242,3.244 -0.676,6.29 -1.901,9.255 -1.223,-0.867 -1.991,-1.879 -2.43,-3.375 -0.228,-0.78 -0.672,-1.993 -0.694,-2.806 -0.034,-1.22 -0.381,-1.859 -0.415,-3.078 -2.372,-0.223 -4.743,-0.445 -7.115,-0.666 -1.135,-0.107 -2.371,-0.189 -3.32,0.441 -0.854,0.566 -1.284,1.587 -2.024,2.295 -1.561,1.493 -4.503,1.049 -5.554,-0.838 -0.621,-1.115 -0.598,-2.46 -0.588,-3.736 10e-4,-0.245 -0.009,-0.52 -0.184,-0.692 -0.258,-0.253 -0.68,-0.131 -1.041,-0.107 -0.891,0.059 -1.695,-0.629 -2.059,-1.444 -0.364,-0.815 -0.383,-1.737 -0.396,-2.629 -0.041,-2.818 -0.516,-5.395 -0.557,-8.213 -2.806,0.142 -6.198,0.12 -7.715,-0.552 -1.003,-0.863 -1.213,-9.451 -0.622,-14.393 0.062,-0.519 0.156,-1.087 0.556,-1.424 0.247,-0.208 0.574,-0.292 0.89,-0.361 1.887,-0.411 3.845,-0.5 5.762,-0.262 -0.365,-0.989 -0.273,-2.081 -0.176,-3.13 0.261,-2.829 0.522,-5.657 0.783,-8.486 0.156,-1.689 0.322,-3.417 1.04,-4.953 0.651,-1.392 1.657,-2.421 2.999,-3.167 1.35,-13.483 -0.122,-27.609 1.205,-40.537 0.456,-4.442 -0.728,-8.856 -2.274,-13.045 -0.444,-1.201 -0.976,-2.397 -1.83,-3.351 -0.682,-0.762 -0.665,-1.266 -1.347,-2.029 -2.14,-2.388 -2.079,-5.961 -1.895,-9.163 0.107,-1.861 0.075,-3.982 1.463,-5.228 0.26,-0.235 0.565,-0.442 0.717,-0.758 0.11,-0.229 0.126,-0.49 0.141,-0.744 0.129,-2.24 -0.189,-4.973 -0.278,-7.215 -0.306,-7.665 -0.612,-15.329 -0.917,-22.994 -0.099,-2.481 -0.206,-5.006 -1.031,-7.347 -0.678,-1.921 -1.812,-3.64 -2.8,-5.421 -2.251,-4.059 -2.401,-8.924 -2.465,-13.565 -0.074,-5.453 0.459,-10.915 1.587,-16.251 1.298,-6.137 3.372,-12.082 5.539,-17.969 6.499,-17.656 13.881,-34.987 22.109,-51.906 1.718,2.733 2.611,5.149 4.206,7.879 2.262,3.87 4.1,8.314 6.362,12.185 1.266,2.168 2.534,4.338 3.667,6.579 2.096,4.152 3.715,8.526 5.331,12.889 2.492,6.734 4.985,13.468 7.477,20.204 0.879,2.374 1.759,4.751 2.477,7.178 2.878,9.738 3.638,20.619 1.116,30.453 -1.093,4.262 -2.272,7.994 -2.494,12.388 -0.524,10.363 0.684,20.179 0.684,30.556 0,0.313 -0.036,0.484 -0.017,0.947 0.217,5.445 1.14,10.917 -0.248,16.186 -0.175,0.661 -0.37,1.317 -0.557,1.975 -0.301,1.059 -0.419,2.177 -0.592,3.265 -0.291,1.834 -0.611,3.727 -0.308,5.58 0.176,1.078 0.45,2.135 0.711,3.194 0.245,0.996 0.373,2.055 0.734,3.016 0.075,0.199 0.162,0.41 0.339,0.53 0.156,0.106 0.356,0.122 0.545,0.134 1.028,0.067 2.056,0.134 3.083,0.201 0.15,0.01 0.319,0.029 0.412,0.148 0.073,0.092 0.077,0.22 0.078,0.338 0.042,4.655 0.083,9.309 0.124,13.963 0.029,3.27 0.152,6.405 0.236,9.673 0.018,0.681 0.036,1.362 0.019,2.043 -0.044,1.727 -0.312,3.463 -0.07,5.173 0.348,2.467 0.819,6.708 0.287,7.432 -0.532,0.723 -3.74,0.13 -4.157,0.545 -0.156,0.156 -0.129,0.549 -0.138,0.746 -0.023,0.517 -0.006,1.037 0.013,1.554 0.049,1.421 0.143,2.84 0.205,4.261 C -0.03,-1.754 -0.074,-0.875 0,0 Z"
         id="path2107"
         style="display:inline" />
    </g>
  </g>
</svg>
