<?xml version="1.0" encoding="UTF-8" standalone="no"?>
<svg
   id="svg2108"
   viewBox="0 0 93.57 296.11"
   version="1.1"
   sodipodi:docname="rakede sticker chaos computer club flensburg.svg"
   inkscape:version="1.3.2 (091e20e, 2023-11-25)"
   xmlns:inkscape="http://www.inkscape.org/namespaces/inkscape"
   xmlns:sodipodi="http://sodipodi.sourceforge.net/DTD/sodipodi-0.dtd"
   xmlns="http://www.w3.org/2000/svg"
   xmlns:svg="http://www.w3.org/2000/svg">
  <sodipodi:namedview
     id="namedview53"
     pagecolor="#505050"
     bordercolor="#eeeeee"
     borderopacity="1"
     inkscape:showpageshadow="0"
     inkscape:pageopacity="0"
     inkscape:pagecheckerboard="0"
     inkscape:deskcolor="#505050"
     inkscape:zoom="2.7557328"
     inkscape:cx="46.811505"
     inkscape:cy="148.05499"
     inkscape:window-width="960"
     inkscape:window-height="1016"
     inkscape:window-x="26"
     inkscape:window-y="23"
     inkscape:window-maximized="0"
     inkscape:current-layer="svg2108" />
  <defs
     id="defs2">
    <style
       id="style1">
      .cls-1 {
        clip-path: url(#clippath);
      }

      .cls-2, .cls-3, .cls-4, .cls-5, .cls-6, .cls-7, .cls-8, .cls-9, .cls-10, .cls-11, .cls-12 {
        stroke-width: 0px;
      }

      .cls-2, .cls-13 {
        fill: none;
      }

      .cls-3 {
        fill: #f16749;
      }

      .cls-4 {
        fill: #505148;
      }

      .cls-5 {
        fill: #e5e9e6;
      }

      .cls-13 {
        stroke: #ec008c;
        stroke-miterlimit: 10;
        stroke-width: .25px;
      }

      .cls-6 {
        fill: #fde487;
      }

      .cls-14 {
        clip-path: url(#clippath-1);
      }

      .cls-7 {
        fill: #000;
      }

      .cls-8 {
        fill: #040013;
      }

      .cls-9 {
        fill: #c93f3f;
      }

      .cls-10 {
        fill: #facc2e;
      }

      .cls-11 {
        fill: #fff;
      }

      .cls-12 {
        fill: #c83e3f;
      }
    </style>
    <clipPath
       id="clippath">
      <rect
         class="cls-2"
         x=".31"
         y="0"
         width="93.57"
         height="296.11"
         id="rect1" />
    </clipPath>
    <clipPath
       id="clippath-1">
      <rect
         class="cls-2"
         y="0"
         width="93.57"
         height="296.11"
         id="rect2" />
    </clipPath>
  </defs>
  <g
     id="Pinke_Außenlinie"
     data-name="Pinke Außenlinie">
    <g
       class="cls-14"
       clip-path="url(#clippath-1)"
       id="g53">
      <g
         id="g2107">
        <path
           id="path2107"
           class="cls-13"
           d="m 74.76,63.76 c 0,-0.08 0.01,-0.16 0.02,-0.24 0.05,-0.45 0.13,-0.89 0.16,-1.34 0.03,-0.45 0.03,-0.9 0.02,-1.35 -0.01,-0.45 -0.03,-0.89 -0.06,-1.34 -0.29,-4.88 -1.75,-9.77 -1.06,-14.6 0.62,-4.35 -0.75,-8.47 -4.19,-11.75 -0.48,-0.45 -0.74,-1.11 -0.88,-1.76 -0.5,-2.24 1.37,-6.03 -0.51,-7.35 -5.17,-3.65 -10.05,-5 -16.25,-6.27 0.24,-3.24 -0.68,-6.29 -1.9,-9.26 -1.22,0.87 -1.99,1.88 -2.43,3.38 -0.23,0.78 -0.67,1.99 -0.69,2.81 -0.03,1.22 -0.38,1.86 -0.42,3.08 -2.37,0.22 -4.74,0.45 -7.12,0.67 -1.13,0.11 -2.37,0.19 -3.32,-0.44 -0.85,-0.57 -1.28,-1.59 -2.02,-2.3 -1.56,-1.49 -4.5,-1.05 -5.55,0.84 -0.62,1.11 -0.6,2.46 -0.59,3.74 0,0.24 0,0.52 -0.18,0.69 -0.26,0.25 -0.68,0.13 -1.04,0.11 -0.89,-0.06 -1.69,0.63 -2.06,1.44 -0.36,0.81 -0.38,1.74 -0.4,2.63 -0.04,2.82 -0.52,5.39 -0.56,8.21 -2.81,-0.14 -6.2,-0.12 -7.72,0.55 -1,0.86 -1.21,9.45 -0.62,14.39 0.06,0.52 0.16,1.09 0.56,1.42 0.25,0.21 0.57,0.29 0.89,0.36 1.89,0.41 3.85,0.5 5.76,0.26 -0.37,0.99 -0.27,2.08 -0.18,3.13 0.26,2.83 0.52,5.66 0.78,8.49 0.16,1.69 0.32,3.42 1.04,4.95 0.65,1.39 1.66,2.42 3,3.17 1.35,13.48 -0.12,27.61 1.21,40.54 0.46,4.44 -0.73,8.86 -2.27,13.04 -0.44,1.2 -0.98,2.4 -1.83,3.35 -0.68,0.76 -0.67,1.27 -1.35,2.03 -2.14,2.39 -2.08,5.96 -1.9,9.16 0.11,1.86 0.08,3.98 1.46,5.23 0.26,0.24 0.56,0.44 0.72,0.76 0.11,0.23 0.13,0.49 0.14,0.74 0.13,2.24 -0.19,4.97 -0.28,7.21 -0.31,7.67 -0.61,15.33 -0.92,22.99 -0.1,2.48 -0.21,5.01 -1.03,7.35 -0.68,1.92 -1.81,3.64 -2.8,5.42 -2.25,4.06 -2.4,8.92 -2.47,13.56 -0.07,5.45 0.46,10.91 1.59,16.25 1.3,6.14 3.37,12.08 5.54,17.97 6.5,17.66 13.88,34.99 22.11,51.91 1.72,-2.73 2.61,-5.15 4.21,-7.88 2.26,-3.87 4.1,-8.31 6.36,-12.18 1.27,-2.17 2.53,-4.34 3.67,-6.58 2.1,-4.15 3.72,-8.53 5.33,-12.89 2.49,-6.73 4.99,-13.47 7.48,-20.2 0.88,-2.37 1.76,-4.75 2.48,-7.18 2.88,-9.74 3.64,-20.62 1.12,-30.45 -1.09,-4.26 -2.27,-7.99 -2.49,-12.39 C 72.8,167.48 74,157.66 74,147.28 c 0,-0.31 -0.04,-0.48 -0.02,-0.95 0.22,-5.45 1.14,-5.04 -0.25,-10.31 -0.17,-0.66 0.4,-3.79 0.4,-5.02 0,-1.23 0.27,-5.01 0.1,-6.1 0,-1.97 0.04,-3.73 0.04,-4.77 0,-0.24 0.12,-2.11 0.14,-2.53 0.1,-1.84 0.23,-1.56 0.17,-2.7 -0.01,-0.26 0.2,-1.16 0.23,-1.6 0.03,-0.69 1.06,-0.78 1.14,-0.86 0.1,-0.09 1.12,-0.13 1.74,-0.18 0.15,-0.01 0.99,-0.13 1.09,-0.26 0.07,-0.09 0.23,-0.29 0.23,-0.41 0.04,-4.65 0.09,-9.13 0.13,-13.79 0.03,-3.27 -0.31,-6.4 -0.23,-9.67 0.02,-0.68 -0.05,-1.65 -0.07,-2.33 -0.04,-1.73 -0.06,-3.17 0.18,-4.88 0.35,-2.47 0.28,-6.71 -0.26,-7.43 -0.53,-0.72 -3.74,-0.13 -4.16,-0.54 -0.16,-0.16 -0.13,-0.55 -0.14,-0.75 -0.02,-0.52 0,-1.04 0.01,-1.55 0.05,-1.42 0.14,-2.84 0.21,-4.26 0.04,-0.88 0,-1.76 0.07,-2.63 z"
           style="display:inline" />
      </g>
    </g>
  </g>
</svg>
