<?xml version="1.0" encoding="UTF-8" standalone="no"?>
<svg
   id="svg2108"
   viewBox="0 0 93.57 296.11"
   version="1.1"
   sodipodi:docname="rakede sticker chaos computer club flensburg.svg"
   inkscape:version="1.3.2 (091e20e, 2023-11-25)"
   xmlns:inkscape="http://www.inkscape.org/namespaces/inkscape"
   xmlns:sodipodi="http://sodipodi.sourceforge.net/DTD/sodipodi-0.dtd"
   xmlns="http://www.w3.org/2000/svg"
   xmlns:svg="http://www.w3.org/2000/svg">
  <sodipodi:namedview
     id="namedview53"
     pagecolor="#505050"
     bordercolor="#eeeeee"
     borderopacity="1"
     inkscape:showpageshadow="0"
     inkscape:pageopacity="0"
     inkscape:pagecheckerboard="0"
     inkscape:deskcolor="#505050"
     inkscape:zoom="7.7943894"
     inkscape:cx="49.394504"
     inkscape:cy="123.807"
     inkscape:window-width="960"
     inkscape:window-height="1016"
     inkscape:window-x="26"
     inkscape:window-y="23"
     inkscape:window-maximized="0"
     inkscape:current-layer="svg2108" />
  <defs
     id="defs2">
    <style
       id="style1">
      .cls-1 {
        clip-path: url(#clippath);
      }

      .cls-2, .cls-3, .cls-4, .cls-5, .cls-6, .cls-7, .cls-8, .cls-9, .cls-10, .cls-11, .cls-12 {
        stroke-width: 0px;
      }

      .cls-2, .cls-13 {
        fill: none;
      }

      .cls-3 {
        fill: #f16749;
      }

      .cls-4 {
        fill: #505148;
      }

      .cls-5 {
        fill: #e5e9e6;
      }

      .cls-13 {
        stroke: #ec008c;
        stroke-miterlimit: 10;
        stroke-width: .25px;
      }

      .cls-6 {
        fill: #fde487;
      }

      .cls-14 {
        clip-path: url(#clippath-1);
      }

      .cls-7 {
        fill: #000;
      }

      .cls-8 {
        fill: #040013;
      }

      .cls-9 {
        fill: #c93f3f;
      }

      .cls-10 {
        fill: #facc2e;
      }

      .cls-11 {
        fill: #fff;
      }

      .cls-12 {
        fill: #c83e3f;
      }
    </style>
    <clipPath
       id="clippath">
      <rect
         class="cls-2"
         x=".31"
         y="0"
         width="93.57"
         height="296.11"
         id="rect1" />
    </clipPath>
    <clipPath
       id="clippath-1">
      <rect
         class="cls-2"
         y="0"
         width="93.57"
         height="296.11"
         id="rect2" />
    </clipPath>
  </defs>
  <g
     class="cls-1"
     clip-path="url(#clippath)"
     id="g52">
    <path
       id="path3"
       class="cls-11"
       d="M 52.310547 62.720703 L 52.314453 62.724609 L 52.320312 62.720703 L 52.310547 62.720703 z M 52.314453 62.724609 L 52.310547 62.726562 L 52.310547 62.839844 L 52.470703 62.880859 L 52.314453 62.724609 z M 54.001953 62.726562 C 53.855369 62.725078 53.703818 62.72085 53.605469 62.740234 C 53.83592 62.793407 54.066768 62.844684 54.279297 62.880859 L 55.539062 62.880859 L 55.039062 62.810547 C 54.809063 62.830547 54.579375 62.830781 54.359375 62.800781 C 54.246309 62.788667 54.11917 62.746493 54.001953 62.726562 z M 53.28125 62.845703 C 53.039379 62.945041 52.768722 63.067679 52.070312 63.109375 C 51.600314 63.109375 51.279611 63.109297 51.599609 63.029297 L 50.580078 63.189453 C 50.270078 63.189453 50.340158 63.189375 50.660156 63.109375 L 49.089844 63.349609 C 48.859844 63.429609 48.380389 63.589844 48.150391 63.589844 C 47.760391 63.589844 48.380469 63.509766 48.230469 63.509766 L 47.369141 63.669922 C 46.979141 63.669922 47.680549 63.429688 48.310547 63.429688 C 47.500549 63.209688 47.570076 63.540391 46.080078 63.650391 C 45.972415 63.709116 45.826094 63.729628 45.669922 63.730469 C 45.669922 63.730469 45.690391 63.689922 45.650391 63.669922 C 45.540391 63.689922 45.410078 63.720234 45.330078 63.740234 C 45.475771 63.740234 45.563529 63.739632 45.660156 63.730469 C 45.620156 63.760469 45.550389 63.790314 45.400391 63.820312 C 45.160391 63.820312 44.770781 63.900469 44.300781 63.980469 C 44.300781 63.900469 43.749139 63.980547 43.119141 64.060547 L 43.119141 63.900391 C 42.409141 64.060389 42.489609 64.140938 42.099609 64.210938 C 41.319611 64.290936 41.16 64.210859 41 64.130859 C 39.820002 64.290859 41.859215 64.129453 40.449219 64.439453 C 39.429221 64.519453 38.720779 64.750314 37.550781 65.070312 C 36.840783 65.150312 37.630625 64.990234 37.390625 64.990234 L 36.759766 65.220703 C 36.599766 65.220703 36.679688 65.220625 36.679688 65.140625 C 36.129688 65.300625 36.680312 65.299219 35.820312 65.449219 C 35.740314 65.529219 35.659764 65.529297 35.509766 65.529297 L 34.800781 65.529297 C 34.720781 65.529297 34.720625 65.609375 34.640625 65.609375 L 34.400391 65.839844 C 34.240391 65.999844 34.170234 66.230703 34.240234 66.470703 C 34.240234 66.670703 34.299922 66.819219 34.419922 66.949219 C 34.289922 67.149219 34.240234 67.360236 34.240234 67.490234 L 34.240234 67.730469 C 34.160234 67.810469 34.160078 67.810938 34.080078 67.960938 C 34.053384 67.987631 34.030298 68.026469 34.003906 68.064453 L 34 68.779297 L 34.019531 68.779297 L 34.099609 69.880859 L 33.990234 69.880859 L 33.988281 70.095703 C 34.040306 70.156628 34.077455 70.183739 34.160156 70.310547 C 34.160156 70.310547 34.160234 70.390625 34.240234 70.390625 L 34.160156 70.390625 L 34.080078 70.470703 C 34.047649 70.503132 34.018183 70.51833 33.986328 70.535156 L 33.986328 70.603516 C 34.063949 70.579831 34.13618 70.550781 34.240234 70.550781 C 34.275215 70.550781 34.307645 70.547704 34.335938 70.541016 C 34.327317 70.543066 34.319168 70.550781 34.310547 70.550781 C 34.19982 70.606145 34.09236 70.659987 33.984375 70.714844 L 33.982422 71.058594 C 34.1314 70.979129 34.260962 70.91001 34.410156 70.810547 L 34.570312 70.810547 C 34.371113 70.890227 34.181542 70.978834 33.982422 71.058594 L 33.939453 78.199219 L 33.310547 78.199219 L 33.310547 78.039062 C 33.310547 77.719063 33.310625 77.49 33.390625 77.25 C 33.470625 76.620001 33.470703 76.069452 33.470703 75.439453 C 33.470703 75.258563 33.460647 75.087431 33.457031 74.910156 C 33.374626 74.932175 33.274268 74.970703 33.220703 74.970703 C 33.170703 74.970703 33.080234 75.010781 32.990234 75.050781 C 32.761402 74.974504 32.471169 74.890907 32.236328 74.753906 C 32.356518 74.835562 32.460819 74.934205 32.599609 74.980469 C 32.709609 75.020469 32.840938 75.050078 32.960938 75.080078 L 32.839844 75.140625 C 32.759844 75.140625 32.679688 75.220703 32.679688 75.220703 L 32.519531 75.380859 C 32.359531 75.460859 32.280936 75.619453 32.210938 75.689453 C 32.130938 75.849453 32.050703 75.930078 31.970703 76.080078 C 31.890703 76.240078 31.810547 76.310703 31.810547 76.470703 C 31.650547 77.020703 31.730625 77.570861 31.890625 77.880859 C 31.970625 78.040859 32.050859 78.189531 32.130859 78.269531 L 32.289062 78.429688 C 32.289062 78.429688 32.115078 78.430781 31.994141 78.363281 L 32.060547 78.429688 C 32.140547 78.509686 32.220703 78.509844 32.220703 78.589844 C 32.380703 78.669844 32.449375 78.750078 32.609375 78.830078 C 32.689375 78.830078 32.769531 78.910156 32.769531 78.910156 L 32.929688 78.910156 L 33.089844 78.910156 C 33.119844 78.930156 33.149453 78.960469 33.189453 78.980469 L 32.619141 78.980469 C 32.619141 78.980469 32.650391 79.050547 32.650391 79.060547 C 32.700391 79.080547 32.709531 79.130859 32.769531 79.130859 L 33.009766 79.130859 C 33.009766 79.210859 32.929687 79.209064 32.929688 79.289062 C 32.999686 79.219064 33.129531 79.139531 33.269531 79.019531 C 33.309531 79.039531 33.360391 79.060078 33.400391 79.080078 L 33.400391 79.599609 C 33.400391 79.599609 33.399688 79.7 33.429688 79.75 C 33.459686 79.68 33.500547 79.599609 33.560547 79.599609 C 33.590547 79.569609 33.609141 79.550781 33.619141 79.550781 C 33.584706 79.635543 33.580508 79.723714 33.5625 79.810547 L 33.699219 79.763672 L 33.699219 79.759766 L 33.710938 79.759766 L 33.699219 79.763672 L 33.859375 80.550781 L 33.550781 80.710938 L 33.333984 80.15625 C 33.33375 80.156011 33.330078 80.150391 33.330078 80.150391 C 33.330078 80.149447 33.330073 80.149376 33.330078 80.148438 L 33.240234 79.919922 L 33.404297 79.863281 C 33.405137 79.857859 33.410156 79.845117 33.410156 79.839844 C 33.410156 79.839844 33.413917 79.828107 33.417969 79.818359 C 33.43303 79.822134 33.455752 79.824893 33.470703 79.839844 C 33.440703 79.809844 33.429922 79.78 33.419922 79.75 C 33.419922 79.77 33.400391 79.790547 33.400391 79.810547 C 33.400391 79.810547 33.405638 79.812369 33.40625 79.8125 C 33.326506 79.816858 33.21402 79.862717 33.099609 79.919922 C 33.019609 79.919922 32.939453 79.919844 32.939453 79.839844 C 32.939453 79.759844 32.859375 79.679609 32.859375 79.599609 L 32.859375 79.359375 C 32.859375 79.412708 32.83263 79.466198 32.779297 79.519531 L 32.779297 79.910156 C 32.779297 80.220156 32.859844 80.619688 33.089844 80.929688 C 33.009844 80.769688 33.009766 80.619062 33.009766 80.539062 C 33.009766 80.459064 33.089922 80.379141 33.169922 80.619141 C 33.249922 81.089139 33.410469 81.250156 33.480469 81.410156 C 33.523611 81.453298 33.566171 81.523859 33.609375 81.578125 L 33.630859 81.410156 L 33.859375 81.410156 L 33.859375 81.8125 C 33.893345 81.8352 33.927016 81.880859 33.960938 81.880859 C 34.020936 81.940859 34.120469 81.990781 34.230469 82.050781 C 34.180469 82.000781 34.239375 81.960938 34.359375 81.960938 L 35.060547 81.960938 C 34.990547 81.960938 35.140078 82.189453 34.830078 82.189453 L 35.070312 82.189453 C 35.150312 82.189453 35.230781 82.189375 35.300781 82.109375 L 35.460938 82.109375 C 35.540936 82.109375 35.539141 82.109297 35.619141 82.029297 C 35.699141 81.989297 35.759844 81.969453 35.839844 81.939453 C 35.939844 81.919453 36.040859 81.900625 36.130859 81.890625 C 36.140859 81.920625 36.180234 81.940703 36.240234 81.970703 C 35.990236 82.300703 35.140779 83.300314 34.050781 84.070312 L 33.859375 84.134766 L 33.859375 86.119141 L 33.679688 85.380859 L 33.710938 85.650391 L 33.320312 85.730469 L 33.320312 84.537109 C 33.246542 84.591621 33.165903 84.649371 33.119141 84.689453 C 33.109141 84.689453 33.090078 84.710703 33.080078 84.720703 C 33.131551 84.667085 33.257467 84.548424 33.320312 84.480469 L 33.320312 84.160156 L 33.380859 84.160156 L 33.345703 84.017578 C 32.995115 84.311181 32.619695 84.62203 32.160156 84.929688 C 31.850158 85.089686 32.240156 84.539062 32.160156 84.539062 C 32.080156 84.619062 31.849297 84.849766 31.529297 85.009766 C 31.449297 85.089766 31.370781 85.089922 31.300781 85.169922 C 31.220781 85.249922 31.140547 85.250078 31.060547 85.330078 C 30.900547 85.410078 30.900312 85.560547 30.820312 85.560547 C 30.820312 85.560547 30.900547 85.4 31.060547 85.25 L 31.220703 85.089844 C 31.300703 85.089844 31.300781 85.009766 31.300781 85.009766 C 31.220781 85.089766 31.140547 85.169922 31.060547 85.169922 L 30.820312 85.410156 C 30.660314 85.570156 30.579766 85.800938 30.509766 85.960938 C 30.349766 86.350936 30.269531 86.750861 30.269531 87.380859 C 30.269531 87.610859 30.349688 87.849922 30.429688 88.169922 C 30.509686 88.409922 30.660156 88.640625 30.660156 88.640625 C 30.500156 88.330625 30.580236 88.009686 30.740234 87.929688 C 30.880234 87.859688 31.029922 87.859922 31.169922 87.919922 C 31.409922 88.54992 31.970002 89.020936 32.75 88.960938 C 32.71 88.990936 32.659141 89.019064 32.619141 89.039062 C 32.379141 89.199062 32.150861 89.199297 32.380859 89.279297 C 32.380859 89.279297 32.560938 89.199141 32.710938 89.119141 L 32.849609 89.119141 C 32.849609 89.119141 32.930469 89.100078 32.980469 89.080078 C 32.980469 89.090078 32.979766 89.099141 33.009766 89.119141 C 33.009766 89.119141 33.090314 89.119062 33.320312 89.039062 C 33.332272 89.027103 33.372743 89.0158 33.390625 89.003906 L 33.390625 85.880859 L 33.779297 85.880859 L 33.779297 88.740234 C 33.869796 88.714049 33.976226 88.690117 34.019531 88.640625 L 34.019531 88.720703 C 34.019531 88.800703 34.019453 88.800859 33.939453 88.880859 L 33.939453 89.429688 C 33.939453 89.269688 34.1 89.510236 34.25 89.740234 C 34.33 89.900234 34.480625 89.980861 34.640625 90.130859 C 34.770625 90.260859 34.889531 90.330391 35.019531 90.400391 C 35.039531 90.420391 35.069609 90.450703 35.099609 90.470703 C 35.099609 90.510703 35.189453 90.619453 35.189453 90.689453 C 35.269453 90.769453 35.349688 90.769531 35.429688 90.769531 C 35.509686 90.769531 35.589922 90.849609 35.669922 90.849609 C 35.669922 91.009609 35.75 91.240391 35.75 91.400391 C 35.83 91.560389 35.910234 91.709064 35.990234 91.789062 C 35.600236 92.179062 34.890389 92.579533 34.650391 93.519531 C 34.570391 93.599531 34.570234 93.760236 34.490234 93.990234 C 34.490234 94.090234 34.459453 94.179688 34.439453 94.179688 C 34.459453 94.259686 34.490234 94.360938 34.490234 94.460938 C 34.490234 94.540936 34.570312 94.619219 34.570312 94.699219 C 34.570312 94.779219 34.650391 94.859453 34.650391 94.939453 L 34.650391 94.949219 C 34.650391 94.949219 34.600312 94.859844 34.570312 94.839844 C 34.570312 94.999844 34.650391 95.070313 34.650391 95.070312 L 34.650391 94.970703 C 34.700391 95.050703 34.760547 95.15 34.810547 95.25 L 34.730469 95.330078 C 34.650469 95.330078 34.650312 95.410156 34.570312 95.410156 C 34.490314 95.490156 34.410078 95.570312 34.330078 95.570312 C 34.410078 95.570312 34.490625 95.570234 34.640625 95.490234 C 34.720625 95.490234 34.800859 95.410156 34.880859 95.410156 L 34.960938 95.330078 L 35.039062 95.330078 L 34.960938 95.25 C 34.880938 95.09 34.720391 94.939297 34.650391 94.779297 C 34.570391 94.619297 34.490234 94.390469 34.490234 94.230469 C 34.570234 94.230469 34.650469 94.309064 34.730469 94.539062 C 34.810469 94.619062 34.810703 94.699611 34.970703 94.849609 C 35.050703 95.009609 35.199375 95.160314 35.359375 95.320312 L 35.359375 95.400391 C 35.279375 95.400391 35.279219 95.480469 35.199219 95.480469 C 35.119219 95.560469 34.970625 95.640703 34.890625 95.720703 C 34.650625 95.880703 34.419686 96.029453 34.179688 96.189453 C 33.54589 96.580916 33.522492 96.544835 33.535156 96.480469 L 33.347656 96.480469 C 33.161912 96.586426 32.968639 96.674121 32.839844 96.730469 C 32.679844 96.810469 32.519219 96.969064 32.449219 97.039062 L 32.289062 97.199219 C 32.239064 97.249219 32.220703 97.280547 32.220703 97.310547 C 32.190703 97.330547 32.170625 97.339375 32.140625 97.359375 C 32.060625 97.439375 31.980469 97.439531 31.980469 97.519531 C 31.900469 97.599531 31.900312 97.679766 31.820312 97.759766 C 31.740314 97.839766 31.740156 97.920314 31.660156 98.070312 C 31.660156 98.150312 31.580078 98.310859 31.580078 98.380859 L 31.580078 98.929688 C 31.580078 99.009686 31.660156 99.089844 31.660156 99.089844 C 31.820156 99.639842 32.289766 100.02953 32.759766 100.26953 C 32.919764 100.34953 33.000391 100.34969 33.150391 100.42969 C 33.216337 100.42969 33.261544 100.45727 33.310547 100.46289 L 33.310547 96.720703 L 33.300781 96.710938 L 33.689453 96.710938 L 33.689453 100.50977 L 33.929688 100.50977 C 34.009686 100.50977 34.160234 100.50969 34.240234 100.42969 C 35.320232 100.26969 36.320393 100.04055 37.400391 99.810547 C 37.470391 99.870547 37.549453 99.879219 37.689453 99.949219 C 38.059453 100.16922 38.509533 100.30945 39.019531 100.18945 C 40.349529 99.949456 41.609143 99.720389 42.869141 99.400391 C 43.179139 99.790389 43.649299 100.10937 44.279297 100.10938 C 45.345158 100.10938 46.439428 100.03651 47.529297 99.949219 L 47.669922 99.929688 L 47.654297 99.939453 C 48.209271 99.894176 48.767386 99.85016 49.310547 99.800781 C 49.310547 99.960583 49.350303 100.1148 49.382812 100.26953 L 60.240234 100.88086 L 60.240234 101.50977 L 57.929688 101.41016 C 58.223067 101.74069 58.655925 101.96708 59.210938 101.91016 C 59.607951 101.8918 59.996395 101.82494 60.390625 101.78711 L 60.390625 101.75 L 61.330078 101.58984 L 61.099609 101.25977 L 61.099609 101.50977 L 60.630859 101.42969 L 60.710938 101.11914 L 61.050781 101.18945 L 60.962891 101.06055 L 60.929688 101.05078 L 60.949219 101.03906 L 60.962891 101.06055 L 62.515625 101.48047 C 62.586436 101.46428 62.658082 101.4509 62.728516 101.43359 L 62.970703 101.13086 L 63.082031 101.34961 C 63.147137 101.33164 63.20871 101.30419 63.273438 101.28516 L 63.289062 101.21094 L 63.289062 101.28125 C 63.606616 101.18743 63.923321 101.092 64.230469 100.9707 C 65.090467 100.6607 65.720312 99.949684 65.570312 98.929688 C 65.340314 98.299688 65.099297 97.909609 64.779297 97.599609 C 64.939297 97.129611 64.939139 96.659764 64.619141 96.259766 C 64.33839 95.910152 64.069274 95.631522 63.779297 95.394531 L 63.779297 96.259766 L 63.470703 96.259766 L 63.470703 100.89062 L 62.839844 100.89062 L 62.839844 94.792969 C 62.830738 94.785034 62.818498 94.777482 62.810547 94.769531 C 62.650547 94.609531 62.499844 94.530936 62.339844 94.460938 C 62.339844 94.460938 62.420703 94.420625 62.470703 94.390625 C 62.480703 94.390625 62.489766 94.380859 62.509766 94.380859 C 62.519766 94.380859 62.530781 94.359375 62.550781 94.359375 C 62.649943 94.309794 62.743147 94.254948 62.839844 94.203125 L 62.839844 90.060547 L 63.080078 90.060547 L 63.080078 90.140625 L 63.390625 90.140625 L 63.390625 90.060547 L 63.779297 90.060547 L 63.779297 93.720703 C 63.786589 93.717529 63.793618 93.714121 63.800781 93.710938 C 63.890781 93.680938 63.980078 93.649141 64.080078 93.619141 L 64.080078 93.669922 C 64.150078 93.629922 64.209531 93.589062 64.269531 93.539062 C 65.889529 92.899064 65.930387 90.330312 64.400391 89.820312 C 64.170391 89.660314 63.929375 89.509686 63.609375 89.429688 L 63.509766 89.429688 C 63.491448 89.287723 63.456678 89.152783 63.412109 89.023438 L 63.380859 89.349609 L 62.990234 89.349609 L 63.050781 88.640625 L 62.990234 88.640625 L 62.830078 88.560547 L 62.830078 88.480469 L 62.910156 88.169922 L 63.070312 88.210938 L 63.070312 83.080078 L 62.830078 83.080078 C 62.590078 83.080078 62.359139 83.160156 62.119141 83.160156 C 61.829141 83.210156 61.530467 83.260547 61.230469 83.310547 C 61.470469 83.190547 61.790938 83.009922 61.960938 82.919922 C 62.120936 82.839922 62.269766 82.759453 62.509766 82.689453 C 62.535785 82.68078 62.576228 82.645412 62.605469 82.632812 L 62.910156 80.939453 L 63.070312 80.970703 L 63.070312 79.111328 C 63.064846 79.105814 63.056027 79.095089 63.050781 79.089844 C 62.890781 78.929844 62.730156 78.859375 62.660156 78.859375 C 62.590156 78.859375 62.499609 78.779297 62.349609 78.779297 C 62.199611 78.779297 62.040625 78.699219 61.640625 78.699219 L 61.330078 78.699219 C 61.250078 78.779219 61.099531 78.779297 61.019531 78.779297 C 60.939531 78.779297 60.859297 78.859375 60.779297 78.859375 C 60.619297 78.939375 60.390234 79.019922 59.990234 79.169922 C 60.700234 78.859922 59.360391 79.249375 60.150391 78.859375 C 59.990391 78.859375 59.909764 78.939453 59.759766 78.939453 C 59.679766 78.939453 59.679609 78.939531 59.599609 79.019531 L 58.970703 79.019531 C 58.740703 79.099531 58.66 79.099688 58.5 79.179688 C 58.26 79.259686 57.949062 79.339922 57.789062 79.419922 C 57.753682 79.432229 57.725974 79.44111 57.693359 79.453125 C 57.850227 79.464435 57.714309 79.535778 57.419922 79.609375 C 57.309922 79.659375 57.199844 79.690703 57.089844 79.720703 C 57.089844 79.670703 57.080312 79.630078 57.070312 79.580078 L 57.039062 79.580078 C 56.949064 79.16008 56.719139 78.769531 56.369141 78.519531 C 56.369141 78.499531 56.340312 78.490234 56.320312 78.490234 C 56.310314 78.490234 56.299297 78.470703 56.279297 78.470703 C 56.329297 78.460703 56.379453 78.439686 56.439453 78.429688 C 56.419453 78.439686 56.409141 78.450234 56.369141 78.490234 C 56.529139 78.490234 56.609766 78.410078 56.759766 78.330078 C 56.759766 78.330078 56.839844 78.33 56.839844 78.25 C 56.919844 78.25 57.000314 78.169844 57.070312 78.089844 C 57.230312 78.009844 57.389141 77.849219 57.619141 77.699219 C 57.639141 77.669219 57.659688 77.629609 57.679688 77.599609 C 58.069686 77.299611 58.270547 76.899217 58.310547 76.449219 L 58.320312 76.449219 C 58.400312 76.439219 58.400469 76.439375 58.480469 76.359375 C 58.420469 76.369375 58.370547 76.389922 58.310547 76.419922 L 58.310547 76.349609 C 58.330547 76.349609 58.350625 76.319297 58.390625 76.279297 C 58.470625 76.279297 58.550859 76.199219 58.630859 76.199219 C 58.790859 76.119219 59.019688 76.039062 59.179688 76.039062 C 59.179688 76.099062 59.010078 76.170469 58.830078 76.230469 C 58.900078 76.210469 58.969531 76.199219 59.019531 76.199219 C 59.409531 76.039219 59.879375 75.960469 60.359375 75.730469 L 60.359375 75.890625 C 60.439375 75.890625 60.589922 75.810469 60.669922 75.730469 C 60.749922 75.730469 60.830391 75.650391 60.900391 75.650391 C 60.950391 75.600391 61.000781 75.580781 61.050781 75.550781 C 61.000781 75.590781 60.950156 75.650703 60.910156 75.720703 C 61.270156 75.530703 61.609611 75.319531 61.849609 75.019531 C 61.979609 74.889531 62.070391 74.730312 62.150391 74.570312 C 62.500389 74.010314 62.439842 73.299998 62.089844 72.75 C 62.879842 72.010002 62.680859 70.670234 61.880859 69.990234 C 61.800859 69.870234 61.729453 69.809531 61.689453 69.769531 C 61.609453 69.689531 61.689453 69.769609 61.689453 69.849609 L 61.689453 69.859375 C 61.619453 69.819375 61.560469 69.780234 61.480469 69.740234 C 61.470469 69.720234 61.459453 69.699453 61.439453 69.689453 C 61.359453 69.609453 61.200859 69.530936 61.130859 69.460938 C 61.050859 69.460938 60.970703 69.380859 60.970703 69.380859 C 60.890703 69.380859 60.810469 69.300781 60.730469 69.300781 C 60.570469 69.220781 60.419686 69.220703 60.179688 69.220703 L 60.179688 69.140625 L 59.470703 69.140625 C 59.310703 69.140625 59.230156 69.220703 59.160156 69.220703 C 59.000156 69.300703 58.999922 69.300859 58.919922 69.380859 C 58.839922 69.460859 58.839453 69.460937 58.689453 69.460938 C 58.609453 69.460938 58.529219 69.539063 58.449219 69.539062 C 58.369219 69.539062 58.290936 69.539141 58.210938 69.619141 L 58.210938 69.570312 L 58.210938 69.539062 L 58.519531 69.380859 C 58.519531 69.380859 58.329686 69.439219 58.179688 69.449219 C 58.069688 68.949219 57.749531 68.469217 57.269531 68.199219 L 57.339844 68.199219 C 57.409844 68.229219 57.46 68.249531 57.5 68.269531 C 57.5 68.199531 57.419922 68.199219 57.419922 68.199219 C 57.419922 68.199219 57.356086 68.144154 57.287109 68.128906 C 57.376264 68.052988 57.580078 67.980469 57.580078 67.980469 C 57.655103 67.980469 57.669833 68.000829 57.664062 68.019531 C 57.689596 68.006205 57.714739 68.005965 57.740234 67.980469 L 57.900391 67.980469 C 57.980391 67.980469 58.060938 67.900391 58.210938 67.900391 L 58.050781 68.060547 C 58.050781 68.060547 57.970703 68.060625 57.970703 68.140625 L 57.810547 68.140625 C 57.810547 68.140625 57.730469 68.140703 57.730469 68.220703 L 57.890625 68.220703 C 57.970625 68.220703 58.049219 68.140625 58.199219 68.140625 L 58.980469 67.980469 C 59.060469 67.980469 59.769375 67.980547 59.609375 68.060547 C 59.999375 68.060547 60.549611 67.9 61.099609 67.75 L 61.339844 67.75 C 61.419844 67.75 61.500391 67.669922 61.650391 67.669922 C 61.810389 67.589922 62.039219 67.509375 62.199219 67.359375 C 62.379219 67.179375 62.530156 67.000547 62.660156 66.810547 C 63.040796 66.429907 63.159046 65.843635 63.078125 65.289062 C 62.503559 64.445454 61.556925 64.195575 60.550781 63.980469 C 60.080782 63.900469 59.530625 63.749844 59.140625 63.589844 C 58.917102 63.490855 58.654674 63.444339 58.402344 63.384766 C 58.381717 63.37825 58.337948 63.377135 58.333984 63.367188 C 58.245091 63.347376 58.167485 63.311323 58.076172 63.294922 C 57.78414 63.365947 57.445996 63.437828 57.099609 63.5 C 56.709611 63.58 55.999922 63.660078 55.919922 63.580078 L 56.310547 63.580078 C 56.860545 63.500078 56.939531 63.419922 57.019531 63.419922 L 56.550781 63.419922 C 56.550781 63.419922 56.630859 63.419844 56.630859 63.339844 L 56.550781 63.339844 L 56.550781 63.259766 L 56.470703 63.179688 L 56.390625 63.099609 L 56.371094 63.080078 C 56.247042 63.059244 56.120027 63.039062 56 63.039062 L 55.130859 63.039062 C 54.82086 63.039062 54.499531 63.119062 54.269531 63.039062 C 53.923444 62.995015 53.603849 62.915111 53.28125 62.845703 z M 57.664062 68.019531 C 57.636184 68.034081 57.607915 68.060547 57.580078 68.060547 C 57.622565 68.060547 57.657527 68.040713 57.664062 68.019531 z M 57.070312 79.580078 L 57.160156 79.580078 C 57.363236 79.580078 57.513962 79.519216 57.693359 79.453125 C 57.679712 79.452141 57.678565 79.449219 57.660156 79.449219 C 57.780156 79.409219 57.780936 79.409688 57.710938 79.429688 L 57.699219 79.429688 C 57.629219 79.449686 57.499844 79.489297 57.339844 79.529297 C 57.239844 79.529297 57.150312 79.560078 57.070312 79.580078 z M 34.570312 94.839844 L 34.570312 94.759766 L 34.539062 94.759766 C 34.539062 94.789766 34.560314 94.819609 34.570312 94.849609 L 34.570312 94.839844 z M 32.236328 74.753906 C 32.214706 74.739217 32.190515 74.730226 32.169922 74.714844 C 32.180403 74.721781 32.188594 74.733696 32.199219 74.740234 C 32.210385 74.747214 32.224868 74.747221 32.236328 74.753906 z M 32.169922 74.714844 C 32.052163 74.636898 31.941436 74.539297 31.849609 74.419922 C 31.819609 74.419922 31.780469 74.399609 31.730469 74.349609 L 31.970703 74.589844 C 32.02153 74.640671 32.107041 74.667872 32.169922 74.714844 z M 45.650391 63.669922 C 45.821389 63.631058 45.976358 63.609611 46.095703 63.599609 L 45.800781 63.660156 C 45.910781 63.660156 45.990078 63.650625 46.080078 63.640625 C 46.111399 63.624965 46.137356 63.61155 46.166016 63.59375 C 46.174978 63.593446 46.191343 63.589844 46.199219 63.589844 L 46.589844 63.509766 C 46.039844 63.429766 45.410701 63.589844 44.470703 63.589844 C 44.630703 63.589844 45.470391 63.589922 45.650391 63.669922 z M 58.880859 62.925781 C 58.822584 62.933205 58.765025 62.935278 58.707031 62.941406 L 58.90625 62.970703 C 58.907496 62.970748 58.908915 62.970658 58.910156 62.970703 L 58.880859 62.925781 z M 60.429688 63.119141 L 62.392578 63.783203 C 62.16618 63.498891 61.867502 63.274604 61.5 63.199219 C 61.26 63.119219 61.109139 63.119141 60.869141 63.119141 L 60.429688 63.119141 z M 57.171875 63.173828 C 57.103466 63.198711 57.006677 63.221692 56.869141 63.269531 L 57.029297 63.269531 C 57.162074 63.269531 57.292695 63.221891 57.419922 63.203125 C 57.336981 63.193598 57.255411 63.182353 57.171875 63.173828 z M 49.019531 63.189453 C 49.099531 63.269453 49.179531 63.189453 49.019531 63.189453 z M 43.519531 63.740234 C 43.599531 63.820234 43.750314 63.820234 44.070312 63.740234 L 43.519531 63.740234 z M 34.810547 66.240234 L 34.810547 66.25 L 35.029297 66.25 C 34.869297 66.35 34.810781 66.509922 34.800781 66.669922 C 34.780781 66.639922 34.750469 66.610547 34.730469 66.560547 L 34.730469 66.400391 C 34.730469 66.320391 34.730547 66.240234 34.810547 66.240234 z M 63.533203 66.429688 C 63.524481 66.504307 63.460938 66.580078 63.460938 66.580078 L 63.460938 66.660156 C 63.522521 66.56778 63.521807 66.562149 63.548828 66.509766 C 63.544381 66.482255 63.538057 66.456535 63.533203 66.429688 z M 35.220703 67.259766 L 35.230469 67.259766 C 35.230469 67.259766 35.259531 67.269531 35.269531 67.269531 C 34.959533 67.499531 34.800781 67.889219 34.800781 68.199219 L 34.800781 67.820312 C 34.880781 67.580314 35.029375 67.429609 35.109375 67.349609 L 35.220703 67.259766 z M 56.960938 68.074219 C 57.063151 68.092768 57.15264 68.120608 57.220703 68.130859 C 57.194362 68.135459 57.163221 68.13756 57.150391 68.150391 C 57.140391 68.150391 57.119375 68.140859 57.109375 68.130859 C 57.109375 68.130859 57.04828 68.095163 56.960938 68.074219 z M 57.560547 68.210938 C 57.563947 68.214336 57.565781 68.213363 57.570312 68.214844 L 57.570312 68.210938 L 57.560547 68.210938 z M 57.570312 68.214844 L 57.570312 68.220703 L 57.589844 68.220703 C 57.589844 68.220703 57.579112 68.217719 57.570312 68.214844 z M 57.599609 68.220703 C 57.599609 68.220703 57.650391 68.260781 57.650391 68.300781 C 57.650391 68.230781 57.639609 68.230703 57.599609 68.220703 z M 34.410156 68.529297 L 34.460938 68.529297 C 34.420938 68.579297 34.379609 68.629453 34.349609 68.689453 C 34.379609 68.629453 34.410156 68.559297 34.410156 68.529297 z M 58.599609 69.789062 C 58.759609 69.789062 58.70612 69.842552 58.439453 69.949219 L 58.289062 69.949219 L 58.289062 69.869141 C 58.409062 69.869141 58.529609 69.860781 58.599609 69.800781 L 58.599609 69.789062 z M 33.345703 70.601562 C 33.325516 70.615993 33.330666 70.615917 33.300781 70.630859 L 32.990234 70.630859 L 32.910156 70.710938 C 32.910156 70.710938 32.829922 70.709064 32.669922 70.789062 C 32.669922 70.789062 32.589766 70.789141 32.509766 70.869141 C 32.429766 70.869141 32.429609 70.869219 32.349609 70.949219 C 32.189611 71.029219 32.110936 71.109453 31.960938 71.189453 C 31.730938 71.349453 31.570234 71.580236 31.490234 71.740234 C 31.410234 71.820234 31.410156 71.900469 31.410156 71.980469 L 31.410156 72.060547 C 31.330156 72.450545 31.330156 72.770158 31.410156 73.160156 C 31.490156 73.320156 31.490314 73.470938 31.570312 73.710938 C 31.650312 73.870936 31.730861 74.019688 31.880859 74.179688 C 32.120859 74.489686 32.510391 74.650547 32.900391 74.810547 C 33.071187 74.846504 33.261315 74.851706 33.457031 74.853516 C 33.437544 73.973238 33.390625 73.120467 33.390625 72.220703 C 33.390625 71.826284 33.373772 71.429666 33.357422 71.033203 L 33.210938 71.109375 C 33.150938 71.139375 33.130625 71.129375 33.140625 71.109375 C 32.670625 71.269375 32.900625 71.109139 33.140625 70.869141 C 33.212575 70.869141 33.282116 70.851807 33.351562 70.833984 C 33.348279 70.756383 33.34892 70.679156 33.345703 70.601562 z M 32.695312 71.039062 L 32.769531 71.039062 C 32.689531 71.119062 32.530936 71.119219 32.460938 71.199219 C 32.300938 71.359219 32.230312 71.509844 32.070312 71.589844 C 32.070312 71.509844 32.150391 71.509686 32.150391 71.429688 L 32.310547 71.269531 C 32.390547 71.189531 32.470781 71.189375 32.550781 71.109375 C 32.550781 71.109375 32.621275 71.103418 32.695312 71.039062 z M 31.660156 74.019531 C 31.700156 74.169531 31.769375 74.290156 31.859375 74.410156 L 31.900391 74.410156 C 31.900391 74.410156 31.820156 74.329531 31.660156 74.019531 z M 36.609375 74.580078 L 36.480469 74.630859 L 36.480469 74.599609 C 36.480469 74.599609 36.569375 74.590078 36.609375 74.580078 z M 60.939453 75.669922 C 60.789453 75.749922 60.630859 75.830078 60.630859 75.830078 C 60.740859 75.780078 60.849219 75.719922 60.949219 75.669922 L 60.939453 75.669922 z M 58.869141 76.179688 C 58.749141 76.209686 58.619531 76.250781 58.519531 76.300781 C 58.599531 76.280781 58.67 76.260469 58.75 76.230469 C 58.79 76.220469 58.829141 76.199453 58.869141 76.189453 L 58.869141 76.179688 z M 58.759766 76.300781 C 58.599766 76.300781 58.529766 76.380781 58.759766 76.300781 z M 32.339844 77.060547 C 32.329844 77.140547 32.320312 77.209064 32.320312 77.289062 C 32.320312 77.279064 32.299062 77.26 32.289062 77.25 C 32.289062 77.19 32.299844 77.130547 32.339844 77.060547 z M 32.609375 79.060547 C 32.609375 79.060547 32.650625 79.100547 32.640625 79.060547 L 32.609375 79.060547 z M 63.699219 80.591797 L 63.699219 80.742188 C 63.699256 80.691165 63.703065 80.642859 63.699219 80.591797 z M 33.710938 80.699219 L 33.869141 80.939453 L 33.710938 81.179688 L 33.630859 81.179688 L 33.470703 81.099609 L 33.550781 80.939453 C 33.550781 80.939453 33.550859 80.859375 33.630859 80.859375 L 33.710938 80.699219 z M 37.029297 81.919922 L 37.039062 81.919922 C 36.929064 81.979922 36.829453 82.039375 36.689453 82.109375 C 36.729453 82.069375 36.759297 82.020469 36.779297 81.980469 C 36.859297 81.960469 36.879297 81.949922 37.029297 81.919922 z M 35.220703 82.339844 C 35.220703 82.339844 34.749375 82.580547 34.359375 82.810547 C 34.086159 82.950062 34.017451 83.017061 33.859375 83.128906 L 33.859375 83.347656 C 33.960118 83.279334 34.199219 83.119141 34.199219 83.119141 C 34.262785 83.150924 34.104171 83.340041 33.859375 83.580078 L 33.859375 83.939453 C 33.988693 83.812216 34.041451 83.736139 34.199219 83.599609 C 34.669217 83.129611 35.219375 82.659842 35.609375 82.339844 C 35.059377 82.579844 35.44992 82.340547 34.669922 82.810547 C 34.359922 82.890547 35.060703 82.499844 35.220703 82.339844 z M 64.330078 83.080078 C 64.330078 83.080078 64.570781 83.160314 64.800781 83.320312 C 65.030781 83.480312 65.189453 83.710937 65.189453 83.710938 C 64.959453 83.480938 64.720469 83.320234 64.480469 83.240234 C 64.199337 83.167684 63.969831 83.10861 63.699219 83.095703 L 63.699219 88.25 L 63.230469 88.25 L 63.179688 88.490234 L 63.339844 88.490234 C 63.380128 88.470082 63.420712 88.450381 63.460938 88.410156 C 63.690936 88.250156 64.01 88.089453 64.25 87.939453 C 64.41 87.859453 64.480625 87.780936 64.640625 87.710938 C 64.800625 87.630938 64.879297 87.550703 65.029297 87.470703 C 65.259297 87.310703 65.339922 87.160078 65.419922 87.080078 C 65.579922 86.840078 65.580078 86.769453 65.580078 86.689453 L 65.5 86.689453 C 65.5 86.689453 65.419922 86.769453 65.419922 86.689453 C 65.419922 86.689453 65.500078 86.530781 65.580078 86.300781 C 65.580078 86.300781 65.580156 86.220703 65.660156 86.220703 C 65.660156 86.140703 65.740234 86.060547 65.740234 86.060547 L 65.740234 85.75 C 65.820234 85.120002 65.740314 84.810469 65.820312 84.730469 C 65.900312 84.890469 65.900391 85.199375 65.900391 85.359375 C 65.980391 84.889375 65.819686 84.259062 65.429688 83.789062 C 65.269688 83.549064 65.040781 83.400234 64.800781 83.240234 C 64.560781 83.160234 64.410078 83.080078 64.330078 83.080078 z M 33.367188 83.546875 C 33.040087 83.827458 32.281006 84.321167 32.400391 84.380859 C 32.400391 84.380859 32.869766 84.07 33.259766 83.75 C 33.304763 83.720321 33.305033 83.71904 33.349609 83.689453 L 33.367188 83.546875 z M 66.210938 85.179688 L 66.210938 85.339844 L 66.210938 85.179688 z M 31.179688 86.349609 C 31.079688 86.579609 31.029531 86.820314 31.019531 87.070312 C 30.999531 86.850314 31.049688 86.579609 31.179688 86.349609 z M 33.779297 88.800781 L 33.779297 88.806641 C 33.782816 88.804914 33.785606 88.80251 33.789062 88.800781 L 33.779297 88.800781 z M 32.847656 89.019531 L 32.849609 89.019531 C 32.944397 89.020478 32.951674 89.032003 32.970703 89.060547 C 32.830703 89.080547 32.780469 89.089844 32.730469 89.089844 C 32.769982 89.070087 32.826947 89.039525 32.847656 89.019531 z M 63 89.490234 L 63.390625 89.490234 L 63.310547 89.880859 L 63 89.880859 L 63 89.490234 z M 63.130859 90.730469 L 63.230469 92.089844 L 63.330078 90.759766 L 63.150391 90.759766 L 63.130859 90.730469 z M 34.419922 94.050781 C 34.419922 94.130781 34.429453 94.160156 34.439453 94.160156 C 34.439453 94.160156 34.419922 94.080781 34.419922 94.050781 z M 34.433594 94.4375 C 34.419355 94.429473 34.410156 94.472111 34.410156 94.599609 L 34.490234 94.679688 C 34.490234 94.679688 34.489064 94.73 34.539062 94.75 C 34.495314 94.60625 34.457324 94.450879 34.433594 94.4375 z M 63.470703 95.349609 L 63.470703 95.619141 L 63.519531 95.619141 L 63.470703 95.349609 z M 34.439453 95.400391 C 34.439453 95.400391 34.319297 95.449141 34.029297 95.619141 C 33.949297 95.699141 33.239219 96.089297 33.949219 95.779297 C 33.999219 95.729297 34.469453 95.410391 34.439453 95.400391 z M 34.960938 95.509766 C 34.900938 95.509766 34.720234 95.609297 34.490234 95.779297 C 34.330236 95.859297 34.019688 96.089531 34.179688 96.019531 L 34.970703 95.550781 C 34.970703 95.550781 34.990703 95.519531 34.970703 95.519531 L 34.960938 95.509766 z M 32.060547 96.880859 L 31.900391 97.039062 C 31.900391 97.119062 31.820312 97.279297 31.820312 97.279297 L 31.900391 97.199219 L 31.980469 97.119141 C 32.060469 97.119141 32.060625 97.039062 32.140625 97.039062 L 32.060547 96.880859 z M 32.220703 97.339844 L 32.220703 97.349609 C 32.220703 97.429609 32.140625 97.429766 32.140625 97.509766 C 32.140625 97.589766 32.140547 97.589922 32.060547 97.669922 L 31.980469 97.75 L 31.980469 97.939453 C 31.820469 98.389453 31.879611 98.890314 32.099609 99.320312 L 32.060547 99.320312 C 31.980547 99.320312 31.900391 99.240314 31.900391 99.320312 C 31.660391 98.930314 31.660156 98.530703 31.660156 98.220703 C 31.660156 98.140703 31.740234 98.060469 31.740234 97.980469 L 31.740234 98.060547 L 31.740234 98.140625 C 31.740234 98.060625 31.740314 97.980391 31.820312 97.900391 C 31.820312 97.860391 31.839375 97.81 31.859375 97.75 C 31.849375 97.77 31.830312 97.790314 31.820312 97.820312 C 31.820312 97.740314 31.900391 97.660156 31.900391 97.660156 C 31.940391 97.620156 31.96043 97.610117 31.980469 97.580078 C 31.940469 97.620078 31.899141 97.69 31.869141 97.75 C 31.949141 97.62 32.060547 97.5 32.060547 97.5 L 32.220703 97.339844 z M 49.726562 101.05273 C 50.020533 101.40969 50.473665 101.64059 51.119141 101.59961 C 52.412805 101.50552 53.681827 101.40275 54.953125 101.2793 L 49.726562 101.05273 z M 71.619141 132.30078 L 71.669922 132.30078 L 71.619141 132.30078 z M 35.458984 140.5293 L 35.458984 140.53906 C 35.769923 140.55166 36.022799 140.59589 36.140625 140.5957 L 36.140625 140.5293 L 35.458984 140.5293 z M 34.179688 140.68945 C 34.179688 140.68945 34.1 140.77031 34 140.82031 C 34.16 140.78031 34.279844 140.76953 34.339844 140.76953 C 34.419844 140.76953 34.5 140.76945 34.5 140.68945 L 34.189453 140.68945 L 34.179688 140.68945 z M 34 140.82031 C 34 140.82031 33.919141 140.82961 33.869141 140.84961 C 33.769181 140.87817 33.672949 140.91685 33.572266 140.96289 C 33.543043 140.97067 33.519653 140.97024 33.490234 140.98047 L 33.515625 140.98828 C 33.493231 140.99931 33.472462 141.00713 33.449219 141.01953 C 33.465025 141.01953 33.487918 141.0163 33.507812 141.01367 C 33.475806 141.02356 33.436189 141.03646 33.400391 141.05078 C 33.400391 141.05078 33.419453 141.01977 33.439453 141.00977 C 33.399453 141.02977 33.360312 141.05008 33.320312 141.08008 L 33.400391 141.05469 L 33.400391 141.08008 C 33.320391 141.08008 33.320234 141.16016 33.240234 141.16016 C 33.160234 141.24016 33.080078 141.24023 33.080078 141.24023 C 33.160078 141.18023 33.240547 141.13008 33.310547 141.08008 C 33.230547 141.08008 33.230391 141.16016 33.150391 141.16016 L 33.070312 141.24023 L 31.980469 141.24023 C 31.590469 141.24023 31.349609 141.32039 31.349609 141.40039 L 30.880859 141.32031 L 31.189453 141.32031 C 30.719455 141.24031 30.560078 141.32039 30.330078 141.40039 C 30.259054 141.40039 30.244403 141.41471 30.1875 141.4707 L 31.75 141.53906 L 31.669922 142.16992 L 29.859375 141.85938 L 29.919922 141.56445 C 29.789806 141.62803 29.539925 141.71103 29.292969 141.81055 L 29.150391 142.96094 L 28.945312 142.03125 C 28.846388 142.11413 28.716725 142.21296 28.669922 142.25977 C 28.616589 142.3131 28.616589 142.28635 28.669922 142.17969 C 28.669922 142.17969 28.429375 142.42047 28.359375 142.73047 C 28.229153 142.9258 28.211542 143.12774 28.207031 143.21094 C 28.138075 143.35611 28.133089 143.48169 28.132812 143.49805 C 28.126746 143.50541 28.1265 143.51217 28.119141 143.51953 C 28.119141 143.67953 28.039141 143.91039 28.119141 144.15039 C 28.119141 144.38039 28.199297 144.6193 28.279297 144.7793 C 28.279297 144.8593 28.359375 144.93945 28.359375 144.93945 L 28.359375 145.01953 C 28.439375 145.09953 28.6 145.33016 28.75 145.41016 C 28.900069 145.56023 29.10361 145.63085 29.195312 145.70508 C 29.166298 145.68876 29.139541 145.67535 29.130859 145.67969 C 29.130859 145.67969 29.130391 145.69094 29.150391 145.71094 C 29.150391 145.71094 29.230547 145.70906 29.310547 145.78906 C 29.316537 145.79187 29.337409 145.81055 29.339844 145.81055 C 29.419844 145.83055 29.539375 145.89094 29.609375 145.96094 C 29.769375 146.04094 29.839922 146.03906 29.919922 146.03906 L 30.080078 146.03906 C 30.240078 146.11906 30.159922 146.11914 29.919922 146.11914 C 29.679922 146.11914 29.290467 145.96047 28.980469 145.73047 C 29.140469 145.97047 29.289219 146.03914 29.449219 146.11914 C 29.609219 146.19914 29.759922 146.19922 29.919922 146.19922 L 30.550781 146.19922 C 30.790781 146.19922 31.100236 146.1993 31.490234 146.2793 L 30.699219 146.35938 C 30.899219 146.42936 31.140391 146.4507 31.400391 146.4707 C 30.800391 146.5107 30.199609 146.55961 29.599609 146.59961 C 29.359611 146.61961 29.150936 146.67977 28.960938 146.75977 C 28.940938 146.75977 28.910859 146.76906 28.880859 146.78906 C 28.850859 146.80906 28.809297 146.82008 28.779297 146.83008 L 28.660156 146.83008 L 28.470703 147.0293 L 28.269531 147.07031 L 28.269531 147.15039 L 28.189453 147.23047 L 28.029297 147.39062 C 27.869297 147.55062 27.790625 147.69945 27.640625 147.93945 C 27.560625 148.16945 27.480391 148.41031 27.400391 148.57031 C 27.400391 148.73031 27.320312 148.88086 27.320312 148.88086 C 27.320312 149.19086 27.400547 149.51031 27.560547 149.82031 C 27.720547 150.13031 27.949533 150.3693 28.269531 150.5293 C 28.429531 150.6093 28.580236 150.68977 28.740234 150.75977 C 28.820234 150.75977 28.900469 150.83984 28.980469 150.83984 L 29.970703 150.83984 C 29.900703 150.91984 29.839062 151.00961 29.789062 151.09961 C 29.759064 151.10961 29.749453 151.13039 29.689453 151.15039 C 29.689453 151.07039 29.370625 151.07039 29.140625 151.15039 L 28.830078 151.15039 C 28.750078 151.15039 28.669922 151.15031 28.669922 151.07031 C 28.429922 150.99031 28.200936 150.82961 27.960938 150.59961 L 28.199219 150.83984 L 28.279297 150.91992 L 28.119141 150.91992 L 28.199219 151 C 28.279219 151 28.359453 151.08016 28.439453 151.16016 C 28.519453 151.16016 28.6 151.24031 28.75 151.32031 C 28.83 151.32031 28.830156 151.32039 28.910156 151.40039 L 29.460938 151.40039 C 29.300938 151.48039 29.539141 151.48047 29.619141 151.48047 L 29.640625 151.48047 C 29.640625 151.50047 29.619141 151.5193 29.619141 151.5293 C 29.589141 151.5593 29.559062 151.60064 29.539062 151.64062 C 29.459064 151.72062 29.460859 151.80086 29.380859 151.88086 C 29.380859 151.96086 29.380781 151.95906 29.300781 152.03906 L 29.300781 152.14062 L 29.259766 152.14062 C 29.239766 152.11064 29.220703 152.06906 29.220703 152.03906 L 29.220703 152.15039 C 29.010703 152.17039 28.799609 152.18922 28.599609 152.19922 C 28.529609 152.19922 28.460625 152.2007 28.390625 152.2207 C 28.210625 152.2307 28.029844 152.24953 27.839844 152.26953 C 27.759844 152.26953 27.730781 152.24094 27.800781 152.21094 C 27.690781 152.21094 27.570156 152.2293 27.410156 152.2793 C 27.170156 152.2793 26.939219 152.35953 26.699219 152.51953 C 26.459219 152.59953 26.230312 152.75016 26.070312 152.91016 C 25.910314 153.07016 25.679609 153.29906 25.599609 153.53906 C 25.359611 154.00906 25.369453 154.48078 25.439453 154.80078 C 25.519453 155.11078 25.68 155.34961 25.75 155.34961 C 25.75 155.34961 25.669844 155.34953 25.589844 155.26953 C 25.579844 155.26953 25.570781 155.26 25.550781 155.25 C 25.590781 155.31 25.609922 155.36992 25.669922 155.41992 C 25.829922 155.65992 26.060861 155.8107 26.380859 155.9707 C 26.690859 156.1307 27.009922 156.20086 27.169922 156.13086 L 27.439453 156.13086 L 27.480469 156.13086 C 27.400469 156.21086 27.480547 156.35945 27.560547 156.43945 C 27.560547 156.51945 27.560469 156.59961 27.480469 156.59961 C 27.400469 156.67961 27.169609 156.67961 26.849609 156.59961 C 27.009609 156.67961 27.240547 156.75977 27.560547 156.75977 L 27.949219 156.75977 C 28.109219 156.75977 28.259922 156.75969 28.419922 156.67969 C 28.179922 156.67969 27.869688 156.51945 28.179688 156.43945 C 28.969686 156.59945 28.730002 156.51961 29.75 156.59961 C 29.44 156.59961 29.750783 156.28906 30.300781 156.28906 C 30.220781 156.36906 30.380703 156.51961 30.220703 156.59961 L 31.480469 156.28906 C 31.212268 156.35828 31.419648 156.46446 31.632812 156.49609 L 31.900391 151.2207 L 32.369141 151.2207 L 32.105469 156.46094 C 32.46144 156.43354 32.933552 156.41029 33.130859 156.35938 L 32.580078 156.35938 C 33.990076 156.27938 33.920082 155.89055 35.330078 155.81055 C 35.170078 155.89055 34.940627 156.19914 35.640625 156.11914 C 35.660625 156.10914 35.72 156.08055 35.75 156.06055 L 35.720703 156.11914 C 35.560703 156.42914 35.480469 156.83008 35.480469 156.83008 L 35.480469 156.51953 C 35.480469 156.44953 35.499531 156.38031 35.519531 156.32031 C 35.389531 156.66031 35.330391 156.95078 35.400391 157.30078 C 35.400391 157.38078 35.400469 157.4593 35.480469 157.5293 L 35.480469 157.68945 C 35.480469 157.76945 35.560547 157.84992 35.560547 157.91992 L 35.560547 158 L 35.480469 158 C 35.400469 158 35.320234 157.99992 35.240234 157.91992 C 35.080236 157.91992 35.000078 157.83992 35.080078 157.91992 C 35.240078 157.99992 35.550938 158.16055 35.710938 158.31055 C 35.790936 158.37055 35.850625 158.4207 35.890625 158.4707 C 35.460625 158.4807 35.039453 158.53906 34.689453 158.53906 C 34.289455 158.56906 33.959453 158.68914 33.689453 158.86914 C 33.709453 158.81914 33.760314 158.75945 33.820312 158.68945 C 33.980312 158.52945 34.140389 158.38086 33.900391 158.38086 C 33.900391 158.42174 33.812964 158.47944 33.742188 158.53906 C 33.714512 158.54448 33.568271 158.56633 33.320312 158.75 C 33.531415 158.60927 33.607669 158.59664 33.732422 158.54688 C 33.667992 158.60037 33.622083 158.65721 33.589844 158.68945 L 33.429688 158.76953 L 33.349609 158.84961 C 33.269609 158.92961 33.189375 159.01016 33.109375 159.16016 C 33.109375 159.24016 33.109297 159.32039 33.029297 159.40039 C 33.029297 159.47161 32.968999 159.48177 32.955078 159.53906 C 32.946299 159.54823 32.944094 159.56305 32.9375 159.57422 C 32.935601 159.59246 32.935686 159.64063 32.869141 159.64062 C 32.789141 159.64062 32.710859 159.7207 32.630859 159.7207 C 32.550859 159.7207 32.470391 159.80086 32.400391 159.88086 C 32.277607 159.94225 32.094365 160.0877 31.916016 160.24023 L 31.900391 160.56055 L 31.791016 160.54102 C 31.761446 160.60571 31.740397 160.667 31.689453 160.74023 C 31.689453 160.76023 31.679922 160.79031 31.669922 160.82031 C 31.629031 160.88652 31.609843 160.96321 31.576172 161.0332 L 32.203125 163.59766 C 32.620888 163.91909 33.140983 164.11858 33.679688 164.10938 L 33.720703 164.10938 L 34.109375 164.10938 C 34.269375 164.10938 34.349453 164.10945 34.189453 164.18945 C 34.269453 164.18945 34.35 164.1093 34.5 164.0293 L 34.509766 164.0293 C 34.529766 164.0093 34.550078 163.98094 34.580078 163.96094 C 34.660078 163.88094 34.740314 163.80078 34.820312 163.80078 L 35.060547 163.56055 C 35.364736 163.59482 35.646981 163.64464 35.925781 163.68945 L 39.769531 163.68945 L 39.769531 163.5293 L 43.609375 163.81055 L 43.490234 163.46094 L 43.380859 163.59961 L 43.470703 163.39062 L 43.259766 162.7793 L 43.220703 162.82031 L 43.25 162.75 L 43.220703 162.66016 L 43.289062 162.64062 L 43.759766 161.49023 L 42.189453 161.17969 L 44.230469 160.94922 L 44.240234 160.9707 L 44.480469 161.43945 L 44.720703 161.2793 L 44.560547 161.58984 L 44.720703 161.90039 L 43.890625 162.9707 L 44.169922 163.61914 L 43.679688 163.83008 L 48.330078 164.16992 L 48.330078 164.32031 L 48.330078 164.40039 L 46.041016 164.40039 C 46.510811 164.4224 46.980902 164.44973 47.449219 164.4707 C 47.589219 164.5107 47.870158 164.50977 48.160156 164.50977 L 48.169922 164.5 C 48.269922 164.5 48.370703 164.49977 48.470703 164.50977 L 48.539062 164.50977 C 49.289062 164.51977 50.050783 164.5293 50.800781 164.5293 C 51.140781 164.5793 51.420781 164.61992 51.050781 164.66992 C 50.190783 164.74992 50.339217 164.66984 49.949219 164.58984 C 50.339217 164.74984 48.849766 164.75039 49.009766 164.90039 L 49.699219 164.83008 C 49.699219 164.83008 49.640703 164.86039 49.720703 164.90039 C 49.800703 164.82039 50.510938 164.74031 51.210938 164.82031 C 51.570936 164.78031 51.589219 164.6593 51.449219 164.5293 C 52.756104 164.5293 54.073504 164.52929 55.380859 164.49219 L 55.919922 164.58008 L 55.919922 164.5 C 56.40992 164.56 56.419453 164.5307 56.439453 164.4707 C 57.194384 164.45315 57.951224 164.42661 58.712891 164.40039 L 48.849609 164.40039 L 48.849609 164.32031 L 48.849609 164.16016 L 48.849609 164 L 52.070312 163.76953 C 51.960313 163.71953 51.870312 163.68039 51.820312 163.65039 L 51.210938 163.36914 L 53.349609 163.50977 L 53.179688 163.2207 L 53.810547 162.91016 L 54.050781 163.2207 L 53.560547 163.51953 L 56.119141 163.67969 C 56.159141 163.34969 56.190703 163.04953 56.220703 162.76953 L 56.310547 161.21094 L 56.019531 161.41016 L 55.779297 161.09961 L 55.859375 161.01953 L 58.220703 159.06055 L 59.080078 158.2793 L 59.390625 158.58984 L 58.419922 159.18945 L 58.449219 159.2207 L 58.369141 159.2207 L 58.210938 159.44922 L 58.210938 159.36914 L 56.589844 160.99023 L 56.869141 163.38086 L 60.949219 163.38086 L 60.949219 163.61914 L 60.560547 163.69922 C 60.800547 163.69922 61.029531 163.69914 61.269531 163.61914 C 62.610686 163.54305 64.0298 163.4069 65.378906 163.39258 C 65.835222 162.83423 65.965119 162.04183 65.730469 161.34961 C 66.510467 161.18961 67.299846 160.96078 68.089844 160.80078 C 68.172938 160.78907 68.22699 160.74647 68.302734 160.72656 C 68.338171 159.67059 68.361477 158.6004 68.419922 157.57031 L 68.419922 157.32812 C 68.206793 157.24127 67.967635 157.18945 67.699219 157.18945 C 66.789221 157.18945 65.909295 157.22023 65.029297 157.24023 L 65.029297 157.10938 C 65.029297 156.80158 64.871701 156.56445 64.722656 156.32617 L 64.052734 156.45703 L 64.099609 156.55078 L 64.179688 156.63086 L 64.179688 156.71094 C 64.259686 156.79094 64.259766 156.94953 64.259766 157.01953 L 64.259766 157.25 L 63.869141 157.25 C 63.956967 157.00249 63.969799 156.73695 63.955078 156.47656 L 63.939453 156.48047 L 63.550781 155.76953 L 63.630859 155.68945 C 63.700859 155.53945 63.859453 155.38078 63.939453 155.30078 C 64.027958 155.15071 64.162024 155.04097 64.271484 154.9082 L 63.939453 154.99023 L 63.369141 155.15039 C 63.307322 155.08857 63.220263 155.04668 63.150391 154.99023 L 63.029297 155.09961 L 63.060547 155.13086 L 62.199219 155.83008 L 62.189453 155.83008 L 59.449219 158.26953 L 59.060547 158.26953 L 59.300781 158.03906 L 62.130859 155.5293 L 62.179688 155.5293 L 62.769531 155.03906 L 62.949219 154.83984 C 62.909215 154.81606 62.883117 154.78037 62.839844 154.75977 C 62.91865 154.7436 62.992794 154.72251 63.070312 154.70508 L 64.800781 152.78125 L 65.179688 153.16016 L 63.613281 154.57422 C 64.001255 154.47542 64.394354 154.38063 64.792969 154.28906 C 64.795871 154.28616 64.797881 154.2822 64.800781 154.2793 C 64.870781 154.1993 64.949297 154.19922 65.029297 154.19922 L 65.109375 154.19922 L 65.267578 154.04102 L 65.259766 154.0293 L 65.269531 154.03906 L 65.267578 154.04102 L 65.316406 154.11523 C 66.284544 153.74623 66.648124 152.81784 66.480469 151.96094 L 66.470703 151.93945 L 66.529297 152 C 66.529297 152.08 66.609375 152.16016 66.609375 152.16016 C 66.689375 152.32016 66.769531 152.47086 66.769531 152.63086 C 66.769531 152.79086 66.849531 152.93969 66.769531 153.17969 C 66.769531 153.48969 66.610859 153.88914 66.380859 154.11914 L 66.220703 154.2793 L 66.140625 154.35938 L 66.076172 154.42383 L 66.130859 154.90039 L 66.130859 155.06055 L 66.15625 155.31836 C 66.570641 155.20882 66.929783 154.94373 67.220703 154.58008 C 67.530703 154.11008 67.769453 153.55961 67.689453 152.84961 C 67.689453 152.84961 67.689375 152.92969 67.609375 152.92969 C 67.609375 152.94969 67.605156 152.96531 67.597656 152.97656 C 67.594613 153.07757 67.577427 153.12823 67.539062 153.01953 C 67.540928 153.0158 67.541253 153.00982 67.542969 153.00586 C 67.539193 153.00624 67.529297 153.00977 67.529297 153.00977 C 67.529297 152.87977 67.51 152.78922 67.5 152.69922 C 67.5 152.54922 67.469922 152.37922 67.419922 152.19922 C 67.399922 152.12922 67.380859 152.07047 67.380859 151.98047 C 67.330859 151.88047 67.320547 151.88016 67.310547 151.91016 C 67.310547 151.83016 67.310469 151.83008 67.230469 151.83008 C 67.150469 151.75008 67.230469 151.74992 67.230469 151.66992 L 67.230469 150.96094 C 67.215473 150.87284 67.171675 150.79034 67.146484 150.70312 L 67.009766 150.9707 L 66.849609 150.89062 L 66.689453 151.13086 L 66.849609 150.82031 L 66.689453 150.74023 L 67.009766 150.28711 C 66.90114 150.06543 66.762753 149.86236 66.599609 149.69922 C 66.289611 149.38922 65.970625 149.23039 65.890625 149.15039 C 65.650625 149.07039 65.58 149.07031 65.5 149.07031 L 65.5 149.15039 C 65.5 149.15039 65.58 149.23047 65.5 149.23047 L 65.439453 149.23047 C 65.428265 149.22138 65.410012 149.21779 65.398438 149.20898 L 64.710938 150.73047 L 64.240234 150.49023 L 65.185547 149.10156 C 65.075848 149.04196 64.980692 148.96958 64.849609 148.92969 L 64.869141 148.91992 C 64.949141 148.91992 65.029297 148.91984 65.029297 148.83984 C 65.109297 148.83984 65.189453 148.75977 65.189453 148.75977 C 65.229453 148.75977 65.270781 148.7407 65.300781 148.7207 C 65.222333 148.78489 65.312272 148.76447 65.433594 148.72656 L 66.369141 147.13086 L 66.359375 147.10938 L 66.445312 147.16211 C 66.445117 147.07233 66.445157 146.86867 66.369141 146.64062 L 66.369141 146.48047 C 66.369141 146.40047 66.289063 146.32031 66.289062 146.32031 C 66.209064 146.24031 66.289062 146.24023 66.289062 146.24023 C 66.289062 146.24023 66.369219 146.24016 66.449219 146.16016 C 66.529219 146.16016 66.529375 146.16008 66.609375 146.08008 L 66.769531 146.08008 C 66.849531 146.08008 66.929766 146 67.009766 146 C 66.849766 146.08 66.769531 146.08016 66.769531 146.16016 L 67.080078 146.16016 L 67 146.24023 C 67 146.24023 66.919922 146.24031 66.919922 146.32031 L 67 146.32031 C 67.08 146.32031 67.160156 146.24023 67.160156 146.24023 C 67.240156 146.24023 67.320312 146.16016 67.320312 146.16016 C 67.400312 146.16016 67.400469 146.08008 67.480469 146.08008 C 67.710469 145.92008 67.869219 145.7693 67.949219 145.5293 C 68.189219 145.1393 68.259766 144.74969 68.259766 144.42969 C 68.259766 144.15184 68.205359 143.90042 68.189453 143.68359 L 68.136719 143.92383 C 68.141472 143.96589 68.167736 144.06798 68.169922 144.08984 C 68.159469 144.14734 68.1375 144.11951 68.109375 144.05469 L 68.019531 144.46094 L 67.550781 144.38086 L 67.798828 143.24609 C 67.727211 143.10594 67.648932 142.96729 67.550781 142.86914 C 67.390781 142.63914 67.239922 142.40016 66.919922 142.16016 C 66.899922 142.16016 66.869609 142.12914 66.849609 142.11914 C 66.726952 141.96483 66.566234 141.8476 66.400391 141.73828 L 64.650391 143.35938 L 64.720703 143.43945 L 63.230469 145.24023 L 62.919922 145.00977 L 64.410156 143.05078 L 64.480469 143.14062 L 66.150391 141.58789 C 65.957259 141.50574 65.747176 141.44922 65.509766 141.44922 L 64.039062 141.44922 C 63.939064 141.39922 63.810936 141.34906 63.710938 141.28906 C 63.664043 141.27343 63.627464 141.26646 63.585938 141.25781 L 63.230469 141.78906 L 63.230469 141.94922 L 63.150391 141.94922 L 62.880859 142.17969 L 61.419922 145.09961 L 60.949219 144.85938 L 61.029297 144.69922 L 62.910156 141.64062 L 62.910156 141.57031 L 62.949219 141.57031 L 63.070312 141.08984 L 59.070312 141.08984 L 59.070312 140.92969 L 59.070312 140.87695 C 58.660659 140.88376 58.251101 140.89128 57.841797 140.89844 L 60.509766 143.18945 L 59.699219 143.13086 L 59.769531 143.34961 L 60.419922 143.74023 L 59.949219 144.13086 L 59.599609 143.60938 L 59.550781 143.66016 L 59.509766 143.49023 L 59.470703 143.41992 L 59.490234 143.40039 L 59.419922 143.05078 L 58.720703 142.30078 L 58.679688 142.41016 L 57.890625 142.16992 L 58.050781 141.7793 L 58.419922 141.99023 L 57.5 141 L 57.429688 140.90625 C 57.247539 140.90948 57.064909 140.91078 56.882812 140.91406 L 57.730469 141.63086 L 57.490234 141.93945 L 56.470703 141.08008 L 56.59375 140.91992 C 53.335164 140.97918 50.072202 141.03382 46.806641 141.08594 L 46.570312 141.85938 L 45 141.69922 L 45 141.39062 L 46.179688 141.31055 L 46.060547 141.09961 C 45.57928 141.10694 45.101154 141.11648 44.619141 141.12305 L 44.619141 141.78906 L 44.230469 141.86914 L 44.042969 141.13281 C 41.10539 141.20939 38.159267 141.21021 35.300781 141.28906 C 34.940783 141.28906 34.470781 141.26961 34.050781 141.34961 C 33.730783 140.96961 33.830938 140.90039 33.960938 140.90039 C 33.960938 140.90039 33.901575 140.90323 33.841797 140.9082 C 33.905593 140.87105 33.961544 140.84442 34.009766 140.82031 L 34 140.82031 z M 67.542969 153.00586 C 67.556003 153.00454 67.58021 153.00273 67.597656 152.97656 C 67.599372 152.9196 67.600661 152.86328 67.589844 152.76953 C 67.580466 152.86331 67.568843 152.94616 67.542969 153.00586 z M 63.621094 141.3457 C 63.771522 141.37605 63.905861 141.42313 64.039062 141.4707 L 63.779297 141.4707 C 63.779297 141.4707 63.729219 141.46922 63.699219 141.44922 L 63.621094 141.3457 z M 56.480469 141.40039 L 56.507812 141.4375 L 58.429688 142.82031 L 58.349609 142.90039 L 59.830078 145.41016 L 60.390625 145.41016 L 60 144.61914 L 60.630859 144.15039 L 60.789062 144.85938 L 61.339844 145.49023 L 60.009766 146.90039 L 59.699219 146.66016 L 60.089844 146.10938 L 59.730469 145.64062 L 59.699219 145.64062 L 59.619141 145.56055 L 56.507812 141.4375 L 56.470703 141.41016 L 56.480469 141.40039 z M 31.980469 141.55078 L 31.990234 141.56055 L 35.130859 141.73047 L 35.099609 141.73047 L 35.599609 141.80078 L 35.439453 142.18945 L 34.970703 142.0293 L 35.039062 141.74023 L 32.929688 142.41992 L 32.689453 143.43945 L 32.529297 142.25977 L 31.980469 142.01953 L 31.980469 141.55078 z M 34.179688 142.01953 L 34.730469 142.09961 L 34.650391 142.41016 L 34.099609 142.33008 L 34.179688 142.01953 z M 32.529297 142.65039 L 32.529297 142.66016 L 32.609375 143.75977 L 32.529297 143.83984 C 32.609297 143.99984 32.609375 144.15055 32.609375 144.31055 L 32.609375 144.85938 C 32.599375 146.17937 32.549062 147.50985 32.539062 148.83984 L 32.539062 149.49023 C 32.539062 149.66023 32.520469 149.83977 32.480469 150.00977 C 32.470469 150.03977 32.459219 150.07938 32.449219 150.10938 C 32.379219 150.34937 32.28039 150.57023 32.150391 150.74023 L 31.990234 151.13086 L 31.990234 146.33984 L 31.947266 146.33984 C 31.935714 146.34189 31.910043 146.34961 31.900391 146.34961 C 31.840391 146.36961 31.769219 146.38039 31.699219 146.40039 C 31.540158 146.35621 31.529289 146.31978 31.759766 146.29102 L 32.150391 144.38086 L 32.140625 144.38086 L 32.140625 143.91016 L 32.25 143.91016 L 32.289062 143.71094 L 32.140625 142.73047 L 32.529297 142.65039 z M 67.769531 142.72852 C 67.739492 142.7185 67.739297 142.7393 67.779297 142.7793 C 67.806202 142.8062 67.832435 142.90922 67.859375 142.96484 L 67.890625 142.82227 C 67.842239 142.78089 67.790981 142.73567 67.769531 142.72852 z M 67.392578 143.26953 C 67.492409 143.56248 67.528217 143.91414 67.470703 144.23047 C 67.390703 144.62047 67.079764 144.93984 66.759766 145.08984 C 66.759766 145.08984 66.679609 145.08992 66.599609 145.16992 L 66.519531 145.16992 C 66.359531 145.16992 66.280859 145.25 66.130859 145.25 C 65.980861 145.25 65.890312 145.25008 65.820312 145.33008 C 65.740314 145.33008 65.589844 145.33016 65.589844 145.41016 C 65.589844 145.49016 65.589922 145.57064 65.669922 145.64062 C 65.749922 145.95062 65.910156 146.27 65.910156 146.5 C 65.910156 146.66 65.910078 146.8107 65.830078 146.9707 C 65.750078 147.2807 65.519217 147.59977 65.199219 147.75977 C 65.279219 147.75977 65.359375 147.67977 65.359375 147.75977 C 65.359375 147.75977 65.359297 147.83992 65.279297 147.91992 C 65.279297 147.91992 65.199141 148 65.119141 148 C 65.119141 148 65.039063 148.00008 65.039062 148.08008 L 64.880859 148.08008 C 65.110859 147.77008 63.389764 148.24016 62.759766 148.16016 C 63.389764 148.24016 60.479688 148.55086 61.429688 148.63086 C 60.719688 148.71086 61.350859 148.55078 60.880859 148.55078 C 60.587361 148.62253 60.296932 148.6615 60.005859 148.70703 L 58.449219 149.78906 L 58.419922 149.76953 L 58.189453 149.92969 L 58.210938 149.94922 L 57.580078 150.58008 L 57.269531 150.26953 L 57.980469 149.73047 L 57.990234 149.73047 L 58.449219 149.41992 L 59.144531 148.78906 L 58.439453 148.78906 C 58.73465 148.74237 59.019123 148.6821 59.314453 148.63477 L 59.849609 148.15039 L 59.869141 148.14062 L 60.208984 148.47852 C 61.570033 148.25496 62.942537 148.04076 64.25 147.76953 C 65.429998 147.52953 65.819764 146.19975 65.509766 145.25977 C 65.669764 145.25977 65.900547 145.17969 66.060547 145.17969 C 67.098887 145.02146 67.490358 144.14011 67.392578 143.26953 z M 67.300781 144.69922 L 67.310547 144.69922 L 67.308594 144.70312 L 67.689453 144.85938 L 67.460938 145.49023 L 67.070312 145.33008 L 67.308594 144.70312 L 67.300781 144.69922 z M 37.580078 145.41016 C 37.440078 145.44016 37.290859 145.47977 37.130859 145.50977 C 36.980861 145.52977 36.829686 145.56008 36.679688 145.58008 L 36.669922 145.58008 C 36.629922 145.56008 36.939531 145.48047 36.769531 145.48047 L 36.490234 145.56055 C 36.240236 145.54055 35.98 145.54055 35.75 145.56055 L 35.960938 145.60938 C 35.960938 145.60938 35.920156 145.63064 35.910156 145.64062 C 35.590158 145.64062 35.200312 145.55094 34.820312 145.46094 C 35.747033 145.45097 36.663323 145.43991 37.580078 145.41016 z M 62.519531 145.94922 L 62.509766 145.96094 L 62.75 146.26953 L 62.279297 146.58008 L 61.730469 147.13086 L 61.419922 146.89062 L 61.970703 146.39062 L 61.970703 146.33984 L 62.519531 145.94922 z M 31.130859 146.01953 L 31.140625 146.01953 C 31.260625 146.01953 31.389844 146.06938 31.589844 146.10938 C 31.349844 146.10938 30.960781 146.18936 30.800781 146.10938 C 30.920781 146.02938 31.020859 146.00953 31.130859 146.01953 z M 32.800781 146.26953 L 32.849609 146.26953 C 32.849609 146.26953 32.849375 146.28906 32.859375 146.28906 C 32.839375 146.30906 32.839844 146.33984 32.839844 146.33984 C 32.739844 146.33984 32.770781 146.30953 32.800781 146.26953 z M 29.140625 146.39062 C 29.140625 146.39062 29.060234 146.39992 28.990234 146.41992 L 29.150391 146.41992 C 29.210391 146.41992 29.220625 146.38064 29.140625 146.39062 z M 59.380859 146.81055 L 59.689453 147.03906 L 59.619141 147.15039 L 59.689453 147.11914 L 59.439453 147.41992 L 59.369141 147.51953 L 59.349609 147.51953 L 58.429688 148.60938 L 58.119141 148.30078 L 58.910156 147.43945 L 59.380859 146.82031 L 59.380859 146.81055 z M 61.269531 146.9707 L 61.509766 147.2793 L 61.039062 147.66992 L 60.800781 147.35938 L 61.269531 146.9707 z M 27.970703 147.35938 C 27.730703 147.51936 27.580078 147.83023 27.580078 147.99023 C 27.660078 147.76023 27.810703 147.51936 27.970703 147.35938 z M 66.335938 147.90234 L 65.792969 148.62695 C 65.976831 148.48691 66.077777 148.35297 66.210938 148.21094 C 66.274138 148.08453 66.312653 148.00301 66.335938 147.90234 z M 57.890625 148.7793 L 58.130859 149.00977 L 57.820312 149.40039 L 57.660156 149.32031 L 57.5 149.08984 L 57.890625 148.7793 z M 56.720703 150.09961 L 57.029297 150.41016 L 56.400391 150.88086 L 55.929688 151.2793 L 56.240234 151.66992 L 55.650391 152.01953 L 55.609375 152.06055 L 55.060547 152.60938 L 54.830078 152.30078 L 55.300781 151.99023 L 55.880859 151.33984 L 54.669922 152.38086 L 54.359375 151.99023 L 56.320312 150.5 L 56.710938 150.10938 L 56.720703 150.09961 z M 66.140625 150.25 C 66.280625 150.41 66.399219 150.61031 66.449219 150.82031 C 66.529219 150.98031 66.529297 151.12906 66.529297 151.28906 L 66.529297 151.47656 L 66.679688 151.66992 L 66.449219 151.86328 L 66.449219 151.86914 C 66.448888 151.86771 66.447599 151.86667 66.447266 151.86523 L 65.740234 152.46094 L 65.509766 152.15039 L 65.589844 152.07031 L 66.291016 151.49805 C 66.240687 151.37853 66.214143 151.24845 66.140625 151.14062 C 66.210625 150.85064 66.200625 150.54977 66.140625 150.25977 L 66.140625 150.25 z M 57.089844 150.50977 L 57.099609 150.50977 L 57.09375 150.51367 L 57.330078 150.82031 L 56.859375 151.05078 L 56.550781 150.82031 L 57.09375 150.51367 L 57.089844 150.50977 z M 64.019531 150.74023 L 64.169922 150.74023 L 64.410156 150.9707 L 64.330078 151.05078 L 63.230469 152.46094 L 62.839844 152.15039 L 64.019531 150.74023 z M 29.390625 151.44922 C 29.310625 151.52922 29.230469 151.52938 29.230469 151.60938 L 29.230469 151.68945 C 29.230469 151.60945 29.310625 151.52922 29.390625 151.44922 z M 27.810547 152.16016 L 27.970703 152.16016 L 27.810547 152.16016 z M 54.119141 152.39062 L 54.109375 152.40039 L 54.300781 152.65039 L 54.509766 152.48047 L 54.820312 152.86914 L 53.449219 153.68945 L 53.410156 153.73047 L 52.230469 154.50977 L 52.230469 154.49023 L 50.320312 155.80078 L 50.589844 155.68945 L 48.080078 157.73047 L 48.789062 156.63086 L 48.480469 156.55078 L 48.789062 156.4707 L 48.789062 156.39062 L 48.949219 156.39062 L 49.740234 156.05078 L 49.580078 155.83984 L 51.449219 154.42969 L 51.380859 154.42969 L 52.869141 153.09961 L 52.570312 153.81055 L 53.310547 153.46094 L 53.900391 152.9707 L 53.019531 153.49023 L 52.859375 153.17969 L 54.119141 152.39062 z M 62.210938 152.7793 L 62.210938 152.78906 L 62.679688 153.09961 L 61.660156 154.2793 L 61.349609 154.03906 L 62.210938 152.7793 z M 61.099609 154.18945 L 61.109375 154.18945 L 61.103516 154.19336 L 61.339844 154.5 L 61.029297 154.74023 L 60.720703 154.42969 L 61.103516 154.19336 L 61.099609 154.18945 z M 65.978516 154.4668 C 65.962299 154.47383 65.945906 154.47904 65.929688 154.48242 C 65.941575 154.4884 65.958745 154.49402 65.970703 154.5 L 65.978516 154.4668 z M 65.345703 154.64062 L 65.132812 154.69336 L 64.330078 155.76953 L 64.400391 155.76953 C 64.480391 155.76953 64.560547 155.76945 64.560547 155.68945 C 64.720547 155.68945 64.789219 155.60937 64.949219 155.60938 C 65.109219 155.60938 65.269922 155.5293 65.419922 155.5293 C 65.499922 155.5293 65.580469 155.44922 65.730469 155.44922 C 65.746634 155.44922 65.776318 155.43426 65.792969 155.43359 L 65.800781 155.41992 L 65.345703 154.64062 z M 60.169922 154.98047 L 60.480469 155.28906 L 60.089844 155.75977 L 59.779297 155.44922 L 60.169922 154.98047 z M 25.460938 155.06055 C 25.460938 155.12055 25.520078 155.17922 25.580078 155.19922 C 25.580078 155.19922 25.559062 155.16062 25.539062 155.14062 L 25.460938 155.06055 z M 25.699219 155.76953 C 25.699219 155.76953 25.73 155.80055 25.75 155.81055 C 25.73 155.80055 25.719219 155.78953 25.699219 155.76953 z M 34.810547 156 C 34.600547 156.07 34.52 156.08008 34.5 156.08008 C 34.58 156.08008 34.660547 156.08 34.810547 156 z M 34.490234 156.07031 C 34.470602 156.07686 34.469853 156.08136 34.464844 156.08594 C 34.474363 156.08327 34.480564 156.08289 34.490234 156.08008 L 34.490234 156.07031 z M 34.464844 156.08594 C 33.932921 156.23498 33.634904 156.16318 33.939453 156.31055 C 34.879451 156.31055 34.180938 156.15039 34.960938 156.15039 C 35.181304 156.07693 34.408615 156.13732 34.464844 156.08594 z M 64.880859 156.31055 C 64.960859 156.39055 64.960937 156.47062 64.960938 156.39062 L 64.880859 156.31055 z M 58.359375 156.78906 L 58.369141 156.78906 L 58.599609 157.09961 L 57.660156 157.73047 L 57.419922 157.41992 L 58.359375 156.78906 z M 57.179688 157.65039 L 57.259766 157.65039 L 57.419922 157.88086 L 57.109375 158.11914 L 56.949219 157.88086 L 57.179688 157.65039 z M 69.080078 157.83008 L 69.080078 158.35938 L 69.160156 158.35938 C 69.180156 158.60937 69.200703 158.86914 69.220703 159.11914 C 69.240703 159.20914 69.240234 159.30086 69.240234 159.38086 C 69.27436 159.60694 69.264169 159.848 69.275391 160.08398 C 69.710965 159.41728 69.610998 158.4606 69.080078 157.83008 z M 56.400391 158.35938 L 56.560547 158.51953 L 55.849609 159.15039 L 55.769531 159.15039 L 55.849609 158.99023 L 55.769531 159.07031 L 55.689453 158.99023 L 55.769531 158.91016 L 56.400391 158.35938 z M 46.980469 159.30078 L 47.289062 159.30078 L 47.289062 159.68945 C 47.289062 159.76945 47.210859 159.76961 47.130859 159.84961 L 46.900391 159.84961 L 46.980469 159.30078 z M 55.539062 159.38086 L 55.539062 159.39062 L 55.769531 159.63086 L 55.539062 159.93945 L 55.300781 159.7793 L 55.460938 159.53906 L 55.539062 159.38086 z M 50.349609 159.92969 L 50.580078 159.92969 L 50.660156 160.00977 L 50.740234 160.00977 L 50.740234 160.08984 C 50.740234 160.16984 50.740156 160.17 50.660156 160.25 L 50.5 160.25 L 48.849609 162.21094 L 48.380859 161.66016 L 50.240234 160.16016 L 50.269531 160.08984 L 50.349609 159.92969 z M 31.509766 161.18555 C 31.414123 161.43426 31.349156 161.69712 31.369141 161.99023 C 31.369141 162.24406 31.426278 162.47664 31.509766 162.69531 L 31.509766 161.18555 z M 42.189453 161.33984 L 42.349609 161.33984 L 42.429688 161.58008 L 42.189453 161.58008 L 42.269531 161.5 L 42.269531 161.41992 L 42.189453 161.33984 z M 53.669922 161.36914 L 53.759766 161.66992 L 53.380859 161.78906 L 53.289062 161.49023 L 53.669922 161.36914 z M 31.980469 161.5 L 32.369141 161.66016 L 32.289062 162.21094 L 31.980469 162.21094 L 31.980469 161.5 z M 41.710938 161.5 L 41.720703 161.5 L 42.029297 161.58008 L 41.789062 162.13086 L 41.480469 161.89062 L 41.710938 161.5 z M 55.929688 161.57031 L 55.939453 161.57031 L 56.169922 161.96094 L 55.359375 162.41992 L 55.769531 162.2793 L 55.140625 162.75 L 54.910156 162.66992 L 54.830078 162.66992 L 54.830078 162.55078 L 54.75 162.42969 L 55.929688 161.57031 z M 52.869141 161.81055 L 53.029297 162.11914 L 52.480469 162.42969 L 52.320312 162.19922 L 52.869141 161.81055 z M 43.984375 162.13281 L 43.490234 162.58008 L 43.679688 162.51953 L 43.75 162.68945 L 43.984375 162.13281 z M 42.029297 162.19922 L 42.5 163.46094 L 42.339844 163.53906 L 42.029297 163.61914 L 41.720703 162.35938 L 42.029297 162.19922 z M 56.560547 162.2793 L 56.539062 162.67969 C 56.579062 162.96969 56.610625 163.25906 56.640625 163.53906 L 56.720703 163.53906 L 56.560547 162.2793 z M 35.189453 163.61914 L 35.089844 163.7207 L 35.099609 163.7207 C 35.099609 163.7207 35.119141 163.7393 35.119141 163.7793 C 35.119141 163.7793 35.040859 163.85945 34.880859 163.93945 C 34.800859 164.01945 34.720625 164.01961 34.640625 164.09961 C 34.610625 164.09961 34.570781 164.12064 34.550781 164.14062 C 34.520781 164.17062 34.550703 164.17969 34.720703 164.17969 L 34.880859 164.01953 C 34.880859 164.01953 34.960938 164.01945 34.960938 163.93945 L 35.039062 163.93945 L 35.199219 163.7793 L 35.769531 163.7793 L 35.769531 163.70703 C 35.756533 163.70696 35.754415 163.69922 35.740234 163.69922 C 35.590236 163.69922 35.349453 163.61914 35.189453 163.61914 z M 34.880859 163.93945 L 34.960938 163.85938 L 35.039062 163.7793 L 35.099609 163.7207 C 35.099609 163.7207 35.040936 163.7393 34.960938 163.7793 C 34.880938 163.8593 34.800703 163.85945 34.720703 163.93945 C 34.720703 163.93945 34.650312 164.00977 34.570312 164.00977 L 34.580078 164.00977 C 34.530078 164.05977 34.490234 164.11992 34.490234 164.16992 L 34.550781 164.13086 C 34.590781 164.09086 34.740861 164.02945 34.880859 163.93945 z M 59.380859 163.76953 L 59.380859 163.92969 C 59.430859 163.91969 59.519531 163.91992 59.519531 163.91992 L 59.490234 163.76953 L 59.380859 163.76953 z M 55.019531 163.82227 C 55.369097 163.85084 55.723424 163.88426 56.080078 163.91992 C 56.090078 163.88992 56.089844 163.83984 56.089844 163.83984 L 55.019531 163.82227 z M 38.650391 164.40039 L 38.650391 164.48047 L 38.960938 164.40039 L 38.650391 164.40039 z M 43.035156 164.40039 C 43.140052 164.41017 43.28436 164.41992 43.380859 164.42969 C 43.494485 164.42969 43.466753 164.41402 43.582031 164.40039 L 43.035156 164.40039 z M 59.074219 164.40039 C 59.173779 164.43985 59.301752 164.45449 59.529297 164.5 C 59.609297 164.5 59.69 164.41992 60 164.41992 C 60.23 164.41992 60 164.5 60 164.5 C 60.118594 164.5 60.404629 164.45576 60.322266 164.40039 L 59.074219 164.40039 z M 44.230469 164.48047 L 44.939453 164.56055 L 45.099609 164.56055 C 44.709611 164.48055 44.240234 164.48047 44.240234 164.48047 L 44.230469 164.48047 z M 45.330078 164.5293 C 45.270078 164.5293 45.209922 164.54031 45.169922 164.57031 L 45.710938 164.57031 C 45.650938 164.57031 45.480078 164.5293 45.330078 164.5293 z M 47.589844 164.56055 L 47.591797 164.5625 L 47.599609 164.56055 L 47.589844 164.56055 z M 47.591797 164.5625 L 47.359375 164.64062 L 47.75 164.7207 L 47.591797 164.5625 z M 28.869141 164.58984 C 28.899141 164.59984 28.919922 164.64063 28.919922 164.64062 L 28.869141 164.58984 z M 46.109375 164.64062 L 46.580078 164.7207 L 46.820312 164.7207 L 46.109375 164.64062 z M 52.609375 164.7207 C 52.196163 164.7221 51.954547 164.80078 52.390625 164.80078 L 52.699219 164.80078 L 52.699219 164.7207 L 52.619141 164.7207 L 52.609375 164.7207 z M 34.429688 180.66211 C 34.426463 180.66494 34.42315 180.66712 34.419922 180.66992 L 34.419922 180.7207 L 34.429688 180.66211 z M 33.839844 180.98438 C 33.626053 181.05407 33.407347 181.08961 33.189453 181.07031 C 33.902843 182.69065 33.312366 184.44832 33.390625 186.14062 C 33.550625 188.81062 34.330316 191.48047 34.570312 194.23047 C 34.730312 196.11047 34.879066 198.00086 35.039062 199.88086 C 35.359062 201.06086 35.44 202.31031 35.75 203.57031 C 36.06 204.67031 36.449453 205.68906 36.689453 206.78906 C 36.769453 207.09906 36.849609 207.50055 36.849609 207.81055 C 37.709609 210.09051 38.739535 212.36066 39.519531 214.64062 C 40.459527 217.31062 41.329535 220.06055 42.269531 222.81055 C 42.819531 224.38055 43.289844 225.94953 43.839844 227.51953 C 44.079844 228.14953 44.310781 228.85055 44.550781 229.56055 C 45.330777 231.99051 47.139762 235.13078 46.509766 237.80078 C 47.449762 233.72082 48.780942 229.79914 49.960938 225.86914 C 50.900934 222.80914 51.290867 219.83 52.630859 217 C 53.880855 214.33 55.45907 211.90051 56.789062 209.31055 C 60.63905 201.85055 61.980699 193.13051 60.720703 184.81055 C 60.617553 184.10643 60.519388 183.34189 60.537109 182.60547 C 60.197234 182.3497 59.939068 181.98313 59.816406 181.57617 C 59.495286 181.61471 59.18473 181.66668 58.859375 181.69922 C 57.882214 181.74959 56.908423 181.7655 55.931641 181.80273 C 53.999553 181.87638 52.066819 181.95663 50.140625 182.00977 C 49.700625 182.00977 49.289375 182.02906 48.859375 182.03906 L 48.960938 182.16992 L 45.980469 182.16992 L 45.820312 182.33008 L 45.050781 182.25 L 44.800781 182.25 L 44.800781 182.23047 L 41.970703 181.93945 L 42.359375 182.25 L 38.179688 181.62891 L 38.109375 181.69922 C 38.039375 181.76922 37.899763 181.84016 37.759766 181.91016 C 37.719766 181.94016 37.680625 181.97977 37.640625 182.00977 C 36.463074 182.99522 35.02339 182.21797 34.714844 181.11523 L 34.107422 181.02344 C 34.076688 181.06591 34.063545 181.10638 34.019531 181.15039 C 34.019531 181.15039 34.042052 181.06378 34.052734 181.01562 L 33.839844 180.98438 z M 40.939453 181.34961 L 40.939453 181.35938 C 41.490536 181.4134 42.049278 181.4436 42.603516 181.48438 C 42.577311 181.47243 42.553015 181.45652 42.527344 181.44336 C 42.371181 181.42945 42.217539 181.41347 42.060547 181.40039 L 40.939453 181.34961 z M 43.763672 181.5625 C 43.757232 181.56449 43.750583 181.56646 43.744141 181.56836 C 43.836844 181.5733 43.926523 181.58537 44.019531 181.58984 L 43.763672 181.5625 z M 41.640625 181.75977 L 41.630859 181.76953 L 41.669922 181.78906 L 43.720703 181.98047 C 43.070704 181.91047 42.39039 181.82977 41.650391 181.75977 L 41.640625 181.75977 z M 68.900391 221.46094 C 68.910391 221.47094 68.930938 221.5507 68.960938 221.7207 C 68.920938 221.5807 68.900391 221.46094 68.900391 221.46094 z M 45.740234 255.16016 C 45.750234 255.17016 45.770781 255.19 45.800781 255.25 C 45.740781 255.2 45.740234 255.16016 45.740234 255.16016 z " />
  </g>
  <g
     id="Pinke_Auenlinie"
     data-name="Pinke Auenlinie">
    <g
       class="cls-14"
       clip-path="url(#clippath-1)"
       id="g53">
      <g
         id="g2107">
        <path
           id="path2107"
           class="cls-13"
           d="M74.76,63.76c0-.08.01-.16.02-.24.05-.45.13-.89.16-1.34.03-.45.03-.9.02-1.35-.01-.45-.03-.89-.06-1.34-.29-4.88-1.75-9.77-1.06-14.6.62-4.35-.75-8.47-4.19-11.75-.48-.45-.74-1.11-.88-1.76-.5-2.24,1.37-6.03-.51-7.35-5.17-3.65-10.05-5-16.25-6.27.24-3.24-.68-6.29-1.9-9.26-1.22.87-1.99,1.88-2.43,3.38-.23.78-.67,1.99-.69,2.81-.03,1.22-.38,1.86-.42,3.08-2.37.22-4.74.45-7.12.67-1.13.11-2.37.19-3.32-.44-.85-.57-1.28-1.59-2.02-2.3-1.56-1.49-4.5-1.05-5.55.84-.62,1.11-.6,2.46-.59,3.74,0,.24,0,.52-.18.69-.26.25-.68.13-1.04.11-.89-.06-1.69.63-2.06,1.44-.36.81-.38,1.74-.4,2.63-.04,2.82-.52,5.39-.56,8.21-2.81-.14-6.2-.12-7.72.55-1,.86-1.21,9.45-.62,14.39.06.52.16,1.09.56,1.42.25.21.57.29.89.36,1.89.41,3.85.5,5.76.26-.37.99-.27,2.08-.18,3.13.26,2.83.52,5.66.78,8.49.16,1.69.32,3.42,1.04,4.95.65,1.39,1.66,2.42,3,3.17,1.35,13.48-.12,27.61,1.21,40.54.46,4.44-.73,8.86-2.27,13.04-.44,1.2-.98,2.4-1.83,3.35-.68.76-.67,1.27-1.35,2.03-2.14,2.39-2.08,5.96-1.9,9.16.11,1.86.08,3.98,1.46,5.23.26.24.56.44.72.76.11.23.13.49.14.74.13,2.24-.19,4.97-.28,7.21-.31,7.67-.61,15.33-.92,22.99-.1,2.48-.21,5.01-1.03,7.35-.68,1.92-1.81,3.64-2.8,5.42-2.25,4.06-2.4,8.92-2.47,13.56-.07,5.45.46,10.91,1.59,16.25,1.3,6.14,3.37,12.08,5.54,17.97,6.5,17.66,13.88,34.99,22.11,51.91,1.72-2.73,2.61-5.15,4.21-7.88,2.26-3.87,4.1-8.31,6.36-12.18,1.27-2.17,2.53-4.34,3.67-6.58,2.1-4.15,3.72-8.53,5.33-12.89,2.49-6.73,4.99-13.47,7.48-20.2.88-2.37,1.76-4.75,2.48-7.18,2.88-9.74,3.64-20.62,1.12-30.45-1.09-4.26-2.27-7.99-2.49-12.39-.52-10.36.68-20.18.68-30.56,0-.31-.04-.48-.02-.95.22-5.45,1.14-5.04-.25-10.31-.17-.66.4-3.79.4-5.02s.27-5.01.1-6.1c0-1.97.04-3.73.04-4.77,0-.24.12-2.11.14-2.53.1-1.84.23-1.56.17-2.7-.01-.26.2-1.16.23-1.6.03-.69,1.06-.78,1.14-.86.1-.09,1.12-.13,1.74-.18.15-.01.99-.13,1.09-.26.07-.09.23-.29.23-.41.04-4.65.09-9.13.13-13.79.03-3.27-.31-6.4-.23-9.67.02-.68-.05-1.65-.07-2.33-.04-1.73-.06-3.17.18-4.88.35-2.47.28-6.71-.26-7.43-.53-.72-3.74-.13-4.16-.54-.16-.16-.13-.55-.14-.75-.02-.52,0-1.04.01-1.55.05-1.42.14-2.84.21-4.26.04-.88,0-1.76.07-2.63Z" />
      </g>
    </g>
  </g>
</svg>
