<?xml version="1.0" encoding="UTF-8" standalone="no"?>
<svg
   version="1.1"
   width="93.5716pt"
   height="296.107pt"
   viewBox="0 0 93.5716 296.107"
   id="svg2108"
   sodipodi:docname="F.Silkscreen.svg"
   inkscape:version="1.3.2 (091e20e, 2023-11-25)"
   xmlns:inkscape="http://www.inkscape.org/namespaces/inkscape"
   xmlns:sodipodi="http://sodipodi.sourceforge.net/DTD/sodipodi-0.dtd"
   xmlns="http://www.w3.org/2000/svg"
   xmlns:svg="http://www.w3.org/2000/svg">
  <sodipodi:namedview
     id="namedview2108"
     pagecolor="#ffffff"
     bordercolor="#000000"
     borderopacity="0.25"
     inkscape:showpageshadow="2"
     inkscape:pageopacity="0.0"
     inkscape:pagecheckerboard="0"
     inkscape:deskcolor="#d1d1d1"
     inkscape:document-units="pt"
     inkscape:zoom="3.8275518"
     inkscape:cx="60.874421"
     inkscape:cy="110.51451"
     inkscape:window-width="960"
     inkscape:window-height="1016"
     inkscape:window-x="26"
     inkscape:window-y="23"
     inkscape:window-maximized="0"
     inkscape:current-layer="svg2108" />
  <defs
     id="defs2">
    <clipPath
       id="clip_0">
      <path
         transform="matrix(1,0,0,-1,0,296.107)"
         d="M0 296.107H93.572V0H0Z"
         id="path1" />
    </clipPath>
    <clipPath
       id="clip_1">
      <path
         transform="matrix(1,0,0,-1,0,296.107)"
         d="M0 296.107H93.572V0H0Z"
         id="path2" />
    </clipPath>
  </defs>
  <g
     id="layer_1"
     data-name="Ebene 1"
     style="display:inline">
    <g
       clip-path="url(#clip_0)"
       id="g2106"
       style="display:inline">
      <path
         id="path3"
         style="display:inline;fill:#ffffff;fill-opacity:1"
         inkscape:label="w_flame"
         d="M -8.716147 118.25059 L -8.716147 118.13194 L -8.5594088 118.09385 L -8.716147 118.25059 z M -7.019858 118.24473 C -7.1621163 118.24582 -7.3128866 118.25019 -7.4095064 118.23154 C -7.1853615 118.17998 -6.9609511 118.12817 -6.7532564 118.09385 L -5.8904634 118.09385 L -5.4964204 118.09385 L -5.9959322 118.15977 C -6.2278263 118.14636 -6.4569233 118.14175 -6.6741548 118.17295 C -6.7847665 118.18517 -6.9060087 118.2258 -7.019858 118.24473 z M -7.7215181 118.13047 C -7.9697521 118.02882 -8.2365288 117.89981 -8.9519869 117.85801 C -9.4229814 117.85801 -9.7376657 117.85768 -9.4236666 117.93565 L -10.443198 117.77891 C -10.758194 117.77891 -10.67957 117.77901 -10.365561 117.85801 L -11.935874 117.62217 C -12.170871 117.54417 -12.641306 117.38633 -12.876303 117.38633 C -13.269303 117.38633 -12.641681 117.46543 -12.798667 117.46543 L -13.662924 117.30723 C -14.055924 117.30723 -13.349023 117.54453 -12.72103 117.54453 C -13.53316 117.76543 -13.462995 117.43413 -14.949057 117.32774 C -15.062402 117.27084 -15.207531 117.25126 -15.366538 117.24278 C -15.403378 117.21678 -15.48084 117.18679 -15.625815 117.15049 C -15.860815 117.15049 -16.253449 117.07279 -16.724448 116.99375 C -16.724448 117.07275 -17.275653 116.99408 -17.903647 116.91611 L -17.903647 117.07285 C -18.609643 116.91585 -18.531647 116.83691 -18.924643 116.75791 C -19.709639 116.67991 -19.866276 116.75802 -20.023276 116.83701 C -21.201268 116.68001 -19.158603 116.83754 -20.572593 116.52354 C -21.592586 116.44554 -22.299388 116.20912 -23.477378 115.89512 C -24.184374 115.81712 -23.399588 115.97276 -23.635581 115.97276 L -24.262534 115.73838 C -24.419531 115.73838 -24.341636 115.73849 -24.341636 115.81748 C -24.891632 115.65948 -24.340436 115.65954 -25.204429 115.50254 C -25.283429 115.42454 -25.36237 115.42344 -25.51937 115.42344 L -25.75521 115.42344 L -25.911948 115.42344 L -25.989585 115.42344 L -26.068686 115.42344 L -26.146323 115.42344 L -26.225425 115.42344 C -26.304425 115.42344 -26.305625 115.34434 -26.383628 115.34434 L -26.619468 115.10996 C -26.775468 114.95296 -26.85374 114.71654 -26.774741 114.48154 C -26.774741 114.27759 -26.713191 114.13362 -26.59603 113.99668 C -26.72573 113.79651 -26.774741 113.58172 -26.774741 113.46055 L -26.774741 113.30381 L -26.774741 113.22471 C -26.853741 113.14671 -26.853941 113.14731 -26.932944 112.99033 C -26.965833 112.95702 -26.998123 112.90637 -27.031089 112.85703 L -27.035483 112.20078 L -27.010581 112.20518 L -26.931479 111.10508 L -27.041343 111.10508 L -27.042808 110.8707 C -26.988157 110.80815 -26.948428 110.77558 -26.853843 110.6334 C -26.853843 110.6334 -26.853738 110.55576 -26.774741 110.55576 L -26.853843 110.55576 L -26.932944 110.47666 C -26.970371 110.43924 -27.008221 110.42074 -27.045737 110.40195 L -27.045737 110.34483 C -26.960768 110.36817 -26.883775 110.39902 -26.774741 110.39902 C -26.735741 110.39902 -26.697061 110.3995 -26.667808 110.40928 C -26.654308 110.41428 -26.643881 110.42185 -26.635581 110.43125 C -26.634717 110.42925 -26.633451 110.42786 -26.632651 110.42686 C -26.648831 110.41886 -26.649698 110.41358 -26.667808 110.40928 C -26.678178 110.40728 -26.686564 110.39902 -26.697104 110.39902 C -26.813633 110.34039 -26.929432 110.28142 -27.045737 110.22324 L -27.048667 109.9127 C -26.901646 109.99005 -26.769777 110.06319 -26.619468 110.16319 L -26.462729 110.16319 C -26.658009 110.07974 -26.853367 109.99643 -27.048667 109.9127 L -27.089683 102.78184 L -27.718101 102.78184 L -27.718101 102.93858 C -27.718101 103.25258 -27.717999 103.48773 -27.638999 103.72373 C -27.560987 104.3517 -27.561362 104.90092 -27.561362 105.52988 C -27.561362 105.70988 -27.571062 105.88069 -27.574546 106.05723 C -27.652961 106.03448 -27.740674 106.00303 -27.795737 106.00303 C -27.846197 106.00303 -27.931933 105.96783 -28.025718 105.92393 C -28.027818 105.92428 -28.029477 105.92358 -28.031577 105.92393 C -28.254749 105.99863 -28.544328 106.08063 -28.774253 106.22129 C -28.656647 106.14236 -28.555556 106.04646 -28.424155 106.00303 C -28.314746 105.96623 -28.188038 105.93072 -28.068198 105.90195 C -28.108458 105.88245 -28.146598 105.86583 -28.188315 105.84483 C -28.267315 105.84483 -28.346519 105.76719 -28.346519 105.76719 L -28.503257 105.61045 C -28.660257 105.53145 -28.738733 105.37497 -28.816733 105.29697 C -28.895733 105.13997 -28.973573 105.05993 -29.052573 104.90293 C -29.130573 104.74593 -29.209312 104.66835 -29.209312 104.51035 C -29.366309 103.96135 -29.288675 103.41078 -29.131675 103.09678 C -29.053675 102.93978 -28.973835 102.78367 -28.895835 102.70567 L -28.739097 102.54893 C -28.739097 102.54893 -29.053675 102.54867 -29.131675 102.70567 L -29.052573 102.62656 L -28.973472 102.54893 C -28.895472 102.46993 -28.816733 102.46972 -28.816733 102.39072 C -28.659736 102.31272 -28.582154 102.23388 -28.424155 102.15488 C -28.346155 102.15488 -28.267417 102.07578 -28.267417 102.07578 L -28.110679 102.07578 C -28.056419 102.07578 -28.001344 102.07146 -27.946616 102.06846 C -27.914406 102.04496 -27.883996 102.01945 -27.849936 101.99815 L -27.874839 101.99815 L -28.18978 101.99815 L -28.346519 101.99815 L -28.424155 101.99815 C -28.401825 101.95295 -28.392714 101.92845 -28.390464 101.91465 C -28.344104 101.89605 -28.332914 101.84141 -28.267417 101.84141 L -28.18978 101.84141 L -28.031577 101.84141 C -28.031577 101.76341 -28.110679 101.7622 -28.110679 101.6832 C -28.040889 101.753 -27.907829 101.83013 -27.76937 101.9542 C -27.72734 101.931 -27.68355 101.90965 -27.638999 101.88975 L -27.638999 101.84141 L -27.638999 101.60557 L -27.638999 101.36973 C -27.638999 101.31993 -27.630697 101.27123 -27.611167 101.22178 C -27.583087 101.29538 -27.537817 101.36973 -27.482261 101.36973 C -27.447771 101.40423 -27.432852 101.417 -27.422202 101.421 C -27.455403 101.33559 -27.461226 101.24735 -27.479331 101.16026 L -27.325522 101.21152 L -27.168784 100.42637 L -27.482261 100.26963 L -27.638999 100.66074 C -27.639883 100.66164 -27.63956 100.66278 -27.640464 100.66367 C -27.640464 100.74267 -27.718101 100.82041 -27.718101 100.82041 C -27.718101 100.83285 -27.713138 100.83382 -27.712241 100.84531 L -27.795737 101.05479 L -27.647788 101.10459 C -27.646557 101.11196 -27.640464 101.12659 -27.640464 101.13389 C -27.640464 101.14155 -27.632332 101.15364 -27.63021 101.16318 C -27.60352 101.16018 -27.580052 101.15142 -27.561362 101.13242 C -27.590232 101.16162 -27.599717 101.19121 -27.611167 101.22031 C -27.618689 101.20058 -27.627041 101.1821 -27.63021 101.16465 C -27.7149 101.17365 -27.8338 101.11554 -27.95394 101.05625 C -28.03194 101.05625 -28.110679 101.05592 -28.110679 101.13389 C -28.110679 101.21289 -28.188315 101.29073 -28.188315 101.36973 L -28.188315 101.52793 L -28.188315 101.60557 C -28.188315 101.52757 -28.18842 101.52787 -28.267417 101.44883 L -28.267417 101.36973 L -28.267417 101.29063 L -28.267417 101.05625 C -28.267417 100.74225 -28.188937 100.34924 -27.95394 100.03526 C -28.03194 100.19224 -28.031577 100.34983 -28.031577 100.42783 C -28.031577 100.50683 -27.953837 100.58472 -27.874839 100.34873 C -27.795839 99.877731 -27.639362 99.72057 -27.561362 99.563575 C -27.515874 99.518663 -27.470294 99.443528 -27.425132 99.3834 L -27.403159 99.562111 L -27.168784 99.562111 L -27.168784 99.146095 C -27.142322 99.131465 -27.115869 99.093361 -27.089683 99.093361 C -27.032773 99.036451 -26.931782 98.980056 -26.823081 98.923439 C -26.873981 98.974249 -26.808161 99.014259 -26.697104 99.014259 L -26.383628 99.014259 L -26.225425 99.014259 L -25.998374 99.014259 C -25.995874 99.013804 -25.99345 99.013329 -25.99105 99.012794 C -26.06395 99.007594 -25.91499 98.779884 -26.225425 98.779884 L -25.989585 98.779884 C -25.911585 98.779884 -25.83421 98.779512 -25.75521 98.857521 L -25.598472 98.857521 C -25.520472 98.857521 -25.519272 98.85763 -25.440268 98.936622 C -25.36131 98.976102 -25.297338 98.995073 -25.223472 99.024513 C -25.125862 99.039823 -25.028124 99.060697 -24.930503 99.077247 C -24.918793 99.050127 -24.881653 99.023021 -24.825034 98.999611 C -25.070399 98.674524 -25.922917 97.671536 -27.010581 96.89463 L -27.168784 96.841896 L -27.168784 94.851173 L -27.353354 95.590919 L -27.325522 95.322853 L -27.718101 95.243751 L -27.718101 96.441993 C -27.801664 96.381318 -27.885832 96.319102 -27.936362 96.275001 C -27.949222 96.266401 -27.961598 96.257244 -27.974448 96.248634 C -27.919726 96.305017 -27.786202 96.430269 -27.718101 96.503517 L -27.718101 96.814064 L -27.659507 96.814064 L -27.694663 96.953224 C -28.0479 96.656949 -28.430932 96.340572 -28.895835 96.030372 C -29.209835 95.873377 -28.816835 96.42295 -28.895835 96.42295 C -28.973835 96.34395 -29.210256 96.109734 -29.524253 95.952736 C -29.603253 95.873736 -29.680629 95.873996 -29.758628 95.795997 C -29.837628 95.717997 -29.916468 95.716797 -29.994468 95.637794 C -30.151468 95.558794 -30.152308 95.403419 -30.230308 95.403419 C -30.230308 95.403419 -30.151468 95.558896 -29.994468 95.716896 L -29.83773 95.873634 C -29.75873 95.873634 -29.758628 95.952736 -29.758628 95.952736 C -29.837628 95.873736 -29.916468 95.795997 -29.994468 95.795997 C -30.072468 95.717997 -30.152308 95.637691 -30.230308 95.558693 C -30.388305 95.402693 -30.465784 95.167841 -30.543784 95.010841 C -30.701781 94.617846 -30.779624 94.223799 -30.779624 93.595802 C -30.779624 93.360803 -30.701884 93.124643 -30.622886 92.810646 C -30.543886 92.574647 -30.388511 92.340431 -30.388511 92.340431 C -30.544511 92.654427 -30.466409 92.968951 -30.309409 93.04795 C -30.165636 93.11938 -30.021149 93.121989 -29.87728 93.062599 C -29.632555 92.428955 -29.075619 91.959263 -28.295249 92.025489 C -28.336719 91.997299 -28.381849 91.969283 -28.424155 91.947853 C -28.660152 91.790854 -28.895992 91.790013 -28.659995 91.712013 C -28.659995 91.712013 -28.475591 91.793033 -28.33187 91.868751 L -28.188315 91.868751 C -28.149635 91.868751 -28.108445 91.890427 -28.060874 91.909767 C -28.055074 91.898167 -28.054977 91.892121 -28.031577 91.868751 C -28.031577 91.868751 -27.953095 91.869853 -27.718101 91.947853 C -27.704852 91.961101 -27.65995 91.974167 -27.638999 91.987403 L -27.638999 95.087013 L -27.246421 95.087013 L -27.246421 92.246681 C -27.159498 92.270947 -27.057261 92.293154 -27.010581 92.340431 L -27.010581 92.261329 C -27.010581 92.183329 -27.011683 92.182589 -27.089683 92.104591 L -27.089683 91.868751 L -27.089683 91.712013 L -27.089683 91.634376 L -27.089683 91.555274 C -27.089683 91.712273 -26.932738 91.476795 -26.774741 91.241798 C -26.696741 91.084799 -26.540628 91.004754 -26.383628 90.847755 C -26.256756 90.720883 -26.129811 90.648398 -26.002768 90.582618 C -25.97803 90.559428 -25.952427 90.537275 -25.926597 90.515235 C -25.931997 90.475335 -25.834311 90.363877 -25.834311 90.299903 C -25.755313 90.220903 -25.676472 90.220802 -25.598472 90.220802 C -25.519472 90.220802 -25.441632 90.1417 -25.362632 90.1417 C -25.362632 89.985701 -25.28353 89.749383 -25.28353 89.592384 C -25.20453 89.435392 -25.12569 89.278805 -25.04769 89.199806 C -25.440687 88.807808 -26.147631 88.414748 -26.383628 87.472755 C -26.461628 87.393755 -26.461368 87.237074 -26.540366 87.001075 C -26.540366 86.900077 -26.571275 86.811333 -26.594565 86.813575 L -26.594565 86.81211 C -26.571219 86.730649 -26.540366 86.636455 -26.540366 86.53086 C -26.540366 86.45186 -26.461265 86.372555 -26.461265 86.293556 C -26.461265 86.215556 -26.383628 86.136715 -26.383628 86.057716 L -26.383628 86.025489 C -26.409478 86.065757 -26.435544 86.109306 -26.461265 86.135353 C -26.461265 85.978353 -26.383628 85.900977 -26.383628 85.900977 L -26.383628 86.024024 C -26.331474 85.942873 -26.277273 85.849264 -26.225425 85.744239 L -26.304526 85.666602 C -26.382526 85.666602 -26.383266 85.587501 -26.461265 85.587501 C -26.540265 85.509501 -26.619107 85.430763 -26.697104 85.430763 C -26.619106 85.430763 -26.540628 85.430865 -26.383628 85.509864 C -26.305628 85.509864 -26.225322 85.588966 -26.146323 85.588966 L -26.068686 85.666602 L -25.989585 85.666602 L -26.068686 85.744239 C -26.146686 85.902238 -26.305629 86.05792 -26.383628 86.215919 C -26.461628 86.372919 -26.540366 86.608236 -26.540366 86.765235 C -26.461366 86.765235 -26.382526 86.687755 -26.304526 86.451759 C -26.225526 86.373759 -26.225686 86.293816 -26.068686 86.136817 C -25.989688 85.979819 -25.834107 85.823601 -25.676108 85.666602 L -25.676108 85.588966 C -25.755108 85.588966 -25.75531 85.509864 -25.834311 85.509864 C -25.912311 85.430864 -26.068323 85.351557 -26.146323 85.27256 C -26.38232 85.11556 -26.618844 84.959344 -26.853843 84.802345 C -27.349555 84.49744 -27.457319 84.462641 -27.482261 84.487403 L -27.483726 84.487403 C -27.485983 84.489702 -27.500527 84.484067 -27.501304 84.487403 L -27.72103 84.487403 C -27.892338 84.395927 -28.071337 84.311146 -28.188315 84.253028 C -28.345315 84.174028 -28.503358 84.017551 -28.582358 83.939552 L -28.739097 83.781349 C -28.792527 83.727919 -28.805574 83.705109 -28.810874 83.674415 C -28.839544 83.657375 -28.859935 83.64268 -28.895835 83.62461 C -28.973835 83.54661 -29.052573 83.54587 -29.052573 83.467872 C -29.130573 83.388872 -29.130313 83.310032 -29.209312 83.232032 C -29.28731 83.153032 -29.288512 83.075553 -29.367515 82.918556 C -29.367515 82.839556 -29.445151 82.681614 -29.445151 82.603614 L -29.445151 82.211036 L -29.445151 82.054298 C -29.445151 81.975298 -29.367515 81.897559 -29.367515 81.897559 C -29.210515 81.347563 -28.738416 80.955824 -28.267417 80.719825 C -28.10942 80.641825 -28.031839 80.640625 -27.874839 80.561622 C -27.812174 80.561622 -27.765752 80.535751 -27.718101 80.53086 L -27.718101 84.251563 L -27.325522 84.251563 L -27.325522 84.094825 L -27.325522 80.483985 L -27.089683 80.483985 C -27.010973 80.483985 -26.855482 80.484471 -26.776206 80.561622 L -26.774741 80.561622 L -26.773276 80.561622 C -25.695331 80.716748 -24.69045 80.947805 -23.615073 81.178321 C -23.542483 81.117401 -23.465832 81.10577 -23.323569 81.034766 C -23.322269 81.034137 -23.32184 81.033971 -23.32064 81.033302 C -22.955084 80.808637 -22.500276 80.669139 -21.986167 80.797462 C -20.651178 81.033461 -19.395015 81.26862 -18.138022 81.582618 C -17.824025 81.18962 -17.35391 80.876563 -16.725913 80.876563 C -15.076924 80.876563 -13.34802 81.034041 -11.700034 81.19004 C -11.700034 81.021366 -11.659988 80.857719 -11.623862 80.694923 L -0.78548283 80.089942 L -0.78548283 79.461524 L -3.0750337 79.561134 C -2.78312 79.237655 -2.3569271 79.015016 -1.8064789 79.070411 C -1.4108913 79.088278 -1.0224807 79.154623 -0.62874454 79.191993 L -0.62874454 79.225684 L 0.31315001 79.382423 L 0.078775002 79.710548 L 0.078775002 79.461524 L -0.3929047 79.540626 L -0.31526798 79.855567 L 0.024575782 79.78672 L -0.079428127 79.933204 L 1.5069977 79.49961 C 1.5766503 79.515628 1.6471879 79.529363 1.7164703 79.546485 L 1.9625641 79.855567 L 2.0738922 79.632911 C 2.1374762 79.650615 2.1981801 79.675702 2.2613922 79.694434 L 2.2775055 79.776466 L 2.2775055 79.700294 C 2.5948838 79.79485 2.9113863 79.891151 3.2179352 80.01377 C 4.0809293 80.327768 4.7108718 81.034305 4.5538727 82.054298 C 4.3188935 82.682264 4.0827143 83.074773 3.7687165 83.38877 C 3.9257153 83.859767 3.925976 84.33171 3.6119782 84.724708 C 3.3259531 85.08224 3.0468971 85.363713 2.7477204 85.605079 L 2.7477204 85.350196 L 2.7477204 85.271095 L 2.7477204 85.193458 L 2.7477204 84.723243 L 2.4342438 84.723243 L 2.4342438 80.089942 L 1.8058258 80.089942 L 1.8058258 86.215919 C 1.6478267 86.372919 1.4911452 86.451861 1.3341461 86.53086 L 1.3282867 86.53086 C 1.3708137 86.55247 1.4132087 86.574818 1.4557282 86.596778 C 1.467428 86.599778 1.4791994 86.608497 1.4908844 86.608497 C 1.5058804 86.615997 1.5124017 86.625809 1.5260407 86.633399 C 1.6192747 86.68207 1.7125051 86.734957 1.8058258 86.787208 L 1.8058258 90.925392 L 2.0416657 90.925392 L 2.047525 90.84629 L 2.3492829 90.84629 L 2.3551422 90.925392 L 2.7477204 90.925392 L 2.7477204 87.258888 C 2.7612427 87.26431 2.7722369 87.269559 2.7858063 87.275001 C 2.8777171 87.305641 2.9692541 87.336836 3.0611969 87.367286 L 3.0611969 87.314552 C 3.1299469 87.353802 3.1936855 87.396142 3.2530915 87.441993 L 3.2545563 87.441993 C 4.8703619 88.080059 4.9143029 90.653076 3.3805329 91.158302 C 3.3789029 91.159602 3.3777683 91.161396 3.3761383 91.162696 C 3.1411463 91.320699 2.9039803 91.476276 2.5909821 91.555274 L 2.5118805 91.555274 L 2.4869782 91.555274 C 2.4685757 91.702389 2.4337865 91.842695 2.385904 91.977149 L 2.3551422 91.632911 L 1.9625641 91.632911 L 2.0270172 92.338966 L 1.9625641 92.338966 L 1.8058258 92.418067 L 1.8058258 92.495704 L 1.8834625 92.809181 L 2.0402008 92.771095 L 2.0402008 97.915626 L 1.8058258 97.915626 C 1.5688273 97.915626 1.3333045 97.837989 1.0983063 97.837989 C 0.80869068 97.789461 0.50946699 97.736271 0.21207579 97.685646 C 0.44775717 97.809844 0.7706178 97.986617 0.94156799 98.072364 C 1.0995668 98.151364 1.2558866 98.228741 1.4908844 98.306739 C 1.5143673 98.3146 1.5524262 98.346881 1.578775 98.358009 L 1.8834625 100.03379 L 2.0402008 100.00303 L 2.0402008 101.92197 C 1.8838818 102.07661 1.7262761 102.15488 1.6476227 102.15488 C 1.5696229 102.15488 1.4911452 102.23399 1.3341461 102.23399 C 1.178147 102.23399 1.020089 102.31162 0.62809142 102.31162 L 0.54898985 102.31162 L 0.47135313 102.31162 L 0.31315001 102.31162 C 0.23515025 102.23362 0.078673202 102.23399 -0.00032656251 102.23399 C -0.078326324 102.23399 -0.15716695 102.15488 -0.23616641 102.15488 C -0.39416533 102.07588 -0.62832471 101.99841 -1.0213227 101.84141 C -0.31332684 102.15541 -1.6495796 101.7619 -0.86458439 102.15488 C -1.0225832 102.15488 -1.1001647 102.07578 -1.2571625 102.07578 C -1.3351623 102.07578 -1.3349027 102.07612 -1.4139008 101.99815 L -1.4915375 101.99815 L -1.5706391 101.99815 L -1.7273774 101.99815 L -2.0423188 101.99815 C -2.2773176 101.92015 -2.3555348 101.92045 -2.5125336 101.84141 C -2.7485314 101.76241 -3.0630541 101.68457 -3.2200532 101.60557 C -3.455052 101.52757 -3.6124724 101.44883 -3.8484712 101.44883 L -3.971518 101.44883 C -4.06017 101.87211 -4.2894251 102.25946 -4.6438813 102.50791 C -4.6536613 102.52441 -4.6715962 102.53464 -4.6922212 102.54014 C -4.7046772 102.54814 -4.7161023 102.55734 -4.7288423 102.56504 C -4.6802043 102.57694 -4.6335381 102.59182 -4.5647798 102.60752 C -4.5820298 102.59672 -4.5996976 102.58283 -4.6336274 102.54893 C -4.4776286 102.54893 -4.3965833 102.62663 -4.2395845 102.70567 C -4.2395845 102.70567 -4.1619477 102.70533 -4.1619477 102.7833 C -4.0839479 102.7833 -4.0055724 102.862 -3.9275727 102.94004 C -3.7705736 103.01904 -3.61179 103.17562 -3.3767915 103.33262 C -3.3550045 103.36542 -3.3348582 103.39786 -3.3138032 103.43076 C -2.9255501 103.73252 -2.7219043 104.13493 -2.6809907 104.57774 L -2.6692719 104.58945 C -2.5916821 104.58945 -2.5917617 104.59046 -2.5139985 104.66856 C -2.5695033 104.65466 -2.6244636 104.63389 -2.6795258 104.61289 C -2.6779258 104.63489 -2.6744765 104.65671 -2.6736665 104.67881 C -2.6529615 104.68781 -2.6327642 104.70499 -2.5916352 104.74619 C -2.5126354 104.74619 -2.4347948 104.82529 -2.3557954 104.82529 C -2.1987963 104.90329 -1.963478 104.98203 -1.8064789 104.98203 C -1.8064789 104.91743 -1.9737105 104.8545 -2.1595063 104.79014 C -2.0909965 104.80634 -2.0201238 104.82383 -1.9646821 104.82383 C -1.5716845 104.98183 -1.0997409 105.06097 -0.62874454 105.29697 L -0.62874454 105.13877 C -0.5497448 105.13877 -0.39380259 105.21897 -0.31380313 105.29697 C -0.23580339 105.29697 -0.15742759 105.37461 -0.079428127 105.37461 C -0.031028273 105.42301 0.017713042 105.44609 0.065591408 105.47129 C 0.017531554 105.43269 -0.039356399 105.37609 -0.077963283 105.2999 C 0.28132074 105.48848 0.61914477 105.69849 0.86246642 106.00303 C 0.99078216 106.13102 1.0846637 106.2897 1.1627594 106.45713 C 1.5080682 107.02149 1.4487115 107.72894 1.0983063 108.2794 C 1.8899199 109.01898 1.6843871 110.35876 0.89322814 111.03916 C 0.81008042 111.15567 0.74679092 111.22127 0.70572814 111.26182 C 0.6277284 111.34082 0.70572814 111.26362 0.70572814 111.18565 C 0.70831814 111.18265 0.71046236 111.17859 0.71305236 111.17539 C 0.64712758 111.21899 0.57862265 111.2581 0.50650939 111.29258 C 0.49484141 111.30758 0.48300711 111.33058 0.47135313 111.34238 C 0.39335339 111.42038 0.23541118 111.49876 0.15641172 111.57676 C 0.07841196 111.57676 -0.00032656251 111.65586 -0.00032656251 111.65586 C -0.078326324 111.65586 -0.15716695 111.73496 -0.23616641 111.73496 C -0.39416533 111.81296 -0.54948412 111.8126 -0.78548283 111.8126 L -0.78548283 111.8917 L -1.1795258 111.8917 L -1.4915375 111.8917 C -1.6485366 111.8917 -1.7274795 111.8126 -1.8064789 111.8126 C -1.963478 111.7346 -1.9643194 111.73489 -2.0423188 111.65586 C -2.1203186 111.57686 -2.1196902 111.57676 -2.2766938 111.57676 C -2.3556936 111.57676 -2.4345342 111.49912 -2.5125336 111.49912 C -2.5915336 111.49912 -2.6693751 111.49901 -2.7483735 111.42002 C -2.7503035 111.43612 -2.7533277 111.45236 -2.7556977 111.46836 C -2.7519577 111.47736 -2.7483735 111.48582 -2.7483735 111.49912 L -2.4348969 111.65586 C -2.4348969 111.65586 -2.6224372 111.59875 -2.7747407 111.58555 C -2.8830855 112.0873 -3.1999818 112.56063 -3.681479 112.8336 L -3.6126313 112.8336 C -3.5439615 112.799 -3.4958836 112.78381 -3.4573579 112.76621 C -3.4652579 112.83261 -3.5335298 112.8336 -3.5335298 112.8336 C -3.5335298 112.8336 -3.61227 112.9127 -3.690268 112.9127 C -3.748967 112.9127 -3.780551 112.90023 -3.803061 112.88633 C -3.815586 112.89233 -3.828435 112.89821 -3.841147 112.90391 C -3.8435068 112.90691 -3.8451612 112.9087 -3.8484712 112.9127 C -3.8484712 112.9127 -3.9108594 112.95196 -4.0066743 112.97276 C -4.0117543 112.97476 -4.0162247 112.97661 -4.0213227 112.97861 C -3.8875691 112.96251 -3.7590785 112.9127 -3.690268 112.9127 C -3.6122682 112.9907 -3.3767915 113.06944 -3.3767915 113.06944 C -3.3025356 113.06944 -3.2871702 113.05147 -3.2932954 113.03281 C -3.2749823 113.04333 -3.256432 113.03259 -3.2200532 113.06944 L -3.1424165 113.06944 L -3.0633149 113.06944 C -2.9843151 113.06944 -2.9043726 113.14854 -2.7483735 113.14854 L -2.9051118 112.99033 C -2.9051118 112.99033 -2.9842133 112.99067 -2.9842133 112.9127 L -3.0633149 112.9127 L -3.1424165 112.9127 C -3.1424165 112.9127 -3.2200532 112.9117 -3.2200532 112.8336 L -3.1424165 112.8336 L -3.0633149 112.8336 C -2.9843151 112.8336 -2.9043726 112.9127 -2.7483735 112.9127 C -2.3553769 112.9907 -1.9646821 113.06944 -1.9646821 113.06944 C -1.8856821 113.06944 -1.1788004 113.06932 -1.3347992 112.99033 C -0.94180272 112.99033 -0.39258483 113.14829 0.15641172 113.30527 L 0.23551329 113.30527 L 0.39371641 113.30527 C 0.47171617 113.30527 0.54872922 113.38438 0.70572814 113.38438 C 0.86272736 113.46238 1.0995113 113.54085 1.2565094 113.69785 C 1.4344577 113.8758 1.5846744 114.05485 1.7120758 114.24717 C 2.0503234 114.58678 2.1736234 115.08799 2.1456696 115.58457 C 1.5855439 116.52881 0.58304603 116.77172 -0.47200626 116.99375 C -0.94199593 117.07175 -1.4925933 117.22936 -1.8855805 117.38633 C -2.2455695 117.54622 -2.6460352 117.6439 -3.0662446 117.71299 C -3.3173326 117.65741 -3.5690048 117.60146 -3.8484712 117.546 C -4.2404688 117.468 -4.9467413 117.3879 -5.0247407 117.4669 L -4.8680024 117.4669 L -4.6336274 117.4669 C -4.083632 117.5449 -4.0055724 117.62363 -3.9275727 117.62363 L -4.318686 117.62363 L -4.3963227 117.62363 C -4.3963227 117.62363 -4.318686 117.62375 -4.318686 117.70274 L -4.3963227 117.70274 L -4.3963227 117.78037 L -4.4754243 117.85947 L -4.4944673 117.87705 C -4.671425 117.89927 -4.8482301 117.93711 -5.0247407 117.93711 L -5.8904634 117.93711 C -6.2034537 117.93711 -6.5182654 117.85811 -6.7532564 117.93711 C -7.0923835 117.98521 -7.4055523 118.06371 -7.7215181 118.13047 z M -26.461265 86.135353 L -26.461265 86.214454 C -26.472695 86.214454 -26.479272 86.218978 -26.487632 86.221778 C -26.478132 86.190078 -26.470895 86.164121 -26.461265 86.135353 z M -26.487632 86.221778 C -26.555972 86.450144 -26.619468 86.715415 -26.619468 86.371192 L -26.540366 86.292091 C -26.540366 86.292091 -26.537062 86.238288 -26.487632 86.221778 z M -28.774253 106.22129 C -28.79997 106.23855 -28.826151 106.25148 -28.850425 106.26963 C -28.838391 106.26117 -28.828814 106.2469 -28.816733 106.23887 C -28.803963 106.23034 -28.787465 106.22937 -28.774253 106.22129 z M -28.850425 106.26963 C -28.963663 106.34929 -29.07634 106.44215 -29.168296 106.5582 C -29.149616 106.5536 -29.131675 106.55088 -29.131675 106.55088 C -29.131675 106.55088 -29.210515 106.62948 -29.367515 106.94346 C -29.330962 106.79818 -29.259228 106.67144 -29.171226 106.55967 C -29.201337 106.56678 -29.241449 106.58388 -29.288413 106.63145 L -29.052573 106.39561 C -29.002104 106.34514 -28.914515 106.31756 -28.850425 106.26963 z M -15.366538 117.24278 C -15.331088 117.26776 -15.348856 117.2873 -15.387046 117.3043 C -15.501345 117.2805 -15.622616 117.25639 -15.703452 117.22959 C -15.550876 117.22959 -15.466539 117.23758 -15.366538 117.24278 z M -15.387046 117.3043 C -15.169067 117.3497 -14.94365 117.38633 -14.840659 117.38633 L -14.448081 117.46543 C -14.998078 117.54343 -15.625717 117.38633 -16.56771 117.38633 C -16.40369 117.38633 -15.566968 117.3843 -15.387046 117.3043 z M -14.840659 117.38633 L -15.233237 117.30723 C -15.124829 117.31223 -15.043957 117.32094 -14.949057 117.32774 C -14.913637 117.34554 -14.878487 117.36103 -14.840659 117.38633 z M -2.143393 118.0499 C -2.1893212 118.04407 -2.2351627 118.04189 -2.2810883 118.03672 L -2.1199555 118.01475 L -2.143393 118.0499 z M -0.95686955 117.98252 L 1.4908844 117.15049 L 1.5113922 117.19297 C 1.5022 117.20554 1.5003303 117.21849 1.4908844 117.23106 C 1.2558866 117.54506 0.94098678 117.78047 0.54898985 117.85947 C 0.31299147 117.93747 0.15557028 117.93711 -0.079428127 117.93711 L -0.23616641 117.93711 L -0.31380313 117.93711 L -0.54964298 117.93711 L -0.95686955 117.98252 z M -3.8440766 117.80235 C -3.909194 117.77431 -4.008521 117.75222 -4.1619477 117.70127 L -4.0052095 117.70127 C -3.8623684 117.70127 -3.7183499 117.76 -3.5760102 117.77158 C -3.6652835 117.78195 -3.753956 117.79324 -3.8440766 117.80235 z M -12.01351 117.77891 C -11.93551 117.69991 -11.856513 117.77891 -12.01351 117.77891 z M -17.509604 117.22959 C -17.430604 117.15059 -17.275288 117.15059 -16.960288 117.22959 L -17.509604 117.22959 z M -26.225425 114.71738 L -26.146323 114.71738 L -26.068686 114.71738 L -26.005698 114.71738 C -26.161816 114.61858 -26.230576 114.46105 -26.232749 114.29551 C -26.256509 114.32611 -26.280446 114.35461 -26.304526 114.40244 L -26.304526 114.55918 C -26.304526 114.63718 -26.304422 114.71738 -26.225425 114.71738 z M 2.5104157 114.55625 C 2.506579 114.47935 2.4342438 114.40244 2.4342438 114.40244 L 2.4342438 114.32481 C 2.4946214 114.41557 2.4964084 114.42284 2.5235993 114.47569 C 2.5191597 114.50307 2.5152635 114.52953 2.5104157 114.55625 z M -25.799155 113.71104 C -25.783745 113.70704 -25.77132 113.69869 -25.75521 113.69639 C -26.065469 113.4632 -26.221713 113.07684 -26.225425 112.76475 L -26.225425 112.99033 L -26.225425 113.14707 C -26.146425 113.38308 -25.990947 113.5383 -25.911948 113.61729 L -25.799155 113.71104 z M -3.4573579 112.76475 C -3.4568839 112.76075 -3.4544282 112.75879 -3.4544282 112.75449 C -3.4409182 112.75449 -3.4402297 112.75156 -3.4309907 112.75156 C -3.4374907 112.75456 -3.4497079 112.76155 -3.4573579 112.76475 z M -26.619468 112.43955 L -26.565269 112.43955 C -26.606837 112.38775 -26.645919 112.33488 -26.679526 112.27842 C -26.652276 112.34192 -26.619468 112.41291 -26.619468 112.43955 z M -2.4348969 111.18418 C -2.1988984 111.18418 -2.1986383 111.18444 -2.5916352 111.02744 L -2.7454438 111.02744 C -2.7422738 111.05464 -2.7428193 111.08207 -2.7410493 111.10947 C -2.6165526 111.11147 -2.4987598 111.12028 -2.4348969 111.18418 z M -2.7498383 110.9586 C -2.7431283 110.9566 -2.7194734 110.95793 -2.7102876 110.95713 L -2.7498383 110.94834 C -2.7492733 110.95134 -2.7503812 110.9553 -2.7498383 110.9586 z M -27.682944 110.34336 C -27.700157 110.33188 -27.694675 110.33172 -27.718101 110.31992 L -28.031577 110.31992 L -28.110679 110.24082 C -28.110679 110.24082 -28.189519 110.24114 -28.346519 110.16319 C -28.346519 110.16319 -28.424259 110.16218 -28.503257 110.08408 C -28.582257 110.08408 -28.581997 110.08651 -28.659995 110.00791 C -28.816992 109.92891 -28.895573 109.84814 -29.052573 109.76914 C -29.28757 109.61214 -29.445254 109.37829 -29.524253 109.22129 C -29.602253 109.14229 -29.60189 109.06445 -29.60189 108.98545 L -29.60189 108.90635 C -29.68089 108.51335 -29.68089 108.19925 -29.60189 107.80625 C -29.52389 107.65025 -29.52415 107.4934 -29.445151 107.2584 C -29.367151 107.1014 -29.288675 106.94372 -29.131675 106.78672 C -28.896676 106.47272 -28.503675 106.3163 -28.110679 106.1583 C -27.947037 106.12574 -27.76247 106.11832 -27.576011 106.11436 C -27.594894 106.99505 -27.638999 107.85014 -27.638999 108.74961 C -27.638999 109.13616 -27.655517 109.5231 -27.671226 109.90977 L -27.795737 109.84824 C -27.858657 109.81674 -27.874705 109.82944 -27.867515 109.85264 C -27.869915 109.85064 -27.872439 109.85024 -27.874839 109.84824 C -28.345835 109.69125 -28.109839 109.84808 -27.874839 110.08408 C -27.808788 110.08408 -27.742975 110.10155 -27.677085 110.11777 C -27.680237 110.19296 -27.67984 110.26817 -27.682944 110.34336 z M -28.346519 109.92735 L -28.267417 109.92735 C -28.345417 109.84935 -28.503358 109.84815 -28.582358 109.76914 C -28.739358 109.61214 -28.816472 109.45602 -28.973472 109.37803 C -28.973472 109.45603 -28.895835 109.45573 -28.895835 109.53477 C -28.816835 109.61277 -28.817095 109.61247 -28.739097 109.69151 C -28.660097 109.76951 -28.582257 109.76921 -28.503257 109.84824 C -28.503257 109.84824 -28.424515 109.84925 -28.346519 109.92735 z M -24.419272 106.39414 L -24.552573 106.34873 L -24.558433 106.3751 C -24.512033 106.3801 -24.465673 106.38954 -24.419272 106.39414 z M -0.077963283 105.29844 C -0.18232268 105.24364 -0.28813017 105.1902 -0.39436954 105.13731 C -0.39436954 105.13731 -0.23642735 105.21751 -0.079428127 105.29551 C -0.078919127 105.29651 -0.078509531 105.29744 -0.077963283 105.29844 z M -2.1595063 104.78867 C -2.2811867 104.75987 -2.404794 104.71927 -2.5052094 104.67002 C -2.4294896 104.68892 -2.3527615 104.70723 -2.2766938 104.74473 C -2.2338738 104.75913 -2.2009048 104.77437 -2.1595063 104.78867 z M -2.2766938 104.66709 C -2.4336929 104.66709 -2.5116926 104.58809 -2.2766938 104.66709 z M -28.689292 103.90977 C -28.700672 103.83387 -28.708995 103.75794 -28.711265 103.68125 C -28.719865 103.69615 -28.727117 103.71183 -28.739097 103.72373 C -28.739097 103.78593 -28.727892 103.84809 -28.689292 103.90977 z M -3.7386079 103.17735 C -3.7438179 103.17335 -3.7526449 103.16933 -3.7576509 103.16563 C -3.7549609 103.16763 -3.7530066 103.17095 -3.7503266 103.17295 C -3.7465566 103.17495 -3.7423669 103.17635 -3.7386079 103.17735 z M -28.424155 101.91904 C -28.424155 101.91904 -28.384854 101.87898 -28.390464 101.91318 C -28.400064 101.91718 -28.410825 101.91904 -28.424155 101.91904 z M -3.3269868 101.54551 C -3.258493 101.56521 -3.2592927 101.56547 -3.3767915 101.52647 C -3.1417937 101.52647 -3.2996331 101.44627 -3.6126313 101.36826 C -3.7225818 101.31326 -3.8315319 101.28966 -3.9407563 101.2584 C -3.9457663 101.3052 -3.9528523 101.3513 -3.9612641 101.39756 C -3.8812643 101.42086 -3.789886 101.44736 -3.690268 101.44736 C -3.5332689 101.48686 -3.3954806 101.52591 -3.3269868 101.54551 z M 2.6686188 100.48203 L 2.6686188 100.15244 C 2.6753219 100.26345 2.6801387 100.37008 2.6686188 100.48203 z M -27.325522 100.26963 L -27.168784 100.03379 L -27.325522 99.79795 L -27.404624 99.79795 L -27.561362 99.877052 L -27.482261 100.03379 C -27.482261 100.03379 -27.482624 100.11289 -27.404624 100.11289 L -27.325522 100.26963 z M -23.995933 99.04795 C -24.106827 98.98483 -24.203215 98.925193 -24.341636 98.856056 C -24.302386 98.895306 -24.26779 98.944216 -24.24935 98.990822 C -24.165492 99.00959 -24.145561 99.01866 -23.995933 99.04795 z M -25.834311 98.621681 C -25.834311 98.621681 -26.305108 98.386466 -26.697104 98.151466 C -26.954082 98.022704 -27.009335 97.962918 -27.168784 97.851173 L -27.168784 97.627052 C -27.081014 97.685856 -26.853843 97.837989 -26.853843 97.837989 C -26.793938 97.807846 -26.942405 97.629325 -27.168784 97.404396 L -27.168784 97.051368 C -27.047044 97.169589 -26.999039 97.240505 -26.853843 97.364845 C -26.382846 97.836843 -25.833267 98.306681 -25.440268 98.621681 C -25.989265 98.385681 -25.598635 98.622466 -26.383628 98.151466 C -26.697628 98.072466 -25.990311 98.464681 -25.834311 98.621681 z M 3.2970368 97.915626 C 3.2970368 97.915626 3.5327188 97.837786 3.7687165 97.679786 C 4.0037141 97.522788 4.1612946 97.287208 4.1612946 97.287208 C 3.926296 97.522208 3.6887735 97.679888 3.4537751 97.758888 C 3.1689762 97.83077 2.9420495 97.888797 2.6686188 97.900978 L 2.6686188 92.731544 L 2.198404 92.731544 L 2.1515289 92.495704 L 2.3141266 92.495704 C 2.3540605 92.515391 2.3934957 92.535074 2.4342438 92.574806 C 2.6692423 92.732805 2.9834014 92.890951 3.2194001 93.04795 C 3.376399 93.12595 3.4535142 93.204326 3.6105134 93.282325 C 3.7685123 93.361325 3.8475574 93.439169 4.0045563 93.518165 C 4.239555 93.675165 4.3176701 93.832744 4.3956696 93.910743 C 4.5536678 94.146739 4.5538727 94.224321 4.5538727 94.303321 L 4.4747712 94.303321 C 4.4747712 94.303321 4.3956696 94.224321 4.3956696 94.303321 C 4.3956696 94.303321 4.4748708 94.4599 4.5538727 94.6959 C 4.5538727 94.6959 4.5535056 94.775001 4.6315095 94.775001 C 4.6315095 94.854001 4.710611 94.931739 4.710611 94.931739 L 4.710611 95.088478 L 4.710611 95.245216 C 4.788611 95.873213 4.7117108 96.188212 4.7897126 96.266212 C 4.8677124 96.109212 4.8673493 95.794794 4.8673493 95.637794 C 4.9463491 96.108794 4.7886665 96.737107 4.3956696 97.208107 C 4.2386708 97.444105 4.003715 97.601888 3.7687165 97.758888 C 3.5327189 97.837888 3.3760363 97.915626 3.2970368 97.915626 z M -27.668296 97.448341 C -27.955386 97.18054 -28.784068 96.642122 -28.659995 96.579689 C -28.659995 96.579689 -28.188734 96.894107 -27.795737 97.208107 C -27.742203 97.243796 -27.741644 97.244612 -27.688804 97.279884 L -27.668296 97.448341 z M 5.1822907 95.794532 L 5.1822907 95.636329 L 5.1822907 95.794532 z M -29.849448 94.624122 C -29.949992 94.395588 -29.999285 94.150389 -30.010581 93.906349 C -30.029931 94.130017 -29.985161 94.391573 -29.849448 94.624122 z M -28.188315 91.946388 C -28.081374 91.946388 -28.074708 91.936212 -28.062339 91.911232 C -28.20435 91.887362 -28.253328 91.88455 -28.306968 91.88047 C -28.265718 91.90329 -28.206015 91.928908 -28.188315 91.946388 z M 1.9640289 91.476173 L 2.3551422 91.476173 L 2.2760407 91.08213 L 1.9640289 91.08213 L 1.9640289 91.476173 z M 2.0944 90.245704 L 2.198404 88.884864 L 2.300943 90.219337 L 2.1193024 90.219337 L 2.0944 90.245704 z M 2.1940094 87.313087 C 2.1955094 87.287017 2.196904 87.26146 2.198404 87.23545 C 2.2003038 87.26111 2.2023633 87.287347 2.2042633 87.313087 L 2.1940094 87.313087 z M 2.4342438 85.621192 L 2.4342438 85.350196 L 2.4840485 85.350196 L 2.4342438 85.621192 z M -26.59603 85.574317 C -26.60627 85.579917 -26.716207 85.522067 -27.010581 85.350196 C -27.089581 85.271196 -27.796683 84.879459 -27.089683 85.193458 C -27.035373 85.247078 -26.573506 85.561991 -26.59603 85.574317 z M -26.071616 85.458595 C -26.128716 85.451595 -26.314679 85.362365 -26.540366 85.193458 C -26.697365 85.114458 -27.010843 84.878618 -26.853843 84.957618 L -26.068686 85.429298 C -26.046466 85.451518 -26.049336 85.461325 -26.071616 85.458595 z M -28.974937 84.094825 C -28.974937 84.094825 -29.052677 84.016085 -29.131675 83.938087 C -29.131675 83.859087 -29.209312 83.702247 -29.209312 83.702247 L -29.131675 83.779884 L -29.052573 83.858985 C -28.974573 83.858985 -28.974833 83.938087 -28.895835 83.938087 L -28.974937 84.094825 z M -28.816733 83.623145 C -28.816733 83.545147 -28.895835 83.544405 -28.895835 83.466407 C -28.895835 83.387407 -28.895466 83.387207 -28.973472 83.308204 L -29.052573 83.230567 L -29.052573 83.073829 L -29.052573 83.043067 C -29.213528 82.588089 -29.153572 82.095124 -28.932456 81.664649 C -28.942156 81.660649 -28.955252 81.660255 -28.973472 81.660255 C -29.052472 81.660255 -29.131675 81.739255 -29.131675 81.660255 C -29.367675 82.053251 -29.367515 82.445889 -29.367515 82.758888 C -29.367515 82.837888 -29.288413 82.91673 -29.288413 82.994727 C -29.288413 83.003727 -29.281424 83.01071 -29.279624 83.01963 C -29.286124 82.98521 -29.288413 82.95121 -29.288413 82.917091 L -29.288413 82.837989 C -29.288413 82.916989 -29.28731 82.994829 -29.209312 83.073829 C -29.209312 83.110319 -29.191196 83.164679 -29.165366 83.218849 C -29.180166 83.195589 -29.197292 83.176661 -29.209312 83.152931 C -29.209312 83.230929 -29.131675 83.308204 -29.131675 83.308204 C -29.092675 83.347704 -29.072499 83.35763 -29.052573 83.387306 C -29.094543 83.344796 -29.135283 83.281951 -29.165366 83.218849 C -29.082876 83.348497 -28.973472 83.466407 -28.973472 83.466407 C -28.921262 83.518537 -28.869235 83.571307 -28.816733 83.623145 z M -11.275229 79.917091 C -10.981072 79.567126 -10.529362 79.345413 -9.8938814 79.385352 C -8.6334005 79.475387 -7.3959779 79.574673 -6.157065 79.694434 L -11.275229 79.917091 z M -32.115562 52.701758 C -32.115362 52.696858 -32.114097 52.69206 -32.114097 52.68711 C -32.114097 52.68711 -32.115006 52.692308 -32.115562 52.701758 z M -29.052573 50.960059 C -29.209565 50.881059 -29.131573 50.960059 -29.052573 50.960059 z M -25.56771 40.438086 L -25.566245 40.427832 C -25.258941 40.414502 -25.007303 40.37431 -24.890952 40.375098 L -24.890952 40.438086 L -25.56771 40.438086 z M -26.853843 40.279883 C -26.853843 40.230813 -26.930883 40.199743 -27.035483 40.153906 C -26.880187 40.190656 -26.757542 40.202246 -26.697104 40.202246 C -26.618106 40.202246 -26.540366 40.201874 -26.540366 40.279883 L -26.853843 40.279883 z M -27.035483 40.153906 C -27.080613 40.143226 -27.115653 40.140935 -27.168784 40.123145 C -27.304103 40.078425 -27.440913 40.030755 -27.590659 39.956152 C -27.561279 39.965952 -27.521759 39.966406 -27.482261 39.966406 C -27.403631 39.986036 -27.325421 40.006008 -27.246421 40.045508 C -27.159261 40.103738 -27.097153 40.126878 -27.035483 40.153906 z M -27.482261 39.966406 C -27.531551 39.954106 -27.580991 39.935106 -27.63021 39.918066 C -27.63401 39.909166 -27.638999 39.90139 -27.638999 39.88877 C -27.717999 39.88877 -27.717739 39.809668 -27.795737 39.809668 C -27.874737 39.731668 -27.952476 39.732031 -27.952476 39.732031 L -28.031577 39.732031 L -28.110679 39.732031 L -28.424155 39.732031 L -29.052573 39.732031 C -29.44457 39.732031 -29.679526 39.652831 -29.679526 39.573828 L -30.152671 39.65293 L -29.83773 39.65293 C -30.308724 39.73193 -30.465525 39.652822 -30.700522 39.573828 C -30.779522 39.573828 -30.780722 39.572725 -30.858726 39.494727 C -30.866538 39.494727 -30.874372 39.488771 -30.882163 39.487402 L -29.288413 39.418555 L -29.36605 38.790137 L -31.172202 39.105078 L -31.112144 39.409766 C -31.242107 39.347148 -31.490087 39.265218 -31.734702 39.162207 L -31.879722 38.003516 L -32.086265 38.932227 C -32.179749 38.852476 -32.306112 38.754859 -32.349937 38.711035 C -32.428937 38.632035 -32.428937 38.631672 -32.349937 38.788672 C -32.349937 38.788672 -32.586878 38.553352 -32.664878 38.239355 C -32.822878 38.003358 -32.821616 37.690039 -32.821616 37.690039 L -32.821616 37.767676 C -32.899616 37.609676 -32.900718 37.454199 -32.900718 37.454199 C -32.900718 37.296202 -32.978718 37.061781 -32.900718 36.825781 C -32.900718 36.590784 -32.821518 36.354363 -32.742515 36.197363 C -32.742515 36.119363 -32.664878 36.040625 -32.664878 36.040625 L -32.664878 35.961523 C -32.586878 35.883523 -32.4293 35.647942 -32.2723 35.568945 C -32.1153 35.411945 -31.878617 35.334469 -31.80062 35.255469 C -31.7277 35.182549 -31.695066 35.167538 -31.681968 35.164648 C -31.598568 35.148458 -31.477024 35.088608 -31.408042 35.019629 C -31.251045 34.941629 -31.173565 34.941992 -31.094565 34.941992 L -30.937827 34.941992 C -30.780827 34.862992 -30.858569 34.862891 -31.094565 34.862891 C -31.329565 34.862891 -31.722463 35.019469 -32.03646 35.255469 C -31.879463 35.019469 -31.72178 34.941888 -31.56478 34.862891 C -31.40778 34.784891 -31.251565 34.783789 -31.094565 34.783789 L -30.779624 34.783789 L -30.622886 34.783789 L -30.466147 34.783789 C -30.23015 34.783789 -29.916253 34.783683 -29.524253 34.704687 L -30.309409 34.627051 C -30.108307 34.560021 -29.870906 34.538051 -29.606284 34.520117 C -30.206903 34.477157 -30.807535 34.434377 -31.408042 34.391211 C -31.648325 34.375201 -31.856439 34.312701 -32.049644 34.231543 C -32.074494 34.228843 -32.100745 34.217426 -32.128745 34.199316 C -32.161725 34.183736 -32.199645 34.173996 -32.231284 34.156836 L -32.349937 34.156836 L -32.544761 33.960547 L -32.742515 33.920996 L -32.742515 33.841894 L -32.821616 33.762793 C -32.821616 33.762793 -32.900356 33.685051 -32.978355 33.606055 C -33.136352 33.449055 -33.213933 33.292737 -33.370933 33.056738 C -33.448933 32.821739 -33.527773 32.58532 -33.606773 32.42832 C -33.606773 32.271321 -33.685874 32.114844 -33.685874 32.114844 C -33.685874 31.800845 -33.606574 31.486948 -33.448569 31.172949 C -33.292572 30.858951 -33.056512 30.622427 -32.742515 30.46543 C -32.585515 30.38743 -32.4293 30.309052 -32.2723 30.231055 C -32.1933 30.231055 -32.11546 30.151953 -32.03646 30.151953 L -31.80062 30.151953 L -31.251304 30.151953 L -31.049155 30.151953 C -31.120055 30.071243 -31.180102 29.981698 -31.233726 29.888281 C -31.259536 29.873911 -31.278262 29.862672 -31.32894 29.837012 C -31.32894 29.91601 -31.644722 29.91601 -31.879722 29.837012 L -32.03646 29.837012 L -32.193198 29.837012 C -32.272198 29.837012 -32.349937 29.837114 -32.349937 29.916113 C -32.585934 29.994113 -32.822459 30.151794 -33.057456 30.387793 C -32.978456 30.308793 -32.899616 30.230953 -32.821616 30.151953 L -32.742515 30.072851 L -32.900718 30.072851 L -32.821616 29.99375 C -32.742616 29.99375 -32.663776 29.916008 -32.585776 29.837012 C -32.507778 29.837012 -32.4293 29.758272 -32.2723 29.680273 C -32.1933 29.680273 -32.19356 29.680639 -32.115562 29.602637 L -32.03646 29.602637 L -31.721519 29.602637 L -31.56478 29.602637 C -31.72178 29.523637 -31.48704 29.523535 -31.408042 29.523535 C -31.400642 29.523535 -31.396614 29.526629 -31.390464 29.527929 C -31.396264 29.509341 -31.405732 29.49257 -31.410972 29.47373 C -31.439792 29.44319 -31.466304 29.40821 -31.487144 29.366797 C -31.565144 29.287797 -31.564884 29.209957 -31.643882 29.130957 C -31.643882 29.052957 -31.64351 29.051757 -31.721519 28.972754 L -31.721519 28.874609 C -31.735409 28.873209 -31.748694 28.871515 -31.762534 28.870215 C -31.781454 28.899265 -31.80062 28.935335 -31.80062 28.972754 L -31.80062 28.867285 C -32.008505 28.847985 -32.218153 28.826526 -32.420249 28.813086 C -32.488739 28.812332 -32.557042 28.807088 -32.625327 28.795508 C -32.806194 28.782758 -32.988535 28.769653 -33.177573 28.748633 C -33.260193 28.757333 -33.285709 28.774046 -33.220054 28.810156 C -33.330703 28.804456 -33.449204 28.790459 -33.606773 28.738379 C -33.84177 28.738379 -34.077827 28.659539 -34.312827 28.502539 C -34.548824 28.424539 -34.784713 28.26796 -34.94271 28.109961 C -35.09871 27.953961 -35.333925 27.718005 -35.412925 27.483008 C -35.647925 27.01101 -35.647663 26.538704 -35.569663 26.224707 C -35.490663 25.910708 -35.334187 25.67539 -35.256187 25.67539 C -35.256187 25.67539 -35.333927 25.675493 -35.412925 25.754492 C -35.426205 25.754492 -35.436606 25.76788 -35.449546 25.77207 C -35.414066 25.71372 -35.392226 25.655417 -35.333823 25.597754 C -35.176826 25.361755 -34.941766 25.203972 -34.627769 25.046972 C -34.312769 24.889975 -33.999612 24.812234 -33.842612 24.890234 L -33.606773 24.890234 L -33.570151 24.890234 C -33.556051 24.889234 -33.541841 24.889367 -33.527671 24.888769 C -33.604981 24.810429 -33.527225 24.655415 -33.448569 24.576758 C -33.448569 24.498758 -33.448675 24.420019 -33.527671 24.420019 C -33.606671 24.342019 -33.842554 24.342019 -34.157554 24.420019 C -33.999554 24.342019 -33.763566 24.261816 -33.448569 24.261816 L -33.057456 24.261816 C -32.900459 24.261816 -32.742776 24.26192 -32.585776 24.340918 C -32.821776 24.340918 -33.135613 24.498758 -32.821616 24.576758 C -32.035619 24.419758 -32.272298 24.499018 -31.251304 24.420019 C -31.565301 24.420019 -31.250519 24.733496 -30.700522 24.733496 C -30.779522 24.655496 -30.622624 24.499019 -30.779624 24.420019 L -29.524253 24.733496 C -29.785699 24.668551 -29.598547 24.566526 -29.396812 24.528418 L -29.131675 29.76084 L -28.659995 29.76084 L -28.922202 24.55332 C -28.569766 24.581292 -28.080388 24.604146 -27.874839 24.655859 L -28.42562 24.655859 C -27.011628 24.733859 -27.090099 25.125711 -25.676108 25.203711 C -25.833108 25.125711 -26.069629 24.812234 -25.362632 24.890234 C -25.338002 24.902554 -25.282912 24.930543 -25.249839 24.947363 C -25.260469 24.927233 -25.2735 24.910424 -25.28353 24.890234 C -25.44153 24.576235 -25.51937 24.184179 -25.51937 24.184179 L -25.51937 24.499121 C -25.51937 24.571231 -25.500539 24.639977 -25.482749 24.696875 C -25.608475 24.357072 -25.668498 24.065319 -25.598472 23.7125 C -25.598472 23.6345 -25.598363 23.556124 -25.51937 23.478125 L -25.51937 23.399023 L -25.51937 23.319922 C -25.51937 23.240922 -25.441733 23.163544 -25.441733 23.085547 L -25.441733 23.006445 L -25.51937 23.006445 C -25.59837 23.006445 -25.67621 23.006549 -25.75521 23.085547 C -25.91221 23.085547 -25.990948 23.163545 -25.911948 23.085547 C -25.754948 23.006547 -25.44153 22.849968 -25.28353 22.692968 C -25.19951 22.636838 -25.14367 22.581475 -25.103354 22.528906 C -25.52851 22.516516 -25.94917 22.457129 -26.304526 22.457129 C -26.70433 22.424029 -27.030079 22.302238 -27.30062 22.123144 C -27.2798 22.171614 -27.23479 22.23292 -27.168784 22.298925 C -27.011784 22.455925 -26.853678 22.613867 -27.089683 22.613867 C -27.089683 22.574867 -27.179025 22.514774 -27.247886 22.455664 C -27.248657 22.455767 -27.249825 22.456031 -27.253745 22.455664 C -27.288085 22.452464 -27.443351 22.426914 -27.718101 22.221289 C -27.484562 22.377311 -27.404426 22.377647 -27.249351 22.454199 C -27.317512 22.395914 -27.365677 22.337874 -27.404624 22.298925 L -27.561362 22.221289 L -27.638999 22.142187 C -27.717999 22.064187 -27.795839 21.985708 -27.874839 21.828711 C -27.874839 21.750711 -27.874467 21.67187 -27.952476 21.592871 C -27.952476 21.514871 -28.031577 21.514131 -28.031577 21.436132 C -28.031577 21.436132 -28.032679 21.357031 -28.110679 21.357031 C -28.189679 21.357031 -28.267519 21.277929 -28.346519 21.277929 C -28.425517 21.277929 -28.502894 21.200189 -28.580894 21.121191 C -28.7151 21.054936 -28.916627 20.901372 -29.115562 20.721289 L -29.131675 20.416601 L -29.203452 20.42832 C -29.231284 20.370374 -29.245728 20.321097 -29.288413 20.256933 C -29.294613 20.232083 -29.299841 20.202127 -29.305991 20.176367 C -29.366986 20.079272 -29.400954 19.9669 -29.445151 19.859961 L -28.854819 17.444433 C -28.426435 17.08327 -27.864053 16.871854 -27.291831 16.886328 C -27.276151 16.886089 -27.263796 16.881933 -27.247886 16.881933 L -26.853843 16.881933 C -26.696843 16.881933 -26.618218 16.880832 -26.776206 16.802832 C -26.697206 16.802832 -26.618262 16.882032 -26.461265 16.961035 C -26.457665 16.961035 -26.454661 16.963664 -26.451011 16.963964 C -26.428631 16.988834 -26.408358 17.013931 -26.383628 17.038671 C -26.304628 17.117671 -26.226788 17.19541 -26.147788 17.19541 C -26.089238 17.25471 -26.002856 17.339395 -25.910483 17.43125 C -25.527906 17.388972 -25.169478 17.327291 -24.82064 17.275976 L -21.280112 17.275976 L -21.280112 17.432714 L -17.442221 17.151464 L -17.557944 17.497168 L -17.667807 17.355078 L -17.579917 17.563086 L -17.784995 18.176855 L -17.824546 18.140234 L -17.795249 18.210546 L -17.824546 18.296972 L -17.749839 18.321875 L -17.275229 19.474707 L -18.845542 19.789648 L -16.80355 20.024023 L -16.56771 19.550879 L -16.33187 19.709082 L -16.488608 19.39414 L -16.33187 19.080664 L -17.162436 18.006933 L -16.882651 17.353613 L -17.370444 17.14414 L -12.72103 16.802832 L -12.72103 16.650488 C -12.69484 16.649488 -12.668108 16.648558 -12.641928 16.647558 L -12.72103 16.647558 L -12.72103 16.568457 L -14.237143 16.568457 C -13.996398 16.558149 -13.75574 16.542709 -13.514975 16.5333 C -13.379132 16.49275 -13.096177 16.489635 -12.800132 16.489355 C -12.795232 16.494255 -12.789183 16.499513 -12.785483 16.504003 C -12.68394 16.500603 -12.582338 16.495405 -12.480796 16.492285 C -12.493746 16.491331 -12.506776 16.489855 -12.520346 16.489355 L -12.406089 16.489355 C -11.654322 16.477715 -10.899111 16.472937 -10.14437 16.468847 C -9.8046873 16.422947 -9.5274046 16.377257 -9.8938814 16.331152 C -10.757871 16.253152 -10.600982 16.331258 -10.993979 16.410253 C -10.600982 16.253257 -12.092874 16.253775 -11.935874 16.096777 L -11.248862 16.165625 C -11.287982 16.155725 -11.306854 16.136277 -11.228354 16.096777 C -11.150354 16.175777 -10.443132 16.25388 -9.7371432 16.175878 C -9.3813861 16.219998 -9.3526544 16.338988 -9.4939791 16.462988 C -8.152159 16.459888 -6.8069031 16.472684 -5.4612642 16.498144 L -5.575522 16.489355 L -5.0262056 16.410253 L -5.0262056 16.489355 C -4.5329721 16.428095 -4.5226793 16.462542 -4.5032563 16.518652 C -3.9829472 16.531426 -3.4631473 16.551915 -2.9431977 16.569921 L -12.170249 16.569921 L -12.170249 16.647558 L -12.171714 16.647558 L -12.171714 16.805761 L -12.170249 16.805761 L -12.170249 16.9625 L -8.9549166 17.196875 C -9.0613639 17.239695 -9.1513549 17.279697 -9.2054049 17.312597 L -9.8147799 17.590918 L -7.6775728 17.454687 L -7.8518892 17.746191 L -7.2234712 18.059668 L -6.9876314 17.746191 L -7.4754244 17.441503 L -4.919272 17.278906 C -4.8796678 17.605274 -4.8462366 17.906739 -4.8181978 18.187109 L -4.7303071 19.748632 L -5.0247407 19.552343 L -5.2620454 19.867285 L -5.1829439 19.946386 L -2.8274751 21.909277 L -2.8260102 21.909277 L -1.9646821 22.692968 L -1.6497407 22.378027 L -2.6209321 21.780371 L -2.5916352 21.751074 L -2.6678071 21.751074 L -2.6707368 21.751074 L -2.8274751 21.516699 L -2.8274751 21.5958 L -4.4431977 19.980078 L -4.1619477 17.592382 L -0.079428127 17.592382 L -0.079428127 17.355078 L -0.47200626 17.277441 C -0.23700972 17.277441 -0.00045925086 17.277078 0.23551329 17.355078 C 1.6082007 17.431816 3.0538626 17.576479 4.4308259 17.585058 C 4.8889719 18.143634 5.0192169 18.938248 4.7882478 19.62998 C 5.5732374 19.787978 6.3591917 20.022301 7.1451814 20.179296 C 7.1914491 20.185903 7.2198533 20.211122 7.2638337 20.220312 C 7.2994069 21.284055 7.3228161 22.360905 7.3810212 23.401953 L 7.3810212 23.670019 C 7.188869 23.737154 6.9866151 23.791601 6.7526033 23.791601 C 5.8446927 23.791601 4.967102 23.760812 4.0821931 23.737402 L 4.0821931 23.869238 C 4.0821931 24.184237 3.9257153 24.41986 3.7687165 24.655859 L 3.7687165 24.673437 L 3.0113922 24.521093 L 3.0611969 24.420019 L 3.1402985 24.340918 L 3.1402985 24.261816 C 3.2182993 24.183816 3.2194001 24.026337 3.2194001 23.94834 L 3.2194001 23.791601 L 3.2194001 23.719824 C 3.0869145 23.718424 2.9592496 23.7125 2.8253571 23.7125 C 2.9113726 23.969999 2.926907 24.237499 2.9088532 24.50205 L 2.9044587 24.500586 L 2.5118805 25.20664 L 2.5909821 25.284277 C 2.6689819 25.441277 2.8254587 25.598855 2.9044587 25.676855 C 2.9959461 25.829218 3.1295855 25.939145 3.2399079 26.072363 L 2.9044587 25.988867 L 2.3346344 25.833593 C 2.2788738 25.890278 2.2019721 25.927459 2.1398102 25.978613 L 2.0109039 25.86289 L 2.0402008 25.833593 L 1.1774078 25.126074 L 1.1671539 25.136328 L -1.5706391 22.694433 L -1.9632172 22.694433 L -1.7273774 22.928808 L 1.0997711 25.44248 L 1.148111 25.44248 L 1.738443 25.933203 L 1.9230133 26.138281 C 1.8805174 26.16424 1.8513646 26.203402 1.8058258 26.226172 C 1.8921745 26.243441 1.9716786 26.267274 2.0563141 26.28623 L 3.7687165 28.190527 L 4.1612946 27.797949 L 2.6378571 26.426855 C 3.0163265 26.524647 3.40079 26.616877 3.7892243 26.705176 C 3.8604134 26.765104 3.9319573 26.776953 4.0030915 26.776953 L 4.0821931 26.776953 L 4.2403962 26.933691 L 4.2814118 26.872168 C 5.2461126 27.241175 5.6106232 28.168735 5.4386384 29.029883 L 5.4957673 28.972754 C 5.4957673 28.894754 5.573404 28.816015 5.573404 28.816015 C 5.6524038 28.659018 5.7316071 28.502798 5.7316071 28.345801 C 5.7316071 28.188801 5.8096071 28.031018 5.7316071 27.795019 C 5.7316071 27.482023 5.5740278 27.089124 5.339029 26.853125 L 5.1822907 26.696386 L 5.1031892 26.61875 L 5.0475251 26.563086 L 5.1031892 26.069433 L 5.1031892 25.912695 L 5.1339509 25.610937 C 5.5892149 25.697968 5.9743993 25.999266 6.2809236 26.38291 C 6.5949215 26.853906 6.8301379 27.403964 6.7511384 28.109961 C 6.7511384 28.109961 6.7515015 28.030859 6.6735017 28.030859 C 6.6735017 27.951859 6.5944001 27.951758 6.5944001 27.951758 C 6.5944001 28.081435 6.5791934 28.172357 6.5636384 28.259375 C 6.5635525 28.405131 6.537727 28.57551 6.4816072 28.757422 C 6.4603012 28.822562 6.4391267 28.886032 6.4391267 28.972754 C 6.3911717 29.068054 6.3747543 29.068616 6.3673493 29.043066 C 6.3634593 29.046966 6.3643751 29.047455 6.3600251 29.051855 C 6.3600251 29.129855 6.3599226 29.130957 6.2809236 29.130957 C 6.2019236 29.209957 6.2809236 29.209697 6.2809236 29.287695 L 6.2809236 29.366797 L 6.2809236 29.444433 L 6.2809236 29.601172 L 6.2809236 29.99375 C 6.2590352 30.124248 6.20066 30.247357 6.1564118 30.374609 L 5.9659822 29.99375 L 5.8092439 30.072851 L 5.6539704 29.837012 L 5.8092439 30.151953 L 5.6539704 30.231055 L 6.0157868 30.736426 C 5.9132712 30.927728 5.7941419 31.108949 5.6525056 31.250586 C 5.3385074 31.565582 5.0244503 31.720902 4.9464509 31.799902 C 4.7104521 31.877902 4.6318724 31.879004 4.5538727 31.879004 L 4.5538727 31.799902 C 4.5538727 31.799902 4.6318727 31.720801 4.5538727 31.720801 L 4.4938142 31.720801 C 4.465066 31.743356 4.4219085 31.752622 4.3912751 31.773535 L 3.6896149 30.231055 L 3.2179352 30.466894 L 4.1730134 31.86875 L 4.1612946 31.880469 L 4.1686188 31.887793 C 4.080266 31.93112 4.0088573 31.990499 3.9078766 32.021094 C 3.9148166 32.027894 3.9168368 32.027092 3.9254548 32.035742 C 4.0034546 32.035742 4.0821931 32.036844 4.0821931 32.114844 C 4.1611929 32.114844 4.2389313 32.19248 4.2389313 32.19248 C 4.2789313 32.19248 4.3178293 32.212281 4.3473298 32.232031 C 4.2926432 32.187216 4.3162163 32.180552 4.3780915 32.193945 L 5.339029 33.843359 L 5.4957673 33.749609 L 5.4957673 33.762793 C 5.4957673 33.840793 5.4956666 34.077577 5.4166657 34.313574 L 5.4166657 34.391211 L 5.4166657 34.470312 C 5.4166657 34.548312 5.339029 34.627051 5.339029 34.627051 C 5.2600292 34.705051 5.339029 34.704687 5.339029 34.704687 C 5.339029 34.704687 5.4167672 34.704793 5.4957673 34.783789 C 5.5737671 34.783789 5.5739705 34.784891 5.6539704 34.862891 L 5.8092439 34.862891 C 5.8882437 34.862891 5.9660842 34.941992 6.0450837 34.941992 C 5.8880847 34.862992 5.8092439 34.861792 5.8092439 34.783789 L 5.967447 34.783789 L 6.1241853 34.783789 L 6.0450837 34.704687 C 6.0450837 34.704687 5.967447 34.705061 5.967447 34.627051 L 6.0450837 34.627051 C 6.1230835 34.627051 6.201822 34.704687 6.201822 34.704687 C 6.2808218 34.704687 6.3600251 34.783789 6.3600251 34.783789 C 6.4390249 34.783789 6.4387643 34.862891 6.5167634 34.862891 C 6.7517621 35.019888 6.9094436 35.176207 6.9884431 35.412207 C 7.2244418 35.804207 7.3019197 36.19684 7.3019197 36.51084 C 7.3019197 36.824837 7.224283 37.139098 7.224283 37.375098 C 7.2144693 37.40429 7.2047684 37.433753 7.1949861 37.462988 L 7.1437165 37.225684 C 7.1657733 37.092582 7.2116664 36.901591 7.2169587 36.855078 C 7.2035779 36.768963 7.1556701 36.888212 7.1027009 37.039648 L 6.9869783 36.513769 L 6.5167634 36.592871 L 6.7819001 37.801367 C 6.7228361 37.900644 6.6694578 38.00756 6.5944001 38.082617 C 6.4384012 38.317617 6.2814451 38.553672 5.967447 38.788672 C 5.948324 38.798272 5.9171326 38.815098 5.8956696 38.826758 C 5.7572059 39.001857 5.5812404 39.141572 5.3888337 39.255957 L 3.6222321 37.615332 L 3.6896149 37.531836 L 2.198404 35.727148 L 1.8849274 35.961523 L 3.3761383 37.924414 L 3.4479157 37.835059 L 5.1149079 39.389258 C 4.9420466 39.451661 4.7589134 39.496191 4.5538727 39.496191 L 3.0802399 39.496191 C 2.9757692 39.547981 2.851806 39.600555 2.7477204 39.65293 C 2.6682524 39.679527 2.6056692 39.689557 2.5426422 39.699805 L 2.198404 39.182715 L 2.198404 39.025977 L 2.1193024 39.025977 L 1.8497711 38.800391 L 0.39225157 35.885351 L -0.079428127 36.121191 L -0.00032656251 36.27793 L 1.8834625 39.339453 L 1.8834625 39.418555 L 1.9200836 39.406836 L 2.0416657 39.890234 L -1.9632172 39.890234 L -1.9632172 40.045508 L -1.9646821 40.045508 L -1.9646821 40.064551 C -2.372523 40.057702 -2.7803728 40.049807 -3.1878266 40.042578 L -0.54964298 37.770605 L -1.3567719 37.833594 L -1.2835297 37.613867 L -0.62874454 37.219824 L -1.0989594 36.827246 L -1.4446625 37.345801 L -1.4915375 37.298926 L -1.5281586 37.468848 L -1.5721039 37.534766 L -1.5472016 37.559668 L -1.6219086 37.905371 L -2.3206391 38.659766 L -2.3557954 38.554297 L -3.1409516 38.790137 L -2.9842133 39.182715 L -2.6150727 38.977637 L -3.5335298 39.967871 L -3.5833344 40.036719 C -3.7589624 40.033558 -3.9351041 40.029679 -4.1106782 40.026465 L -3.2976899 39.339453 L -3.5335298 39.025977 L -4.5545259 39.890234 L -4.4563813 40.020605 C -7.7072099 39.960519 -10.96311 39.90568 -14.222495 39.853613 L -14.448081 39.102148 L -16.018393 39.258887 L -16.018393 39.337988 L -16.018393 39.573828 L -14.840659 39.65293 L -14.949057 39.841895 C -15.437345 39.834468 -15.921795 39.823562 -16.410971 39.816992 L -16.410971 39.18125 L -16.80355 39.102148 L -16.979331 39.806738 C -19.903228 39.732321 -22.828699 39.729382 -25.676108 39.65293 C -26.037857 39.65293 -26.501554 39.675581 -26.921226 39.592871 C -27.240884 39.977595 -27.136498 40.045508 -27.010581 40.045508 C -27.010581 40.045508 -27.246261 40.0454 -27.482261 39.966406 z M -26.451011 16.963964 C -26.499221 16.910404 -26.540366 16.8561 -26.540366 16.802832 C -26.540366 16.802832 -26.512968 16.825217 -26.477378 16.846777 C -26.438578 16.885057 -26.282989 16.948731 -26.147788 17.038671 L -26.068686 17.117773 L -25.99105 17.19541 L -25.932456 17.254003 C -25.952086 17.254003 -25.990188 17.23491 -26.068686 17.19541 C -26.146686 17.11741 -26.226526 17.11767 -26.304526 17.038671 C -26.304526 17.038671 -26.376696 16.970544 -26.451011 16.963964 z M -25.932456 17.254003 C -25.912836 17.254003 -25.911948 17.23491 -25.911948 17.19541 C -25.911948 17.19541 -25.991788 17.11767 -26.147788 17.038671 C -26.226788 16.960673 -26.304628 16.960931 -26.383628 16.881933 C -26.417878 16.881933 -26.449518 16.863647 -26.477378 16.846777 C -26.506308 16.818237 -26.472378 16.802832 -26.304526 16.802832 L -26.147788 16.961035 C -26.147788 16.961035 -26.068686 16.960669 -26.068686 17.038671 L -25.99105 17.038671 L -25.832847 17.19541 L -25.676108 17.19541 L -25.441733 17.19541 L -25.28353 17.19541 L -25.28353 17.274511 C -25.44153 17.274511 -25.675847 17.353613 -25.832847 17.353613 L -25.932456 17.254003 z M -35.449546 25.77207 C -35.462066 25.79265 -35.470222 25.813005 -35.490562 25.833593 L -35.569663 25.91123 C -35.569663 25.84651 -35.512623 25.792465 -35.449546 25.77207 z M -33.220054 28.810156 C -33.164974 28.813056 -33.109633 28.816015 -33.057456 28.816015 L -33.214194 28.816015 C -33.218994 28.813615 -33.215954 28.812456 -33.220054 28.810156 z M -27.952476 39.732031 C -27.868726 39.794711 -27.792127 39.845345 -27.718101 39.88877 C -27.796099 39.88877 -27.795841 39.809668 -27.874839 39.809668 L -27.952476 39.732031 z M -27.63021 39.918066 C -27.62281 39.935526 -27.611799 39.947978 -27.593589 39.954688 C -27.634069 39.934448 -27.673689 39.91393 -27.716636 39.88877 C -27.687786 39.90302 -27.65907 39.908076 -27.63021 39.918066 z M 2.5646149 39.629492 C 2.7218007 39.599872 2.864531 39.548672 3.0026032 39.496191 L 2.7403961 39.496191 C 2.7065823 39.507181 2.6859192 39.50599 2.6554352 39.51377 C 2.6290642 39.556348 2.5947879 39.59088 2.5646149 39.629492 z M -4.5545259 39.575293 L -2.5916352 38.161719 L -2.6692719 38.082617 L -1.1927094 35.57041 L -0.62874454 35.57041 L -1.0213227 36.357031 L -0.3929047 36.827246 L -0.23616641 36.119727 L 0.31315001 35.492773 L -1.0213227 34.079199 L -1.3347992 34.315039 L -0.94222111 34.864355 L -1.3025727 35.344824 L -1.3347992 35.33457 L -1.4139008 35.413672 L -4.5545259 39.575293 z M -29.052573 39.418555 L -25.911948 39.261816 L -25.94271 39.251563 L -25.440268 39.18125 L -25.597007 38.788672 L -26.068686 38.94541 L -25.996909 39.233984 L -28.109214 38.554297 L -28.346519 37.533301 L -28.503257 38.711035 L -29.052573 38.946875 L -29.052573 39.418555 z M -26.853843 38.946875 L -26.304526 38.867773 L -26.382163 38.552832 L -26.932944 38.631934 L -26.853843 38.946875 z M -28.503257 38.316992 L -28.424155 37.218359 L -28.503257 37.140723 L -28.503257 37.139258 C -28.425957 36.983718 -28.424155 36.826938 -28.424155 36.670508 C -28.424155 36.493758 -28.42645 36.310245 -28.42855 36.119727 C -28.43992 34.791789 -28.485742 33.463419 -28.498862 32.135351 C -28.500662 31.920013 -28.503257 31.70396 -28.503257 31.48789 C -28.503257 31.313932 -28.52029 31.140146 -28.56478 30.966406 C -28.57366 30.931706 -28.581302 30.897102 -28.592612 30.862402 C -28.661665 30.622602 -28.76686 30.402683 -28.895835 30.231055 L -29.052573 29.838476 L -29.052573 34.628516 L -29.124351 34.628516 C -29.125862 34.628462 -29.130219 34.627051 -29.131675 34.627051 C -29.192875 34.606481 -29.265425 34.595671 -29.330894 34.581641 C -29.492032 34.622921 -29.498355 34.659734 -29.275229 34.690039 L -28.885581 36.589941 L -28.895835 36.589941 L -28.895835 37.061621 L -28.787437 37.061621 L -28.746421 37.263769 L -28.895835 38.239355 L -28.503257 38.316992 z M 6.8214509 38.208594 C 6.7916501 38.218253 6.7907402 38.199249 6.83024 38.160254 C 6.8366646 38.153829 6.8428474 38.123316 6.8492829 38.114844 L 6.8639314 38.176367 C 6.8526721 38.182793 6.8290473 38.206132 6.8214509 38.208594 z M 6.3512361 37.742773 C 6.4564608 37.444206 6.5029053 37.070419 6.4376618 36.74668 C 6.359662 36.35368 6.0446054 36.040885 5.7316071 35.883887 C 5.7316071 35.883887 5.6524039 35.883779 5.573404 35.804785 L 5.4957673 35.804785 C 5.3387682 35.804785 5.259188 35.725684 5.1031892 35.725684 C 4.9461898 35.725684 4.8662472 35.726056 4.7882478 35.648047 C 4.7102478 35.648047 4.5538727 35.647938 4.5538727 35.568945 C 4.5538727 35.489945 4.553509 35.412567 4.6315095 35.33457 C 4.7105093 35.019573 4.8673493 34.705309 4.8673493 34.470312 C 4.8673493 34.313315 4.8662496 34.156095 4.7882478 34.000098 C 4.7102478 33.686098 4.4752928 33.370476 4.1612946 33.213476 C 4.2392944 33.213476 4.3194977 33.292476 4.3194977 33.213476 C 4.3194977 33.213476 4.3189298 33.135736 4.2389313 33.056738 C 4.2389313 33.056738 4.1611931 32.979101 4.0821931 32.979101 C 4.0821931 32.979101 4.0030915 32.978999 4.0030915 32.9 L 3.8463532 32.9 C 4.081352 33.213999 2.3547204 32.741897 1.7267243 32.820898 C 2.3547204 32.741898 -0.54974293 32.428683 0.39225157 32.350683 C -0.31374422 32.271685 0.31393263 32.42832 -0.15706485 32.42832 C -0.44045208 32.357586 -0.72352701 32.320976 -1.0066742 32.275976 L -2.5916352 31.174414 L -2.6223969 31.194922 L -2.8479829 31.035254 L -2.8274751 31.014746 L -3.4544282 30.387793 L -3.7693696 30.701269 L -3.0618501 31.250586 L -3.0486665 31.237402 L -2.5916352 31.565527 L -2.5828461 31.552344 L -1.8782563 32.189551 C -2.1171031 32.190843 -2.3569834 32.19248 -2.5916352 32.19248 C -2.2912462 32.240683 -2.0025884 32.300779 -1.702475 32.349219 L -1.1795258 32.822363 L -0.85433049 32.497168 C 0.51695474 32.722529 1.8979383 32.93867 3.2194001 33.213476 C 4.3973845 33.449473 4.7892321 34.785161 4.476236 35.727148 C 4.6322347 35.727148 4.8680902 35.804785 5.0240876 35.804785 C 6.0746108 35.96031 6.4678954 36.866818 6.3512361 37.742773 z M 6.2809236 36.275 L 6.6735017 36.118262 L 6.4391267 35.491309 L 6.0450837 35.648047 L 6.2809236 36.275 z M -23.449546 35.563086 C -23.591319 35.528586 -23.737131 35.494826 -23.896323 35.460547 C -24.047716 35.437717 -24.199017 35.414974 -24.350425 35.393164 C -24.354925 35.393535 -24.359128 35.394229 -24.363608 35.394629 C -24.406628 35.410719 -24.092494 35.489844 -24.262534 35.489844 L -24.53939 35.410742 C -24.793246 35.426742 -25.04828 35.431607 -25.28353 35.412207 L -25.074058 35.360937 C -25.093868 35.351137 -25.113582 35.339141 -25.123862 35.328711 C -25.439242 35.326711 -25.83445 35.422561 -26.215171 35.513281 C -25.288867 35.523601 -24.364024 35.536506 -23.449546 35.563086 z M -31.898765 35.287695 C -31.903765 35.285195 -31.899466 35.275219 -31.879722 35.255469 C -31.879722 35.255469 -31.859672 35.254265 -31.831382 35.245215 C -31.855322 35.258075 -31.893105 35.290505 -31.898765 35.287695 z M 1.4908844 35.019629 L 1.7267243 34.704687 L 1.2535797 34.389746 L 0.70572814 33.841894 L 0.39371641 34.077734 L 0.95182189 34.575781 L 0.94156799 34.627051 L 1.4908844 35.019629 z M -29.896323 34.950781 C -29.778573 34.940881 -29.641651 34.902391 -29.445151 34.862891 C -29.680151 34.862891 -30.073308 34.784891 -30.230308 34.862891 C -30.112808 34.941889 -30.014073 34.960661 -29.896323 34.950781 z M -28.230796 34.700293 L -28.178062 34.691504 C -28.174362 34.687704 -28.174358 34.683305 -28.167808 34.679785 C -28.187098 34.656935 -28.18978 34.627051 -28.18978 34.627051 C -28.28607 34.627051 -28.262136 34.659213 -28.230796 34.700293 z M -31.889976 34.583105 C -31.922506 34.580605 -31.970086 34.571354 -32.03646 34.549414 L -31.879722 34.549414 C -31.822942 34.549414 -31.806846 34.589405 -31.889976 34.583105 z M -1.6497407 34.155371 L -1.3347992 33.920996 L -1.4051117 33.815527 L -1.3347992 33.843359 L -1.5838227 33.547461 L -1.6497407 33.449316 L -1.6731782 33.443457 L -2.5916352 32.353613 L -2.9051118 32.66709 L -2.1199555 33.531348 L -2.1184907 33.531348 L -1.6497407 34.155371 z M 0.23551329 34.000098 L 0.47135313 33.685156 L -0.00032656251 33.292578 L -0.23616641 33.606055 L 0.23551329 34.000098 z M -33.057456 33.606055 C -33.292456 33.449055 -33.448569 33.136101 -33.448569 32.979101 C -33.370569 33.2141 -33.214456 33.449055 -33.057456 33.606055 z M 5.4313142 33.206152 L 4.8072907 32.375586 C 4.8344299 32.390223 4.8673493 32.401741 4.8673493 32.42832 L 4.7882478 32.271582 C 5.024246 32.428581 5.1039286 32.584798 5.2599274 32.741797 C 5.3389274 32.898796 5.4166657 32.97884 5.4166657 33.13584 C 5.4308848 33.178137 5.4217476 33.173106 5.4313142 33.206152 z M -3.1424165 32.19248 L -2.9051118 31.958105 L -3.2200532 31.565527 L -3.3767915 31.644629 L -3.5335298 31.879004 L -3.1424165 32.19248 z M -4.318686 30.858008 L -4.0052095 30.544531 L -4.6350923 30.0875 L -4.6321626 30.074316 L -5.0979829 29.672949 L -4.7903657 29.287695 L -5.3763032 28.936133 L -5.4173189 28.895117 L -5.9681001 28.345801 L -6.2024751 28.659277 L -5.7322603 28.974219 L -5.153647 29.624609 L -6.3606783 28.583105 L -6.6741548 28.975683 L -4.712729 30.466894 L -4.318686 30.858008 z M 5.1031892 30.718847 C 5.2449533 30.557486 5.3657059 30.3571 5.4166657 30.151953 C 5.4956657 29.994954 5.4957673 29.837272 5.4957673 29.680273 L 5.4957673 29.602637 L 5.4957673 29.523535 L 5.4957673 29.497168 L 5.6525056 29.28916 L 4.710611 28.504004 L 4.476236 28.818945 L 4.5538727 28.898047 L 5.2584626 29.47373 C 5.2070655 29.595702 5.1787663 29.727713 5.1031892 29.837012 C 5.170265 30.128435 5.165728 30.430975 5.1031892 30.718847 z M -3.9275727 30.46543 L -3.690268 30.150488 L -4.1619477 29.916113 L -4.4754243 30.150488 L -3.9275727 30.46543 z M 2.9835602 30.231055 L 3.1402985 30.231055 L 3.3761383 29.99668 L 3.2970368 29.917578 L 2.198404 28.504004 L 1.8058258 28.818945 L 2.9835602 30.231055 z M -31.643882 29.523535 C -31.721882 29.444535 -31.80062 29.444795 -31.80062 29.366797 L -31.80062 29.287695 C -31.80062 29.366695 -31.72188 29.444535 -31.643882 29.523535 z M -6.9099947 28.583105 L -6.7239595 28.334082 L -6.5174165 28.504004 L -6.20394 28.111426 L -7.5750337 27.288183 L -7.6175142 27.245703 L -8.7952486 26.462011 L -8.7952486 26.482519 L -10.708335 25.170019 L -10.443198 25.284277 L -12.955405 23.242285 L -12.24935 24.335058 L -12.24935 24.340918 L -12.562827 24.420019 L -12.24935 24.497656 L -12.24935 24.576758 L -12.171714 24.576758 L -12.092612 24.576758 L -11.304526 24.915136 L -11.464194 25.127539 L -9.5921236 26.548437 L -9.6580416 26.539648 L -8.1668306 27.874121 L -8.4627291 27.165136 L -7.7200533 27.512304 L -7.1253267 28.003027 L -8.0100923 27.483008 L -8.1653658 27.797949 L -6.9099947 28.583105 z M 6.5621736 28.202246 C 6.5889264 27.946848 6.5739944 27.779332 6.5167634 27.951758 C 6.5441664 28.006918 6.5574076 28.099064 6.5621736 28.202246 z M 1.1774078 28.190527 L 1.6490875 27.875586 L 0.62809142 26.697851 L 0.31461485 26.933691 L 1.1774078 28.190527 z M 0.077310158 26.775488 L 0.31315001 26.462011 L -0.00032656251 26.226172 L -0.31380313 26.539648 L 0.077310158 26.775488 z M 4.9596345 26.51914 C 4.9327547 26.505091 4.9059965 26.496687 4.8790681 26.492773 C 4.8986048 26.483167 4.9270128 26.473072 4.9464509 26.463476 L 4.9596345 26.51914 z M 4.3107087 26.341894 L 4.1114899 26.29209 L 3.2970368 25.20664 L 3.2985016 25.203711 L 3.3761383 25.203711 L 3.4537751 25.203711 C 3.5327749 25.203711 3.6119782 25.203815 3.6119782 25.282812 C 3.7689773 25.282812 3.8460924 25.361914 4.0030915 25.361914 C 4.1600903 25.361914 4.3187718 25.441015 4.4747712 25.441015 L 4.476236 25.441015 C 4.5423631 25.441585 4.6263974 25.489602 4.7384431 25.506933 L 4.7692048 25.553808 L 4.3107087 26.341894 z M -0.86458439 25.990332 L -0.54964298 25.67539 L -0.94222111 25.205176 L -1.2556977 25.518652 L -0.86458439 25.990332 z M -35.333823 25.205176 C -35.333823 25.205176 -35.306489 25.175649 -35.284019 25.170019 C -35.300559 25.181579 -35.316473 25.193586 -35.333823 25.205176 z M 3.3395173 25.123144 L 3.3644196 25.07334 C 3.3778663 25.077882 3.3847956 25.080526 3.398111 25.085058 C 3.3787461 25.097474 3.3588946 25.113439 3.3395173 25.123144 z M -26.540366 24.890234 C -27.090364 24.734235 -27.40368 24.812864 -27.089683 24.655859 C -26.147687 24.655859 -26.853684 24.812597 -26.068686 24.812597 C -25.833689 24.890597 -26.776364 24.812231 -26.540366 24.890234 z M 3.8463532 24.655859 C 3.925353 24.576859 3.9254548 24.498757 3.9254548 24.576758 L 3.8463532 24.655859 z M -2.6692719 24.184179 L -2.4348969 23.869238 L -3.3767915 23.242285 L -3.6126313 23.555761 L -2.6692719 24.184179 z M 7.6168611 23.558691 C 7.6168611 23.517711 7.6155132 23.478009 7.6153962 23.437109 C 7.6162812 23.451509 7.6163271 23.46529 7.6168611 23.47959 L 7.6168611 23.558691 z M 7.9288728 23.353613 L 7.9288728 22.615332 L 8.0079744 22.615332 C 8.0290244 22.360772 8.0469381 22.106498 8.0665681 21.852148 C 8.0780781 21.760298 8.0870759 21.672036 8.0870759 21.594336 C 8.1233961 21.305633 8.119632 20.996706 8.1295564 20.691992 C 8.8221955 21.416453 8.7120833 22.684193 7.9288728 23.353613 z M -3.8484712 23.319922 L -3.7693696 23.319922 L -3.6126313 23.085547 L -3.9261079 22.849707 L -4.0828462 23.085547 L -3.8484712 23.319922 z M -4.6321626 22.615332 L -4.4754243 22.458593 L -5.1829439 21.830175 L -5.2620454 21.830175 L -5.1829439 21.986914 L -5.2620454 21.909277 L -5.3396821 21.986914 L -5.2620454 22.06455 L -4.6321626 22.615332 z M -14.055503 21.670507 L -13.740561 21.670507 L -13.740561 21.515234 L -13.740561 21.279394 C -13.740561 21.200354 -13.819764 21.200656 -13.898764 21.122656 L -14.133139 21.122656 L -14.055503 21.670507 z M -5.4964204 21.592871 L -5.2620454 21.357031 L -5.4964204 21.043554 L -5.7322603 21.200293 L -5.575522 21.436132 L -5.4964204 21.592871 z M -10.679038 21.043554 L -10.601401 21.043554 L -10.522299 21.043554 L -10.443198 21.043554 L -10.365561 20.964453 L -10.28646 20.964453 L -10.28646 20.886816 C -10.28646 20.807786 -10.286562 20.808078 -10.365561 20.730078 L -10.443198 20.730078 L -10.522299 20.730078 L -12.171714 18.767187 L -12.641928 19.317968 L -10.785971 20.816504 L -10.758139 20.886816 L -10.679038 21.043554 z M -14.055503 20.731543 L -13.740561 20.652441 L -13.740561 19.004492 L -13.662924 17.355078 L -13.976401 17.275976 L -13.976401 19.082129 L -14.055503 20.731543 z M -29.524253 19.679785 C -29.586947 19.468248 -29.620616 19.243579 -29.60189 19.001562 C -29.60189 18.815989 -29.570461 18.641958 -29.524253 18.474218 L -29.524253 19.679785 z M -18.845542 19.62998 L -18.76644 19.62998 L -18.687339 19.62998 L -18.609702 19.39414 L -18.76644 19.39414 L -18.845542 19.39414 L -18.76644 19.473242 L -18.76644 19.550879 L -18.845542 19.62998 z M -7.3626314 19.600683 L -7.2688814 19.30039 L -7.6438814 19.183203 L -7.7376314 19.482031 L -7.3626314 19.600683 z M -29.052573 19.473242 L -28.659995 19.316504 L -28.739097 18.765722 L -29.052573 18.765722 L -29.052573 19.473242 z M -19.317221 19.473242 L -19.00228 19.39414 L -19.23812 18.844824 L -19.551596 19.080664 L -19.317221 19.473242 z M -5.1038423 19.395605 L -4.8694673 19.004492 L -5.6765962 18.548925 L -5.2620454 18.688086 L -5.8904634 18.216406 L -6.1248384 18.295507 L -6.2024751 18.295507 L -6.2024751 18.373144 L -6.2024751 18.412695 L -6.2815767 18.531347 L -5.1038423 19.395605 z M -8.1653658 19.1583 L -8.0100923 18.844824 L -8.5594088 18.531347 L -8.716147 18.765722 L -8.1653658 19.1583 z M -17.039389 18.846289 L -17.54769 18.389257 L -17.352866 18.453711 L -17.278159 18.279394 L -17.039389 18.846289 z M -19.00228 18.767187 L -18.5306 17.511816 L -18.687339 17.434179 L -19.00228 17.355078 L -19.315757 18.610449 L -19.00228 18.767187 z M -4.4754243 18.68955 L -4.4959321 18.288183 C -4.4585233 18.003413 -4.4235076 17.717624 -4.3977876 17.432714 L -4.3201509 17.432714 L -4.4754243 18.68955 z M -9.344565 18.452246 L -9.2654635 18.452246 L -9.1878267 18.452246 L -9.1878267 18.373144 L -9.1878267 18.295507 C -9.1878267 18.217407 -9.1874635 18.216406 -9.2654635 18.216406 L -9.4222018 18.138769 L -9.4222018 18.295507 L -9.4251314 18.298437 C -9.4480794 18.296357 -9.4736133 18.295507 -9.5013033 18.295507 C -9.4838103 18.307207 -9.4678515 18.317269 -9.4529635 18.326269 L -9.5013033 18.373144 L -9.344565 18.452246 z M -9.5013033 18.295507 C -9.4774963 18.301107 -9.4562362 18.306156 -9.4368502 18.310156 L -9.4441744 18.316015 C -9.4613294 18.309215 -9.4804453 18.302507 -9.5013033 18.295507 z M -1.5413422 17.202734 C -1.5769746 17.200734 -1.6147617 17.196875 -1.6497407 17.196875 L -1.6497407 17.040136 C -1.6032006 17.043436 -1.5571185 17.04639 -1.5105805 17.05039 L -1.5413422 17.202734 z M -6.138022 17.15 C -5.7427158 17.11773 -5.3453962 17.082036 -4.947104 17.040136 C -4.94325 17.070736 -4.9405501 17.094997 -4.9368501 17.125097 L -6.138022 17.15 z M -1.7698578 16.569921 C -1.6741371 16.545307 -1.5899135 16.524734 -1.4139008 16.489355 C -1.334901 16.489355 -1.2572181 16.568457 -0.94222111 16.568457 C -0.70722322 16.568457 -0.94222111 16.489355 -0.94222111 16.489355 C -0.83968029 16.489355 -0.62424584 16.524453 -0.62874454 16.569921 L -1.7698578 16.569921 z M -22.378745 16.568457 L -22.378745 16.489355 L -22.063804 16.568457 L -22.378745 16.568457 z M -17.606284 16.568457 C -17.601379 16.567965 -17.593587 16.567483 -17.588706 16.566992 C -17.582845 16.566992 -17.584416 16.568403 -17.578452 16.568457 L -17.606284 16.568457 z M -16.80355 16.489355 L -16.09603 16.410253 L -15.939292 16.410253 C -16.332289 16.489253 -16.80355 16.489355 -16.80355 16.489355 z M -15.700522 16.44541 C -15.760792 16.44291 -15.817498 16.432473 -15.861655 16.410253 L -15.319663 16.410253 C -15.383813 16.413453 -15.553188 16.45151 -15.700522 16.44541 z M -13.427085 16.410253 L -13.662924 16.332617 L -13.270346 16.253515 L -13.427085 16.410253 z M -14.91976 16.332617 L -14.448081 16.253515 L -14.212241 16.253515 L -14.91976 16.332617 z M -8.4099947 16.253515 C -8.8308555 16.244815 -9.0786061 16.175878 -8.6370455 16.175878 L -8.3235689 16.175878 L -8.3235689 16.253515 C -8.3530089 16.253515 -8.3819349 16.254094 -8.4099947 16.253515 z M -26.461265 1.5025383 L -26.461265 1.1011711 L -26.938804 1.3692375 L -26.97103 1.177343 L -26.697104 1.177343 L -26.697104 1.0206047 L -26.997397 1.0206047 L -27.010581 0.94443283 L -27.309409 0.98984299 C -27.318496 0.97411599 -27.328136 0.95868653 -27.337241 0.94296799 L -26.774741 0.94296799 L -26.774741 0.94150314 L -26.697104 0.94150314 L -26.697104 0.70859298 L -25.534018 0.70859298 L -25.51937 0.78476486 L -25.441733 0.78476486 C -25.347426 0.7613649 -25.239535 0.73399294 -25.135581 0.70859298 L -24.586265 0.70859298 L -25.205893 0.86386642 L -25.205893 0.94296799 C -24.989237 0.8339482 -24.772135 0.76759287 -24.555503 0.70859298 L -24.529136 0.70859298 C -24.72936 0.80613402 -24.929783 0.90183739 -25.125327 1.0206047 C -25.578211 1.2940546 -26.024057 1.4270144 -26.461265 1.5025383 z M -27.053061 1.4322258 C -27.053595 1.4312773 -27.053993 1.4302446 -27.054526 1.4292961 L -27.044272 1.4278313 L -27.053061 1.4322258 z M -27.559897 0.56064376 C -27.561899 0.5572514 -27.563755 0.55378192 -27.565757 0.55038985 L -27.559897 0.55038985 L -27.559897 0.56064376 z M -24.142417 0.5284172 L -24.105796 0.47275313 L -24.013511 0.48007735 C -24.056285 0.49714487 -24.099818 0.51054214 -24.142417 0.5284172 z M -26.618003 0.31015547 L -26.618003 0.24863204 L -26.616538 0.24863204 L -26.60189 0.30722579 L -26.618003 0.31015547 z M -25.834311 0.173925 L -25.834311 0.15781172 L -25.832847 0.15781172 L -25.47689 0.10507735 C -25.245739 0.073907403 -25.017896 0.039703054 -24.791343 0.0040031251 C -24.785483 0.0030031271 -24.779565 0.0019934357 -24.773765 0.0010734375 L -24.693198 -0.010645313 L -24.57894 0.027440626 L -25.472495 0.16074141 L -25.75521 0.16074141 L -25.834311 0.173925 z M -24.665366 0.16074141 L -24.385581 0.091893752 L -24.184897 0.15781172 L -24.196616 0.16074141 L -24.665366 0.16074141 z M -23.949058 0.099217971 L -23.949058 -0.017969532 L -23.713218 -0.076563283 L -23.713218 -0.10293047 L -23.631186 -0.11464922 C -23.628926 -0.053119344 -23.619729 0.0010734375 -23.556479 0.0010734375 L -23.949058 0.099217971 z M -23.713218 -0.10293047 L -23.949058 -0.06777422 L -23.949058 -0.076563283 L -23.905112 -0.12197344 C -23.841063 -0.12967342 -23.778018 -0.13841096 -23.713218 -0.14541094 L -23.713218 -0.10293047 z M -27.832358 0.091893752 C -27.848712 0.064632104 -27.864314 0.037112915 -27.880698 0.0098625002 C -27.878898 0.0061671876 -27.876639 0.0033145826 -27.874839 -0.00039140626 C -27.089843 -1.649385 -27.717999 -3.4545506 -27.638999 -5.1815439 C -27.482999 -7.8515331 -26.697261 -10.521423 -26.461265 -13.270411 C -26.303265 -15.154403 -26.14805 -17.038251 -25.99105 -18.923243 C -25.67705 -20.100239 -25.59753 -21.356189 -25.28353 -22.613185 C -24.969534 -23.712181 -24.576632 -24.733919 -24.341636 -25.832911 C -24.262636 -26.146911 -24.184897 -26.539443 -24.184897 -26.852443 C -23.320901 -29.130431 -22.299483 -31.407482 -21.514487 -33.684474 C -20.572491 -36.353462 -19.708436 -39.10199 -18.76644 -41.850978 C -18.216444 -43.421974 -17.745124 -44.99192 -17.196128 -46.561916 C -16.960128 -47.189912 -16.725073 -47.896447 -16.490073 -48.602443 C -15.704077 -51.037435 -13.899186 -54.179057 -14.527182 -56.848049 C -13.585186 -52.765065 -12.248612 -48.839486 -11.071616 -44.912502 C -10.12962 -41.850514 -9.737665 -38.867396 -8.4026705 -36.041408 C -7.1456753 -33.371416 -5.5750441 -30.935107 -4.2410493 -28.345119 C -0.39306462 -20.886147 0.94072704 -12.171039 -0.31526798 -3.8470712 C -0.48007067 -2.7460488 -0.60831196 -1.5057853 -0.31087344 -0.4486336 C -0.96072534 -0.5414255 -1.6053349 -0.64099182 -2.2766938 -0.70498126 C -5.1816281 -0.86297096 -8.089045 -0.94045802 -10.993979 -1.0184578 C -11.428349 -1.0184578 -11.839697 -1.033525 -12.271323 -1.044825 L -12.171714 -1.176661 L -15.154135 -1.176661 L -15.310874 -1.3333992 L -16.085776 -1.2542977 L -16.33187 -1.2542977 L -16.33187 -1.2293953 L -19.159018 -0.94082111 L -18.76644 -1.2542977 L -25.293784 -0.2845711 L -25.597007 -0.31240313 L -25.446128 -0.26259844 L -27.832358 0.091893752 z M -4.8299165 -0.27285235 L -5.2371431 -0.30507891 L -5.228354 -0.33291094 C -5.0897113 -0.32681096 -4.9532505 -0.3203328 -4.8152681 -0.31533282 L -4.8299165 -0.27285235 z M -4.1956391 -0.27871172 L -4.263022 -0.29189532 C -4.240092 -0.29089532 -4.2171143 -0.28850079 -4.1941743 -0.28750079 L -4.1956391 -0.27871172 z M -5.7220064 -0.34316485 L -6.025229 -0.36660235 C -5.9224723 -0.36240237 -5.8215954 -0.35841874 -5.7190767 -0.35341876 L -5.7220064 -0.34316485 z M -20.089194 -0.38271563 C -19.364284 -0.45386007 -18.634151 -0.49927449 -17.903647 -0.54677814 L -17.897788 -0.52773517 C -18.248446 -0.49273523 -18.608145 -0.46205542 -18.964194 -0.43105548 L -20.089194 -0.38271563 z M -17.886069 -0.54824298 C -17.592745 -0.56721892 -17.304684 -0.60034667 -17.008628 -0.61416095 L -17.667807 -0.54824298 L -17.886069 -0.54824298 z M -19.393393 -0.78408283 C -19.377466 -0.79468281 -19.372773 -0.79898519 -19.358237 -0.80898517 L -17.310386 -0.99941486 C -17.955344 -0.933535 -18.638512 -0.85828268 -19.38021 -0.78408283 L -19.393393 -0.78408283 z M -16.947104 -1.0331063 L -16.33187 -1.0902352 L -16.33187 -1.0873055 C -16.539888 -1.0683055 -16.731583 -1.0545061 -16.947104 -1.0331063 z M -15.782553 -1.1356453 L -15.782553 -1.1400399 L -15.389975 -1.176661 L -15.39144 -1.1693367 C -15.51368 -1.1608369 -15.65577 -1.1458453 -15.782553 -1.1356453 z M 7.8717439 -40.487209 C 7.8765439 -40.501039 7.8969477 -40.581166 7.9303377 -40.749416 C 7.8937777 -40.602226 7.8740439 -40.506709 7.8717439 -40.487209 z M -15.288901 -74.187405 C -15.281591 -74.192405 -15.262487 -74.216795 -15.233237 -74.275295 C -15.282001 -74.226495 -15.301091 -74.179405 -15.288901 -74.187405 z "
         transform="matrix(0.99999998,0,0,-0.99999998,60.7181,180.9708)" />
    </g>
  </g>
  <g
     id="g2108"
     data-name="Cutkontur"
     style="display:inline">
    <g
       clip-path="url(#clip_1)"
       id="g2107">
      <path
         transform="matrix(1,0,0,-1,74.7581,63.758394)"
         stroke-width="0.25"
         stroke-linecap="butt"
         stroke-miterlimit="10"
         stroke-linejoin="miter"
         fill="none"
         stroke="#ec008c"
         d="m 0,0 c 0.007,0.079 0.015,0.157 0.023,0.236 0.05,0.449 0.13,0.885 0.158,1.337 0.027,0.45 0.03,0.901 0.019,1.352 -0.011,0.448 -0.035,0.894 -0.061,1.342 -0.294,4.875 -1.755,9.767 -1.063,14.602 0.624,4.349 -0.755,8.466 -4.191,11.749 -0.477,0.455 -0.736,1.115 -0.88,1.758 -0.502,2.236 1.365,6.033 -0.508,7.354 -5.171,3.65 -10.053,5 -16.253,6.269 0.242,3.244 -0.676,6.29 -1.901,9.255 -1.223,-0.867 -1.991,-1.879 -2.43,-3.375 -0.228,-0.78 -0.672,-1.993 -0.694,-2.806 -0.034,-1.22 -0.381,-1.859 -0.415,-3.078 -2.372,-0.223 -4.743,-0.445 -7.115,-0.666 -1.135,-0.107 -2.371,-0.189 -3.32,0.441 -0.854,0.566 -1.284,1.587 -2.024,2.295 -1.561,1.493 -4.503,1.049 -5.554,-0.838 -0.621,-1.115 -0.598,-2.46 -0.588,-3.736 10e-4,-0.245 -0.009,-0.52 -0.184,-0.692 -0.258,-0.253 -0.68,-0.131 -1.041,-0.107 -0.891,0.059 -1.695,-0.629 -2.059,-1.444 -0.364,-0.815 -0.383,-1.737 -0.396,-2.629 -0.041,-2.818 -0.516,-5.395 -0.557,-8.213 -2.806,0.142 -6.198,0.12 -7.715,-0.552 -1.003,-0.863 -1.213,-9.451 -0.622,-14.393 0.062,-0.519 0.156,-1.087 0.556,-1.424 0.247,-0.208 0.574,-0.292 0.89,-0.361 1.887,-0.411 3.845,-0.5 5.762,-0.262 -0.365,-0.989 -0.273,-2.081 -0.176,-3.13 0.261,-2.829 0.522,-5.657 0.783,-8.486 0.156,-1.689 0.322,-3.417 1.04,-4.953 0.651,-1.392 1.657,-2.421 2.999,-3.167 1.35,-13.483 -0.122,-27.609 1.205,-40.537 0.456,-4.442 -0.728,-8.856 -2.274,-13.045 -0.444,-1.201 -0.976,-2.397 -1.83,-3.351 -0.682,-0.762 -0.665,-1.266 -1.347,-2.029 -2.14,-2.388 -2.079,-5.961 -1.895,-9.163 0.107,-1.861 0.075,-3.982 1.463,-5.228 0.26,-0.235 0.565,-0.442 0.717,-0.758 0.11,-0.229 0.126,-0.49 0.141,-0.744 0.129,-2.24 -0.189,-4.973 -0.278,-7.215 -0.306,-7.665 -0.612,-15.329 -0.917,-22.994 -0.099,-2.481 -0.206,-5.006 -1.031,-7.347 -0.678,-1.921 -1.812,-3.64 -2.8,-5.421 -2.251,-4.059 -2.401,-8.924 -2.465,-13.565 -0.074,-5.453 0.459,-10.915 1.587,-16.251 1.298,-6.137 3.372,-12.082 5.539,-17.969 6.499,-17.656 13.881,-34.987 22.109,-51.906 1.718,2.733 2.611,5.149 4.206,7.879 2.262,3.87 4.1,8.314 6.362,12.185 1.266,2.168 2.534,4.338 3.667,6.579 2.096,4.152 3.715,8.526 5.331,12.889 2.492,6.734 4.985,13.468 7.477,20.204 0.879,2.374 1.759,4.751 2.477,7.178 2.878,9.738 3.638,20.619 1.116,30.453 -1.093,4.262 -2.272,7.994 -2.494,12.388 -0.524,10.363 0.684,20.179 0.684,30.556 0,0.313 -0.036,0.484 -0.017,0.947 0.217,5.445 1.14,10.917 -0.248,16.186 -0.175,0.661 -0.37,1.317 -0.557,1.975 -0.301,1.059 -0.419,2.177 -0.592,3.265 -0.291,1.834 -0.611,3.727 -0.308,5.58 0.176,1.078 0.45,2.135 0.711,3.194 0.245,0.996 0.373,2.055 0.734,3.016 0.075,0.199 0.162,0.41 0.339,0.53 0.156,0.106 0.356,0.122 0.545,0.134 1.028,0.067 2.056,0.134 3.083,0.201 0.15,0.01 0.319,0.029 0.412,0.148 0.073,0.092 0.077,0.22 0.078,0.338 0.042,4.655 0.083,9.309 0.124,13.963 0.029,3.27 0.152,6.405 0.236,9.673 0.018,0.681 0.036,1.362 0.019,2.043 -0.044,1.727 -0.312,3.463 -0.07,5.173 0.348,2.467 0.819,6.708 0.287,7.432 -0.532,0.723 -3.74,0.13 -4.157,0.545 -0.156,0.156 -0.129,0.549 -0.138,0.746 -0.023,0.517 -0.006,1.037 0.013,1.554 0.049,1.421 0.143,2.84 0.205,4.261 C -0.03,-1.754 -0.074,-0.875 0,0 Z"
         id="path2107"
         style="display:inline" />
    </g>
  </g>
</svg>
