<?xml version="1.0" encoding="UTF-8" standalone="no"?>
<svg
   id="svg2108"
   viewBox="0 0 93.57 296.11"
   version="1.1"
   sodipodi:docname="rakede sticker chaos computer club flensburg.svg"
   inkscape:version="1.1.2 (0a00cf5339, 2022-02-04)"
   xmlns:inkscape="http://www.inkscape.org/namespaces/inkscape"
   xmlns:sodipodi="http://sodipodi.sourceforge.net/DTD/sodipodi-0.dtd"
   xmlns="http://www.w3.org/2000/svg"
   xmlns:svg="http://www.w3.org/2000/svg">
  <sodipodi:namedview
     id="namedview133"
     pagecolor="#ffffff"
     bordercolor="#666666"
     borderopacity="1.0"
     inkscape:pageshadow="2"
     inkscape:pageopacity="0.0"
     inkscape:pagecheckerboard="0"
     showgrid="false"
     inkscape:zoom="5.8964577"
     inkscape:cx="1.9503235"
     inkscape:cy="137.96419"
     inkscape:window-width="2490"
     inkscape:window-height="1376"
     inkscape:window-x="0"
     inkscape:window-y="0"
     inkscape:window-maximized="1"
     inkscape:current-layer="g125" />
  <defs
     id="defs10">
    <style
       id="style2">
      .cls-1 {
        clip-path: url(#clippath);
      }

      .cls-2, .cls-3, .cls-4, .cls-5, .cls-6, .cls-7, .cls-8, .cls-9, .cls-10, .cls-11, .cls-12 {
        stroke-width: 0px;
      }

      .cls-2, .cls-13 {
        fill: none;
      }

      .cls-3 {
        fill: #f16749;
      }

      .cls-4 {
        fill: #505148;
      }

      .cls-5 {
        fill: #e5e9e6;
      }

      .cls-13 {
        stroke: #ec008c;
        stroke-miterlimit: 10;
        stroke-width: .25px;
      }

      .cls-6 {
        fill: #fde487;
      }

      .cls-14 {
        clip-path: url(#clippath-1);
      }

      .cls-7 {
        fill: #000;
      }

      .cls-8 {
        fill: #040013;
      }

      .cls-9 {
        fill: #c93f3f;
      }

      .cls-10 {
        fill: #facc2e;
      }

      .cls-11 {
        fill: #fff;
      }

      .cls-12 {
        fill: #c83e3f;
      }
    </style>
    <clipPath
       id="clippath">
      <rect
         class="cls-2"
         x=".31"
         y="0"
         width="93.57"
         height="296.11"
         id="rect4" />
    </clipPath>
    <clipPath
       id="clippath-1">
      <rect
         class="cls-2"
         y="0"
         width="93.57"
         height="296.11"
         id="rect7" />
    </clipPath>
  </defs>
  <g
     class="cls-1"
     clip-path="url(#clippath)"
     id="g125">
    <path
       id="path3"
       class="cls-11"
       d="m 52.310547,62.720703 0.0039,0.0039 0.0059,-0.0039 z m 0.0039,0.0039 -0.0039,0.002 v 0.113282 l 0.160156,0.04102 z m 1.6875,0.002 c -0.146584,-0.0015 -0.298134,-0.0057 -0.396484,0.01367 0.230451,0.05317 0.461298,0.10445 0.673828,0.140625 h 1.259765 l -0.5,-0.07031 c -0.229999,0.02 -0.459687,0.02023 -0.679687,-0.0098 -0.113066,-0.01211 -0.240205,-0.05429 -0.357422,-0.07422 z m -0.720703,0.119141 c -0.241871,0.09934 -0.512527,0.221976 -1.210938,0.263672 -0.469999,0 -0.790703,-7.6e-5 -0.470703,-0.08008 l -1.019531,0.160156 c -0.31,0 -0.239924,-7.6e-5 0.08008,-0.08008 l -1.570312,0.240234 c -0.23,0.08 -0.709453,0.240235 -0.939453,0.240235 -0.39,0 0.230076,-0.08008 0.08008,-0.08008 l -0.861328,0.160156 c -0.39,0 0.311406,-0.240234 0.941406,-0.240234 -0.81,-0.22 -0.740469,0.110703 -2.230469,0.220703 -0.107663,0.05873 -0.253984,0.07924 -0.410156,0.08008 0,0 0.02047,-0.04055 -0.01953,-0.06055 -0.11,0.02 -0.240313,0.05031 -0.320313,0.07031 0.145693,0 0.233451,-5.67e-4 0.330078,-0.0098 -0.04,0.03 -0.109765,0.05984 -0.259765,0.08984 -0.24,0 -0.62961,0.08016 -1.09961,0.160157 0,-0.08 -0.55164,7.6e-5 -1.18164,0.08008 v -0.160156 c -0.71,0.16 -0.629532,0.240546 -1.019532,0.310547 -0.78,0.08 -0.939609,-7.8e-5 -1.099609,-0.08008 -1.18,0.16 0.859219,-0.0014 -0.550781,0.308594 -1.02,0.08 -1.728438,0.31086 -2.898438,0.630859 -0.71,0.08 0.07984,-0.08008 -0.160156,-0.08008 l -0.630859,0.230469 c -0.16,0 -0.08008,-7.6e-5 -0.08008,-0.08008 -0.55,0.16 6.24e-4,0.158594 -0.859376,0.308594 -0.08,0.08 -0.160546,0.08008 -0.310546,0.08008 h -0.708985 c -0.08,0 -0.08016,0.08008 -0.160156,0.08008 l -0.240234,0.230469 c -0.16,0.16 -0.230157,0.390859 -0.160157,0.630859 0,0.2 0.05969,0.348516 0.179688,0.478516 -0.13,0.2 -0.179688,0.411015 -0.179688,0.541015 v 0.240235 c -0.08,0.08 -0.08016,0.08047 -0.160156,0.230469 -0.02669,0.02669 -0.04978,0.06553 -0.07617,0.103515 L 34,68.779297 h 0.01953 l 0.08008,1.101562 h -0.109375 l -0.002,0.214844 c 0.05203,0.06092 0.08917,0.08804 0.171875,0.214844 0,0 7.6e-5,0.08008 0.08008,0.08008 h -0.08008 l -0.08008,0.08008 c -0.03243,0.03243 -0.06189,0.04763 -0.09375,0.06445 v 0.06836 c 0.07762,-0.02369 0.149851,-0.05273 0.253906,-0.05273 0.03498,0 0.06741,-0.0031 0.0957,-0.0098 -0.0086,0.002 -0.01677,0.0098 -0.02539,0.0098 -0.110727,0.05536 -0.218187,0.109206 -0.326172,0.164063 l -0.002,0.34375 c 0.148978,-0.07946 0.27854,-0.148584 0.427734,-0.248047 h 0.160156 c -0.1992,0.07968 -0.38877,0.168287 -0.58789,0.248047 l -0.04297,7.140625 h -0.628906 v -0.160157 c 0,-0.319999 7.8e-5,-0.549062 0.08008,-0.789062 0.08,-0.63 0.08008,-1.180547 0.08008,-1.810547 0,-0.18089 -0.01006,-0.352022 -0.01367,-0.529297 -0.08241,0.02202 -0.182763,0.06055 -0.236328,0.06055 -0.05,0 -0.140469,0.04008 -0.230469,0.08008 -0.228833,-0.07628 -0.519065,-0.159874 -0.753906,-0.296875 0.12019,0.08166 0.22449,0.180299 0.363281,0.226563 0.11,0.04 0.241329,0.06961 0.361329,0.09961 l -0.121094,0.06055 c -0.08,0 -0.160156,0.08008 -0.160156,0.08008 l -0.160157,0.160156 c -0.16,0.08 -0.238594,0.238594 -0.308593,0.308594 -0.08,0.16 -0.160235,0.240625 -0.240235,0.390625 -0.08,0.16 -0.160156,0.230625 -0.160156,0.390625 -0.16,0.55 -0.07992,1.100156 0.08008,1.410156 0.08,0.16 0.160234,0.308672 0.240234,0.388672 l 0.158203,0.160157 c 0,0 -0.173984,0.0011 -0.294921,-0.06641 l 0.06641,0.06641 c 0.08,0.08 0.160156,0.08016 0.160156,0.160156 0.16,0.08 0.228672,0.160234 0.388672,0.240234 0.08,0 0.160156,0.08008 0.160156,0.08008 h 0.160157 0.160156 c 0.03,0.02 0.05961,0.05031 0.09961,0.07031 h -0.570312 c 0,0 0.03125,0.07008 0.03125,0.08008 0.05,0.02 0.05914,0.07031 0.11914,0.07031 h 0.240235 c 0,0.08 -0.08008,0.0782 -0.08008,0.158203 0.07,-0.07 0.199843,-0.149531 0.339843,-0.269531 0.04,0.02 0.09086,0.04055 0.13086,0.06055 v 0.519531 c 0,0 -7.07e-4,0.100391 0.0293,0.150391 0.03,-0.07 0.07086,-0.150391 0.130859,-0.150391 0.03,-0.03 0.04859,-0.04883 0.05859,-0.04883 -0.03444,0.08476 -0.03863,0.172932 -0.05664,0.259766 l 0.136719,-0.04687 v -0.0039 h 0.01172 l -0.01172,0.0039 0.160156,0.787109 -0.308594,0.160157 -0.216797,-0.554688 c -2.34e-4,-2.39e-4 -0.0039,-0.0059 -0.0039,-0.0059 0,-9.44e-4 -5e-6,-0.001 0,-0.002 l -0.08984,-0.228516 0.164063,-0.05664 c 8.4e-4,-0.0054 0.0059,-0.01816 0.0059,-0.02344 0,0 0.0038,-0.01175 0.0078,-0.02148 0.01506,0.0038 0.03778,0.0065 0.05273,0.02148 -0.03,-0.03 -0.04078,-0.05984 -0.05078,-0.08984 0,0.02 -0.01953,0.04055 -0.01953,0.06055 0,0 0.0052,0.0018 0.0059,0.002 -0.07974,0.0044 -0.19223,0.05022 -0.306641,0.107422 -0.08,0 -0.160156,-7.6e-5 -0.160156,-0.08008 0,-0.08 -0.08008,-0.160235 -0.08008,-0.240235 v -0.240234 c 0,0.05333 -0.02674,0.106823 -0.08008,0.160156 v 0.390625 c 0,0.31 0.08055,0.709532 0.310547,1.019532 -0.08,-0.16 -0.08008,-0.310626 -0.08008,-0.390626 0,-0.08 0.08016,-0.159922 0.160156,0.08008 0.08,0.47 0.240547,0.631015 0.310547,0.791015 0.04314,0.04314 0.0857,0.113703 0.128906,0.167969 l 0.02148,-0.167969 h 0.228516 V 81.8125 c 0.03397,0.0227 0.06764,0.06836 0.101563,0.06836 0.06,0.06 0.159531,0.109922 0.269531,0.169922 -0.05,-0.05 0.0089,-0.08984 0.128906,-0.08984 h 0.701172 c -0.07,0 0.07953,0.228515 -0.230469,0.228515 h 0.240234 c 0.08,0 0.160469,-7.6e-5 0.230469,-0.08008 h 0.160157 c 0.08,0 0.0782,-7.6e-5 0.158203,-0.08008 0.08,-0.04 0.140703,-0.05984 0.220703,-0.08984 0.1,-0.02 0.201015,-0.03883 0.291015,-0.04883 0.01,0.03 0.04937,0.05008 0.109375,0.08008 -0.25,0.33 -1.099453,1.329611 -2.189453,2.099609 l -0.191406,0.06445 v 1.984375 l -0.179687,-0.738282 0.03125,0.269532 -0.390626,0.08008 v -1.19336 c -0.07377,0.05451 -0.154409,0.112262 -0.201171,0.152344 -0.01,0 -0.02906,0.02125 -0.03906,0.03125 0.05147,-0.05362 0.177389,-0.172279 0.240234,-0.240234 v -0.320313 h 0.06055 l -0.03516,-0.142578 c -0.350588,0.293604 -0.726008,0.604452 -1.185547,0.91211 -0.31,0.159998 0.08,-0.390626 0,-0.390626 -0.08,0.08 -0.310859,0.310704 -0.630859,0.470704 -0.08,0.08 -0.158516,0.08016 -0.228516,0.160156 -0.08,0.08 -0.160234,0.08016 -0.240234,0.160156 -0.16,0.08 -0.160233,0.230469 -0.240235,0.230469 0,0 0.08023,-0.160547 0.240235,-0.310547 l 0.160156,-0.160156 c 0.08,0 0.08008,-0.08008 0.08008,-0.08008 -0.08,0.08 -0.160234,0.160156 -0.240234,0.160156 l -0.240235,0.240234 c -0.16,0.16 -0.240546,0.390781 -0.310546,0.550782 -0.16,0.39 -0.240235,0.789921 -0.240235,1.419921 0,0.23 0.08016,0.469063 0.160157,0.789063 0.08,0.24 0.230468,0.470703 0.230468,0.470703 -0.16,-0.31 -0.07992,-0.630938 0.08008,-0.710937 0.14,-0.07 0.289688,-0.06974 0.429688,-0.0098 0.24,0.63 0.800078,1.101015 1.580078,1.041016 -0.04,0.03 -0.09086,0.05814 -0.130859,0.07812 -0.24,0.16 -0.468282,0.160235 -0.238282,0.240235 0,0 0.180078,-0.08016 0.330079,-0.160156 h 0.138671 c 0,0 0.08086,-0.01906 0.13086,-0.03906 0,0.01 -7.06e-4,0.01906 0.0293,0.03906 0,0 0.08055,-7.7e-5 0.310546,-0.08008 0.01196,-0.01196 0.05243,-0.02326 0.07031,-0.03516 v -3.123047 h 0.388672 v 2.859375 c 0.0905,-0.02619 0.196929,-0.05012 0.240234,-0.09961 v 0.08008 c 0,0.08 -7.6e-5,0.08016 -0.08008,0.160156 v 0.548829 c 0,-0.16 0.160547,0.08055 0.310547,0.310546 0.08,0.16 0.230625,0.240625 0.390625,0.390625 0.13,0.13 0.248906,0.199532 0.378906,0.269532 0.02,0.02 0.05008,0.05031 0.08008,0.07031 0,0.04 0.08984,0.14875 0.08984,0.21875 0.08,0.08 0.160235,0.08008 0.240235,0.08008 0.08,0 0.160234,0.08008 0.240234,0.08008 0,0.16 0.08008,0.390782 0.08008,0.550782 0.08,0.16 0.160234,0.308672 0.240234,0.388671 -0.39,0.390001 -1.099843,0.790469 -1.339843,1.730469 -0.08,0.08 -0.08016,0.240703 -0.160157,0.470703 0,0.1 -0.03078,0.189454 -0.05078,0.189454 0.02,0.08 0.05078,0.18125 0.05078,0.28125 0,0.08 0.08008,0.158281 0.08008,0.238281 0,0.08 0.08008,0.160234 0.08008,0.240234 v 0.0098 c 0,0 -0.05008,-0.08938 -0.08008,-0.109375 0,0.16 0.08008,0.230469 0.08008,0.230468 v -0.09961 c 0.05,0.08 0.110156,0.179297 0.160156,0.279297 l -0.08008,0.08008 c -0.08,0 -0.08016,0.08008 -0.160157,0.08008 -0.08,0.08 -0.160234,0.160156 -0.240234,0.160156 0.08,0 0.160547,-7.6e-5 0.310547,-0.08008 0.08,0 0.160234,-0.08008 0.240234,-0.08008 l 0.08008,-0.08008 h 0.07812 L 34.960938,95.25 c -0.08,-0.16 -0.240547,-0.310703 -0.310547,-0.470703 -0.08,-0.16 -0.160157,-0.388828 -0.160157,-0.548828 0.08,0 0.160235,0.07859 0.240235,0.308593 0.08,0.08 0.08023,0.160547 0.240234,0.310547 0.08,0.16 0.228672,0.310704 0.388672,0.470703 v 0.08008 c -0.08,0 -0.08016,0.08008 -0.160156,0.08008 -0.08,0.08 -0.228594,0.160234 -0.308594,0.240234 -0.24,0.16 -0.470937,0.30875 -0.710937,0.46875 -0.6338,0.391464 -0.657197,0.355383 -0.644532,0.291016 h -0.1875 c -0.185744,0.105957 -0.379017,0.193652 -0.507812,0.25 -0.16,0.08 -0.320625,0.238593 -0.390625,0.308593 l -0.160157,0.160157 c -0.05,0.05 -0.06836,0.08133 -0.06836,0.111328 -0.03,0.02 -0.05008,0.02883 -0.08008,0.04883 -0.08,0.08 -0.160156,0.08016 -0.160156,0.160156 -0.08,0.08 -0.08016,0.160235 -0.160157,0.240235 -0.08,0.08 -0.08016,0.160547 -0.160156,0.310546 0,0.08 -0.08008,0.240547 -0.08008,0.310547 v 0.548829 c 0,0.08 0.08008,0.160156 0.08008,0.160156 0.16,0.55 0.62961,0.939686 1.09961,1.179686 0.16,0.08 0.240625,0.0802 0.390625,0.16016 0.06595,0 0.111153,0.0276 0.160156,0.0332 v -3.742187 l -0.0098,-0.0098 h 0.388672 v 3.798832 h 0.240235 c 0.08,0 0.230546,-6e-5 0.310546,-0.0801 1.08,-0.16 2.080157,-0.38914 3.160157,-0.619143 0.07,0.06 0.149062,0.06867 0.289062,0.138672 0.37,0.220001 0.820078,0.360231 1.330078,0.240231 1.33,-0.239994 2.58961,-0.469059 3.84961,-0.789059 0.31,0.39 0.780156,0.708989 1.410156,0.708989 1.065864,0 2.16013,-0.0729 3.25,-0.160161 l 0.140625,-0.01953 -0.01563,0.0098 c 0.554975,-0.04528 1.113088,-0.08929 1.65625,-0.138672 0,0.159802 0.03976,0.314019 0.07227,0.468749 l 10.857422,0.61133 v 0.62891 l -2.234375,-0.0977 c 0.292896,0.31141 0.669467,0.55298 1.205079,0.49805 0.397014,-0.0184 0.785456,-0.0852 1.179687,-0.12305 V 101.75 l 0.939453,-0.16016 -0.230469,-0.33007 v 0.25 l -0.46875,-0.0801 0.08008,-0.31055 0.339843,0.0703 -0.08789,-0.1289 -0.0332,-0.01 0.01953,-0.0117 0.01367,0.0215 1.480468,0.40039 c 0.11447,-0.0256 0.224406,-0.0632 0.337891,-0.0918 l 0.189453,-0.23828 0.08398,0.16211 c 0.07681,-0.0212 0.15419,-0.0399 0.230468,-0.0625 l 0.0039,-0.0195 v 0.0176 c 0.311752,-0.0926 0.639712,-0.13868 0.941407,-0.25782 0.86,-0.31 1.489843,-1.021014 1.339843,-2.041012 -0.23,-0.63 -0.471015,-1.020079 -0.791015,-1.330079 0.16,-0.47 0.159844,-0.939843 -0.160156,-1.339843 -0.280751,-0.349614 -0.549866,-0.628244 -0.839844,-0.865235 v 0.865235 h -0.308594 v 4.630854 h -0.630859 v -6.097651 c -0.0091,-0.0079 -0.02134,-0.01549 -0.0293,-0.02344 -0.16,-0.16 -0.310703,-0.238594 -0.470703,-0.308593 0,0 0.08086,-0.04031 0.130859,-0.07031 0.01,0 0.01906,-0.0098 0.03906,-0.0098 0.01,0 0.02101,-0.02148 0.04102,-0.02148 0.09916,-0.04958 0.192365,-0.104427 0.289063,-0.15625 v -4.142578 h 0.240234 v 0.08008 h 0.310547 v -0.08008 h 0.388672 v 3.660156 c 0.0073,-0.0032 0.01432,-0.0066 0.02148,-0.0098 0.09,-0.03 0.179297,-0.0618 0.279297,-0.0918 v 0.05078 c 0.07,-0.04 0.129453,-0.08086 0.189453,-0.13086 1.62,-0.64 1.66086,-3.208749 0.13086,-3.71875 -0.23,-0.159998 -0.471016,-0.310626 -0.791016,-0.390624 h -0.09961 c -0.01405,-0.1089 -0.07999,-0.193452 -0.109375,-0.294922 l -0.01953,0.214843 h -0.390625 l 0.06055,-0.708984 h -0.06055 l -0.160156,-0.08008 v -0.08008 l 0.08008,-0.310547 0.160156,0.04102 v -5.13086 h -0.240234 c -0.24,0 -0.470937,0.08008 -0.710937,0.08008 -0.29,0.05 -0.588672,0.100391 -0.888672,0.150391 0.24,-0.12 0.560468,-0.300625 0.730469,-0.390625 0.159998,-0.08 0.308828,-0.160469 0.548828,-0.230469 0.02602,-0.0087 0.06646,-0.04404 0.0957,-0.05664 l 0.304687,-1.693359 0.160156,0.03125 v -1.853515 c -0.0049,-0.005 -0.01477,-0.02259 -0.01953,-0.02734 -0.16,-0.16 -0.320625,-0.230469 -0.390625,-0.230469 -0.07,0 -0.160547,-0.08008 -0.310547,-0.08008 -0.15,0 -0.308984,-0.08008 -0.708984,-0.08008 h -0.310547 c -0.08,0.08 -0.230547,0.08008 -0.310547,0.08008 -0.08,0 -0.160234,0.08008 -0.240234,0.08008 -0.16,0.08 -0.389063,0.160547 -0.789063,0.310547 0.71,-0.31 -0.629843,0.07945 0.160157,-0.310547 -0.16,0 -0.240625,0.08008 -0.390625,0.08008 -0.08,0 -0.08016,7.6e-5 -0.160157,0.08008 h -0.628906 c -0.23,0.08 -0.310703,0.08016 -0.470703,0.160157 -0.24,0.08 -0.550938,0.160234 -0.710938,0.240234 -0.03538,0.01231 -0.06309,0.02119 -0.0957,0.0332 0.156869,0.01131 0.02095,0.08265 -0.273437,0.15625 -0.11,0.05 -0.220078,0.08133 -0.330078,0.111328 0,-0.05 -0.0095,-0.09063 -0.01953,-0.140625 h -0.03125 c -0.09,-0.42 -0.319921,-0.810547 -0.669921,-1.060547 0,-0.02 -0.02883,-0.0293 -0.04883,-0.0293 -0.01,0 -0.02101,-0.01953 -0.04102,-0.01953 0.05,-0.01 0.100156,-0.03102 0.160156,-0.04102 -0.02,0.01 -0.03031,0.02055 -0.07031,0.06055 0.16,0 0.240625,-0.08016 0.390625,-0.160156 0,0 0.08008,-7.6e-5 0.08008,-0.08008 0.08,0 0.160469,-0.08016 0.230468,-0.160156 0.16,-0.08 0.318829,-0.240625 0.548829,-0.390625 0.02,-0.03 0.04055,-0.06961 0.06055,-0.09961 0.39,-0.3 0.590859,-0.70039 0.630859,-1.15039 h 0.0098 c 0.08,-0.01 0.08016,-0.0098 0.160157,-0.08984 -0.06,0.01 -0.109922,0.03055 -0.169922,0.06055 v -0.07031 c 0.02,0 0.04008,-0.03031 0.08008,-0.07031 0.08,0 0.160234,-0.08008 0.240234,-0.08008 0.16,-0.08 0.388829,-0.160157 0.548829,-0.160157 0,0.06 -0.16961,0.131407 -0.34961,0.191407 0.07,-0.02 0.139453,-0.03125 0.189453,-0.03125 0.39,-0.16 0.859844,-0.23875 1.339844,-0.46875 v 0.160156 c 0.08,0 0.230547,-0.08016 0.310547,-0.160156 0.08,0 0.160469,-0.08008 0.230469,-0.08008 0.05,-0.05 0.10039,-0.06961 0.15039,-0.09961 -0.05,0.04 -0.100625,0.09992 -0.140625,0.169922 0.36,-0.19 0.699453,-0.401172 0.939453,-0.701172 0.13,-0.13 0.220782,-0.289219 0.300782,-0.449219 0.35,-0.56 0.289456,-1.270312 -0.06055,-1.820312 0.79,-0.74 0.591015,-2.079766 -0.208985,-2.759766 -0.08,-0.12 -0.151406,-0.180703 -0.191406,-0.220703 -0.08,-0.08 0,7.6e-5 0,0.08008 v 0.0098 c -0.07,-0.04 -0.128984,-0.07914 -0.208984,-0.119141 -0.01,-0.02 -0.02102,-0.04078 -0.04102,-0.05078 -0.08,-0.08 -0.238594,-0.158516 -0.308594,-0.228515 -0.08,0 -0.160156,-0.08008 -0.160156,-0.08008 -0.08,0 -0.160234,-0.08008 -0.240234,-0.08008 -0.16,-0.08 -0.310782,-0.08008 -0.550781,-0.08008 v -0.08008 h -0.708985 c -0.16,0 -0.240547,0.08008 -0.310547,0.08008 -0.16,0.08 -0.160234,0.08016 -0.240234,0.160156 -0.08,0.08 -0.08047,0.08008 -0.230469,0.08008 -0.08,0 -0.160234,0.07813 -0.240234,0.07812 -0.08,0 -0.158282,7.8e-5 -0.238281,0.08008 v -0.04883 -0.03125 l 0.308593,-0.158203 c 0,0 -0.189843,0.05836 -0.339843,0.06836 -0.11,-0.5 -0.430157,-0.98 -0.910157,-1.25 h 0.07031 c 0.07,0.03 0.120156,0.05031 0.160156,0.07031 0,-0.07 -0.08008,-0.07031 -0.08008,-0.07031 0,0 -0.06384,-0.05506 -0.132813,-0.07031 0.08915,-0.07592 0.292969,-0.148437 0.292969,-0.148437 0.07503,0 0.08975,0.02036 0.08398,0.03906 0.02553,-0.01333 0.05068,-0.01357 0.07617,-0.03906 h 0.160157 c 0.08,0 0.160545,-0.08008 0.310547,-0.08008 l -0.160157,0.160156 c 0,0 -0.08008,7.6e-5 -0.08008,0.08008 h -0.160156 c 0,0 -0.08008,7.6e-5 -0.08008,0.08008 h 0.160156 c 0.08,0 0.158594,-0.08008 0.308594,-0.08008 l 0.78125,-0.160156 c 0.08,0 0.788906,7.6e-5 0.628906,0.08008 0.39,0 0.940234,-0.160547 1.490234,-0.310547 h 0.240235 c 0.08,0 0.160547,-0.08008 0.310547,-0.08008 0.16,-0.08 0.388828,-0.160547 0.548828,-0.310547 0.18,-0.18 0.330937,-0.358828 0.460937,-0.548828 0.392711,-0.392711 0.511691,-1.004525 0.414063,-1.574219 -0.576875,-0.820473 -1.528435,-1.043135 -2.523438,-1.255859 -0.47,-0.08 -1.020156,-0.230625 -1.410156,-0.390625 -0.241212,-0.106823 -0.522656,-0.159091 -0.796875,-0.220703 -6.23e-4,-0.0011 -0.0093,-7.93e-4 -0.0098,-0.002 -0.08889,-0.01981 -0.166499,-0.05586 -0.257812,-0.07227 -0.292032,0.07102 -0.630175,0.142906 -0.976563,0.205078 -0.205349,0.04212 -0.377071,0.02418 -0.621093,0.04297 0.269836,-0.05769 0.479948,-0.123047 0.541015,-0.123047 h -0.46875 c 0,0 0.08008,-7.6e-5 0.08008,-0.08008 h -0.08008 v -0.08008 l -0.08008,-0.08008 -0.08008,-0.08008 -0.01953,-0.01953 C 56.247042,63.059244 56.120027,63.039062 56,63.039062 h -0.869141 c -0.31,0 -0.631328,0.08 -0.861328,0 -0.346087,-0.04405 -0.665681,-0.123951 -0.988281,-0.193359 z m 4.382812,5.173828 c -0.02788,0.01455 -0.05615,0.04102 -0.08398,0.04102 0.04249,0 0.07745,-0.01983 0.08398,-0.04102 z m -0.59375,11.560547 h 0.08984 c 0.20308,0 0.353805,-0.06086 0.533203,-0.126953 -0.01365,-9.84e-4 -0.01479,-0.0039 -0.0332,-0.0039 0.12,-0.04 0.120784,-0.03953 0.05078,-0.01953 h -0.01172 c -0.07,0.02 -0.199375,0.05961 -0.359375,0.09961 -0.1,0 -0.189532,0.03078 -0.269532,0.05078 z m -22.5,15.259766 v -0.08008 h -0.03125 c 0,0.03 0.02125,0.05984 0.03125,0.08984 z M 32.236328,74.753906 c -0.02162,-0.01469 -0.04581,-0.02368 -0.06641,-0.03906 0.01048,0.0069 0.01867,0.01885 0.0293,0.02539 0.01117,0.007 0.02565,0.007 0.03711,0.01367 z m -0.06641,-0.03906 c -0.117759,-0.07795 -0.228486,-0.175547 -0.320313,-0.294922 -0.03,0 -0.06914,-0.02031 -0.11914,-0.07031 l 0.240234,0.240235 c 0.05083,0.05083 0.136338,0.07803 0.199219,0.125 z M 45.650391,63.669922 c 0.170999,-0.03886 0.325967,-0.06031 0.445312,-0.07031 l -0.294922,0.06055 c 0.11,0 0.189297,-0.0095 0.279297,-0.01953 0.03132,-0.01566 0.05728,-0.02907 0.08594,-0.04687 0.009,-3.04e-4 0.02533,-0.0039 0.0332,-0.0039 l 0.390625,-0.08008 c -0.55,-0.08 -1.179141,0.08008 -2.119141,0.08008 0.16,0 0.999688,7.6e-5 1.179688,0.08008 z m 13.230468,-0.744141 c -0.05828,0.0074 -0.115834,0.0095 -0.173828,0.01563 l 0.199219,0.0293 c 0.0012,4.5e-5 0.0027,-4.5e-5 0.0039,0 z m 1.548829,0.19336 1.96289,0.664062 C 62.16618,63.498891 61.867502,63.274604 61.5,63.199219 c -0.24,-0.08 -0.390859,-0.08008 -0.630859,-0.08008 z m -3.310547,0.04883 c -0.0665,0.02759 -0.102994,0.05043 -0.25,0.101562 h 0.160156 c 0.132777,0 0.263398,-0.04764 0.390625,-0.06641 -0.10056,-0.01155 -0.199399,-0.02501 -0.300781,-0.03516 z m -13.59961,0.572265 c 0.08,0.08 0.230783,0.08 0.550781,0 z m -8.708984,2.5 V 66.25 h 0.21875 c -0.16,0.1 -0.218516,0.259922 -0.228516,0.419922 -0.02,-0.03 -0.05031,-0.05938 -0.07031,-0.109375 v -0.160156 c 0,-0.08 7.6e-5,-0.160157 0.08008,-0.160157 z m 28.722656,0.189454 c -0.0087,0.07462 -0.07227,0.15039 -0.07227,0.15039 v 0.08008 c 0.06158,-0.09238 0.06087,-0.09801 0.08789,-0.15039 -0.0044,-0.02751 -0.01077,-0.05323 -0.01563,-0.08008 z m -28.3125,0.830078 h 0.0098 c 0,0 0.02906,0.0098 0.03906,0.0098 -0.31,0.23 -0.46875,0.619688 -0.46875,0.929688 v -0.378907 c 0.08,-0.239998 0.228594,-0.390703 0.308594,-0.470703 z m 21.740235,0.814453 c 0.102213,0.01855 0.191701,0.04639 0.259765,0.05664 -0.02634,0.0046 -0.05748,0.0067 -0.07031,0.01953 -0.01,0 -0.03102,-0.0095 -0.04102,-0.01953 0,0 -0.06109,-0.0357 -0.148437,-0.05664 z m 0.599609,0.136719 c 0.0034,0.0034 0.0052,0.0024 0.0098,0.0039 v -0.0039 z m 0.0098,0.0039 v 0.0059 h 0.01953 c 0,0 -0.01073,-0.003 -0.01953,-0.0059 z m 0.0293,0.0059 c 0,0 0.05078,0.04008 0.05078,0.08008 0,-0.07 -0.01078,-0.07008 -0.05078,-0.08008 z m -23.189453,0.308594 h 0.05078 c -0.04,0.05 -0.08133,0.100156 -0.111329,0.160156 0.03,-0.06 0.06055,-0.130156 0.06055,-0.160156 z m 24.189453,1.259765 c 0.16,0 0.106511,0.05349 -0.160156,0.160157 h -0.150391 v -0.08008 c 0.12,0 0.240547,-0.0084 0.310547,-0.06836 z m -25.253906,0.8125 c -0.02019,0.01443 -0.01504,0.01436 -0.04492,0.0293 h -0.310547 l -0.08008,0.08008 c 0,0 -0.08023,-0.0019 -0.240234,0.07812 0,0 -0.08016,7.8e-5 -0.160156,0.08008 -0.08,0 -0.08016,7.6e-5 -0.160157,0.08008 -0.16,0.08 -0.238671,0.160234 -0.388671,0.240234 -0.230002,0.16 -0.390704,0.390781 -0.470704,0.550781 -0.08,0.08 -0.08008,0.160235 -0.08008,0.240235 v 0.08008 c -0.08,0.39 -0.08,0.709609 0,1.099609 0.08,0.16 0.08016,0.310781 0.160156,0.550782 0.08,0.159998 0.160547,0.308749 0.310547,0.46875 0.24,0.31 0.629532,0.470859 1.019532,0.630859 0.170797,0.03596 0.360924,0.04116 0.55664,0.04297 -0.01949,-0.880279 -0.06641,-1.733048 -0.06641,-2.632813 0,-0.39442 -0.01685,-0.791036 -0.0332,-1.1875 l -0.146484,0.07617 c -0.06,0.03 -0.08031,0.02 -0.07031,0 -0.47,0.16 -0.24,-2.34e-4 0,-0.240234 0.07195,0 0.141491,-0.01733 0.210937,-0.03516 -0.0033,-0.0776 -0.0026,-0.154828 -0.0059,-0.232422 z m -0.650391,0.4375 h 0.07422 c -0.08,0.08 -0.238594,0.08016 -0.308593,0.160157 -0.16,0.16 -0.230625,0.310625 -0.390626,0.390625 0,-0.08 0.08008,-0.08016 0.08008,-0.160156 l 0.160156,-0.160157 c 0.08,-0.08 0.160234,-0.08016 0.240234,-0.160156 0,0 0.07049,-0.006 0.144531,-0.07031 z m -1.035156,2.980469 c 0.04,0.15 0.109219,0.270625 0.199219,0.390625 h 0.04102 c 0,0 -0.08023,-0.08062 -0.240235,-0.390625 z m 4.949219,0.560547 -0.128906,0.05078 v -0.03125 c 0,0 0.08891,-0.0095 0.128906,-0.01953 z m 24.330078,1.089844 c -0.15,0.08 -0.308594,0.160156 -0.308594,0.160156 0.11,-0.05 0.21836,-0.110156 0.31836,-0.160156 z m -2.070312,0.509766 c -0.12,0.03 -0.24961,0.07109 -0.34961,0.121093 0.08,-0.02 0.150469,-0.04031 0.230469,-0.07031 0.04,-0.01 0.07914,-0.03102 0.119141,-0.04102 z m -0.109375,0.121093 c -0.16,0 -0.23,0.08 0,0 z m -26.419922,0.759766 c -0.01,0.08 -0.01953,0.148515 -0.01953,0.228515 0,-0.01 -0.02125,-0.02906 -0.03125,-0.03906 0,-0.06 0.01078,-0.119453 0.05078,-0.189453 z m 0.269531,2 c 0,0 0.04125,0.04 0.03125,0 z m 31.089844,1.533203 v 0.150391 c 4.5e-5,-0.05106 0.0038,-0.09929 0,-0.150391 z m -29.988281,0.105469 0.158203,0.240234 -0.158203,0.240235 h -0.08008 l -0.160156,-0.08008 0.08008,-0.160156 c 0,0 7.8e-5,-0.08008 0.08008,-0.08008 z m 3.318359,1.220703 h 0.0098 c -0.109999,0.06 -0.209609,0.119453 -0.349609,0.189453 0.04,-0.04 0.06984,-0.08891 0.08984,-0.128906 0.08,-0.02 0.1,-0.03055 0.25,-0.06055 z m -1.808594,0.419922 c 0,0 -0.471328,0.240703 -0.861328,0.470703 -0.273217,0.139515 -0.341924,0.206514 -0.5,0.318359 v 0.21875 c 0.100743,-0.06832 0.339844,-0.228515 0.339844,-0.228515 0.05257,0.02629 -0.173951,0.243695 -0.339844,0.419921 v 0.400391 c 0.129318,-0.127237 0.182076,-0.203314 0.339844,-0.339844 0.47,-0.47 1.020156,-0.939765 1.410156,-1.259765 -0.55,0.24 -0.159453,7.03e-4 -0.939453,0.470703 -0.31,0.08 0.390781,-0.310703 0.550781,-0.470703 z m 29.109375,0.740234 c 0,0 0.240703,0.08023 0.470703,0.240234 0.23,0.16 0.388672,0.390626 0.388672,0.390626 -0.23,-0.230002 -0.468984,-0.390704 -0.708984,-0.470704 -0.281132,-0.07255 -0.510637,-0.131624 -0.78125,-0.144531 V 88.25 h -0.46875 l -0.05078,0.240234 h 0.160156 c 0.04028,-0.02015 0.08087,-0.03986 0.121094,-0.08008 0.229998,-0.16 0.549062,-0.320703 0.789062,-0.470703 0.16,-0.08 0.230625,-0.158516 0.390625,-0.228515 0.16,-0.08 0.238672,-0.160235 0.388672,-0.240235 0.23,-0.16 0.310625,-0.310625 0.390625,-0.390625 0.16,-0.24 0.160156,-0.310625 0.160156,-0.390625 H 65.5 c 0,0 -0.08008,0.08 -0.08008,0 0,0 0.08016,-0.158672 0.160156,-0.388672 0,0 7.6e-5,-0.08008 0.08008,-0.08008 0,-0.08 0.08008,-0.160156 0.08008,-0.160156 V 85.75 c 0.08,-0.63 7.7e-5,-0.939531 0.08008,-1.019531 0.08,0.16 0.08008,0.468906 0.08008,0.628906 0.08,-0.47 -0.0807,-1.100313 -0.470703,-1.570313 -0.16,-0.239998 -0.388907,-0.388828 -0.628907,-0.548828 -0.24,-0.08 -0.390703,-0.160156 -0.470703,-0.160156 z M 33.375,83.476562 c -0.141296,0.210891 -1.116342,0.833431 -0.974609,0.904297 0,0 0.469375,-0.310859 0.859375,-0.630859 0.045,-0.02968 0.04527,-0.03096 0.08984,-0.06055 z m 32.835938,1.703126 v 0.160156 z m -32.431641,3.621093 v 0.0059 c 0.0035,-0.0017 0.0063,-0.0041 0.0098,-0.0059 z m -0.931641,0.21875 h 0.002 c 0.09479,9.47e-4 0.102065,0.01247 0.121094,0.04102 -0.14,0.02 -0.190234,0.0293 -0.240234,0.0293 0.03951,-0.01976 0.09648,-0.05032 0.117187,-0.07031 z M 63,89.490234 h 0.390625 l -0.08008,0.390625 H 63 Z m 0.130859,1.240235 0.09961,1.359375 0.09961,-1.330078 h -0.179687 z m -28.710937,3.320312 c 0,0.08 0.0095,0.109375 0.01953,0.109375 0,0 -0.01953,-0.07937 -0.01953,-0.109375 z m 0.01367,0.386719 c -0.01424,-0.008 -0.02344,0.03461 -0.02344,0.162109 l 0.08008,0.08008 c 0,0 -0.0012,0.05031 0.04883,0.07031 -0.04375,-0.14375 -0.08174,-0.299121 -0.105468,-0.3125 z m 29.037109,0.912109 v 0.269532 h 0.04883 z m -29.03125,0.05078 c 0,0 -0.120156,0.04875 -0.410156,0.21875 -0.08,0.08 -0.790076,0.470156 -0.08008,0.160156 0.05,-0.05 0.520234,-0.368906 0.490234,-0.378906 z m 0.521485,0.109375 c -0.06,0 -0.240704,0.09953 -0.470704,0.269531 -0.16,0.08 -0.470547,0.310234 -0.310546,0.240234 l 0.791015,-0.46875 c 0,0 0.02,-0.03125 0,-0.03125 z m -2.900391,1.371093 -0.160156,0.158203 c 0,0.08 -0.08008,0.240235 -0.08008,0.240235 l 0.08008,-0.08008 0.08008,-0.08008 c 0.08,0 0.08016,-0.08008 0.160156,-0.08008 z m 0.160156,0.458985 v 0.0098 c 0,0.08 -0.08008,0.08016 -0.08008,0.160157 0,0.08 -7.6e-5,0.08016 -0.08008,0.160156 L 31.980469,97.75 v 0.189453 c -0.16,0.45 -0.10086,0.95086 0.11914,1.380859 h -0.03906 c -0.08,0 -0.160156,-0.08 -0.160156,0 -0.24,-0.39 -0.240235,-0.789609 -0.240235,-1.099609 0,-0.08 0.08008,-0.160234 0.08008,-0.240234 v 0.08008 0.08008 c 0,-0.08 7.7e-5,-0.160234 0.08008,-0.240234 0,-0.04 0.01906,-0.09039 0.03906,-0.150391 -0.01,0.02 -0.02906,0.04031 -0.03906,0.07031 0,-0.08 0.08008,-0.160156 0.08008,-0.160156 0.04,-0.04 0.06004,-0.05004 0.08008,-0.08008 -0.04,0.04 -0.08133,0.109922 -0.111328,0.169922 0.08,-0.13 0.191406,-0.25 0.191406,-0.25 z m 17.505859,3.712886 c 0.293972,0.35696 0.747102,0.58786 1.392579,0.54688 1.293667,-0.0941 2.562686,-0.19686 3.833984,-0.32031 z m 21.892579,31.24805 h 0.05078 z m -36.160157,8.22852 v 0.01 c 0.377518,0.0153 0.609349,0.0507 0.681641,0.0156 v -0.0254 z m -1.279296,0.16015 c 0,0 -0.07969,0.0809 -0.179688,0.13086 0.16,-0.04 0.279844,-0.0508 0.339844,-0.0508 0.08,0 0.160156,-6e-5 0.160156,-0.0801 H 34.189453 Z M 34,140.82031 c 0,0 -0.08086,0.009 -0.130859,0.0293 -0.09996,0.0286 -0.196192,0.0672 -0.296875,0.11328 -0.02922,0.008 -0.05261,0.007 -0.08203,0.0176 l 0.02539,0.008 c -0.02239,0.011 -0.04316,0.0188 -0.06641,0.0312 0.01581,0 0.0387,-0.003 0.05859,-0.006 -0.03201,0.01 -0.07162,0.0228 -0.107421,0.0371 0,0 0.01906,-0.031 0.03906,-0.041 -0.04,0.02 -0.07914,0.0403 -0.119141,0.0703 l 0.08008,-0.0254 v 0.0254 c -0.08,0 -0.08016,0.0801 -0.160157,0.0801 -0.08,0.08 -0.160156,0.0801 -0.160156,0.0801 0.08,-0.06 0.160469,-0.11015 0.230469,-0.16015 -0.08,0 -0.08016,0.0801 -0.160156,0.0801 l -0.08008,0.0801 h -1.089843 c -0.39,0 -0.63086,0.0802 -0.63086,0.16016 l -0.46875,-0.0801 h 0.308594 c -0.47,-0.08 -0.629375,6e-5 -0.859375,0.0801 -0.07102,0 -0.08568,0.0143 -0.142578,0.0703 l 1.5625,0.0684 -0.08008,0.63086 -1.810547,-0.31054 0.06055,-0.29493 c -0.130116,0.0636 -0.379997,0.14658 -0.626953,0.2461 l -0.142578,1.15039 -0.205079,-0.92969 c -0.09892,0.0829 -0.228587,0.18171 -0.27539,0.22852 -0.05333,0.0533 -0.05333,0.0266 0,-0.0801 0,0 -0.240547,0.24078 -0.310547,0.55078 -0.130222,0.19533 -0.147833,0.39727 -0.152344,0.48047 -0.06896,0.14517 -0.07394,0.27075 -0.07422,0.28711 -0.0061,0.007 -0.0063,0.0141 -0.01367,0.0215 0,0.16 -0.08,0.39086 0,0.63086 0,0.23 0.08016,0.46891 0.160156,0.62891 0,0.08 0.08008,0.16015 0.08008,0.16015 v 0.0801 c 0.08,0.08 0.240625,0.31063 0.390625,0.39063 0.150069,0.15007 0.353609,0.22069 0.445312,0.29492 -0.02902,-0.0163 -0.05577,-0.0297 -0.06445,-0.0254 0,0 -4.66e-4,0.0113 0.01953,0.0312 0,0 0.08016,-0.002 0.160156,0.0781 0.006,0.003 0.02686,0.0215 0.0293,0.0215 0.08,0.02 0.199531,0.0804 0.269531,0.15039 0.16,0.08 0.230547,0.0781 0.310547,0.0781 h 0.160156 c 0.16,0.08 0.07984,0.0801 -0.160156,0.0801 -0.24,0 -0.629453,-0.15867 -0.939453,-0.38867 0.16,0.24 0.30875,0.30867 0.46875,0.38867 0.16,0.08 0.310703,0.0801 0.470703,0.0801 h 0.630859 c 0.24,0 0.549453,6e-5 0.939453,0.0801 l -0.791015,0.0801 c 0.2,0.07 0.441172,0.0913 0.701172,0.11132 -0.6,0.04 -1.200782,0.0889 -1.800782,0.12891 -0.24,0.02 -0.448672,0.0802 -0.638671,0.16016 -0.02,0 -0.05008,0.009 -0.08008,0.0293 -0.03,0.02 -0.07156,0.031 -0.101562,0.041 h -0.119141 l -0.189453,0.19922 -0.201172,0.041 v 0.0801 l -0.08008,0.0801 -0.160156,0.16015 c -0.16,0.16 -0.238672,0.30883 -0.388672,0.54883 -0.08,0.23 -0.160234,0.47086 -0.240234,0.63086 0,0.16 -0.08008,0.31055 -0.08008,0.31055 0,0.31 0.08023,0.62945 0.240235,0.93945 0.16,0.31 0.388984,0.54899 0.708984,0.70899 0.16,0.08 0.310703,0.16047 0.470703,0.23047 0.08,0 0.160235,0.0801 0.240235,0.0801 h 0.990234 c -0.07,0.08 -0.13164,0.16977 -0.181641,0.25977 -0.03,0.01 -0.03961,0.0308 -0.09961,0.0508 0,-0.08 -0.318828,-0.08 -0.548828,0 h -0.310547 c -0.08,0 -0.160156,-6e-5 -0.160156,-0.0801 -0.24,-0.08 -0.468985,-0.2407 -0.708984,-0.4707 l 0.238281,0.24023 0.08008,0.0801 H 28.119141 L 28.199219,151 c 0.08,0 0.160234,0.0802 0.240234,0.16016 0.08,0 0.160547,0.0802 0.310547,0.16015 0.08,0 0.08016,6e-5 0.160156,0.0801 h 0.550782 c -0.160002,0.08 0.0782,0.0801 0.158203,0.0801 h 0.02148 c 0,0.02 -0.02148,0.0388 -0.02148,0.0488 -0.03,0.03 -0.06008,0.0713 -0.08008,0.11132 -0.08,0.08 -0.0782,0.16024 -0.158203,0.24024 0,0.08 -7.6e-5,0.0782 -0.08008,0.1582 v 0.10156 h -0.04102 c -0.02,-0.03 -0.03906,-0.0716 -0.03906,-0.10156 v 0.11133 c -0.21,0.02 -0.421094,0.0388 -0.621094,0.0488 -0.07,0 -0.138984,9.8e-4 -0.208984,0.0215 -0.18,0.01 -0.360781,0.0288 -0.550781,0.0488 -0.08,0 -0.109066,-0.0286 -0.03906,-0.0586 -0.11,0 -0.230625,0.0184 -0.390625,0.0684 -0.24,0 -0.470937,0.0802 -0.710937,0.24023 -0.24,0.08 -0.468905,0.23063 -0.628907,0.39063 -0.16,0.16 -0.390703,0.3889 -0.470703,0.6289 -0.24,0.47 -0.230156,0.94172 -0.160156,1.26172 0.08,0.31 0.240547,0.54883 0.310547,0.54883 0,0 -0.08016,-6e-5 -0.160156,-0.0801 -0.01,0 -0.01906,-0.01 -0.03906,-0.0195 0.04,0.06 0.05914,0.11992 0.119141,0.16992 0.16,0.24 0.390937,0.39078 0.710937,0.55078 0.31,0.16 0.629063,0.23016 0.789063,0.16016 h 0.269531 0.04102 c -0.08,0.08 7.6e-5,0.22859 0.08008,0.30859 0,0.08 -7.6e-5,0.16016 -0.08008,0.16016 -0.08,0.08 -0.31086,0.08 -0.63086,0 0.16,0.08 0.390938,0.16016 0.710938,0.16016 h 0.388672 c 0.16,0 0.310703,-6e-5 0.470703,-0.0801 -0.24,0 -0.550235,-0.16024 -0.240234,-0.24024 0.789999,0.16 0.550312,0.0802 1.570312,0.16016 -0.31,0 7.81e-4,-0.31055 0.550781,-0.31055 -0.08,0.08 0.07992,0.23055 -0.08008,0.31055 l 1.259766,-0.31055 c -0.268201,0.0692 -0.06082,0.1754 0.152343,0.20703 l 0.267579,-5.27539 h 0.46875 l -0.263672,5.24024 c 0.355971,-0.0274 0.828082,-0.0507 1.02539,-0.10156 h -0.550781 c 1.41,-0.08 1.34,-0.46883 2.75,-0.54883 -0.16,0.08 -0.389453,0.38859 0.310547,0.30859 0.02,-0.01 0.07937,-0.0386 0.109375,-0.0586 l -0.0293,0.0586 c -0.16,0.31 -0.240234,0.71094 -0.240234,0.71094 v -0.31055 c 0,-0.07 0.01906,-0.13922 0.03906,-0.19922 -0.13,0.34 -0.18914,0.63047 -0.11914,0.98047 0,0.08 7.6e-5,0.15852 0.08008,0.22852 v 0.16015 c 0,0.08 0.08008,0.16047 0.08008,0.23047 V 158 h -0.08008 c -0.08,0 -0.160235,-6e-5 -0.240235,-0.0801 -0.16,0 -0.240156,-0.08 -0.160156,0 0.16,0.08 0.470858,0.24063 0.63086,0.39063 0.08,0.06 0.139687,0.11015 0.179687,0.16015 -0.43,0.01 -0.851172,0.0684 -1.201172,0.0684 -0.4,0.03 -0.73,0.15008 -1,0.33008 0.02,-0.05 0.07086,-0.10969 0.130859,-0.17969 0.16,-0.16 0.320078,-0.30859 0.08008,-0.30859 0,0.0409 -0.08743,0.0986 -0.158203,0.1582 -0.02768,0.005 -0.173917,0.0273 -0.421876,0.21094 0.211104,-0.14073 0.287357,-0.15336 0.41211,-0.20312 -0.06443,0.0535 -0.110339,0.11033 -0.142578,0.14257 l -0.160156,0.0801 -0.08008,0.0801 c -0.08,0.08 -0.160234,0.16055 -0.240234,0.31055 0,0.08 -7.6e-5,0.16023 -0.08008,0.24023 0,0.0712 -0.0603,0.0814 -0.07422,0.13867 -0.0088,0.009 -0.01098,0.024 -0.01758,0.0352 -0.0019,0.0184 -0.0018,0.0664 -0.06836,0.0664 -0.08,0 -0.158282,0.0801 -0.238282,0.0801 -0.08,0 -0.160468,0.0802 -0.230468,0.16016 -0.122784,0.0614 -0.306025,0.20684 -0.484375,0.35937 l -0.01563,0.32032 -0.109375,-0.0195 c -0.02957,0.0647 -0.05062,0.12598 -0.101563,0.19921 0,0.02 -0.0095,0.0501 -0.01953,0.0801 -0.04089,0.0662 -0.06008,0.1429 -0.09375,0.21289 l 0.626953,2.56446 c 0.417763,0.32143 0.937856,0.52092 1.476563,0.51172 h 0.04102 0.388672 c 0.16,0 0.240076,4e-5 0.08008,0.0801 0.08,0 0.160547,-0.0802 0.310547,-0.16015 h 0.0098 c 0.02,-0.02 0.04031,-0.0484 0.07031,-0.0684 0.08,-0.08 0.160235,-0.16016 0.240234,-0.16016 l 0.240235,-0.24023 c 0.380839,0.0429 0.706569,0.0769 1.050781,0.1289 h 3.658203 v -0.16015 l 3.839844,0.28125 -0.119141,-0.34961 -0.109375,0.13867 0.08984,-0.20899 -0.210937,-0.61132 -0.03906,0.041 0.0293,-0.0703 -0.0293,-0.0898 0.06836,-0.0195 0.470704,-1.15039 -1.570313,-0.31054 2.041016,-0.23047 0.0098,0.0215 0.240235,0.46875 0.240234,-0.16015 -0.160156,0.31054 0.160156,0.31055 -0.830078,1.07031 0.279297,0.64844 -0.490234,0.21094 4.65039,0.33984 v 0.15039 0.0801 h -2.289062 c 0.469795,0.022 0.939885,0.0493 1.408203,0.0703 0.14,0.04 0.420937,0.0391 0.710937,0.0391 l 0.0098,-0.01 c 0.1,0 0.200781,-4.6e-4 0.300781,0.01 h 0.06836 c 0.75,0.01 1.511719,0.0195 2.261719,0.0195 0.34,0.05 0.62,0.0906 0.25,0.14062 -0.86,0.08 -0.711562,-6e-5 -1.101562,-0.0801 0.39,0.16 -1.099453,0.16055 -0.939453,0.31055 l 0.689453,-0.0703 c 0,0 -0.05852,0.0303 0.02148,0.0703 0.08,-0.08 0.790233,-0.16006 1.490235,-0.0801 0.359999,-0.04 0.378281,-0.16101 0.238281,-0.29101 1.306888,0 2.624282,-2e-5 3.93164,-0.0371 l 0.539063,0.0879 V 164.5 c 0.49,0.06 0.499531,0.0307 0.519531,-0.0293 0.754932,-0.0175 1.51177,-0.0441 2.273438,-0.0703 h -9.863282 v -0.0801 -0.16015 V 164 l 3.220703,-0.23047 c -0.11,-0.05 -0.2,-0.0891 -0.25,-0.11914 l -0.609374,-0.28125 2.138671,0.14063 -0.169921,-0.28907 0.630859,-0.31054 0.240234,0.31054 -0.490234,0.29883 2.558594,0.16016 c 0.04,-0.33 0.07156,-0.63016 0.101562,-0.91016 l 0.08984,-1.55859 -0.291016,0.19922 -0.240234,-0.31055 0.08008,-0.0801 2.361328,-1.95898 0.859375,-0.78125 0.310547,0.31054 -0.970703,0.59961 0.0293,0.0312 h -0.08008 l -0.158203,0.22852 v -0.0801 l -1.621094,1.62109 0.279297,2.39063 h 4.080078 v 0.23828 l -0.388672,0.0801 c 0.24,0 0.468984,-8e-5 0.708984,-0.0801 1.3233,-0.0751 2.721639,-0.20895 4.054688,-0.22656 0.474149,-0.55936 0.644575,-1.33991 0.40625,-2.04297 0.78,-0.16 1.569375,-0.38883 2.359375,-0.54883 0.08309,-0.0117 0.137146,-0.0543 0.21289,-0.0742 0.03544,-1.05597 0.05874,-2.12615 0.117188,-3.15625 v -0.24219 c -0.21313,-0.0869 -0.452286,-0.13867 -0.720703,-0.13867 -0.91,0 -1.789922,0.0308 -2.669922,0.0508 v -0.13085 c 0,-0.30781 -0.157596,-0.54493 -0.306641,-0.78321 l -0.669922,0.13086 0.04687,0.0937 0.08008,0.0801 v 0.0801 c 0.08,0.08 0.08008,0.23859 0.08008,0.30859 V 157.25 h -0.390625 c 0.08832,-0.2489 0.07968,-0.51752 0.06445,-0.7793 l -0.382813,-0.70117 0.08008,-0.0801 c 0.07,-0.15 0.228594,-0.30867 0.308594,-0.38867 0.08089,-0.13717 0.18244,-0.2584 0.28125,-0.38086 l -0.28125,0.0703 -0.570312,0.16016 c -0.06182,-0.0618 -0.148878,-0.10371 -0.21875,-0.16016 l -0.121094,0.10938 0.03125,0.0312 -0.861328,0.69922 h -0.0098 l -2.740234,2.43945 h -0.388672 l 0.240234,-0.23047 2.830078,-2.50976 h 0.04883 l 0.589843,-0.49024 0.179688,-0.19922 c -0.04,-0.0238 -0.0661,-0.0595 -0.109375,-0.0801 0.07881,-0.0162 0.15295,-0.0373 0.230468,-0.0547 l 1.730469,-1.92383 0.378907,0.37891 -1.566407,1.41406 c 0.387221,-0.0986 0.779955,-0.19177 1.177735,-0.2832 0.0035,-0.004 0.0062,-0.008 0.0098,-0.0117 0.07,-0.08 0.148516,-0.0801 0.228516,-0.0801 h 0.08008 l 0.158203,-0.1582 -0.0078,-0.0117 0.0098,0.01 -0.002,0.002 0.04883,0.0742 c 0.967965,-0.36906 1.331705,-1.29745 1.164063,-2.15429 l -0.0098,-0.0215 0.05859,0.0606 c 0,0.08 0.08008,0.16016 0.08008,0.16016 0.08,0.16 0.160156,0.3107 0.160156,0.4707 0,0.16 0.08,0.30883 0,0.54883 0,0.31 -0.158672,0.70945 -0.388672,0.93945 l -0.160156,0.16016 -0.08008,0.0801 -0.06445,0.0645 0.05469,0.47656 v 0.16016 l 0.02539,0.25781 c 0.414392,-0.10954 0.773533,-0.37463 1.064453,-0.73828 0.31,-0.47 0.54875,-1.02047 0.46875,-1.73047 0,0 -7.6e-5,0.0801 -0.08008,0.0801 0,0.02 -0.0042,0.0356 -0.01172,0.0469 -0.003,0.10101 -0.02023,0.15164 -0.05859,0.043 0.0019,-0.004 0.0022,-0.01 0.0039,-0.0137 -0.0038,3.8e-4 -0.01367,0.004 -0.01367,0.004 0,-0.13 -0.0193,-0.22055 -0.0293,-0.31055 0,-0.15 -0.03008,-0.32 -0.08008,-0.5 -0.02,-0.07 -0.03906,-0.12875 -0.03906,-0.21875 -0.05,-0.1 -0.06031,-0.10032 -0.07031,-0.0703 0,-0.08 -7.6e-5,-0.0801 -0.08008,-0.0801 -0.08,-0.08 0,-0.0802 0,-0.16016 v -0.70898 c -0.015,-0.0881 -0.05879,-0.1706 -0.08398,-0.25782 l -0.136718,0.26758 -0.160157,-0.0801 -0.160156,0.24024 0.160156,-0.31055 -0.160156,-0.0801 0.320313,-0.45312 c -0.108627,-0.22168 -0.247013,-0.42475 -0.410157,-0.58789 -0.31,-0.31 -0.628984,-0.46883 -0.708984,-0.54883 -0.24,-0.08 -0.310625,-0.0801 -0.390625,-0.0801 v 0.0801 c 0,0 0.08,0.0801 0,0.0801 h -0.06055 c -0.01119,-0.009 -0.02944,-0.0127 -0.04102,-0.0215 l -0.6875,1.52149 -0.470704,-0.24024 0.945313,-1.38867 c -0.1097,-0.0596 -0.204854,-0.13198 -0.335938,-0.17187 l 0.01953,-0.01 c 0.08,0 0.160156,-6e-5 0.160156,-0.0801 0.08,0 0.160156,-0.0801 0.160156,-0.0801 0.04,0 0.08133,-0.0191 0.111328,-0.0391 -0.05844,0.0478 0.08119,-0.005 0.148438,-0.0215 l 0.919922,-1.56836 -0.0098,-0.0215 0.08594,0.0527 c -1.95e-4,-0.0898 -1.54e-4,-0.29343 -0.07617,-0.52149 v -0.16015 c 0,-0.08 -0.08008,-0.16016 -0.08008,-0.16016 -0.08,-0.08 0,-0.0801 0,-0.0801 0,0 0.08016,-4e-5 0.160157,-0.0801 0.08,0 0.08016,-6e-5 0.160156,-0.0801 h 0.160156 c 0.08,0 0.160235,-0.0801 0.240235,-0.0801 -0.16,0.08 -0.240235,0.0802 -0.240235,0.16016 h 0.310547 L 67,146.24023 c 0,0 -0.08008,6e-5 -0.08008,0.0801 H 67 c 0.08,0 0.160156,-0.0801 0.160156,-0.0801 0.08,0 0.160156,-0.0801 0.160156,-0.0801 0.08,0 0.08016,-0.0801 0.160157,-0.0801 0.23,-0.16 0.38875,-0.31078 0.46875,-0.55078 0.24,-0.39 0.310547,-0.77961 0.310547,-1.09961 0,-0.27785 -0.05441,-0.52927 -0.07031,-0.7461 l -0.05273,0.24024 c 0.0048,0.0421 0.03102,0.14415 0.0332,0.16601 -0.0066,0.0361 -0.03468,-0.0737 -0.04883,-0.0918 l -0.101563,0.46289 -0.46875,-0.0801 0.248047,-1.13477 c -0.07162,-0.14015 -0.149896,-0.2788 -0.248047,-0.37695 -0.16,-0.23 -0.310859,-0.46898 -0.630859,-0.70898 -0.02,0 -0.05031,-0.031 -0.07031,-0.041 -0.122657,-0.15431 -0.283375,-0.27154 -0.449218,-0.38086 l -1.75,1.6211 0.07031,0.0801 -1.490234,1.80078 -0.310547,-0.23046 1.490234,-1.95899 0.07031,0.0898 1.654297,-1.5371 c -0.191627,-0.0806 -0.389993,-0.1543 -0.625,-0.1543 h -1.470704 c -0.1,-0.05 -0.228125,-0.10016 -0.328124,-0.16016 -0.0469,-0.0156 -0.08347,-0.0226 -0.125,-0.0312 l -0.355469,0.53125 v 0.16016 h -0.08008 l -0.269532,0.23047 -1.460937,2.91992 -0.470703,-0.24023 0.08008,-0.16016 1.880859,-3.0586 v -0.0703 h 0.03906 l 0.121093,-0.48047 h -4 v -0.16015 -0.0527 c -0.409653,0.007 -0.819211,0.0143 -1.228515,0.0215 l 2.667969,2.29101 -0.810547,-0.0586 0.07031,0.21875 0.650391,0.39062 -0.470703,0.39063 -0.34961,-0.52148 -0.04883,0.0508 -0.04102,-0.16993 -0.03906,-0.0703 0.01953,-0.0195 -0.07031,-0.34961 -0.699219,-0.75 -0.04102,0.10938 -0.789063,-0.24024 0.160156,-0.39062 0.369141,0.21093 L 57.5,141 l -0.07031,-0.0937 c -0.182149,0.003 -0.364779,0.005 -0.546876,0.008 l 0.847657,0.7168 -0.240235,0.30859 -1.019531,-0.85937 0.123047,-0.16016 c -3.258589,0.0593 -6.521544,0.1139 -9.787109,0.16602 L 46.570312,141.85938 45,141.69922 v -0.3086 l 1.179688,-0.0801 -0.119141,-0.21094 c -0.481267,0.007 -0.959392,0.0169 -1.441406,0.0234 v 0.66601 l -0.388672,0.0801 -0.1875,-0.73633 c -2.937584,0.0766 -5.883697,0.0774 -8.742188,0.15625 -0.36,0 -0.83,-0.0196 -1.25,0.0606 -0.32,-0.38 -0.219846,-0.44922 -0.08984,-0.44922 0,0 -0.05936,0.003 -0.119141,0.008 0.0638,-0.0371 0.119746,-0.0638 0.167969,-0.0879 z m 33.542969,12.18555 c 0.01303,-0.001 0.03724,-0.003 0.05469,-0.0293 0.0017,-0.057 0.003,-0.11328 -0.0078,-0.20703 -0.0094,0.0938 -0.02101,0.17663 -0.04687,0.23633 z M 63.621094,141.3457 c 0.150428,0.0303 0.284766,0.0774 0.417968,0.125 h -0.259765 c 0,0 -0.05008,-9.8e-4 -0.08008,-0.0215 z m -7.140625,0.0547 0.02734,0.0371 1.921876,1.38281 -0.08008,0.0801 1.480469,2.50977 h 0.560547 L 60,144.61914 l 0.630859,-0.46875 0.158203,0.70899 0.550782,0.63085 -1.330078,1.41016 -0.310547,-0.24023 0.390625,-0.55078 -0.359375,-0.46876 h -0.03125 l -0.08008,-0.0801 -3.111329,-4.12305 -0.03711,-0.0273 z m -24.5,0.15039 0.0098,0.01 3.140625,0.16992 h -0.03125 l 0.5,0.0703 -0.160156,0.38867 -0.46875,-0.16015 0.06836,-0.28907 -2.109374,0.67969 -0.240235,1.01953 -0.160156,-1.17968 -0.548828,-0.24024 z m 2.199219,0.46875 0.550781,0.0801 -0.08008,0.31055 -0.550782,-0.0801 z m -1.650391,0.63086 v 0.01 l 0.08008,1.09961 -0.08008,0.0801 c 0.08,0.16 0.08008,0.31071 0.08008,0.47071 v 0.54883 c -0.01,1.31999 -0.06031,2.65046 -0.07031,3.98046 v 0.65039 c 0,0.17 -0.01859,0.34954 -0.05859,0.51954 -0.01,0.03 -0.02125,0.0696 -0.03125,0.0996 -0.07,0.24 -0.168828,0.46085 -0.298828,0.63085 l -0.160157,0.39063 v -4.79102 h -0.04297 c -0.01155,0.002 -0.03722,0.01 -0.04687,0.01 -0.06,0.02 -0.131172,0.0308 -0.201172,0.0508 -0.159061,-0.0442 -0.16993,-0.0806 0.06055,-0.10937 l 0.390625,-1.91016 h -0.0098 v -0.4707 H 32.25 l 0.03906,-0.19922 -0.148437,-0.98047 z m 35.25,0.12891 c 0.0269,0.0269 0.05314,0.12992 0.08008,0.18554 l 0.0293,-0.13086 c -0.06918,-0.0455 -0.164009,-0.1093 -0.109375,-0.0547 z m -0.386719,0.49023 c 0.09983,0.29295 0.135634,0.64461 0.07813,0.96094 -0.08,0.39 -0.390937,0.70937 -0.710937,0.85937 0,0 -0.08016,6e-5 -0.160157,0.0801 h -0.08008 c -0.16,0 -0.238672,0.0801 -0.388672,0.0801 -0.15,0 -0.240546,6e-5 -0.310547,0.0801 -0.08,0 -0.230468,6e-5 -0.230468,0.0801 0,0.08 7.6e-5,0.16047 0.08008,0.23046 0.08,0.31002 0.240234,0.62938 0.240234,0.85938 0,0.16 -7.6e-5,0.3107 -0.08008,0.4707 -0.08,0.31 -0.310859,0.62907 -0.630859,0.78907 0.08,0 0.160156,-0.08 0.160156,0 0,0 -7.6e-5,0.0802 -0.08008,0.16015 0,0 -0.08016,0.0801 -0.160156,0.0801 0,0 -0.08008,6e-5 -0.08008,0.0801 h -0.158203 c 0.23,-0.31 -1.491093,0.16006 -2.121093,0.0801 0.63,0.08 -2.280078,0.3907 -1.330078,0.4707 -0.710001,0.08 -0.07883,-0.0801 -0.548829,-0.0801 -0.293499,0.0718 -0.583927,0.11072 -0.875,0.15625 l -1.55664,1.08203 -0.0293,-0.0195 -0.230469,0.16016 0.02148,0.0195 -0.63086,0.63086 -0.310547,-0.31055 0.710938,-0.53906 h 0.0098 l 0.458985,-0.31055 0.695312,-0.63086 h -0.705078 c 0.295197,-0.0467 0.57967,-0.10696 0.875,-0.15429 l 0.535156,-0.48438 0.01953,-0.01 0.339843,0.3379 c 1.36105,-0.22356 2.73355,-0.43776 4.041016,-0.70899 1.18,-0.24 1.569766,-1.56976 1.259766,-2.50976 0.16,0 0.390781,-0.0801 0.550781,-0.0801 1.038342,-0.15823 1.429811,-1.03958 1.332031,-1.91016 z m -0.0918,1.42969 h 0.0098 l -0.002,0.004 0.380859,0.15626 -0.228515,0.63085 -0.390626,-0.16015 0.238282,-0.62696 z m -29.720703,0.71094 c -0.14,0.03 -0.289219,0.0696 -0.449219,0.0996 -0.15,0.02 -0.301171,0.0503 -0.451171,0.0703 h -0.0098 c -0.04,-0.02 0.269608,-0.0996 0.09961,-0.0996 l -0.279297,0.0801 c -0.25,-0.02 -0.510234,-0.02 -0.740234,0 l 0.210938,0.0488 c 0,0 -0.04078,0.0213 -0.05078,0.0312 -0.32,0 -0.709842,-0.0897 -1.089844,-0.17968 0.926722,-0.01 1.843009,-0.021 2.759766,-0.0508 z m 24.939453,0.53906 -0.0098,0.0117 0.240234,0.30859 -0.470703,0.31055 -0.548828,0.55078 -0.310547,-0.24024 0.550781,-0.5 v -0.0508 z m -31.388672,0.0703 h 0.0098 c 0.12,0 0.249219,0.0498 0.449219,0.0898 -0.24,0 -0.629063,0.08 -0.789063,0 0.12,-0.08 0.220078,-0.0998 0.330078,-0.0898 z m 1.669922,0.25 h 0.04883 c 0,0 -2.68e-4,0.0195 0.0098,0.0195 -0.02,0.02 -0.01953,0.0508 -0.01953,0.0508 -0.1,0 -0.06906,-0.0303 -0.03906,-0.0703 z m -3.660156,0.12109 c 0,0 -0.08039,0.009 -0.150391,0.0293 h 0.160157 c 0.06,0 0.07026,-0.0393 -0.0098,-0.0293 z m 30.240234,0.41993 0.308594,0.22851 -0.07031,0.11133 0.07031,-0.0312 -0.25,0.30078 -0.07031,0.0996 h -0.01953 l -0.919921,1.08985 -0.310547,-0.3086 0.791015,-0.86133 0.470703,-0.61914 z m 1.888672,0.16015 0.240235,0.3086 -0.470704,0.39062 -0.238281,-0.31054 z m -33.298828,0.38868 c -0.24,0.15998 -0.390625,0.47085 -0.390625,0.63085 0.08,-0.23 0.230625,-0.47086 0.390625,-0.63085 z m 38.365235,0.54296 -0.542969,0.72461 c 0.183862,-0.14004 0.284807,-0.27398 0.417969,-0.41601 0.0632,-0.12641 0.101715,-0.20793 0.125,-0.3086 z m -8.445313,0.87696 0.240234,0.23047 -0.310547,0.39062 -0.160156,-0.0801 L 57.5,149.08984 Z m -1.169922,1.32031 0.308594,0.31055 -0.628906,0.4707 -0.470703,0.39844 0.310546,0.39062 -0.589843,0.34961 -0.04102,0.041 -0.548828,0.54883 -0.230469,-0.3086 0.470703,-0.31055 0.580078,-0.65039 -1.210937,1.04102 -0.310547,-0.39063 1.960937,-1.49023 0.390626,-0.39062 z m 9.419922,0.15039 c 0.14,0.16 0.258594,0.36031 0.308594,0.57031 0.08,0.16 0.08008,0.30875 0.08008,0.46875 v 0.1875 l 0.150391,0.19336 -0.230469,0.19336 v 0.006 c -3.31e-4,-0.001 -0.0016,-0.002 -0.002,-0.004 l -0.707032,0.59571 -0.230468,-0.31055 0.08008,-0.0801 0.701172,-0.57226 c -0.05033,-0.11952 -0.07687,-0.2496 -0.150391,-0.35743 0.07,-0.28998 0.06,-0.59085 0,-0.88085 z m -9.050781,0.25977 h 0.0098 l -0.0059,0.004 0.236328,0.30664 -0.470703,0.23047 -0.308594,-0.23047 0.542969,-0.30664 z m 6.929687,0.23046 h 0.150391 l 0.240234,0.23047 -0.08008,0.0801 -1.099609,1.41016 -0.390625,-0.31055 z m -34.628906,0.70899 c -0.08,0.08 -0.160156,0.0802 -0.160156,0.16016 v 0.0801 c 0,-0.08 0.08016,-0.16023 0.160156,-0.24023 z m -1.580078,0.71094 h 0.160156 z m 26.308594,0.23046 -0.0098,0.01 0.191406,0.25 0.208985,-0.16992 0.310546,0.38867 -1.371093,0.82031 -0.03906,0.041 -1.179687,0.7793 v -0.0195 l -1.910157,1.31055 0.269532,-0.11133 -2.509766,2.04102 0.708984,-1.09961 -0.308593,-0.0801 0.308593,-0.0801 v -0.0801 h 0.160157 l 0.791015,-0.33984 -0.160156,-0.21094 1.869141,-1.41015 h -0.06836 l 1.488282,-1.33008 -0.298829,0.71094 0.740235,-0.34961 0.589844,-0.49024 -0.88086,0.51953 -0.160156,-0.31054 z m 8.091797,0.38868 v 0.01 l 0.46875,0.31055 -1.019532,1.17969 -0.310547,-0.24024 z m -1.111329,1.41015 h 0.0098 l -0.0059,0.004 0.236328,0.30664 -0.310547,0.24023 -0.308594,-0.31054 0.382813,-0.23633 z m 4.878907,0.27735 c -0.01622,0.007 -0.03261,0.0122 -0.04883,0.0156 0.01189,0.006 0.02906,0.0116 0.04102,0.0176 z m -0.632813,0.17382 -0.212891,0.0527 -0.802734,1.07617 h 0.07031 c 0.08,0 0.160156,-6e-5 0.160156,-0.0801 0.16,0 0.228672,-0.0801 0.388672,-0.0801 0.16,0 0.320703,-0.0801 0.470703,-0.0801 0.08,0 0.160547,-0.0801 0.310547,-0.0801 0.01617,0 0.04585,-0.015 0.0625,-0.0156 l 0.0078,-0.0137 z m -5.175781,0.33985 0.310547,0.30859 -0.390625,0.47071 -0.310547,-0.31055 z m -34.708984,0.0801 c 0,0.06 0.05914,0.11867 0.11914,0.13867 0,0 -0.02102,-0.0386 -0.04102,-0.0586 z m 0.238281,0.70898 c 0,0 0.03078,0.031 0.05078,0.041 -0.02,-0.01 -0.03078,-0.021 -0.05078,-0.041 z M 34.810547,156 c -0.21,0.07 -0.290547,0.0801 -0.310547,0.0801 0.08,0 0.160547,-6e-5 0.310547,-0.0801 z m -0.320313,0.0703 c -0.01963,0.007 -0.02038,0.011 -0.02539,0.0156 0.0095,-0.003 0.01572,-0.003 0.02539,-0.006 z m -0.02539,0.0156 c -0.531924,0.14904 -0.829941,0.0772 -0.525391,0.22461 0.94,0 0.241484,-0.16016 1.021485,-0.16016 0.220367,-0.0735 -0.552323,-0.0131 -0.496094,-0.0644 z m 30.416015,0.22461 c 0.08,0.08 0.08008,0.16004 0.08008,0.0801 z m -6.521484,0.47851 h 0.0098 l 0.230468,0.31055 -0.939453,0.63086 -0.240234,-0.31055 z m -1.179687,0.86133 h 0.08008 l 0.160156,0.23047 -0.310547,0.23828 -0.160156,-0.23828 z m 11.90039,0.17969 v 0.5293 h 0.08008 c 0.02,0.25 0.04055,0.50976 0.06055,0.75976 0.02,0.09 0.01953,0.18172 0.01953,0.26172 0.03413,0.22608 0.02393,0.46714 0.03516,0.70312 0.435575,-0.6667 0.335608,-1.62338 -0.195313,-2.2539 z m -12.679687,0.5293 0.160156,0.16015 -0.710938,0.63086 h -0.08008 l 0.08008,-0.16016 -0.08008,0.0801 -0.08008,-0.0801 0.08008,-0.0801 z m -9.419922,0.9414 h 0.308593 v 0.38867 c 0,0.08 -0.0782,0.0802 -0.158203,0.16016 h -0.230468 z m 8.558593,0.0801 v 0.01 l 0.230469,0.24024 -0.230469,0.30859 -0.238281,-0.16015 0.160157,-0.24024 z m -5.189453,0.54883 h 0.230469 l 0.08008,0.0801 h 0.08008 v 0.0801 c 0,0.08 -7.8e-5,0.0802 -0.08008,0.16016 H 50.5 l -1.650391,1.96094 -0.46875,-0.55078 1.859375,-1.5 0.0293,-0.0703 z m -18.839843,1.25586 c -0.09564,0.24871 -0.16061,0.51157 -0.140625,0.80468 0,0.22469 0.07439,0.41966 0.140625,0.61719 z m 10.679687,0.15429 h 0.160156 l 0.08008,0.24024 h -0.240235 l 0.08008,-0.0801 v -0.0801 z m 11.480469,0.0293 0.08984,0.30078 -0.378907,0.11914 -0.0918,-0.29883 z M 31.980469,161.5 l 0.388672,0.16016 -0.08008,0.55078 h -0.308593 z m 9.730469,0 h 0.0098 l 0.308594,0.0801 -0.240235,0.55078 -0.308593,-0.24024 z m 14.21875,0.0703 h 0.0098 l 0.230469,0.39063 -0.810547,0.45898 0.410156,-0.14062 -0.628906,0.4707 -0.230469,-0.0801 h -0.08008 v -0.11914 L 54.75,162.42969 Z m -3.060547,0.24024 0.160156,0.30859 -0.548828,0.31055 -0.160157,-0.23047 z m -8.884766,0.32226 -0.494141,0.44727 0.189454,-0.0606 0.07031,0.16992 z m -1.955078,0.0664 0.470703,1.26172 -0.160156,0.0781 -0.310547,0.0801 -0.308594,-1.25976 z m 14.53125,0.0801 -0.02148,0.40039 c 0.04,0.29 0.07156,0.57937 0.101563,0.85937 h 0.08008 z m -21.371094,1.33984 -0.09961,0.10156 h 0.0098 c 0,0 0.01953,0.0186 0.01953,0.0586 0,0 -0.07828,0.0802 -0.238282,0.16015 -0.08,0.08 -0.160234,0.0802 -0.240234,0.16016 -0.03,0 -0.06984,0.021 -0.08984,0.041 -0.03,0.03 -7.8e-5,0.0391 0.169922,0.0391 l 0.160156,-0.16016 c 0,0 0.08008,-6e-5 0.08008,-0.0801 h 0.07812 l 0.160157,-0.16015 h 0.570312 v -0.0723 c -0.013,-7e-5 -0.01512,-0.008 -0.0293,-0.008 -0.15,0 -0.390781,-0.0801 -0.550781,-0.0801 z m -0.308594,0.32031 0.08008,-0.0801 0.07812,-0.0801 0.06055,-0.0586 c 0,0 -0.05867,0.0186 -0.138671,0.0586 -0.08,0.08 -0.160235,0.0802 -0.240235,0.16015 0,0 -0.07039,0.0703 -0.150391,0.0703 h 0.0098 c -0.05,0.05 -0.08984,0.11015 -0.08984,0.16015 l 0.06055,-0.0391 c 0.04,-0.04 0.190078,-0.10141 0.330078,-0.19141 z m 24.5,-0.16992 v 0.16016 c 0.05,-0.01 0.138672,-0.01 0.138672,-0.01 l -0.0293,-0.15039 z m -4.361328,0.0527 c 0.349566,0.0286 0.703893,0.062 1.060547,0.0976 0.01,-0.03 0.0098,-0.0801 0.0098,-0.0801 z m -16.36914,0.57812 v 0.0801 l 0.310547,-0.0801 z m 4.384765,0 c 0.104897,0.01 0.249203,0.0195 0.345703,0.0293 0.113626,0 0.08589,-0.0157 0.201172,-0.0293 z m 16.039063,0 c 0.09956,0.0395 0.227532,0.0541 0.455078,0.0996 0.08,0 0.160703,-0.0801 0.470703,-0.0801 0.23,0 0,0.0801 0,0.0801 0.115834,0 0.268927,-0.0461 0.205078,-0.0996 z m -14.84375,0.0801 0.708984,0.0801 h 0.160156 c -0.39,-0.08 -0.859375,-0.0801 -0.859375,-0.0801 z m 1.099609,0.0488 c -0.06,0 -0.120156,0.011 -0.160156,0.041 h 0.541016 c -0.06,0 -0.23086,-0.041 -0.38086,-0.041 z m 2.259766,0.0312 0.002,0.002 0.0078,-0.002 z m 0.002,0.002 -0.232422,0.0781 0.390625,0.0801 z m -18.722656,0.0273 c 0.03,0.01 0.05078,0.0508 0.05078,0.0508 z m 17.240234,0.0508 0.470703,0.0801 h 0.240234 z m 6.5,0.0801 c -0.413213,0.001 -0.654829,0.0801 -0.21875,0.0801 h 0.308594 v -0.0801 h -0.08008 z m -18.179687,15.94141 c -0.0032,0.003 -0.0065,0.005 -0.0098,0.008 v 0.0508 z m -0.589844,0.32227 c -0.213315,0.0696 -0.430996,0.10495 -0.648438,0.0859 0.71296,1.62021 0.120969,3.37817 0.199219,5.07031 0.16,2.67001 0.939688,5.33985 1.179687,8.08985 0.16,1.88 0.308752,3.77039 0.46875,5.65039 0.320001,1.18 0.400938,2.42945 0.710938,3.68945 0.31,1.1 0.699453,2.11875 0.939453,3.21875 0.08,0.31 0.160156,0.71149 0.160156,1.02149 0.86,2.28 1.889922,4.55009 2.669922,6.83007 0.94,2.67001 1.81,5.41993 2.75,8.16993 0.55,1.57 1.020313,3.13898 1.570313,4.70898 0.24,0.63 0.470937,1.33102 0.710937,2.04102 0.78,2.43 2.588985,5.57023 1.958985,8.24023 0.94,-4.08 2.271169,-8.00164 3.451172,-11.93164 0.939999,-3.06 1.329921,-6.03914 2.669921,-8.86914 1.25,-2.67 2.828205,-5.09945 4.158203,-7.68945 3.850001,-7.46 5.191641,-16.18 3.931641,-24.5 -0.103151,-0.70412 -0.201316,-1.46866 -0.183594,-2.20508 -0.338303,-0.25459 -0.550393,-0.63049 -0.673828,-1.03516 -0.336624,0.0407 -0.662622,0.0948 -1.003906,0.12891 -0.977162,0.0504 -1.950951,0.0663 -2.927734,0.10351 -1.93209,0.0737 -3.86482,0.1539 -5.791016,0.20704 -0.44,0 -0.85125,0.0193 -1.28125,0.0293 l 0.101563,0.13086 h -2.980469 l -0.160157,0.16016 -0.769531,-0.0801 h -0.25 v -0.0195 l -2.830078,-0.29102 0.388672,0.31055 -4.179687,-0.62109 -0.07031,0.0703 c -0.07,0.07 -0.209609,0.14094 -0.349609,0.21094 -0.04,0.03 -0.07914,0.0696 -0.119141,0.0996 -1.177554,0.98547 -2.617235,0.20821 -2.925781,-0.89454 l -0.607422,-0.0918 c -0.03073,0.0425 -0.04388,0.0829 -0.08789,0.12695 0,0 0.02252,-0.0866 0.0332,-0.13477 z m 7.099609,0.36523 v 0.01 c 0.599564,0.0588 1.206921,0.0918 1.810547,0.13476 -0.03555,-0.0129 -0.07074,-0.0239 -0.105469,-0.0391 -0.194809,-0.018 -0.38755,-0.0383 -0.583984,-0.0547 z m 2.824219,0.21289 c -0.0064,0.002 -0.01309,0.004 -0.01953,0.006 0.0927,0.005 0.182382,0.017 0.27539,0.0215 z m -2.123047,0.19727 -0.0098,0.01 0.03906,0.0195 2.050781,0.19141 c -0.65,-0.07 -1.330312,-0.1507 -2.070312,-0.2207 z m 27.259766,39.70117 c 0.01,0.01 0.03055,0.0898 0.06055,0.25976 -0.04,-0.14 -0.06055,-0.25976 -0.06055,-0.25976 z m -23.160157,33.69922 c 0.01,0.01 0.03055,0.0298 0.06055,0.0898 -0.06,-0.05 -0.06055,-0.0898 -0.06055,-0.0898 z" />
    <g
       id="g61">
      <path
         class="cls-7"
         d="m 77.56,109.68 c -0.08,0 -0.16,-0.02 -0.24,-0.02 -0.32,0 -0.64,0.02 -0.96,0.02 -0.34,0 -0.68,0.04 -1.02,0.04 -0.31,0 -0.63,-0.01 -0.94,-0.01 -0.02,-0.02 -0.03,-0.04 -0.03,-0.07 0,-0.03 0.02,-0.06 0.05,-0.09 h 0.72 c 0.1,0 0.61,0.01 0.66,-0.02 0,-0.22 -0.01,-0.44 -0.02,-0.66 0,-0.06 0,-0.12 0.01,-0.18 -0.2,-0.02 -0.4,-0.02 -0.6,-0.02 -0.24,0 -0.47,0.02 -0.7,0.02 -0.06,0 -0.11,-0.02 -0.11,-0.08 0,-0.02 0,-0.04 0.02,-0.05 0.18,-0.05 0.36,-0.07 0.54,-0.07 0.26,0 0.52,0.01 0.78,0.01 0.05,0 0.1,0 0.15,-0.02 0.16,0.02 0.62,-0.02 0.82,-0.02 0.28,0 0.56,-0.02 0.84,-0.02 0.05,0 0.14,0 0.14,0.07 0,0.04 0,0.08 -0.03,0.11 -0.56,0 -1.1,0 -1.66,0.05 -0.03,0.12 -0.02,0.24 -0.02,0.36 0,0.06 -0.01,0.12 -0.01,0.18 0,0.04 0.03,0.27 0.05,0.28 0.15,-0.02 0.29,-0.02 0.44,-0.02 h 0.95 c 0.1,0 0.32,0 0.32,0.12 0,0.06 -0.11,0.06 -0.15,0.06 z"
         id="path23" />
      <path
         class="cls-7"
         d="m 75.82,107.75 c -0.16,-0.02 -0.31,-0.07 -0.46,-0.1 -0.27,-0.05 -0.7,-0.13 -0.94,-0.24 -0.04,-0.02 -0.05,-0.04 -0.05,-0.08 0,-0.17 0.64,-0.3 0.79,-0.35 0.31,-0.09 0.65,-0.1 0.96,-0.18 0.16,-0.04 0.34,-0.06 0.5,-0.09 l 0.97,-0.23 c 0,0 0.07,0.04 0.07,0.08 0,0.02 -0.03,0.05 -0.04,0.06 -0.41,0.12 -0.82,0.22 -1.23,0.31 v 0.57 c 0,0.05 0,0.11 0,0.17 0.4,0.06 0.79,0.15 1.19,0.21 0.06,0 0.12,0.03 0.12,0.09 0,0.06 -0.05,0.1 -0.11,0.1 H 77.57 C 77,107.91 76.4,107.82 75.82,107.74 Z m -0.78,-0.33 c 0.53,0.1 1.05,0.21 1.15,0.2 0,-0.05 0,-0.11 0,-0.16 0,-0.16 0,-0.33 -0.03,-0.5 -0.5,0.09 -1.1,0.14 -1.56,0.35 0.11,0.02 0.31,0.08 0.44,0.1 z"
         id="path25" />
      <path
         class="cls-7"
         d="m 76.85,106.13 c -0.16,0 -0.32,0 -0.48,0.01 -0.26,0 -0.51,0.02 -0.77,0.02 -0.23,0 -0.47,-0.02 -0.7,-0.03 -0.34,-0.02 -0.59,-0.22 -0.59,-0.55 0,-0.1 0,-0.21 0.04,-0.31 0.08,-0.18 0.4,-0.39 0.62,-0.39 0.06,0 0.15,0.02 0.16,0.07 0,0.16 -0.65,0.09 -0.65,0.59 0,0.15 0.14,0.4 0.31,0.42 0.37,0.04 0.95,0.03 1.34,0.03 0.28,0 0.86,-0.01 1.11,-0.09 0.19,-0.06 0.26,-0.2 0.26,-0.37 0,-0.16 -0.08,-0.38 -0.24,-0.46 -0.06,-0.03 -0.37,-0.04 -0.37,-0.1 0,-0.1 0.1,-0.1 0.18,-0.1 0.41,0 0.61,0.31 0.61,0.65 0,0.43 -0.42,0.61 -0.84,0.61 z"
         id="path27" />
      <path
         class="cls-7"
         d="m 75.55,103.89 c 0.47,-0.16 0.79,-0.49 1.22,-0.71 0.16,-0.08 0.69,-0.34 0.86,-0.35 0.05,0 0.04,0.03 0.04,0.07 0,0.02 0,0.04 -0.02,0.05 -0.23,0.13 -0.47,0.24 -0.71,0.35 -0.44,0.2 -0.72,0.5 -1.25,0.73 0.05,0.08 0.11,0.13 0.18,0.2 0.18,0 0.36,0.03 0.54,0.03 0.24,0 0.48,-0.02 0.72,-0.02 0.15,0 0.29,-0.02 0.44,-0.03 0.03,0 0.06,0.02 0.06,0.05 0,0.04 -0.01,0.1 -0.05,0.13 h -0.21 c -0.16,0 -0.31,0.02 -0.47,0.03 -0.23,0.01 -0.46,0.02 -0.68,0.02 -0.11,0 -0.22,-0.02 -0.33,-0.02 h -0.65 c -0.33,0 -0.66,0 -0.98,0.03 -0.02,-0.02 -0.03,-0.04 -0.03,-0.07 0,-0.04 0.03,-0.07 0.07,-0.08 0,0 1.26,-0.04 1.34,-0.04 -0.35,-0.38 -0.79,-0.7 -1.2,-1.03 -0.09,-0.07 -0.14,-0.15 -0.15,-0.25 0.01,-0.04 0.05,-0.05 0.09,-0.05 h 0.05 c 0.16,0.35 0.81,0.69 1.12,0.98 z"
         id="path29" />
      <path
         class="cls-7"
         d="m 75.77,101.93 c 0.19,-0.17 0.42,-0.41 0.65,-0.52 0.21,-0.1 0.42,-0.18 0.66,-0.19 0.32,0 0.63,0.31 0.63,0.63 0,0.54 -0.42,0.72 -0.95,0.72 -0.07,0 -0.31,0 -0.31,-0.08 0,-0.05 0.04,-0.09 0.09,-0.09 0.05,0 0.1,0 0.16,0 0.36,0 0.82,-0.08 0.82,-0.49 0,-0.28 -0.18,-0.52 -0.51,-0.52 -0.3,0 -0.64,0.28 -0.86,0.44 -0.34,0.25 -0.58,0.71 -1.08,0.71 -0.33,0 -0.71,-0.21 -0.74,-0.53 v -0.08 c 0,-0.39 0.3,-0.63 0.73,-0.63 0.07,0 0.1,0.02 0.1,0.09 0,0.02 -0.03,0.03 -0.04,0.03 -0.14,0.03 -0.29,0.07 -0.42,0.14 -0.13,0.07 -0.19,0.24 -0.19,0.37 0,0.28 0.29,0.41 0.57,0.41 0.31,0 0.5,-0.27 0.68,-0.43 z"
         id="path31" />
      <path
         class="cls-7"
         d="m 75.12,99.44 h 0.51 c 0.51,0 0.81,0.35 0.81,0.79 0,0.11 -0.02,0.22 -0.04,0.33 h 0.57 c 0.11,0 0.23,-0.02 0.34,-0.02 h 0.29 c 0,0 0.03,0.04 0.03,0.04 0,0.06 -0.01,0.13 -0.09,0.14 l -0.84,0.03 c -0.42,0 -0.83,0.02 -1.24,0.02 h -1.03 c -0.05,-0.03 -0.05,-0.12 -0.05,-0.17 0,-0.15 -0.02,-0.29 -0.02,-0.43 0,-0.49 0.2,-0.72 0.76,-0.72 z m 1.06,1.1 c 0.03,-0.09 0.05,-0.19 0.05,-0.29 0,-0.69 -0.47,-0.6 -1.01,-0.64 -0.44,0 -0.68,0.07 -0.68,0.51 0,0.16 0.02,0.31 0.03,0.46 h 0.36 c 0.41,0 0.84,0.01 1.25,-0.04 z"
         id="path33" />
      <path
         class="cls-7"
         d="m 75.8,99 c -0.16,-0.02 -0.31,-0.07 -0.46,-0.1 -0.27,-0.05 -0.7,-0.13 -0.94,-0.24 -0.04,-0.02 -0.05,-0.04 -0.05,-0.08 0,-0.17 0.64,-0.3 0.79,-0.35 0.31,-0.09 0.65,-0.1 0.96,-0.18 0.16,-0.04 0.34,-0.06 0.5,-0.09 l 0.97,-0.23 c 0,0 0.07,0.04 0.07,0.08 0,0.02 -0.03,0.05 -0.04,0.06 -0.41,0.12 -0.82,0.22 -1.23,0.31 v 0.57 c 0,0.05 0,0.11 0,0.17 0.4,0.06 0.79,0.15 1.19,0.21 0.06,0 0.12,0.03 0.12,0.09 0,0.06 -0.05,0.1 -0.11,0.1 H 77.55 C 76.98,99.16 76.38,99.07 75.8,98.99 Z m -0.78,-0.33 c 0.53,0.1 1.05,0.21 1.15,0.2 0,-0.05 0,-0.11 0,-0.16 0,-0.16 0,-0.33 -0.03,-0.5 -0.5,0.09 -1.1,0.14 -1.56,0.35 0.11,0.02 0.31,0.08 0.43,0.1 z"
         id="path35" />
      <path
         class="cls-7"
         d="m 76.84,97.38 c -0.16,0 -0.32,0 -0.48,0.01 -0.26,0 -0.51,0.02 -0.77,0.02 -0.23,0 -0.47,-0.02 -0.7,-0.03 -0.34,-0.02 -0.59,-0.22 -0.59,-0.55 0,-0.1 0,-0.21 0.04,-0.31 0.08,-0.18 0.4,-0.39 0.62,-0.39 0.06,0 0.15,0.02 0.16,0.07 0,0.16 -0.65,0.09 -0.65,0.59 0,0.15 0.14,0.4 0.31,0.42 0.37,0.04 0.95,0.03 1.34,0.03 0.28,0 0.86,0 1.11,-0.09 0.19,-0.06 0.26,-0.2 0.26,-0.37 0,-0.16 -0.08,-0.38 -0.24,-0.46 -0.06,-0.03 -0.37,-0.04 -0.37,-0.1 0,-0.1 0.1,-0.1 0.18,-0.1 0.41,0 0.61,0.31 0.61,0.65 0,0.43 -0.42,0.61 -0.84,0.61 z"
         id="path37" />
      <path
         class="cls-7"
         d="m 77.63,95.36 v 0.13 c 0,0.13 0.01,0.19 -0.17,0.19 -0.2,0 -0.41,-0.02 -0.61,-0.02 -0.29,0 -0.58,0.01 -0.88,0.01 -0.23,0 -0.45,-0.02 -0.68,-0.02 -0.27,0 -0.53,0.03 -0.8,0.03 -0.1,0 -0.11,-0.11 -0.11,-0.18 v -0.29 c 0,-0.15 -0.02,-0.29 -0.02,-0.44 0,-0.05 0.01,-0.08 0,-0.13 0.02,-0.06 0.06,-0.1 0.12,-0.13 0.05,0 0.07,0.03 0.07,0.07 0,0.13 -0.01,0.25 -0.01,0.38 0,0.18 0,0.36 0.02,0.54 h 1.26 c 0,0 0,-0.51 0,-0.51 0,-0.04 0.04,-0.1 0.09,-0.1 0.05,0 0.08,0.02 0.08,0.07 0,0.18 0,0.35 0,0.53 h 0.24 c 0.25,0 0.5,0 0.76,0 0.15,0 0.31,0 0.47,0 0,-0.1 0.01,-0.2 0.01,-0.29 0,-0.12 -0.02,-0.25 -0.02,-0.37 0,-0.08 0.02,-0.16 0.13,-0.16 0.02,0 0.04,0 0.05,0.02 0,0.18 0,0.35 0,0.52 0,0.05 0,0.09 0,0.14 z"
         id="path39" />
      <path
         class="cls-7"
         d="m 76.83,91.63 c 0,0 -0.01,0.1 -0.03,0.14 0.63,0.01 0.9,0.19 0.9,0.78 0,0.51 -0.54,0.65 -1.02,0.65 -0.38,0 -0.65,-0.11 -0.85,-0.42 -0.16,0.19 -0.39,0.33 -0.66,0.33 -0.42,0 -0.8,-0.18 -0.8,-0.6 0,-0.45 0.32,-0.62 0.78,-0.62 0.06,0 0.11,0.04 0.11,0.1 0,0.06 -0.05,0.1 -0.12,0.1 -0.3,0 -0.58,0.07 -0.58,0.39 0,0.39 0.26,0.45 0.64,0.44 0.31,0 0.55,-0.23 0.55,-0.5 0,-0.09 0,-0.17 0.09,-0.17 0.09,0 0.09,0.09 0.09,0.15 0.01,0.18 0.02,0.27 0.16,0.42 0.13,0.13 0.34,0.2 0.54,0.2 h 0.29 c 0.32,0 0.62,-0.23 0.62,-0.53 0,-0.53 -0.36,-0.54 -0.83,-0.55 -0.04,0.05 -0.17,0.16 -0.17,0.23 0,0.16 0.25,0.13 0.25,0.27 0,0.01 0,0.04 -0.02,0.04 -0.21,0 -0.41,-0.11 -0.41,-0.32 0,-0.2 0.29,-0.29 0.29,-0.49 0,-0.13 -0.07,-0.19 -0.21,-0.19 -0.03,0 -0.09,0.02 -0.09,-0.03 0,-0.07 0.09,-0.11 0.16,-0.11 0.2,0 0.35,0.09 0.35,0.29 z"
         id="path41" />
      <path
         class="cls-7"
         d="m 74.97,88.11 c 0.21,0 0.41,0.02 0.62,0.02 0.22,0 0.44,-0.02 0.67,-0.02 h 0.6 c 0.45,0 0.62,-0.04 0.66,-0.04 0.07,0 0.12,0 0.12,0.07 0,0.03 0,0.11 -0.04,0.11 -0.02,0 -0.94,0.05 -1.02,0.05 H 75.9 c 0,0 -0.37,0 -0.37,0 h -0.75 c 0.2,0.09 0.41,0.16 0.62,0.23 0.24,0.09 0.62,0.15 0.79,0.34 -0.04,0.12 -0.22,0.16 -0.33,0.21 -0.11,0.05 -0.21,0.11 -0.32,0.16 -0.14,0.06 -0.28,0.1 -0.42,0.16 -0.16,0.06 -0.33,0.12 -0.48,0.19 0.62,-0.03 1.22,-0.03 1.84,-0.04 0.26,0 0.51,0.02 0.77,0.02 0.1,0 0.21,-0.03 0.31,-0.03 0.05,0 0.08,0.04 0.08,0.09 0,0.05 -0.03,0.06 -0.06,0.07 -0.04,0.01 -0.37,0.02 -0.43,0.02 -0.24,0 -0.48,-0.02 -0.72,-0.02 h -0.87 c -0.12,0 -0.23,0 -0.35,0.01 l -0.4,0.03 c -0.06,0 -0.14,0.02 -0.2,0.02 -0.3,0 -0.18,0 -0.28,-0.15 0,-0.01 -0.02,-0.02 -0.02,-0.04 0,-0.07 0.17,-0.13 0.23,-0.15 0.1,-0.04 0.45,-0.21 0.52,-0.21 0.26,-0.09 0.53,-0.2 0.79,-0.32 -0.29,-0.13 -0.57,-0.22 -0.86,-0.31 -0.13,-0.04 -0.26,-0.09 -0.38,-0.16 -0.07,-0.04 -0.14,-0.09 -0.23,-0.09 -0.03,0 -0.09,0 -0.09,-0.04 0,-0.04 0.01,-0.11 0.04,-0.15 0.21,-0.02 0.42,-0.03 0.63,-0.03 z"
         id="path43" />
      <path
         class="cls-7"
         d="m 75.78,87.36 c -0.16,-0.02 -0.31,-0.07 -0.46,-0.1 -0.27,-0.05 -0.7,-0.13 -0.94,-0.24 -0.04,-0.02 -0.05,-0.04 -0.05,-0.08 0,-0.17 0.64,-0.3 0.79,-0.35 0.31,-0.09 0.65,-0.1 0.96,-0.18 0.16,-0.04 0.34,-0.06 0.5,-0.1 l 0.97,-0.23 c 0,0 0.07,0.04 0.07,0.08 0,0.02 -0.03,0.05 -0.04,0.06 -0.41,0.12 -0.82,0.22 -1.23,0.31 v 0.57 c 0,0.05 0,0.11 0,0.17 0.4,0.06 0.79,0.15 1.19,0.21 0.06,0 0.12,0.03 0.12,0.09 0,0.06 -0.05,0.1 -0.11,0.1 H 77.53 C 76.96,87.51 76.36,87.42 75.78,87.34 Z M 75,87.03 c 0.53,0.1 1.05,0.21 1.15,0.2 0,-0.05 0,-0.11 0,-0.16 0,-0.16 0,-0.33 -0.03,-0.5 -0.5,0.09 -1.1,0.14 -1.56,0.35 0.11,0.02 0.31,0.08 0.43,0.1 z"
         id="path45" />
      <path
         class="cls-7"
         d="m 75.52,85.18 c 0.47,-0.16 0.79,-0.49 1.22,-0.71 0.16,-0.08 0.69,-0.34 0.86,-0.35 0.05,0 0.04,0.03 0.04,0.07 0,0.02 0,0.04 -0.02,0.05 -0.23,0.13 -0.47,0.24 -0.71,0.35 -0.44,0.2 -0.72,0.5 -1.25,0.73 0.05,0.08 0.11,0.13 0.18,0.2 0.18,0 0.36,0.03 0.54,0.03 0.24,0 0.48,-0.02 0.72,-0.02 0.15,0 0.29,-0.02 0.44,-0.03 0.03,0 0.06,0.02 0.06,0.05 0,0.04 -0.01,0.1 -0.05,0.13 h -0.21 c -0.16,0 -0.31,0.02 -0.47,0.03 -0.23,0.01 -0.46,0.02 -0.68,0.02 -0.11,0 -0.22,-0.02 -0.33,-0.02 h -0.65 c -0.33,0 -0.66,0 -0.98,0.03 -0.02,-0.02 -0.03,-0.04 -0.03,-0.07 0,-0.04 0.03,-0.07 0.07,-0.08 0,0 1.26,-0.04 1.34,-0.04 -0.35,-0.38 -0.79,-0.7 -1.2,-1.03 -0.09,-0.07 -0.14,-0.15 -0.14,-0.25 0.01,-0.04 0.05,-0.05 0.09,-0.05 h 0.05 c 0.16,0.35 0.81,0.69 1.12,0.98 z"
         id="path47" />
      <path
         class="cls-7"
         d="m 77.61,83.44 v 0.13 c 0,0.13 0.01,0.19 -0.17,0.19 -0.2,0 -0.41,-0.02 -0.61,-0.02 -0.29,0 -0.58,0.01 -0.88,0.01 -0.23,0 -0.45,-0.02 -0.68,-0.02 -0.27,0 -0.53,0.03 -0.8,0.03 -0.1,0 -0.11,-0.11 -0.11,-0.18 v -0.29 c 0,-0.15 -0.02,-0.29 -0.02,-0.44 0,-0.05 0.01,-0.08 0,-0.13 0.02,-0.06 0.06,-0.1 0.12,-0.13 0.05,0 0.07,0.03 0.07,0.07 0,0.13 -0.01,0.25 -0.01,0.38 0,0.18 0,0.36 0.02,0.54 h 1.26 c 0,0 0,-0.51 0,-0.51 0,-0.04 0.04,-0.1 0.09,-0.1 0.05,0 0.08,0.02 0.08,0.07 0,0.18 0,0.35 0,0.53 h 0.24 c 0.25,0 0.5,0 0.76,0 0.15,0 0.31,0 0.47,0 0,-0.1 0.01,-0.2 0.01,-0.29 0,-0.12 -0.02,-0.25 -0.02,-0.37 0,-0.08 0.02,-0.16 0.13,-0.16 0.02,0 0.04,0 0.05,0.02 0,0.18 0,0.35 0,0.52 0,0.05 0,0.09 0,0.14 z"
         id="path49" />
      <path
         class="cls-7"
         d="m 75.09,80.92 h 0.51 c 0.51,0 0.81,0.35 0.81,0.79 0,0.11 -0.02,0.22 -0.04,0.33 h 0.57 c 0.11,0 0.23,-0.02 0.34,-0.02 h 0.29 c 0,0 0.03,0.04 0.03,0.04 0,0.06 -0.01,0.13 -0.09,0.14 l -0.84,0.03 c -0.42,0 -0.83,0.02 -1.24,0.02 H 74.4 c -0.05,-0.03 -0.05,-0.12 -0.05,-0.17 0,-0.15 -0.02,-0.29 -0.02,-0.43 0,-0.49 0.2,-0.72 0.76,-0.72 z m 1.06,1.1 c 0.03,-0.09 0.05,-0.19 0.05,-0.29 0,-0.69 -0.47,-0.6 -1.01,-0.64 -0.44,0 -0.68,0.07 -0.68,0.51 0,0.16 0.02,0.31 0.03,0.46 h 0.36 c 0.41,0 0.84,0.01 1.25,-0.04 z"
         id="path51" />
      <path
         class="cls-7"
         d="m 77.52,79.23 c 0.1,0 0.08,0.14 0.08,0.2 v 0.31 c 0,0.17 0.02,0.63 0,0.77 -0.19,0.02 -0.37,0.01 -0.56,0.02 -0.18,0 -0.35,0.01 -0.53,0.01 -0.4,0 -0.8,-0.03 -1.2,-0.03 -0.23,0 -0.45,0 -0.68,0.02 -0.09,0 -0.16,0.05 -0.24,0.05 -0.04,-0.02 -0.07,-0.05 -0.07,-0.09 0,-0.13 0.12,-0.13 0.23,-0.13 0.23,0 0.45,-0.02 0.68,-0.02 0.31,0 0.61,0.03 0.92,0.03 0.16,0 0.32,-0.02 0.49,-0.02 h 0.74 c 0,0 0.06,-0.02 0.06,-0.06 0,-0.31 -0.03,-0.63 -0.03,-0.94 0,-0.07 0.03,-0.11 0.11,-0.11 z"
         id="path53" />
      <path
         class="cls-7"
         d="m 75.76,78.88 c -0.16,-0.02 -0.31,-0.07 -0.46,-0.1 -0.27,-0.05 -0.7,-0.13 -0.94,-0.24 -0.04,-0.02 -0.05,-0.04 -0.05,-0.08 0,-0.17 0.64,-0.3 0.79,-0.35 0.31,-0.09 0.65,-0.1 0.96,-0.18 0.16,-0.04 0.34,-0.06 0.5,-0.1 l 0.97,-0.23 c 0,0 0.07,0.04 0.07,0.08 0,0.02 -0.03,0.05 -0.04,0.06 -0.41,0.12 -0.82,0.22 -1.23,0.31 v 0.57 c 0,0.05 0,0.11 0,0.17 0.4,0.06 0.79,0.15 1.19,0.21 0.06,0 0.12,0.03 0.12,0.09 0,0.06 -0.05,0.1 -0.11,0.1 h -0.02 c -0.57,-0.16 -1.17,-0.25 -1.75,-0.33 z m -0.77,-0.33 c 0.53,0.1 1.05,0.21 1.15,0.2 0,-0.05 0,-0.11 0,-0.16 0,-0.16 0,-0.33 -0.03,-0.5 -0.5,0.09 -1.1,0.14 -1.56,0.35 0.11,0.02 0.31,0.08 0.43,0.1 z"
         id="path55" />
      <path
         class="cls-7"
         d="m 76.8,77.27 c -0.16,0 -0.32,0 -0.48,0.01 -0.26,0 -0.51,0.02 -0.77,0.02 -0.23,0 -0.47,-0.02 -0.7,-0.03 -0.34,-0.02 -0.59,-0.22 -0.59,-0.55 0,-0.1 0,-0.21 0.04,-0.31 0.08,-0.18 0.4,-0.39 0.62,-0.39 0.06,0 0.15,0.02 0.16,0.07 0,0.16 -0.65,0.09 -0.65,0.59 0,0.15 0.14,0.4 0.31,0.42 0.37,0.04 0.95,0.03 1.34,0.03 0.28,0 0.86,0 1.1,-0.09 0.19,-0.06 0.26,-0.2 0.26,-0.37 0,-0.16 -0.08,-0.38 -0.24,-0.46 -0.06,-0.03 -0.37,-0.04 -0.37,-0.1 0,-0.1 0.1,-0.1 0.18,-0.1 0.41,0 0.61,0.31 0.61,0.65 0,0.43 -0.42,0.61 -0.84,0.61 z"
         id="path57" />
      <path
         class="cls-7"
         d="m 77.6,75.25 v 0.13 c 0,0.13 0.01,0.19 -0.17,0.19 -0.2,0 -0.41,-0.02 -0.61,-0.02 -0.29,0 -0.58,0.01 -0.88,0.01 -0.23,0 -0.45,-0.02 -0.68,-0.02 -0.27,0 -0.53,0.03 -0.8,0.03 -0.1,0 -0.11,-0.11 -0.11,-0.18 V 75.1 c 0,-0.15 -0.02,-0.29 -0.02,-0.44 0,-0.05 0.01,-0.08 0,-0.13 0.02,-0.06 0.06,-0.1 0.12,-0.13 0.05,0 0.07,0.03 0.07,0.07 0,0.13 -0.01,0.25 -0.01,0.38 0,0.18 0,0.36 0.02,0.54 h 1.26 c 0,0 0,-0.51 0,-0.51 0,-0.04 0.04,-0.1 0.09,-0.1 0.05,0 0.08,0.02 0.08,0.07 0,0.18 0,0.35 0,0.53 h 0.24 c 0.25,0 0.5,0 0.76,0 0.15,0 0.31,0 0.47,0 0,-0.1 0.01,-0.2 0.01,-0.29 0,-0.12 -0.02,-0.25 -0.02,-0.37 0,-0.08 0.02,-0.16 0.13,-0.16 0.02,0 0.04,0 0.05,0.02 0,0.18 0,0.35 0,0.52 0,0.05 0,0.09 0,0.14 z"
         id="path59" />
    </g>
    <g
       id="g123">
      <path
         class="cls-7"
         d="m 71.23,129.11 c -0.22,0 -0.44,0 -0.65,0.01 -0.37,0.01 -0.73,0.02 -1.1,0.02 -0.33,0 -0.66,-0.02 -0.99,-0.03 -0.52,-0.03 -0.95,-0.28 -0.95,-0.64 0,-0.14 0,-0.24 0.08,-0.37 0.13,-0.21 0.64,-0.46 0.99,-0.46 0.11,0 0.22,0.03 0.32,0.07 l 0.04,0.07 c 0,0.16 -0.2,0.18 -0.4,0.23 -0.29,0.08 -0.52,0.15 -0.52,0.4 0,0.13 0.15,0.31 0.33,0.35 0.39,0.03 0.78,0.02 1.17,0.02 h 0.65 c 0.36,0 0.72,-0.01 1.12,-0.03 0.13,-0.04 0.71,0 0.71,-0.36 0,-0.11 -0.11,-0.36 -0.27,-0.41 -0.13,-0.04 -0.58,0 -0.58,-0.16 0,-0.18 0.16,-0.2 0.39,-0.2 0.65,0 0.98,0.36 0.98,0.76 0,0.5 -0.65,0.72 -1.32,0.72 z"
         id="path63" />
      <path
         class="cls-7"
         d="m 72.21,127.14 c -0.11,0 -0.23,-0.02 -0.34,-0.02 -0.44,0 -0.9,0.02 -1.34,0.02 -0.48,0 -0.96,0.04 -1.43,0.04 h -0.59 c 0,0 -0.74,0 -0.74,0 -0.11,0 -0.17,-0.1 -0.17,-0.16 0,-0.06 0.1,-0.18 0.2,-0.18 h 1.03 c 0,0 0.79,0 0.79,0 0,-0.23 -0.02,-0.46 -0.02,-0.69 v -0.04 c -0.28,-0.01 -0.54,-0.01 -0.82,-0.01 -0.27,0 -0.54,0.02 -0.81,0.02 -0.2,0 -0.34,0 -0.34,-0.17 0,-0.06 0.05,-0.1 0.11,-0.13 0.26,-0.06 0.53,-0.07 0.8,-0.07 0.33,0 0.67,0.01 1,0.01 0.13,0 0.19,-0.02 0.28,-0.02 0.5,-0.01 1.02,-0.02 1.52,-0.02 0.26,0 0.53,-0.01 0.79,-0.02 0.19,0 0.38,0 0.38,0.16 0,0.07 -0.04,0.2 -0.17,0.2 -0.75,0 -1.47,0 -2.21,0.04 -0.01,0.05 -0.02,0.11 -0.02,0.16 0,0.16 0,0.33 0.03,0.53 0.17,-0.01 0.34,-0.01 0.52,-0.01 H 72 c 0.15,0 0.28,0.02 0.42,0.03 0.08,0.03 0.16,0.11 0.16,0.17 0,0.12 -0.21,0.15 -0.35,0.15 z"
         id="path65" />
      <path
         class="cls-7"
         d="m 67.75,124.65 c -0.11,-0.02 -0.16,-0.1 -0.16,-0.17 0,-0.23 0.71,-0.34 0.97,-0.39 v 0 c 1,-0.23 1.28,-0.16 2.3,-0.33 l 1.37,-0.24 c 0.18,0 0.26,0.11 0.26,0.17 0,0.07 -0.08,0.1 -0.14,0.15 -0.54,0.12 -1.1,0.22 -1.65,0.3 v 0.58 c 0,0 0,0.04 0,0.04 0.44,0.06 0.88,0.13 1.32,0.17 0.25,0.02 0.5,0.04 0.54,0.21 0,0.1 -0.12,0.2 -0.29,0.2 -0.01,0 -0.06,0 -0.07,0 -0.26,-0.04 -0.51,-0.09 -0.77,-0.13 -0.55,-0.08 -1.12,-0.14 -1.68,-0.2 -0.13,-0.01 -0.26,-0.03 -0.38,-0.05 -0.53,-0.09 -1.08,-0.16 -1.6,-0.3 z m 2.41,0.05 v -0.19 c 0,-0.1 0,-0.2 -0.02,-0.3 -0.55,0.06 -1.24,0.16 -1.78,0.25 0.55,0.08 1.24,0.17 1.8,0.24 z"
         id="path67" />
      <path
         class="cls-7"
         d="m 67.68,122.16 c 0.12,-0.14 0.35,-0.26 0.67,-0.32 0.61,-0.11 0.85,-0.12 1.5,-0.12 h 0.53 c 0.79,0 1.59,0.15 1.95,0.46 0.16,0.14 0.21,0.21 0.22,0.36 0,0.64 -1.28,0.85 -2.58,0.86 -0.26,0 -0.54,-0.02 -0.79,-0.04 -1.06,-0.09 -1.68,-0.33 -1.69,-0.81 0,-0.13 0.1,-0.26 0.19,-0.39 z m 0.3,0.38 c 0,0.3 0.32,0.43 1.02,0.5 0.2,0.02 0.37,0.01 0.57,0.02 0.13,0 0.51,0 0.64,0 0.92,0 1.64,-0.01 1.84,-0.51 0,-0.2 -0.12,-0.24 -0.39,-0.39 -0.4,-0.21 -1.12,-0.2 -1.71,-0.2 -0.24,0 -0.79,0.04 -0.99,0.07 -0.7,0.09 -0.97,0.19 -0.96,0.5 z"
         id="path69" />
      <path
         class="cls-7"
         d="m 70.64,120.02 c 0.24,-0.09 0.51,-0.16 0.78,-0.16 0.65,0 1.1,0.38 1.11,0.74 0,0.59 -0.65,0.84 -1.46,0.84 -0.17,0 -0.57,0 -0.57,-0.17 0,-0.09 0.14,-0.18 0.28,-0.18 h 0.37 c 0.21,0 0.7,-0.07 0.77,-0.22 0.02,-0.03 0.08,-0.16 0.08,-0.2 0,-0.24 -0.2,-0.46 -0.59,-0.46 -0.37,0 -0.86,0.29 -1.14,0.44 -0.51,0.29 -0.81,0.75 -1.59,0.75 -0.6,0 -1.17,-0.3 -1.17,-0.72 0,-0.44 0.52,-0.74 1.16,-0.74 0.2,0 0.28,0.04 0.28,0.18 0,0.08 -0.06,0.1 -0.17,0.12 -0.2,0.04 -0.36,0.08 -0.54,0.14 -0.14,0.06 -0.2,0.19 -0.2,0.31 0,0.24 0.38,0.34 0.69,0.34 0.48,0 1.25,-0.82 1.92,-1.03 z"
         id="path71" />
      <path
         class="cls-7"
         d="m 71.2,118.5 c -0.22,0 -0.44,0 -0.65,0.01 -0.37,0.01 -0.73,0.02 -1.1,0.02 -0.33,0 -0.66,-0.02 -0.99,-0.03 -0.52,-0.03 -0.95,-0.28 -0.95,-0.64 0,-0.14 0,-0.24 0.08,-0.37 0.13,-0.21 0.64,-0.46 0.99,-0.46 0.11,0 0.22,0.03 0.32,0.07 l 0.04,0.07 c 0,0.16 -0.2,0.18 -0.4,0.23 -0.29,0.08 -0.52,0.15 -0.52,0.4 0,0.13 0.15,0.31 0.33,0.35 0.39,0.03 0.78,0.02 1.17,0.02 h 0.65 c 0.36,0 0.72,-0.01 1.12,-0.03 0.13,-0.04 0.71,0 0.71,-0.36 0,-0.11 -0.11,-0.36 -0.27,-0.41 -0.14,-0.04 -0.58,0 -0.58,-0.16 0,-0.18 0.16,-0.2 0.39,-0.2 0.65,0 0.98,0.36 0.98,0.76 0,0.5 -0.65,0.72 -1.32,0.72 z"
         id="path73" />
      <path
         class="cls-7"
         d="m 68.64,113.02 c 0.29,0 0.58,0.02 0.87,0.02 0.31,0 0.63,-0.02 0.94,-0.02 0.51,0 1.08,0.02 1.58,-0.03 0.06,0 0.13,0 0.19,0 0.16,0 0.3,0.04 0.3,0.16 0,0.07 -0.07,0.18 -0.17,0.2 -0.03,0 -1.33,0.05 -1.44,0.05 h -1.22 c 0,0 -0.96,0 -0.96,0 0.24,0.06 0.49,0.12 0.74,0.17 0.29,0.06 0.59,0.12 0.79,0.29 0.08,0.19 -0.26,0.27 -0.52,0.35 v 0 c -0.34,0.13 -0.69,0.24 -1.08,0.34 0.64,-0.01 1.46,-0.02 2.1,-0.02 0.36,0 0.72,0.02 1.08,0.02 0.15,0 0.3,-0.03 0.44,-0.03 0.13,0 0.2,0.04 0.23,0.12 v 0 c 0,0 0.02,0.03 0.02,0.05 0,0.21 -0.6,0.19 -0.81,0.19 -0.37,0 -0.74,-0.02 -1.12,-0.02 h -0.97 c -0.2,0 -0.41,0 -0.62,0.01 l -0.61,0.03 c -0.08,0 -0.18,0.02 -0.26,0.02 -0.08,0 -0.34,0 -0.38,-0.04 -0.04,-0.02 -0.16,-0.21 -0.16,-0.25 0,-0.1 0.3,-0.2 0.42,-0.23 0.11,-0.03 0.21,-0.07 0.32,-0.11 0.1,-0.04 0.22,-0.07 0.42,-0.12 l 0.85,-0.25 c -0.28,-0.08 -0.58,-0.16 -0.87,-0.23 -0.3,-0.02 -0.73,-0.26 -0.91,-0.27 -0.12,0 -0.24,-0.04 -0.24,-0.13 0,-0.06 0.02,-0.15 0.07,-0.2 l 0.1,-0.04 c 0.3,-0.02 0.6,-0.04 0.89,-0.04 z"
         id="path75" />
      <path
         class="cls-7"
         d="m 68.81,110.83 h 0.71 c 0.8,0 1.27,0.39 1.27,0.9 0,0.09 -0.01,0.17 -0.03,0.26 h 0.63 c 0.16,0 0.33,-0.02 0.5,-0.02 0.16,0 0.59,-0.03 0.59,0.13 0,0.1 -0.09,0.22 -0.26,0.22 -0.4,0.01 -0.79,0.03 -1.19,0.03 -0.58,0 -1.16,0.02 -1.74,0.02 h -1.48 c -0.15,-0.06 -0.16,-0.15 -0.16,-0.25 0,-0.15 -0.03,-0.3 -0.03,-0.45 0,-0.56 0.32,-0.83 1.2,-0.84 z m 1.39,1.15 c 0.03,-0.07 0.05,-0.14 0.05,-0.22 0,-0.39 -0.25,-0.58 -0.83,-0.58 h -0.44 c -0.52,0 -0.83,0.05 -0.83,0.45 0,0.13 0.04,0.26 0.04,0.39 h 0.9 c 0.24,0 0.92,0 1.12,-0.04 z"
         id="path77" />
      <path
         class="cls-7"
         d="m 69.45,108.8 c 0.24,0 0.49,-0.02 0.73,-0.02 h 0.53 c 0.81,0 1.88,0 1.88,0.72 0,0.93 -1.26,0.98 -2.32,0.98 -0.43,0 -0.85,-0.01 -1.29,-0.01 h -0.42 c -0.2,0 -0.92,0.08 -0.92,-0.15 0,-0.09 0.11,-0.21 0.25,-0.21 0.05,0 0.09,0 0.13,0 0.34,0 0.69,0.01 1.03,0.01 h 1.84 c 0.67,-0.01 1.14,-0.18 1.14,-0.54 0,-0.03 -0.03,-0.07 -0.03,-0.1 -0.1,-0.33 -0.55,-0.35 -0.98,-0.35 H 69 c -0.22,0.01 -0.43,0 -0.65,0.02 -0.09,0 -0.17,0.02 -0.27,0.02 -0.13,0 -0.41,-0.05 -0.41,-0.16 0,-0.19 0.32,-0.22 0.53,-0.22 h 1.25 z"
         id="path79" />
      <path
         class="cls-7"
         d="m 67.92,106.74 c 0.07,0 0.24,0.04 0.24,0.09 0,0.13 -0.02,0.25 -0.02,0.37 0,0.09 0,0.18 0,0.27 h 0.73 c 0.4,0 0.8,0 1.2,-0.01 0.2,0 0.4,-0.03 0.58,-0.03 h 1.39 c 0.25,0 0.46,0.07 0.46,0.22 0,0.07 -0.08,0.15 -0.19,0.15 -0.24,0 -0.48,-0.02 -0.72,-0.02 h -0.42 c -0.48,0.01 -0.97,0.03 -1.45,0.04 h -0.65 c 0,0 -0.94,0 -0.94,0 0.01,0.09 0.02,0.12 0.02,0.15 0,0.11 0.01,0.21 0.01,0.29 0,0.17 -0.05,0.23 -0.35,0.25 -0.12,-0.07 -0.18,-0.15 -0.18,-0.23 0,-0.12 0.03,-0.22 0.03,-0.32 0,-0.3 -0.02,-0.59 -0.02,-0.89 0,-0.12 0.03,-0.34 0.28,-0.34 z"
         id="path81" />
      <path
         class="cls-7"
         d="m 72.48,105.95 c 0,0.22 0.05,0.36 -0.38,0.36 -0.28,0 -0.57,-0.02 -0.86,-0.02 -0.41,0 -0.83,0.02 -1.24,0.02 -0.32,0 -0.63,-0.02 -0.95,-0.02 -0.36,0 -0.7,0.03 -1.06,0.03 -0.3,0 -0.35,-0.08 -0.35,-0.28 v -0.3 c 0,-0.17 -0.02,-0.34 -0.02,-0.5 0,-0.1 0.11,-0.18 0.24,-0.23 0.16,0 0.27,0.05 0.27,0.16 0,0.22 -0.02,0.44 -0.02,0.65 0,0.04 0,0.09 0,0.13 h 1.53 c 0,0 0.01,-0.45 0.01,-0.45 0,-0.08 0.12,-0.19 0.25,-0.19 0.17,0 0.24,0.05 0.24,0.16 v 0.47 c 0,0 1.33,0 1.33,0 h 0.49 v -0.1 c 0,-0.18 -0.02,-0.37 -0.02,-0.56 0,-0.15 0.05,-0.25 0.31,-0.25 0.07,0 0.2,0.05 0.2,0.11 v 0.2 c 0,0.12 0.02,0.23 0.02,0.35 v 0.25 z"
         id="path83" />
      <path
         class="cls-7"
         d="m 67.78,103.54 c 0.06,-0.07 0.11,-0.09 0.19,-0.14 0.3,-0.17 0.67,-0.22 1.05,-0.22 h 0.64 c 0.34,0 0.78,0.17 0.9,0.38 0.15,-0.05 0.28,-0.1 0.42,-0.16 0.14,-0.06 1.06,-0.39 1.25,-0.39 0.15,0 0.24,0.07 0.24,0.17 0,0.05 -0.03,0.1 -0.07,0.15 -0.59,0.18 -1.16,0.4 -1.73,0.61 0,0.12 -0.01,0.23 -0.03,0.35 0.47,-0.02 0.96,-0.05 1.44,-0.05 0.17,0 0.3,0 0.41,0.11 0,0.09 -0.03,0.23 -0.18,0.26 -0.17,0.02 -0.73,0 -0.93,0 -0.33,0 -0.65,0.03 -0.98,0.03 h -0.5 c -0.51,0 -1.02,0 -1.53,0 -0.16,0 -0.32,0.01 -0.47,0.02 -0.14,0 -0.28,-0.08 -0.28,-0.18 0,-0.24 0,-0.76 0.17,-0.95 z m 0.76,0.05 c -0.3,0.05 -0.36,0.18 -0.39,0.37 0,0.05 0,0.1 0,0.15 0,0.17 0,0.19 0,0.2 h 0.28 c 0,0 0.57,0 0.57,0 0.3,0 0.6,0 0.9,-0.01 0.07,0 0.14,-0.02 0.21,-0.02 0,-0.06 0.04,-0.11 0.04,-0.17 V 104 c 0,-0.36 -0.21,-0.47 -0.75,-0.46 -0.28,0 -0.57,0.01 -0.85,0.05 z"
         id="path85" />
      <path
         class="cls-7"
         d="m 71.21,101.64 c -0.22,0 -0.44,0 -0.65,0.01 -0.37,0.01 -0.73,0.02 -1.1,0.02 -0.33,0 -0.66,-0.02 -0.99,-0.03 -0.52,-0.03 -0.95,-0.28 -0.95,-0.64 0,-0.14 0,-0.24 0.08,-0.37 0.13,-0.21 0.64,-0.46 0.99,-0.46 0.11,0 0.22,0.03 0.32,0.07 l 0.04,0.07 c 0,0.16 -0.2,0.18 -0.4,0.23 -0.29,0.08 -0.52,0.15 -0.52,0.4 0,0.13 0.15,0.31 0.33,0.35 0.39,0.03 0.78,0.02 1.17,0.02 h 0.65 c 0.36,0 0.72,-0.01 1.12,-0.03 0.13,-0.04 0.71,0 0.71,-0.36 0,-0.11 -0.11,-0.36 -0.27,-0.41 -0.13,-0.04 -0.58,0 -0.58,-0.16 0,-0.18 0.16,-0.2 0.39,-0.2 0.65,0 0.98,0.36 0.98,0.76 0,0.5 -0.65,0.72 -1.32,0.72 z"
         id="path87" />
      <path
         class="cls-7"
         d="m 72.2,98.25 c 0.28,0 0.24,0.16 0.24,0.3 v 0.75 c 0,0.07 0,0.33 -0.01,0.37 -0.01,0.04 -0.06,0.06 -0.11,0.07 -0.25,0.03 -0.53,0.02 -0.78,0.02 h -0.76 c -0.77,0.01 -1.12,-0.01 -1.68,-0.01 h -0.42 c -0.17,0 -0.35,0.02 -0.52,0.02 -0.13,0 -0.17,0.05 -0.38,0.05 -0.11,-0.03 -0.2,-0.09 -0.2,-0.18 0,-0.21 0.19,-0.22 0.44,-0.22 0.32,0 0.64,-0.01 0.96,-0.02 0.43,0 0.87,0.02 1.3,0.02 0.29,0 0.57,-0.02 0.86,-0.02 h 0.82 c 0,-0.19 -0.04,-0.65 -0.04,-0.96 0,-0.04 0,-0.07 0.03,-0.1 v 0 c 0.03,-0.08 0.15,-0.1 0.26,-0.1 z"
         id="path89" />
      <path
         class="cls-7"
         d="m 69.43,96.39 c 0.24,0 0.49,-0.02 0.73,-0.02 h 0.53 c 0.81,0 1.88,0 1.88,0.72 0,0.93 -1.26,0.98 -2.32,0.98 -0.43,0 -0.85,-0.01 -1.29,-0.01 h -0.42 c -0.2,0 -0.92,0.08 -0.92,-0.15 0,-0.09 0.11,-0.21 0.25,-0.21 0.05,0 0.09,0 0.13,0 0.34,0 0.69,0.01 1.03,0.01 h 1.84 c 0.67,-0.01 1.14,-0.18 1.14,-0.54 0,-0.03 -0.03,-0.07 -0.03,-0.1 -0.1,-0.33 -0.55,-0.35 -0.98,-0.35 h -2.02 c -0.22,0.01 -0.43,0 -0.65,0.02 -0.09,0 -0.17,0.02 -0.27,0.02 -0.13,0 -0.41,-0.05 -0.41,-0.16 0,-0.19 0.32,-0.22 0.53,-0.22 h 1.25 z"
         id="path91" />
      <path
         class="cls-7"
         d="m 72.48,95.06 c 0,0.13 -0.03,0.25 -0.03,0.37 v 0.08 c 0,0.06 0.01,0.14 -0.05,0.19 -0.12,0.11 -0.96,0.08 -1.14,0.08 -0.54,0 -1.09,-0.01 -1.63,0 h -0.69 c -0.36,0.01 -0.72,0 -1.08,0 -0.26,0 -0.27,-0.17 -0.27,-0.3 v -0.33 c -0.02,-0.56 0.31,-0.88 1.2,-0.88 0.45,0 0.82,0 1.14,0.23 0.36,-0.22 0.87,-0.28 1.34,-0.28 0.89,0 1.21,0.23 1.21,0.82 z m -2.82,0.4 c 0,-0.18 -0.02,-0.37 0.03,-0.54 -0.06,-0.23 -0.44,-0.29 -0.74,-0.29 -0.57,0 -0.89,0.17 -0.89,0.57 0,0.06 0.03,0.22 0.03,0.26 h 1.58 z m 2.27,-0.04 c 0.01,-0.1 0.03,-0.21 0.03,-0.31 0,-0.37 -0.08,-0.5 -0.67,-0.5 h -0.2 c -0.5,0 -0.91,0.03 -0.91,0.43 v 0.18 c 0,0.07 0,0.14 0.01,0.22 0.03,0 0.06,0 0.09,0 0.55,0 1.1,0 1.65,-0.02 z"
         id="path93" />
      <path
         class="cls-7"
         d="m 68.16,91.41 c 0,0.05 -0.09,0.22 -0.09,0.33 0,0.19 0.05,0.38 0.05,0.57 0,0 0,0.01 0,0.02 h 1.28 c 0,0 0.3,0 0.3,0 v -0.48 c 0,-0.06 0.06,-0.15 0.17,-0.15 0.11,0 0.26,0.03 0.32,0.09 0.01,0.18 0.01,0.36 0.04,0.54 0.28,0 0.56,0.01 0.83,0.01 0.62,0 0.85,-0.03 0.96,-0.03 0.2,0 0.29,0 0.42,0.11 0,0.22 -0.21,0.27 -0.75,0.27 -0.73,-0.02 -1.44,-0.05 -2.17,-0.04 -0.54,0.01 -0.83,0 -1.25,0 -0.13,0 -0.27,0 -0.39,0.04 -0.02,0 -0.07,0.02 -0.09,0.02 -0.07,0 -0.28,-0.08 -0.28,-0.13 0.08,-0.15 0.08,-0.31 0.08,-0.45 0,-0.16 -0.04,-0.32 -0.04,-0.48 0,-0.15 0.03,-0.39 0.29,-0.44 0.13,0.01 0.3,0.08 0.3,0.18 z"
         id="path95" />
      <path
         class="cls-7"
         d="m 72.18,89.49 c 0.28,0 0.24,0.16 0.24,0.3 v 0.75 c 0,0.07 0,0.33 -0.01,0.37 -0.01,0.04 -0.06,0.06 -0.11,0.07 C 72.05,91.01 71.77,91 71.52,91 h -0.76 c -0.77,0.01 -1.12,-0.01 -1.68,-0.01 h -0.42 c -0.17,0 -0.35,0.02 -0.52,0.02 -0.13,0 -0.17,0.05 -0.38,0.05 -0.11,-0.03 -0.2,-0.09 -0.2,-0.18 0,-0.21 0.19,-0.22 0.44,-0.22 0.32,0 0.64,-0.01 0.96,-0.02 0.43,0 0.87,0.02 1.3,0.02 0.29,0 0.57,-0.02 0.86,-0.02 h 0.82 c 0,-0.19 -0.04,-0.65 -0.04,-0.96 0,-0.04 0,-0.07 0.03,-0.1 v 0 c 0.03,-0.08 0.15,-0.1 0.26,-0.1 z"
         id="path97" />
      <path
         class="cls-7"
         d="m 72.44,88.88 c 0,0.22 0.05,0.36 -0.38,0.36 -0.28,0 -0.57,-0.02 -0.86,-0.02 -0.41,0 -0.83,0.02 -1.24,0.02 -0.32,0 -0.63,-0.02 -0.95,-0.02 -0.36,0 -0.7,0.03 -1.06,0.03 -0.3,0 -0.35,-0.08 -0.35,-0.28 v -0.3 c 0,-0.17 -0.02,-0.34 -0.02,-0.5 0,-0.1 0.11,-0.18 0.24,-0.22 0.16,0 0.27,0.05 0.27,0.16 0,0.22 -0.02,0.44 -0.02,0.65 0,0.04 0,0.09 0,0.13 h 1.53 c 0,0 0.01,-0.45 0.01,-0.45 0,-0.08 0.11,-0.19 0.25,-0.19 0.17,0 0.24,0.05 0.24,0.16 v 0.47 c 0,0 1.33,0 1.33,0 h 0.49 v -0.1 c 0,-0.18 -0.02,-0.37 -0.02,-0.56 0,-0.15 0.05,-0.25 0.31,-0.25 0.07,0 0.2,0.05 0.2,0.11 v 0.2 c 0,0.12 0.01,0.23 0.01,0.35 v 0.25 z"
         id="path99" />
      <path
         class="cls-7"
         d="m 67.75,85.85 c 0.43,-0.03 0.96,-0.02 1.4,-0.03 h 1.47 c 0.3,-0.01 0.59,-0.02 0.88,-0.05 0.14,-0.01 0.29,-0.02 0.43,-0.02 0.21,0 0.41,0 0.51,0.14 0,0.11 -0.03,0.18 -0.18,0.24 -0.18,0 -0.36,-0.02 -0.54,-0.02 -0.15,0 -0.3,0.02 -0.46,0.03 -0.29,0.02 -0.59,0.04 -0.88,0.04 -0.03,0 -0.05,0 -0.07,0.02 -0.58,0.32 -1.07,0.71 -1.65,1.03 0.83,0 1.66,-0.03 2.48,-0.03 0.4,0 0.81,-0.04 0.91,-0.04 0.2,0 0.38,0.07 0.38,0.21 0,0.08 -0.03,0.14 -0.17,0.15 h -0.8 c 0,0 -0.5,0.01 -0.5,0.01 -0.73,0 -1.47,0.03 -2.2,0.04 -0.36,0 -0.71,0.02 -1.07,0.02 -0.12,0 -0.17,-0.08 -0.17,-0.15 0,-0.09 0.08,-0.2 0.19,-0.25 0.05,-0.02 0.12,-0.04 0.17,-0.05 0.17,-0.06 0.48,-0.2 0.6,-0.29 0.34,-0.25 0.73,-0.46 1.11,-0.69 -0.59,0 -1.19,0.03 -1.78,0.05 -0.21,0 -0.28,-0.08 -0.28,-0.2 v -0.03 c 0.04,-0.06 0.11,-0.12 0.22,-0.13 z"
         id="path101" />
      <path
         class="cls-7"
         d="m 70.63,83.89 c 0.24,-0.09 0.51,-0.16 0.78,-0.16 0.65,0 1.1,0.38 1.1,0.74 0,0.59 -0.65,0.84 -1.46,0.84 -0.17,0 -0.57,0 -0.57,-0.17 0,-0.09 0.14,-0.18 0.28,-0.18 h 0.37 c 0.21,0 0.7,-0.07 0.77,-0.22 0.02,-0.03 0.08,-0.16 0.08,-0.2 0,-0.24 -0.2,-0.46 -0.59,-0.46 -0.37,0 -0.86,0.29 -1.14,0.44 -0.51,0.29 -0.81,0.75 -1.59,0.75 -0.6,0 -1.17,-0.3 -1.17,-0.72 0,-0.44 0.52,-0.74 1.16,-0.74 0.2,0 0.28,0.04 0.28,0.18 0,0.08 -0.06,0.1 -0.17,0.12 -0.19,0.04 -0.36,0.08 -0.54,0.14 -0.14,0.06 -0.2,0.19 -0.2,0.31 0,0.24 0.38,0.34 0.69,0.34 0.48,0 1.25,-0.82 1.92,-1.03 z"
         id="path103" />
      <path
         class="cls-7"
         d="m 72.45,82.55 c 0,0.13 -0.03,0.25 -0.03,0.37 V 83 c 0,0.06 0.01,0.14 -0.05,0.19 -0.12,0.11 -0.96,0.08 -1.14,0.08 -0.54,0 -1.09,-0.01 -1.63,0 h -0.69 c -0.36,0.01 -0.72,0 -1.08,0 -0.26,0 -0.27,-0.17 -0.27,-0.3 v -0.33 c -0.02,-0.56 0.31,-0.88 1.2,-0.88 0.45,0 0.82,0 1.14,0.23 0.36,-0.22 0.88,-0.28 1.34,-0.28 0.89,0 1.21,0.23 1.21,0.82 z m -2.82,0.4 c 0,-0.18 -0.02,-0.37 0.03,-0.54 -0.06,-0.23 -0.44,-0.29 -0.74,-0.29 -0.57,0 -0.9,0.17 -0.89,0.57 0,0.06 0.04,0.22 0.03,0.26 h 1.58 z m 2.27,-0.04 c 0.01,-0.1 0.03,-0.21 0.03,-0.31 0,-0.37 -0.08,-0.5 -0.67,-0.5 h -0.2 c -0.5,0 -0.91,0.03 -0.91,0.43 v 0.18 c 0,0.07 0,0.14 0.01,0.22 0.03,0 0.06,0 0.09,0 0.55,0 1.1,0 1.65,-0.02 z"
         id="path105" />
      <path
         class="cls-7"
         d="m 69.39,79.57 c 0.24,0 0.49,-0.02 0.73,-0.02 h 0.53 c 0.81,0 1.88,0 1.88,0.72 0,0.93 -1.26,0.98 -2.32,0.98 -0.43,0 -0.85,-0.01 -1.29,-0.01 H 68.5 c -0.2,0 -0.92,0.08 -0.92,-0.15 0,-0.09 0.11,-0.21 0.25,-0.21 0.05,0 0.09,0 0.13,0 0.34,0 0.69,0.01 1.03,0.01 h 1.84 c 0.67,-0.01 1.14,-0.18 1.14,-0.54 0,-0.03 -0.03,-0.07 -0.03,-0.1 -0.1,-0.33 -0.55,-0.35 -0.98,-0.35 h -2.02 c -0.22,0.01 -0.43,0 -0.65,0.02 -0.09,0 -0.17,0.02 -0.27,0.02 -0.13,0 -0.41,-0.05 -0.41,-0.16 0,-0.19 0.32,-0.22 0.53,-0.22 h 1.25 z"
         id="path107" />
      <path
         class="cls-7"
         d="m 67.72,77.85 c 0.06,-0.07 0.11,-0.09 0.19,-0.14 0.3,-0.17 0.67,-0.22 1.05,-0.22 h 0.64 c 0.34,0 0.78,0.17 0.9,0.38 0.15,-0.05 0.28,-0.1 0.42,-0.16 0.14,-0.06 1.06,-0.39 1.25,-0.39 0.15,0 0.24,0.07 0.24,0.17 0,0.05 -0.03,0.1 -0.07,0.15 -0.59,0.18 -1.16,0.4 -1.73,0.61 0,0.12 -0.01,0.23 -0.03,0.35 0.47,-0.02 0.96,-0.05 1.44,-0.05 0.17,0 0.3,0 0.4,0.11 0,0.09 -0.03,0.23 -0.18,0.26 -0.17,0.02 -0.73,0 -0.93,0 -0.33,0 -0.65,0.03 -0.98,0.03 h -0.5 c -0.51,0 -1.02,0 -1.53,0 -0.16,0 -0.32,0.01 -0.47,0.02 -0.14,0 -0.28,-0.08 -0.28,-0.18 0,-0.24 0,-0.76 0.17,-0.95 z m 0.76,0.05 c -0.3,0.05 -0.36,0.18 -0.39,0.37 0,0.05 0,0.1 0,0.15 0,0.17 0,0.19 0,0.2 h 0.28 c 0,0 0.57,0 0.57,0 0.3,0 0.6,0 0.9,-0.01 0.07,0 0.14,-0.02 0.21,-0.02 0,-0.06 0.04,-0.11 0.04,-0.17 v -0.11 c 0,-0.36 -0.21,-0.47 -0.75,-0.46 -0.28,0 -0.57,0.01 -0.85,0.05 z"
         id="path109" />
      <path
         class="cls-7"
         d="m 67.58,76.2 c 0.17,-0.22 0.4,-0.36 0.75,-0.44 0.03,0 0.15,-0.04 0.17,-0.04 0.12,0 0.43,0.05 0.43,0.15 0,0.17 -0.22,0.2 -0.42,0.2 -0.2,0 -0.53,0.22 -0.53,0.38 0,0.19 0.34,0.25 0.57,0.25 0.25,0 0.51,-0.01 0.77,0 0.24,0 0.47,0.01 0.71,0.01 0.22,0 1.42,0 1.56,-0.08 0.25,-0.06 0.38,-0.17 0.38,-0.36 0,-0.03 -0.02,-0.07 -0.03,-0.1 -0.06,-0.21 -0.72,-0.18 -0.94,-0.18 -0.17,0 -0.36,0 -0.52,0.02 v 0.05 c 0,0.07 0.08,0.24 0.08,0.3 0,0.09 -0.12,0.19 -0.27,0.19 -0.11,0 -0.23,-0.04 -0.26,-0.11 -0.05,-0.09 -0.07,-0.39 -0.07,-0.49 0,-0.29 0.49,-0.31 0.82,-0.31 0.22,0 0.43,0.02 0.64,0.03 h 0.17 c 0.33,0.03 0.73,0.15 0.82,0.38 0.05,0.11 0.04,0.16 0.04,0.28 0,0.07 -0.04,0.17 -0.08,0.22 -0.2,0.35 -0.73,0.46 -1.25,0.46 H 71 c -0.34,0 -0.67,0.02 -1,0.02 L 68.42,77 c -0.53,0 -0.93,-0.13 -0.93,-0.53 0,-0.11 0.03,-0.2 0.1,-0.3 z"
         id="path111" />
      <path
         class="cls-7"
         d="m 72.4,73.79 c 0,0.22 0.05,0.36 -0.38,0.36 -0.28,0 -0.57,-0.02 -0.86,-0.02 -0.41,0 -0.83,0.02 -1.24,0.02 -0.32,0 -0.63,-0.02 -0.95,-0.02 -0.36,0 -0.7,0.03 -1.06,0.03 -0.3,0 -0.35,-0.08 -0.35,-0.28 v -0.3 c 0,-0.17 -0.02,-0.34 -0.02,-0.5 0,-0.1 0.11,-0.18 0.24,-0.23 0.16,0 0.27,0.05 0.27,0.16 0,0.22 -0.02,0.44 -0.02,0.65 0,0.04 0,0.09 0,0.13 h 1.53 c 0,0 0.01,-0.45 0.01,-0.45 0,-0.08 0.11,-0.19 0.25,-0.19 0.17,0 0.24,0.05 0.24,0.16 v 0.47 c 0,0 1.33,0 1.33,0 h 0.49 v -0.1 c 0,-0.18 -0.02,-0.37 -0.02,-0.56 0,-0.15 0.05,-0.25 0.31,-0.25 0.07,0 0.2,0.05 0.2,0.11 v 0.2 c 0,0.12 0.01,0.23 0.01,0.35 v 0.25 z"
         id="path113" />
      <path
         class="cls-7"
         d="m 71.8,72.35 v 0.02 c 0,0 0.03,-0.07 0.04,-0.09 0.09,-0.04 0.17,-0.05 0.29,-0.05 h 0.07 c 0.09,0.04 0.15,0.1 0.21,0.16 -0.03,0.17 -0.2,0.27 -0.46,0.27 -0.05,-0.02 -0.2,-0.13 -0.2,-0.17 0,-0.05 0,-0.09 0.05,-0.14 z"
         id="path115" />
      <path
         class="cls-7"
         d="m 68.21,70.3 c 0.49,0.08 0.98,0.19 1.47,0.29 0.78,0.16 1.57,0.3 2.36,0.45 0.16,0.03 0.28,0.09 0.38,0.18 0,0.09 -0.07,0.15 -0.15,0.21 -0.4,0.09 -0.82,0.16 -1.22,0.26 -0.3,0.07 -0.62,0.14 -0.94,0.18 l -1.87,0.41 c -0.19,0.04 -0.36,0.04 -0.52,0.06 -0.11,0.01 -0.17,-0.11 -0.17,-0.16 0,-0.07 0.08,-0.14 0.15,-0.18 0.42,-0.05 0.82,-0.19 1.24,-0.27 0.46,-0.08 0.91,-0.18 1.37,-0.25 0.24,-0.04 0.44,-0.08 0.67,-0.13 l 0.36,-0.08 c -0.36,-0.08 -0.72,-0.13 -1.08,-0.2 l -1.84,-0.36 c -0.15,-0.03 -0.65,-0.11 -0.75,-0.15 -0.07,-0.02 -0.12,-0.09 -0.12,-0.14 0,-0.06 0.06,-0.18 0.18,-0.18 0.13,0 0.36,0.05 0.49,0.08 z"
         id="path117" />
      <path
         class="cls-7"
         d="m 71.8,70.06 v 0.02 c 0,0 0.03,-0.07 0.04,-0.09 0.09,-0.04 0.17,-0.05 0.29,-0.05 h 0.07 c 0.09,0.04 0.15,0.1 0.21,0.16 -0.03,0.17 -0.19,0.27 -0.46,0.27 -0.05,-0.02 -0.2,-0.13 -0.2,-0.17 0,-0.05 0,-0.09 0.05,-0.14 z"
         id="path119" />
      <path
         class="cls-7"
         d="m 67.66,115.6 c 0.12,-0.14 0.35,-0.26 0.67,-0.32 0.61,-0.11 0.85,-0.12 1.5,-0.12 h 0.53 c 0.79,0 1.59,0.15 1.95,0.46 0.16,0.14 0.21,0.21 0.22,0.36 0,0.64 -1.28,0.85 -2.58,0.86 -0.26,0 -0.54,-0.02 -0.79,-0.04 -1.06,-0.09 -1.68,-0.33 -1.69,-0.81 0,-0.13 0.1,-0.26 0.19,-0.39 z m 0.3,0.38 c 0,0.3 0.32,0.43 1.02,0.5 0.2,0.02 0.37,0.01 0.57,0.02 0.13,0 0.51,0 0.64,0 0.92,0 1.64,-0.01 1.84,-0.51 0,-0.2 -0.12,-0.24 -0.39,-0.39 -0.4,-0.21 -1.12,-0.2 -1.71,-0.2 -0.24,0 -0.79,0.04 -0.99,0.07 -0.7,0.09 -0.97,0.19 -0.96,0.5 z"
         id="path121" />
    </g>
  </g>
  <g
     id="Pinke_Auenlinie"
     data-name="Pinke Auenlinie">
    <g
       class="cls-14"
       clip-path="url(#clippath-1)"
       id="g129">
      <g
         id="g2107">
        <path
           id="path2107"
           class="cls-13"
           d="M74.76,63.76c0-.08.01-.16.02-.24.05-.45.13-.89.16-1.34.03-.45.03-.9.02-1.35-.01-.45-.03-.89-.06-1.34-.29-4.88-1.75-9.77-1.06-14.6.62-4.35-.75-8.47-4.19-11.75-.48-.45-.74-1.11-.88-1.76-.5-2.24,1.37-6.03-.51-7.35-5.17-3.65-10.05-5-16.25-6.27.24-3.24-.68-6.29-1.9-9.26-1.22.87-1.99,1.88-2.43,3.38-.23.78-.67,1.99-.69,2.81-.03,1.22-.38,1.86-.42,3.08-2.37.22-4.74.45-7.12.67-1.13.11-2.37.19-3.32-.44-.85-.57-1.28-1.59-2.02-2.3-1.56-1.49-4.5-1.05-5.55.84-.62,1.11-.6,2.46-.59,3.74,0,.24,0,.52-.18.69-.26.25-.68.13-1.04.11-.89-.06-1.69.63-2.06,1.44-.36.81-.38,1.74-.4,2.63-.04,2.82-.52,5.39-.56,8.21-2.81-.14-6.2-.12-7.72.55-1,.86-1.21,9.45-.62,14.39.06.52.16,1.09.56,1.42.25.21.57.29.89.36,1.89.41,3.85.5,5.76.26-.37.99-.27,2.08-.18,3.13.26,2.83.52,5.66.78,8.49.16,1.69.32,3.42,1.04,4.95.65,1.39,1.66,2.42,3,3.17,1.35,13.48-.12,27.61,1.21,40.54.46,4.44-.73,8.86-2.27,13.04-.44,1.2-.98,2.4-1.83,3.35-.68.76-.67,1.27-1.35,2.03-2.14,2.39-2.08,5.96-1.9,9.16.11,1.86.08,3.98,1.46,5.23.26.24.56.44.72.76.11.23.13.49.14.74.13,2.24-.19,4.97-.28,7.21-.31,7.67-.61,15.33-.92,22.99-.1,2.48-.21,5.01-1.03,7.35-.68,1.92-1.81,3.64-2.8,5.42-2.25,4.06-2.4,8.92-2.47,13.56-.07,5.45.46,10.91,1.59,16.25,1.3,6.14,3.37,12.08,5.54,17.97,6.5,17.66,13.88,34.99,22.11,51.91,1.72-2.73,2.61-5.15,4.21-7.88,2.26-3.87,4.1-8.31,6.36-12.18,1.27-2.17,2.53-4.34,3.67-6.58,2.1-4.15,3.72-8.53,5.33-12.89,2.49-6.73,4.99-13.47,7.48-20.2.88-2.37,1.76-4.75,2.48-7.18,2.88-9.74,3.64-20.62,1.12-30.45-1.09-4.26-2.27-7.99-2.49-12.39-.52-10.36.68-20.18.68-30.56,0-.31-.04-.48-.02-.95.22-5.45,1.14-5.04-.25-10.31-.17-.66.4-3.79.4-5.02s.27-5.01.1-6.1c0-1.97.04-3.73.04-4.77,0-.24.12-2.11.14-2.53.1-1.84.23-1.56.17-2.7-.01-.26.2-1.16.23-1.6.03-.69,1.06-.78,1.14-.86.1-.09,1.12-.13,1.74-.18.15-.01.99-.13,1.09-.26.07-.09.23-.29.23-.41.04-4.65.09-9.13.13-13.79.03-3.27-.31-6.4-.23-9.67.02-.68-.05-1.65-.07-2.33-.04-1.73-.06-3.17.18-4.88.35-2.47.28-6.71-.26-7.43-.53-.72-3.74-.13-4.16-.54-.16-.16-.13-.55-.14-.75-.02-.52,0-1.04.01-1.55.05-1.42.14-2.84.21-4.26.04-.88,0-1.76.07-2.63Z" />
      </g>
    </g>
  </g>
</svg>
