G04 #@! TF.GenerationSoftware,KiCad,Pcbnew,8.0.2-8.0.2-0~ubuntu22.04.1*
G04 #@! TF.CreationDate,2024-05-28T23:24:12+02:00*
G04 #@! TF.ProjectId,ctfl-rakete-tht,6374666c-2d72-4616-9b65-74652d746874,rev?*
G04 #@! TF.SameCoordinates,Original*
G04 #@! TF.FileFunction,Legend,Bot*
G04 #@! TF.FilePolarity,Positive*
%FSLAX46Y46*%
G04 Gerber Fmt 4.6, Leading zero omitted, Abs format (unit mm)*
G04 Created by KiCad (PCBNEW 8.0.2-8.0.2-0~ubuntu22.04.1) date 2024-05-28 23:24:12*
%MOMM*%
%LPD*%
G01*
G04 APERTURE LIST*
%ADD10C,0.100000*%
%ADD11C,0.200000*%
%ADD12C,0.120000*%
G04 APERTURE END LIST*
D10*
X148500000Y-91400000D02*
X147500000Y-92500000D01*
X149100000Y-91400000D02*
X148500000Y-91400000D01*
X150000000Y-92300000D02*
X149100000Y-91400000D01*
X148900000Y-97000000D02*
X149600000Y-97000000D01*
X147900000Y-96000000D02*
X147900000Y-97700000D01*
X146700000Y-94800000D02*
X148900000Y-97000000D01*
X146700000Y-94300000D02*
X146700000Y-94800000D01*
X147500000Y-93500000D02*
X146700000Y-94300000D01*
X154000000Y-97700000D02*
X152600000Y-96300000D01*
X154000000Y-98300000D02*
X154000000Y-97700000D01*
X153300000Y-99000000D02*
X154000000Y-98300000D01*
X153000000Y-99000000D02*
X153300000Y-99000000D01*
X152000000Y-98000000D02*
X153000000Y-99000000D01*
X151400000Y-98000000D02*
X152000000Y-98000000D01*
X150400000Y-95400000D02*
X150400000Y-96200000D01*
X149000000Y-94000000D02*
X150400000Y-95400000D01*
X150000000Y-92300000D02*
X150400000Y-92300000D01*
X151800000Y-98300000D02*
X153100000Y-99600000D01*
X117900000Y-69000000D02*
X120100000Y-71200000D01*
X150400000Y-92300000D02*
X152600000Y-94500000D01*
X152600000Y-94500000D02*
X152600000Y-96300000D01*
X162900000Y-102500000D02*
X152000000Y-113400000D01*
X156800000Y-96400000D02*
X162900000Y-102500000D01*
X147400000Y-99200000D02*
X150400000Y-96200000D01*
X147300000Y-100600000D02*
X146900000Y-100200000D01*
X163100000Y-101200000D02*
X156800000Y-94900000D01*
X159100000Y-92600000D02*
X165300000Y-98800000D01*
X151400000Y-98000000D02*
X148800000Y-100600000D01*
X145900000Y-107300000D02*
X156800000Y-96400000D01*
X152400000Y-85900000D02*
X150000000Y-88300000D01*
X152000000Y-113400000D02*
X145900000Y-107300000D01*
X156800000Y-94900000D02*
X159100000Y-92600000D01*
X146900000Y-101600000D02*
X147300000Y-101200000D01*
X146900000Y-102400000D02*
X146900000Y-101600000D01*
X149000000Y-94000000D02*
X149000000Y-93300000D01*
X146900000Y-100200000D02*
X146900000Y-98700000D01*
X148500000Y-104200000D02*
X147200000Y-102900000D01*
X139200000Y-91600000D02*
X135800000Y-95000000D01*
X144300000Y-84500000D02*
X144700000Y-82800000D01*
X147100000Y-102650000D02*
X146900000Y-102400000D01*
X147000000Y-80500000D02*
X152400000Y-85900000D01*
X144700000Y-82800000D02*
X147000000Y-80500000D01*
X120099999Y-71200000D02*
G75*
G02*
X117900000Y-69000001I-2899999J-700000D01*
G01*
X149000000Y-93300000D02*
X150000000Y-92300000D01*
X147300000Y-101200000D02*
X147300000Y-100600000D01*
X140300000Y-91600000D02*
X139200000Y-91600000D01*
X140300000Y-91600000D02*
X141300000Y-92500000D01*
X147200000Y-102900000D02*
X151800000Y-98300000D01*
X148800000Y-100600000D02*
X147400000Y-99200000D01*
X141300000Y-92500000D02*
X143600000Y-92500000D01*
X118100000Y-71000000D02*
X115800000Y-68700000D01*
X146900000Y-98700000D02*
X147900000Y-97700000D01*
X147500000Y-92500000D02*
X146100000Y-91100000D01*
X116300000Y-72800000D02*
X114000000Y-70500000D01*
X150000000Y-88300000D02*
X148400000Y-88600000D01*
X147500000Y-93500000D02*
X147500000Y-92500000D01*
X153100000Y-99600000D02*
X148500000Y-104200000D01*
X148400000Y-88600000D02*
X144300000Y-84500000D01*
X165300000Y-98800000D02*
X163100000Y-101200000D01*
X146100000Y-91100000D02*
X145000000Y-91100000D01*
X145000000Y-91100000D02*
X143600000Y-92500000D01*
X119700000Y-71900000D02*
G75*
G02*
X114700000Y-71900000I-2500000J0D01*
G01*
X114700000Y-71900000D02*
G75*
G02*
X119700000Y-71900000I2500000J0D01*
G01*
X147100000Y-102650000D02*
X147100000Y-103300000D01*
X147100000Y-103300000D02*
X145100000Y-105300000D01*
D11*
X128929133Y-86433980D02*
X128929133Y-86501324D01*
X128929133Y-86501324D02*
X128996476Y-86636011D01*
X128996476Y-86636011D02*
X129063820Y-86703354D01*
X129063820Y-86703354D02*
X129198507Y-86770698D01*
X129198507Y-86770698D02*
X129333194Y-86770698D01*
X129333194Y-86770698D02*
X129434209Y-86737026D01*
X129434209Y-86737026D02*
X129602568Y-86636011D01*
X129602568Y-86636011D02*
X129703583Y-86534996D01*
X129703583Y-86534996D02*
X129804599Y-86366637D01*
X129804599Y-86366637D02*
X129838270Y-86265622D01*
X129838270Y-86265622D02*
X129838270Y-86130935D01*
X129838270Y-86130935D02*
X129770927Y-85996248D01*
X129770927Y-85996248D02*
X129703583Y-85928904D01*
X129703583Y-85928904D02*
X129568896Y-85861561D01*
X129568896Y-85861561D02*
X129501553Y-85861561D01*
X128154683Y-85794217D02*
X128727102Y-85693202D01*
X128558744Y-86198278D02*
X129265850Y-85491171D01*
X129265850Y-85491171D02*
X128996476Y-85221797D01*
X128996476Y-85221797D02*
X128895461Y-85188125D01*
X128895461Y-85188125D02*
X128828118Y-85188125D01*
X128828118Y-85188125D02*
X128727102Y-85221797D01*
X128727102Y-85221797D02*
X128626087Y-85322812D01*
X128626087Y-85322812D02*
X128592415Y-85423828D01*
X128592415Y-85423828D02*
X128592415Y-85491171D01*
X128592415Y-85491171D02*
X128626087Y-85592186D01*
X128626087Y-85592186D02*
X128895461Y-85861561D01*
X128525072Y-84885080D02*
X128525072Y-84817736D01*
X128525072Y-84817736D02*
X128491400Y-84716721D01*
X128491400Y-84716721D02*
X128323041Y-84548362D01*
X128323041Y-84548362D02*
X128222026Y-84514690D01*
X128222026Y-84514690D02*
X128154683Y-84514690D01*
X128154683Y-84514690D02*
X128053667Y-84548362D01*
X128053667Y-84548362D02*
X127986324Y-84615706D01*
X127986324Y-84615706D02*
X127918980Y-84750393D01*
X127918980Y-84750393D02*
X127918980Y-85558515D01*
X127918980Y-85558515D02*
X127481248Y-85120782D01*
X127750622Y-83975942D02*
X127683278Y-83908599D01*
X127683278Y-83908599D02*
X127582263Y-83874927D01*
X127582263Y-83874927D02*
X127514919Y-83874927D01*
X127514919Y-83874927D02*
X127413904Y-83908599D01*
X127413904Y-83908599D02*
X127245545Y-84009614D01*
X127245545Y-84009614D02*
X127077187Y-84177973D01*
X127077187Y-84177973D02*
X126976171Y-84346332D01*
X126976171Y-84346332D02*
X126942500Y-84447347D01*
X126942500Y-84447347D02*
X126942500Y-84514690D01*
X126942500Y-84514690D02*
X126976171Y-84615706D01*
X126976171Y-84615706D02*
X127043515Y-84683049D01*
X127043515Y-84683049D02*
X127144530Y-84716721D01*
X127144530Y-84716721D02*
X127211874Y-84716721D01*
X127211874Y-84716721D02*
X127312889Y-84683049D01*
X127312889Y-84683049D02*
X127481248Y-84582034D01*
X127481248Y-84582034D02*
X127649606Y-84413675D01*
X127649606Y-84413675D02*
X127750622Y-84245316D01*
X127750622Y-84245316D02*
X127784293Y-84144301D01*
X127784293Y-84144301D02*
X127784293Y-84076958D01*
X127784293Y-84076958D02*
X127750622Y-83975942D01*
X127178202Y-83538210D02*
X127178202Y-83470866D01*
X127178202Y-83470866D02*
X127144530Y-83369851D01*
X127144530Y-83369851D02*
X126976171Y-83201492D01*
X126976171Y-83201492D02*
X126875156Y-83167820D01*
X126875156Y-83167820D02*
X126807813Y-83167820D01*
X126807813Y-83167820D02*
X126706797Y-83201492D01*
X126706797Y-83201492D02*
X126639454Y-83268836D01*
X126639454Y-83268836D02*
X126572110Y-83403523D01*
X126572110Y-83403523D02*
X126572110Y-84211645D01*
X126572110Y-84211645D02*
X126134378Y-83773912D01*
X126605782Y-82831103D02*
X126168049Y-82393370D01*
X126168049Y-82393370D02*
X126134378Y-82898446D01*
X126134378Y-82898446D02*
X126033362Y-82797431D01*
X126033362Y-82797431D02*
X125932347Y-82763759D01*
X125932347Y-82763759D02*
X125865003Y-82763759D01*
X125865003Y-82763759D02*
X125763988Y-82797431D01*
X125763988Y-82797431D02*
X125595629Y-82965790D01*
X125595629Y-82965790D02*
X125561958Y-83066805D01*
X125561958Y-83066805D02*
X125561958Y-83134149D01*
X125561958Y-83134149D02*
X125595629Y-83235164D01*
X125595629Y-83235164D02*
X125797660Y-83437194D01*
X125797660Y-83437194D02*
X125898675Y-83470866D01*
X125898675Y-83470866D02*
X125966019Y-83470866D01*
X141123041Y-94462575D02*
X141830148Y-93755469D01*
X141830148Y-93755469D02*
X141560774Y-93486094D01*
X141560774Y-93486094D02*
X141459758Y-93452423D01*
X141459758Y-93452423D02*
X141392415Y-93452423D01*
X141392415Y-93452423D02*
X141291400Y-93486094D01*
X141291400Y-93486094D02*
X141190384Y-93587110D01*
X141190384Y-93587110D02*
X141156713Y-93688125D01*
X141156713Y-93688125D02*
X141156713Y-93755469D01*
X141156713Y-93755469D02*
X141190384Y-93856484D01*
X141190384Y-93856484D02*
X141459758Y-94125858D01*
X141190384Y-93115705D02*
X140314919Y-93654453D01*
X140314919Y-93654453D02*
X140685308Y-93014690D01*
X140685308Y-93014690D02*
X140045545Y-93385079D01*
X140045545Y-93385079D02*
X140584293Y-92509614D01*
X139203751Y-92543286D02*
X139776171Y-92442270D01*
X139607812Y-92947347D02*
X140314919Y-92240240D01*
X140314919Y-92240240D02*
X140045545Y-91970866D01*
X140045545Y-91970866D02*
X139944530Y-91937194D01*
X139944530Y-91937194D02*
X139877186Y-91937194D01*
X139877186Y-91937194D02*
X139776171Y-91970866D01*
X139776171Y-91970866D02*
X139675156Y-92071881D01*
X139675156Y-92071881D02*
X139641484Y-92172896D01*
X139641484Y-92172896D02*
X139641484Y-92240240D01*
X139641484Y-92240240D02*
X139675156Y-92341255D01*
X139675156Y-92341255D02*
X139944530Y-92610629D01*
X157390155Y-97535164D02*
X157962575Y-98107584D01*
X157962575Y-98107584D02*
X157996247Y-98208599D01*
X157996247Y-98208599D02*
X157996247Y-98275943D01*
X157996247Y-98275943D02*
X157962575Y-98376958D01*
X157962575Y-98376958D02*
X157827888Y-98511645D01*
X157827888Y-98511645D02*
X157726873Y-98545317D01*
X157726873Y-98545317D02*
X157659529Y-98545317D01*
X157659529Y-98545317D02*
X157558514Y-98511645D01*
X157558514Y-98511645D02*
X156986094Y-97939225D01*
X157356484Y-98983050D02*
X156649377Y-98275943D01*
X156649377Y-98275943D02*
X156380003Y-98545317D01*
X156380003Y-98545317D02*
X156346331Y-98646332D01*
X156346331Y-98646332D02*
X156346331Y-98713676D01*
X156346331Y-98713676D02*
X156380003Y-98814691D01*
X156380003Y-98814691D02*
X156481018Y-98915706D01*
X156481018Y-98915706D02*
X156582033Y-98949378D01*
X156582033Y-98949378D02*
X156649377Y-98949378D01*
X156649377Y-98949378D02*
X156750392Y-98915706D01*
X156750392Y-98915706D02*
X157019766Y-98646332D01*
X156649377Y-99690156D02*
X155942270Y-98983050D01*
X155942270Y-98983050D02*
X155773911Y-99151408D01*
X155773911Y-99151408D02*
X155706568Y-99286095D01*
X155706568Y-99286095D02*
X155706568Y-99420782D01*
X155706568Y-99420782D02*
X155740240Y-99521798D01*
X155740240Y-99521798D02*
X155841255Y-99690156D01*
X155841255Y-99690156D02*
X155942270Y-99791172D01*
X155942270Y-99791172D02*
X156110629Y-99892187D01*
X156110629Y-99892187D02*
X156211644Y-99925859D01*
X156211644Y-99925859D02*
X156346331Y-99925859D01*
X156346331Y-99925859D02*
X156481018Y-99858515D01*
X156481018Y-99858515D02*
X156649377Y-99690156D01*
X155942270Y-100397263D02*
X155235163Y-99690156D01*
X163790212Y-99091344D02*
X164126930Y-99428062D01*
X164126930Y-99428062D02*
X164834036Y-98720955D01*
X163924899Y-98485253D02*
X163689197Y-98249550D01*
X163217792Y-98518924D02*
X163554510Y-98855642D01*
X163554510Y-98855642D02*
X164261616Y-98148535D01*
X164261616Y-98148535D02*
X163924899Y-97811818D01*
X162914746Y-98215879D02*
X163621853Y-97508772D01*
X163621853Y-97508772D02*
X163453494Y-97340413D01*
X163453494Y-97340413D02*
X163318807Y-97273070D01*
X163318807Y-97273070D02*
X163184120Y-97273070D01*
X163184120Y-97273070D02*
X163083105Y-97306741D01*
X163083105Y-97306741D02*
X162914746Y-97407757D01*
X162914746Y-97407757D02*
X162813731Y-97508772D01*
X162813731Y-97508772D02*
X162712716Y-97677131D01*
X162712716Y-97677131D02*
X162679044Y-97778146D01*
X162679044Y-97778146D02*
X162679044Y-97912833D01*
X162679044Y-97912833D02*
X162746388Y-98047520D01*
X162746388Y-98047520D02*
X162914746Y-98215879D01*
X162274983Y-97508772D02*
X162173968Y-97475100D01*
X162173968Y-97475100D02*
X162039281Y-97340413D01*
X162039281Y-97340413D02*
X162005609Y-97239398D01*
X162005609Y-97239398D02*
X162039281Y-97138383D01*
X162039281Y-97138383D02*
X162072953Y-97104711D01*
X162072953Y-97104711D02*
X162173968Y-97071039D01*
X162173968Y-97071039D02*
X162274983Y-97104711D01*
X162274983Y-97104711D02*
X162375998Y-97205726D01*
X162375998Y-97205726D02*
X162477014Y-97239398D01*
X162477014Y-97239398D02*
X162578029Y-97205726D01*
X162578029Y-97205726D02*
X162611701Y-97172054D01*
X162611701Y-97172054D02*
X162645372Y-97071039D01*
X162645372Y-97071039D02*
X162611701Y-96970024D01*
X162611701Y-96970024D02*
X162510685Y-96869009D01*
X162510685Y-96869009D02*
X162409670Y-96835337D01*
X162281421Y-99859357D02*
X162382436Y-99893029D01*
X162382436Y-99893029D02*
X162449779Y-99893029D01*
X162449779Y-99893029D02*
X162550795Y-99859357D01*
X162550795Y-99859357D02*
X162752825Y-99657326D01*
X162752825Y-99657326D02*
X162786497Y-99556311D01*
X162786497Y-99556311D02*
X162786497Y-99488968D01*
X162786497Y-99488968D02*
X162752825Y-99387952D01*
X162752825Y-99387952D02*
X162651810Y-99286937D01*
X162651810Y-99286937D02*
X162550795Y-99253265D01*
X162550795Y-99253265D02*
X162483451Y-99253265D01*
X162483451Y-99253265D02*
X162382436Y-99286937D01*
X162382436Y-99286937D02*
X162180405Y-99488968D01*
X162180405Y-99488968D02*
X162146734Y-99589983D01*
X162146734Y-99589983D02*
X162146734Y-99657326D01*
X162146734Y-99657326D02*
X162180405Y-99758342D01*
X162180405Y-99758342D02*
X162281421Y-99859357D01*
X162214077Y-98849204D02*
X161742673Y-99320609D01*
X162146734Y-98916548D02*
X162146734Y-98849204D01*
X162146734Y-98849204D02*
X162113062Y-98748189D01*
X162113062Y-98748189D02*
X162012047Y-98647174D01*
X162012047Y-98647174D02*
X161911031Y-98613502D01*
X161911031Y-98613502D02*
X161810016Y-98647174D01*
X161810016Y-98647174D02*
X161439627Y-99017563D01*
X137150393Y-94174927D02*
X137015706Y-94309614D01*
X137015706Y-94309614D02*
X136982034Y-94410629D01*
X136982034Y-94410629D02*
X136982034Y-94545316D01*
X136982034Y-94545316D02*
X137083049Y-94713675D01*
X137083049Y-94713675D02*
X137318751Y-94949377D01*
X137318751Y-94949377D02*
X137487110Y-95050393D01*
X137487110Y-95050393D02*
X137621797Y-95050393D01*
X137621797Y-95050393D02*
X137722812Y-95016721D01*
X137722812Y-95016721D02*
X137857499Y-94882034D01*
X137857499Y-94882034D02*
X137891171Y-94781019D01*
X137891171Y-94781019D02*
X137891171Y-94646332D01*
X137891171Y-94646332D02*
X137790156Y-94477973D01*
X137790156Y-94477973D02*
X137554454Y-94242271D01*
X137554454Y-94242271D02*
X137386095Y-94141255D01*
X137386095Y-94141255D02*
X137251408Y-94141255D01*
X137251408Y-94141255D02*
X137150393Y-94174927D01*
X137251408Y-95488125D02*
X136544301Y-94781019D01*
X136544301Y-94781019D02*
X136847347Y-95892186D01*
X136847347Y-95892186D02*
X136140240Y-95185080D01*
X145986095Y-102539225D02*
X145851408Y-102673912D01*
X145851408Y-102673912D02*
X145817736Y-102774927D01*
X145817736Y-102774927D02*
X145817736Y-102909614D01*
X145817736Y-102909614D02*
X145918751Y-103077973D01*
X145918751Y-103077973D02*
X146154453Y-103313675D01*
X146154453Y-103313675D02*
X146322812Y-103414691D01*
X146322812Y-103414691D02*
X146457499Y-103414691D01*
X146457499Y-103414691D02*
X146558514Y-103381019D01*
X146558514Y-103381019D02*
X146693201Y-103246332D01*
X146693201Y-103246332D02*
X146726873Y-103145317D01*
X146726873Y-103145317D02*
X146726873Y-103010630D01*
X146726873Y-103010630D02*
X146625858Y-102842271D01*
X146625858Y-102842271D02*
X146390156Y-102606569D01*
X146390156Y-102606569D02*
X146221797Y-102505553D01*
X146221797Y-102505553D02*
X146087110Y-102505553D01*
X146087110Y-102505553D02*
X145986095Y-102539225D01*
X145481018Y-103717736D02*
X145716721Y-103482034D01*
X146087110Y-103852423D02*
X145380003Y-103145317D01*
X145380003Y-103145317D02*
X145043286Y-103482034D01*
X144874927Y-104323828D02*
X145110629Y-104088126D01*
X145481018Y-104458515D02*
X144773912Y-103751408D01*
X144773912Y-103751408D02*
X144437194Y-104088126D01*
X148230148Y-87969682D02*
X148566866Y-88306400D01*
X148566866Y-88306400D02*
X149273972Y-87599293D01*
X148364835Y-87363591D02*
X148129133Y-87127889D01*
X147657728Y-87397263D02*
X147994446Y-87733980D01*
X147994446Y-87733980D02*
X148701553Y-87026873D01*
X148701553Y-87026873D02*
X148364835Y-86690156D01*
X147354682Y-87094217D02*
X148061789Y-86387110D01*
X148061789Y-86387110D02*
X147893430Y-86218751D01*
X147893430Y-86218751D02*
X147758743Y-86151408D01*
X147758743Y-86151408D02*
X147624056Y-86151408D01*
X147624056Y-86151408D02*
X147523041Y-86185079D01*
X147523041Y-86185079D02*
X147354682Y-86286095D01*
X147354682Y-86286095D02*
X147253667Y-86387110D01*
X147253667Y-86387110D02*
X147152652Y-86555469D01*
X147152652Y-86555469D02*
X147118980Y-86656484D01*
X147118980Y-86656484D02*
X147118980Y-86791171D01*
X147118980Y-86791171D02*
X147186324Y-86925858D01*
X147186324Y-86925858D02*
X147354682Y-87094217D01*
X146714919Y-86387110D02*
X146613904Y-86353438D01*
X146613904Y-86353438D02*
X146479217Y-86218751D01*
X146479217Y-86218751D02*
X146445545Y-86117736D01*
X146445545Y-86117736D02*
X146479217Y-86016721D01*
X146479217Y-86016721D02*
X146512889Y-85983049D01*
X146512889Y-85983049D02*
X146613904Y-85949377D01*
X146613904Y-85949377D02*
X146714919Y-85983049D01*
X146714919Y-85983049D02*
X146815934Y-86084064D01*
X146815934Y-86084064D02*
X146916950Y-86117736D01*
X146916950Y-86117736D02*
X147017965Y-86084064D01*
X147017965Y-86084064D02*
X147051637Y-86050392D01*
X147051637Y-86050392D02*
X147085308Y-85949377D01*
X147085308Y-85949377D02*
X147051637Y-85848362D01*
X147051637Y-85848362D02*
X146950621Y-85747347D01*
X146950621Y-85747347D02*
X146849606Y-85713675D01*
X145435392Y-85174927D02*
X145536408Y-85208598D01*
X145536408Y-85208598D02*
X145603751Y-85208598D01*
X145603751Y-85208598D02*
X145704766Y-85174927D01*
X145704766Y-85174927D02*
X145906797Y-84972896D01*
X145906797Y-84972896D02*
X145940469Y-84871881D01*
X145940469Y-84871881D02*
X145940469Y-84804537D01*
X145940469Y-84804537D02*
X145906797Y-84703522D01*
X145906797Y-84703522D02*
X145805782Y-84602507D01*
X145805782Y-84602507D02*
X145704766Y-84568835D01*
X145704766Y-84568835D02*
X145637423Y-84568835D01*
X145637423Y-84568835D02*
X145536408Y-84602507D01*
X145536408Y-84602507D02*
X145334377Y-84804537D01*
X145334377Y-84804537D02*
X145300705Y-84905553D01*
X145300705Y-84905553D02*
X145300705Y-84972896D01*
X145300705Y-84972896D02*
X145334377Y-85073911D01*
X145334377Y-85073911D02*
X145435392Y-85174927D01*
X145368049Y-84164774D02*
X144896644Y-84636178D01*
X145300705Y-84232117D02*
X145300705Y-84164774D01*
X145300705Y-84164774D02*
X145267033Y-84063759D01*
X145267033Y-84063759D02*
X145166018Y-83962743D01*
X145166018Y-83962743D02*
X145065003Y-83929072D01*
X145065003Y-83929072D02*
X144963988Y-83962743D01*
X144963988Y-83962743D02*
X144593598Y-84333133D01*
X148855469Y-106069851D02*
X149326873Y-107012660D01*
X149326873Y-107012660D02*
X148384064Y-106541256D01*
X148384064Y-107820782D02*
X148451407Y-107820782D01*
X148451407Y-107820782D02*
X148586094Y-107753439D01*
X148586094Y-107753439D02*
X148653438Y-107686095D01*
X148653438Y-107686095D02*
X148720782Y-107551408D01*
X148720782Y-107551408D02*
X148720782Y-107416721D01*
X148720782Y-107416721D02*
X148687110Y-107315706D01*
X148687110Y-107315706D02*
X148586094Y-107147347D01*
X148586094Y-107147347D02*
X148485079Y-107046332D01*
X148485079Y-107046332D02*
X148316720Y-106945317D01*
X148316720Y-106945317D02*
X148215705Y-106911645D01*
X148215705Y-106911645D02*
X148081018Y-106911645D01*
X148081018Y-106911645D02*
X147946331Y-106978989D01*
X147946331Y-106978989D02*
X147878988Y-107046332D01*
X147878988Y-107046332D02*
X147811644Y-107181019D01*
X147811644Y-107181019D02*
X147811644Y-107248363D01*
X147676957Y-108527889D02*
X147744301Y-108527889D01*
X147744301Y-108527889D02*
X147878988Y-108460546D01*
X147878988Y-108460546D02*
X147946331Y-108393202D01*
X147946331Y-108393202D02*
X148013675Y-108258515D01*
X148013675Y-108258515D02*
X148013675Y-108123828D01*
X148013675Y-108123828D02*
X147980003Y-108022813D01*
X147980003Y-108022813D02*
X147878988Y-107854454D01*
X147878988Y-107854454D02*
X147777972Y-107753439D01*
X147777972Y-107753439D02*
X147609614Y-107652424D01*
X147609614Y-107652424D02*
X147508598Y-107618752D01*
X147508598Y-107618752D02*
X147373911Y-107618752D01*
X147373911Y-107618752D02*
X147239224Y-107686095D01*
X147239224Y-107686095D02*
X147171881Y-107753439D01*
X147171881Y-107753439D02*
X147104537Y-107888126D01*
X147104537Y-107888126D02*
X147104537Y-107955469D01*
X149336603Y-101960122D02*
X149808007Y-102431526D01*
X149235587Y-101522389D02*
X149909022Y-101859106D01*
X149909022Y-101859106D02*
X149471290Y-102296839D01*
X149437618Y-102801915D02*
X148730511Y-102094809D01*
X149100900Y-102599885D02*
X149168244Y-103071289D01*
X148696839Y-102599885D02*
X149235587Y-102599885D01*
X148225435Y-102599885D02*
X147754030Y-103071290D01*
X147754030Y-103071290D02*
X148764183Y-103475351D01*
X158341316Y-91676789D02*
X158004599Y-91340072D01*
X158206629Y-91946163D02*
X158678034Y-91003354D01*
X158678034Y-91003354D02*
X157735225Y-91474759D01*
X158307644Y-90632965D02*
X157903583Y-90228904D01*
X157398507Y-91138041D02*
X158105614Y-90430934D01*
X157768896Y-90094217D02*
X157364835Y-89690156D01*
X156859759Y-90599293D02*
X157566866Y-89892186D01*
X156422026Y-90161560D02*
X157129133Y-89454453D01*
X156085309Y-89824843D02*
X156792415Y-89117736D01*
X156792415Y-89117736D02*
X155681248Y-89420782D01*
X155681248Y-89420782D02*
X156388354Y-88713675D01*
X155546561Y-88612660D02*
X155209843Y-88949377D01*
X156152652Y-88477973D02*
X155546561Y-88612660D01*
X155546561Y-88612660D02*
X155681248Y-88006568D01*
X155411874Y-87871881D02*
X155411874Y-87804538D01*
X155411874Y-87804538D02*
X155378202Y-87703523D01*
X155378202Y-87703523D02*
X155209843Y-87535164D01*
X155209843Y-87535164D02*
X155108828Y-87501492D01*
X155108828Y-87501492D02*
X155041484Y-87501492D01*
X155041484Y-87501492D02*
X154940469Y-87535164D01*
X154940469Y-87535164D02*
X154873126Y-87602507D01*
X154873126Y-87602507D02*
X154805782Y-87737194D01*
X154805782Y-87737194D02*
X154805782Y-88545316D01*
X154805782Y-88545316D02*
X154368049Y-88107584D01*
X153694614Y-87434149D02*
X154098675Y-87838210D01*
X153896645Y-87636179D02*
X154603751Y-86929072D01*
X154603751Y-86929072D02*
X154570080Y-87097431D01*
X154570080Y-87097431D02*
X154570080Y-87232118D01*
X154570080Y-87232118D02*
X154603751Y-87333133D01*
X154065003Y-86525011D02*
X154065003Y-86457668D01*
X154065003Y-86457668D02*
X154031332Y-86356652D01*
X154031332Y-86356652D02*
X153862973Y-86188294D01*
X153862973Y-86188294D02*
X153761958Y-86154622D01*
X153761958Y-86154622D02*
X153694614Y-86154622D01*
X153694614Y-86154622D02*
X153593599Y-86188294D01*
X153593599Y-86188294D02*
X153526255Y-86255637D01*
X153526255Y-86255637D02*
X153458912Y-86390324D01*
X153458912Y-86390324D02*
X153458912Y-87198446D01*
X153458912Y-87198446D02*
X153021179Y-86760713D01*
X152085079Y-110107584D02*
X152118751Y-110006569D01*
X152118751Y-110006569D02*
X152219766Y-109905553D01*
X152219766Y-109905553D02*
X152354453Y-109838210D01*
X152354453Y-109838210D02*
X152489140Y-109838210D01*
X152489140Y-109838210D02*
X152590156Y-109871882D01*
X152590156Y-109871882D02*
X152758514Y-109972897D01*
X152758514Y-109972897D02*
X152859530Y-110073912D01*
X152859530Y-110073912D02*
X152960545Y-110242271D01*
X152960545Y-110242271D02*
X152994217Y-110343286D01*
X152994217Y-110343286D02*
X152994217Y-110477973D01*
X152994217Y-110477973D02*
X152926873Y-110612660D01*
X152926873Y-110612660D02*
X152859530Y-110680004D01*
X152859530Y-110680004D02*
X152724843Y-110747347D01*
X152724843Y-110747347D02*
X152657499Y-110747347D01*
X152657499Y-110747347D02*
X152421797Y-110511645D01*
X152421797Y-110511645D02*
X152556484Y-110376958D01*
X152421797Y-111117737D02*
X151714690Y-110410630D01*
X151714690Y-110410630D02*
X152017736Y-111521798D01*
X152017736Y-111521798D02*
X151310629Y-110814691D01*
X151681018Y-111858515D02*
X150973912Y-111151408D01*
X150973912Y-111151408D02*
X150805553Y-111319767D01*
X150805553Y-111319767D02*
X150738209Y-111454454D01*
X150738209Y-111454454D02*
X150738209Y-111589141D01*
X150738209Y-111589141D02*
X150771881Y-111690156D01*
X150771881Y-111690156D02*
X150872896Y-111858515D01*
X150872896Y-111858515D02*
X150973912Y-111959530D01*
X150973912Y-111959530D02*
X151142270Y-112060546D01*
X151142270Y-112060546D02*
X151243286Y-112094217D01*
X151243286Y-112094217D02*
X151377973Y-112094217D01*
X151377973Y-112094217D02*
X151512660Y-112026874D01*
X151512660Y-112026874D02*
X151681018Y-111858515D01*
X152771518Y-98311053D02*
X153175579Y-98715114D01*
X152973549Y-98513083D02*
X153680656Y-97805976D01*
X153680656Y-97805976D02*
X153646984Y-97974335D01*
X153646984Y-97974335D02*
X153646984Y-98109022D01*
X153646984Y-98109022D02*
X153680656Y-98210037D01*
X153040892Y-97166213D02*
X152973549Y-97098869D01*
X152973549Y-97098869D02*
X152872533Y-97065198D01*
X152872533Y-97065198D02*
X152805190Y-97065198D01*
X152805190Y-97065198D02*
X152704175Y-97098869D01*
X152704175Y-97098869D02*
X152535816Y-97199885D01*
X152535816Y-97199885D02*
X152367457Y-97368243D01*
X152367457Y-97368243D02*
X152266442Y-97536602D01*
X152266442Y-97536602D02*
X152232770Y-97637617D01*
X152232770Y-97637617D02*
X152232770Y-97704961D01*
X152232770Y-97704961D02*
X152266442Y-97805976D01*
X152266442Y-97805976D02*
X152333785Y-97873320D01*
X152333785Y-97873320D02*
X152434801Y-97906991D01*
X152434801Y-97906991D02*
X152502144Y-97906991D01*
X152502144Y-97906991D02*
X152603159Y-97873320D01*
X152603159Y-97873320D02*
X152771518Y-97772304D01*
X152771518Y-97772304D02*
X152939877Y-97603946D01*
X152939877Y-97603946D02*
X153040892Y-97435587D01*
X153040892Y-97435587D02*
X153074564Y-97334572D01*
X153074564Y-97334572D02*
X153074564Y-97267228D01*
X153074564Y-97267228D02*
X153040892Y-97166213D01*
X152367457Y-96492778D02*
X152300114Y-96425434D01*
X152300114Y-96425434D02*
X152199098Y-96391763D01*
X152199098Y-96391763D02*
X152131755Y-96391763D01*
X152131755Y-96391763D02*
X152030740Y-96425434D01*
X152030740Y-96425434D02*
X151862381Y-96526450D01*
X151862381Y-96526450D02*
X151694022Y-96694808D01*
X151694022Y-96694808D02*
X151593007Y-96863167D01*
X151593007Y-96863167D02*
X151559335Y-96964182D01*
X151559335Y-96964182D02*
X151559335Y-97031526D01*
X151559335Y-97031526D02*
X151593007Y-97132541D01*
X151593007Y-97132541D02*
X151660350Y-97199885D01*
X151660350Y-97199885D02*
X151761366Y-97233556D01*
X151761366Y-97233556D02*
X151828709Y-97233556D01*
X151828709Y-97233556D02*
X151929724Y-97199885D01*
X151929724Y-97199885D02*
X152098083Y-97098869D01*
X152098083Y-97098869D02*
X152266442Y-96930511D01*
X152266442Y-96930511D02*
X152367457Y-96762152D01*
X152367457Y-96762152D02*
X152401129Y-96661137D01*
X152401129Y-96661137D02*
X152401129Y-96593793D01*
X152401129Y-96593793D02*
X152367457Y-96492778D01*
X151593007Y-96189732D02*
X151121602Y-96661137D01*
X151525663Y-96257076D02*
X151525663Y-96189732D01*
X151525663Y-96189732D02*
X151491992Y-96088717D01*
X151491992Y-96088717D02*
X151390976Y-95987702D01*
X151390976Y-95987702D02*
X151289961Y-95954030D01*
X151289961Y-95954030D02*
X151188946Y-95987702D01*
X151188946Y-95987702D02*
X150818557Y-96358091D01*
D12*
X147859183Y-95505701D02*
X148228650Y-95875168D01*
X148898630Y-94466254D02*
X149268097Y-94835721D01*
X120583169Y-69542967D02*
X124542967Y-65583169D01*
X121707469Y-75588730D02*
X124168201Y-73127999D01*
X124168201Y-73127999D02*
X120583169Y-69542967D01*
X128127999Y-69168201D02*
X124542967Y-65583169D01*
X129153303Y-68142896D02*
X128127999Y-69168201D01*
X136761772Y-90742028D02*
X139272001Y-88231799D01*
X138529539Y-68496449D02*
X129153303Y-68142896D01*
X138529539Y-68496449D02*
X143903551Y-73870461D01*
X139272001Y-88231799D02*
X142857033Y-91816831D01*
X142857033Y-91816831D02*
X146816831Y-87857033D01*
X143903551Y-73870461D02*
X144257104Y-83246697D01*
X144257104Y-83246697D02*
X143231799Y-84272001D01*
X146816831Y-87857033D02*
X143231799Y-84272001D01*
X124139916Y-80934456D02*
G75*
G02*
X121695407Y-75604953I-233344J3118340D01*
G01*
X124154058Y-80934459D02*
G75*
G02*
X131464857Y-88439557I-70711J-7382194D01*
G01*
X136797128Y-90706673D02*
G75*
G02*
X131454016Y-88464582I-2213245J2213244D01*
G01*
D11*
X169156063Y-109069687D02*
X169731534Y-109625414D01*
X169721662Y-109059815D02*
X169165935Y-109635287D01*
D10*
X169751280Y-110756612D02*
X171189959Y-112145929D01*
X172085611Y-110786588D02*
X170862733Y-109605669D01*
X171078535Y-109814066D02*
G75*
G02*
X172085610Y-110786588I295139J-702064D01*
G01*
D12*
X144597918Y-92022183D02*
X145022183Y-91597918D01*
X145587868Y-94002082D02*
X144597918Y-93012132D01*
X146012132Y-91597918D02*
X147002082Y-92587868D01*
X147002082Y-93577817D02*
X146577817Y-94002082D01*
X144597918Y-93012132D02*
G75*
G02*
X144597917Y-92022182I494957J494975D01*
G01*
X145022183Y-91597918D02*
G75*
G02*
X146012131Y-91597918I494974J-494974D01*
G01*
X146577817Y-94002082D02*
G75*
G02*
X145587868Y-94002082I-494974J494975D01*
G01*
X147002082Y-92587868D02*
G75*
G02*
X147002083Y-93577817I-494975J-494975D01*
G01*
X157638299Y-94447487D02*
X158628249Y-93457537D01*
X158062564Y-95861701D02*
X157638299Y-95437436D01*
X159618198Y-93457537D02*
X160042463Y-93881802D01*
X160042463Y-94871751D02*
X159052513Y-95861701D01*
X157638299Y-95437436D02*
G75*
G02*
X157638299Y-94447488I494974J494974D01*
G01*
X158628249Y-93457537D02*
G75*
G02*
X159618198Y-93457536I494975J-494975D01*
G01*
X159052513Y-95861701D02*
G75*
G02*
X158062563Y-95861702I-494975J494957D01*
G01*
X160042463Y-93881802D02*
G75*
G02*
X160042463Y-94871751I-494975J-494974D01*
G01*
D10*
X179094912Y-128887006D02*
X180296993Y-127684925D01*
X179165622Y-126553554D02*
X177751409Y-127967767D01*
D11*
X180862679Y-125987868D02*
X180296993Y-126553554D01*
X180862679Y-126553554D02*
X180296993Y-125987868D01*
D10*
X180084861Y-127897057D02*
G75*
G02*
X179094912Y-128887006I-707108J-282841D01*
G01*
D11*
X173263906Y-113107759D02*
X173651754Y-113807455D01*
D10*
X173339906Y-114894998D02*
X174309525Y-116644237D01*
D11*
X173807678Y-113263683D02*
X173107982Y-113651530D01*
D10*
X175563473Y-115606156D02*
X174739297Y-114119303D01*
X174884740Y-114381689D02*
G75*
G02*
X175563473Y-115606156I76980J-757677D01*
G01*
X169194912Y-106987006D02*
X170396993Y-105784925D01*
X169265622Y-104653554D02*
X167851409Y-106067767D01*
D11*
X170962679Y-104087868D02*
X170396993Y-104653554D01*
X170962679Y-104653554D02*
X170396993Y-104087868D01*
D10*
X170184861Y-105997057D02*
G75*
G02*
X169194912Y-106987006I-707108J-282841D01*
G01*
D11*
X112937321Y-63346446D02*
X113503007Y-63912132D01*
X112937321Y-63912132D02*
X113503007Y-63346446D01*
D10*
X114634378Y-63346446D02*
X116048591Y-61932233D01*
X114705088Y-61012994D02*
X113503007Y-62215075D01*
X113715139Y-62002943D02*
G75*
G02*
X114705088Y-61012994I707108J282841D01*
G01*
D11*
X109337321Y-67146446D02*
X109903007Y-67712132D01*
X109337321Y-67712132D02*
X109903007Y-67146446D01*
D10*
X111034378Y-67146446D02*
X112448591Y-65732233D01*
X111105088Y-64812994D02*
X109903007Y-66015075D01*
X110115139Y-65802943D02*
G75*
G02*
X111105088Y-64812994I707108J282841D01*
G01*
D12*
X150095543Y-94434990D02*
X150465010Y-94804457D01*
X151134990Y-93395543D02*
X151504457Y-93765010D01*
D10*
X157694912Y-117887006D02*
X158896993Y-116684925D01*
X157765622Y-115553554D02*
X156351409Y-116967767D01*
D11*
X159462679Y-114987868D02*
X158896993Y-115553554D01*
X159462679Y-115553554D02*
X158896993Y-114987868D01*
D10*
X158684861Y-116897057D02*
G75*
G02*
X157694912Y-117887006I-707108J-282841D01*
G01*
D12*
X159438299Y-96247487D02*
X160428249Y-95257537D01*
X159862564Y-97661701D02*
X159438299Y-97237436D01*
X161418198Y-95257537D02*
X161842463Y-95681802D01*
X161842463Y-96671751D02*
X160852513Y-97661701D01*
X159438299Y-97237436D02*
G75*
G02*
X159438299Y-96247488I494974J494974D01*
G01*
X160428249Y-95257537D02*
G75*
G02*
X161418198Y-95257536I494975J-494975D01*
G01*
X160852513Y-97661701D02*
G75*
G02*
X159862563Y-97661702I-494975J494957D01*
G01*
X161842463Y-95681802D02*
G75*
G02*
X161842463Y-96671751I-494975J-494974D01*
G01*
D10*
X161125128Y-118981114D02*
X162427403Y-120073853D01*
X163455864Y-118848182D02*
X161923775Y-117562607D01*
D11*
X163603772Y-120538781D02*
X164118002Y-119925945D01*
X164167305Y-120489478D02*
X163554469Y-119975248D01*
D10*
X162197590Y-119881017D02*
G75*
G02*
X161125127Y-118981114I-343394J679766D01*
G01*
D12*
X147338299Y-84147487D02*
X148328249Y-83157537D01*
X147762564Y-85561701D02*
X147338299Y-85137436D01*
X149318198Y-83157537D02*
X149742463Y-83581802D01*
X149742463Y-84571751D02*
X148752513Y-85561701D01*
X147338299Y-85137436D02*
G75*
G02*
X147338299Y-84147488I494974J494974D01*
G01*
X148328249Y-83157537D02*
G75*
G02*
X149318198Y-83157536I494975J-494975D01*
G01*
X148752513Y-85561701D02*
G75*
G02*
X147762563Y-85561702I-494975J494957D01*
G01*
X149742463Y-83581802D02*
G75*
G02*
X149742463Y-84571751I-494975J-494974D01*
G01*
D10*
X165533157Y-122641839D02*
X166890837Y-123664924D01*
X167853742Y-122387108D02*
X166256471Y-121183478D01*
D11*
X168089926Y-124067648D02*
X168571378Y-123428740D01*
X168650106Y-123988920D02*
X168011198Y-123507468D01*
D10*
X166651247Y-123484380D02*
G75*
G02*
X165533157Y-122641839I-378500J660862D01*
G01*
D12*
X149625019Y-104201974D02*
X153301974Y-100525019D01*
X150028070Y-104605025D02*
X149625019Y-104201974D01*
X151824121Y-106401076D02*
X151102872Y-105679828D01*
X153620172Y-108197128D02*
X152898924Y-107475879D01*
X153705025Y-100928070D02*
X153301974Y-100525019D01*
X153705025Y-100928070D02*
X154723259Y-99909836D01*
X155098026Y-109674981D02*
X154694975Y-109271930D01*
X155098026Y-109674981D02*
X158774981Y-105998026D01*
X155501076Y-102724121D02*
X154779828Y-102002872D01*
X157297128Y-104520172D02*
X156575879Y-103798924D01*
X158774981Y-105998026D02*
X158371930Y-105594975D01*
X138110913Y-95276598D02*
X139737258Y-93650253D01*
X139737258Y-93650253D02*
X146949747Y-100862742D01*
X146949747Y-100862742D02*
X145323402Y-102489087D01*
X149138299Y-85947487D02*
X150128249Y-84957537D01*
X149562564Y-87361701D02*
X149138299Y-86937436D01*
X151118198Y-84957537D02*
X151542463Y-85381802D01*
X151542463Y-86371751D02*
X150552513Y-87361701D01*
X149138299Y-86937436D02*
G75*
G02*
X149138299Y-85947488I494974J494974D01*
G01*
X150128249Y-84957537D02*
G75*
G02*
X151118198Y-84957536I494975J-494975D01*
G01*
X150552513Y-87361701D02*
G75*
G02*
X149562563Y-87361702I-494975J494957D01*
G01*
X151542463Y-85381802D02*
G75*
G02*
X151542463Y-86371751I-494975J-494974D01*
G01*
X150310948Y-91831335D02*
X151689807Y-93210193D01*
X153068665Y-94589052D02*
X151689807Y-93210193D01*
X153931335Y-88210948D02*
X155310193Y-89589807D01*
X156689052Y-90968665D02*
X155310193Y-89589807D01*
X149784154Y-91636881D02*
X149444743Y-91297470D01*
X149847793Y-91233830D01*
X149784154Y-91636881D01*
G36*
X149784154Y-91636881D02*
G01*
X149444743Y-91297470D01*
X149847793Y-91233830D01*
X149784154Y-91636881D01*
G37*
D10*
X175662761Y-120384067D02*
X176180399Y-122315919D01*
D11*
X176021391Y-118631531D02*
X176228447Y-119404272D01*
X176511288Y-118914374D02*
X175738549Y-119121429D01*
D10*
X177648235Y-121612031D02*
X177208243Y-119969957D01*
X177285888Y-120259735D02*
G75*
G02*
X177648235Y-121612031I-108606J-753794D01*
G01*
D11*
X116637321Y-59546446D02*
X117203007Y-60112132D01*
X116637321Y-60112132D02*
X117203007Y-59546446D01*
D10*
X118334378Y-59546446D02*
X119748591Y-58132233D01*
X118405088Y-57212994D02*
X117203007Y-58415075D01*
X117415139Y-58202943D02*
G75*
G02*
X118405088Y-57212994I707108J282841D01*
G01*
D12*
X149065010Y-97895543D02*
X148695543Y-98265010D01*
X150104457Y-98934990D02*
X149734990Y-99304457D01*
D10*
X161794912Y-114387006D02*
X162996993Y-113184925D01*
X161865622Y-112053554D02*
X160451409Y-113467767D01*
D11*
X163562679Y-111487868D02*
X162996993Y-112053554D01*
X163562679Y-112053554D02*
X162996993Y-111487868D01*
D10*
X162784861Y-113397057D02*
G75*
G02*
X161794912Y-114387006I-707108J-282841D01*
G01*
X165494912Y-110787006D02*
X166696993Y-109584925D01*
X165565622Y-108453554D02*
X164151409Y-109867767D01*
D11*
X167262679Y-107887868D02*
X166696993Y-108453554D01*
X167262679Y-108453554D02*
X166696993Y-107887868D01*
D10*
X166484861Y-109797057D02*
G75*
G02*
X165494912Y-110787006I-707108J-282841D01*
G01*
D12*
X150740835Y-99619718D02*
X150419718Y-99940835D01*
X151780282Y-100659165D02*
X151459165Y-100980282D01*
X145538299Y-82347487D02*
X146528249Y-81357537D01*
X145962564Y-83761701D02*
X145538299Y-83337436D01*
X147518198Y-81357537D02*
X147942463Y-81781802D01*
X147942463Y-82771751D02*
X146952513Y-83761701D01*
X145538299Y-83337436D02*
G75*
G02*
X145538299Y-82347488I494974J494974D01*
G01*
X146528249Y-81357537D02*
G75*
G02*
X147518198Y-81357536I494975J-494975D01*
G01*
X146952513Y-83761701D02*
G75*
G02*
X145962563Y-83761702I-494975J494957D01*
G01*
X147942463Y-81781802D02*
G75*
G02*
X147942463Y-82771751I-494975J-494974D01*
G01*
D10*
X171533612Y-126040442D02*
X173086639Y-126731894D01*
X173737418Y-125270221D02*
X171910327Y-124456748D01*
D11*
X174345588Y-126854560D02*
X174670978Y-126123723D01*
X174873701Y-126651836D02*
X174142865Y-126326447D01*
D10*
X172812576Y-126609873D02*
G75*
G02*
X171533612Y-126040442I-517461J558780D01*
G01*
M02*
