G04 #@! TF.GenerationSoftware,KiCad,Pcbnew,8.0.2-8.0.2-0~ubuntu22.04.1*
G04 #@! TF.CreationDate,2024-05-31T00:16:28+02:00*
G04 #@! TF.ProjectId,ctfl-rakete-tht,6374666c-2d72-4616-9b65-74652d746874,rev?*
G04 #@! TF.SameCoordinates,Original*
G04 #@! TF.FileFunction,Soldermask,Bot*
G04 #@! TF.FilePolarity,Negative*
%FSLAX46Y46*%
G04 Gerber Fmt 4.6, Leading zero omitted, Abs format (unit mm)*
G04 Created by KiCad (PCBNEW 8.0.2-8.0.2-0~ubuntu22.04.1) date 2024-05-31 00:16:28*
%MOMM*%
%LPD*%
G01*
G04 APERTURE LIST*
G04 Aperture macros list*
%AMRoundRect*
0 Rectangle with rounded corners*
0 $1 Rounding radius*
0 $2 $3 $4 $5 $6 $7 $8 $9 X,Y pos of 4 corners*
0 Add a 4 corners polygon primitive as box body*
4,1,4,$2,$3,$4,$5,$6,$7,$8,$9,$2,$3,0*
0 Add four circle primitives for the rounded corners*
1,1,$1+$1,$2,$3*
1,1,$1+$1,$4,$5*
1,1,$1+$1,$6,$7*
1,1,$1+$1,$8,$9*
0 Add four rect primitives between the rounded corners*
20,1,$1+$1,$2,$3,$4,$5,0*
20,1,$1+$1,$4,$5,$6,$7,0*
20,1,$1+$1,$6,$7,$8,$9,0*
20,1,$1+$1,$8,$9,$2,$3,0*%
%AMRotRect*
0 Rectangle, with rotation*
0 The origin of the aperture is its center*
0 $1 length*
0 $2 width*
0 $3 Rotation angle, in degrees counterclockwise*
0 Add horizontal line*
21,1,$1,$2,0,0,$3*%
%AMFreePoly0*
4,1,19,0.499999,-0.750000,0.000000,-0.750000,0.000000,-0.744912,-0.071157,-0.744911,-0.207708,-0.704816,-0.327430,-0.627875,-0.420627,-0.520320,-0.479746,-0.390866,-0.500000,-0.250000,-0.500000,0.250000,-0.479746,0.390866,-0.420627,0.520320,-0.327430,0.627875,-0.207708,0.704816,-0.071157,0.744911,0.000000,0.744912,0.000000,0.750000,0.499999,0.750000,0.499999,-0.750000,0.499999,-0.750000,
$1*%
%AMFreePoly1*
4,1,19,0.000000,0.744912,0.071157,0.744911,0.207708,0.704816,0.327430,0.627875,0.420627,0.520320,0.479746,0.390866,0.500000,0.250000,0.500000,-0.250000,0.479746,-0.390866,0.420627,-0.520320,0.327430,-0.627875,0.207708,-0.704816,0.071157,-0.744911,0.000000,-0.744912,0.000000,-0.750000,-0.499999,-0.750000,-0.499999,0.750000,0.000000,0.750000,0.000000,0.744912,0.000000,0.744912,
$1*%
G04 Aperture macros list end*
%ADD10C,0.100000*%
%ADD11RotRect,5.000000X5.000000X315.000000*%
%ADD12RotRect,4.000000X4.000000X315.000000*%
%ADD13RoundRect,0.250000X0.546382X0.097939X0.078811X0.549467X-0.546382X-0.097939X-0.078811X-0.549467X0*%
%ADD14FreePoly0,315.000000*%
%ADD15FreePoly1,315.000000*%
%ADD16FreePoly0,45.000000*%
%ADD17FreePoly1,45.000000*%
%ADD18RoundRect,0.250000X0.088388X-0.548008X0.548008X-0.088388X-0.088388X0.548008X-0.548008X0.088388X0*%
%ADD19RoundRect,0.250000X0.574524X0.097227X0.097227X0.574524X-0.574524X-0.097227X-0.097227X-0.574524X0*%
%ADD20RoundRect,0.250000X0.551142X-0.066087X0.236016X0.502416X-0.551142X0.066087X-0.236016X-0.502416X0*%
%ADD21RoundRect,0.375000X0.883883X-1.414214X1.414214X-0.883883X-0.883883X1.414214X-1.414214X0.883883X0*%
%ADD22RoundRect,0.375000X-0.883883X1.414214X-1.414214X0.883883X0.883883X-1.414214X1.414214X-0.883883X0*%
%ADD23RoundRect,0.250000X-0.088388X0.548008X-0.548008X0.088388X0.088388X-0.548008X0.548008X-0.088388X0*%
%ADD24RoundRect,0.375000X-1.026620X-1.314268X-0.346889X-1.631232X1.026620X1.314268X0.346889X1.631232X0*%
%ADD25RoundRect,0.375000X-1.631232X-0.346889X-1.314268X-1.026620X1.631232X0.346889X1.314268X1.026620X0*%
%ADD26RoundRect,0.250000X-0.538219X-0.135814X-0.040290X-0.553626X0.538219X0.135814X0.040290X0.553626X0*%
%ADD27RoundRect,0.250000X-0.530373X-0.163796X-0.011260X-0.554976X0.530373X0.163796X0.011260X0.554976X0*%
%ADD28RotRect,3.150000X1.000000X225.000000*%
%ADD29RoundRect,0.200000X1.131371X0.707107X0.707107X1.131371X-1.131371X-0.707107X-0.707107X-1.131371X0*%
%ADD30RoundRect,0.150000X-0.689429X0.477297X0.477297X-0.689429X0.689429X-0.477297X-0.477297X0.689429X0*%
%ADD31RoundRect,0.250000X0.518783X-0.197457X0.350550X0.430394X-0.518783X0.197457X-0.350550X-0.430394X0*%
%ADD32RoundRect,0.250000X0.097227X-0.574524X0.574524X-0.097227X-0.097227X0.574524X-0.574524X0.097227X0*%
%ADD33RoundRect,0.250000X0.070711X-0.565685X0.565685X-0.070711X-0.070711X0.565685X-0.565685X0.070711X0*%
%ADD34RoundRect,0.250000X-0.479934X-0.278906X0.113871X-0.543285X0.479934X0.278906X-0.113871X0.543285X0*%
G04 APERTURE END LIST*
D10*
X124900000Y-50000000D02*
X200000000Y-122600000D01*
X200000000Y-150000000D01*
X178800000Y-150000000D01*
X100000000Y-75600000D01*
X100000000Y-66100000D01*
X108800000Y-66100000D01*
X108800000Y-68300000D01*
X138200000Y-97700000D01*
X138200000Y-100700000D01*
X156200000Y-118700000D01*
X157300000Y-118700000D01*
X158000000Y-118000000D01*
X158900000Y-118000000D01*
X162300000Y-121400000D01*
X163200000Y-121400000D01*
X166800000Y-125000000D01*
X169300000Y-125000000D01*
X171000000Y-126700000D01*
X172600000Y-126700000D01*
X173500000Y-127100000D01*
X175000000Y-127100000D01*
X177900000Y-130000000D01*
X178900000Y-130000000D01*
X180800000Y-128100000D01*
X180800000Y-126900000D01*
X178400000Y-124500000D01*
X178400000Y-121400000D01*
X177500000Y-120500000D01*
X177500000Y-119700000D01*
X176600000Y-118800000D01*
X176600000Y-115800000D01*
X175900000Y-115100000D01*
X175900000Y-113700000D01*
X172600000Y-110400000D01*
X172600000Y-109800000D01*
X170200000Y-107400000D01*
X170200000Y-106400000D01*
X171100000Y-105500000D01*
X171100000Y-103700000D01*
X144700000Y-77300000D01*
X144500000Y-73600000D01*
X138800000Y-67900000D01*
X131500000Y-67600000D01*
X120400000Y-56500000D01*
X118400000Y-56500000D01*
X108800000Y-66100000D01*
X100000000Y-66100000D01*
X100000000Y-50000000D01*
X124900000Y-50000000D01*
G36*
X124900000Y-50000000D02*
G01*
X200000000Y-122600000D01*
X200000000Y-150000000D01*
X178800000Y-150000000D01*
X100000000Y-75600000D01*
X100000000Y-66100000D01*
X108800000Y-66100000D01*
X108800000Y-68300000D01*
X138200000Y-97700000D01*
X138200000Y-100700000D01*
X156200000Y-118700000D01*
X157300000Y-118700000D01*
X158000000Y-118000000D01*
X158900000Y-118000000D01*
X162300000Y-121400000D01*
X163200000Y-121400000D01*
X166800000Y-125000000D01*
X169300000Y-125000000D01*
X171000000Y-126700000D01*
X172600000Y-126700000D01*
X173500000Y-127100000D01*
X175000000Y-127100000D01*
X177900000Y-130000000D01*
X178900000Y-130000000D01*
X180800000Y-128100000D01*
X180800000Y-126900000D01*
X178400000Y-124500000D01*
X178400000Y-121400000D01*
X177500000Y-120500000D01*
X177500000Y-119700000D01*
X176600000Y-118800000D01*
X176600000Y-115800000D01*
X175900000Y-115100000D01*
X175900000Y-113700000D01*
X172600000Y-110400000D01*
X172600000Y-109800000D01*
X170200000Y-107400000D01*
X170200000Y-106400000D01*
X171100000Y-105500000D01*
X171100000Y-103700000D01*
X144700000Y-77300000D01*
X144500000Y-73600000D01*
X138800000Y-67900000D01*
X131500000Y-67600000D01*
X120400000Y-56500000D01*
X118400000Y-56500000D01*
X108800000Y-66100000D01*
X100000000Y-66100000D01*
X100000000Y-50000000D01*
X124900000Y-50000000D01*
G37*
D11*
X124542967Y-69542967D03*
X142857033Y-87857033D03*
D12*
X133700000Y-78700000D03*
D13*
X171763669Y-111587824D03*
X170289023Y-110163774D03*
D14*
X145340381Y-92340381D03*
D15*
X146259619Y-93259619D03*
D16*
X158380762Y-95119238D03*
D17*
X159300000Y-94200000D03*
D18*
X178299417Y-128551130D03*
X179748985Y-127101562D03*
D19*
X149297263Y-95904334D03*
X147830017Y-94437088D03*
D20*
X175021341Y-116278255D03*
X174027481Y-114485285D03*
D21*
X166205971Y-104601935D03*
D18*
X168399417Y-106651130D03*
X169848985Y-105201562D03*
D21*
X167799790Y-103008116D03*
D22*
X117694029Y-63398065D03*
D23*
X115500583Y-61348870D03*
X114051015Y-62798438D03*
D22*
X116100210Y-64991884D03*
X114094029Y-67198065D03*
D23*
X111900583Y-65148870D03*
X110451015Y-66598438D03*
D22*
X112500210Y-68791884D03*
D19*
X151533623Y-94833623D03*
X150066377Y-93366377D03*
D24*
X104600000Y-61600000D03*
D25*
X113900000Y-52700000D03*
D21*
X154705971Y-115501935D03*
D18*
X156899417Y-117551130D03*
X158348985Y-116101562D03*
D21*
X156299790Y-113908116D03*
D16*
X160180762Y-96919238D03*
D17*
X161100000Y-96000000D03*
D26*
X161390393Y-118159373D03*
X162960785Y-119477087D03*
D16*
X148080762Y-84819238D03*
D17*
X149000000Y-83900000D03*
D27*
X165755053Y-121807341D03*
X167392255Y-123041061D03*
D28*
X154189393Y-101518504D03*
X150618504Y-105089393D03*
X155985445Y-103314555D03*
X152414555Y-106885445D03*
X157781496Y-105110607D03*
X154210607Y-108681496D03*
D29*
X146270925Y-97921177D03*
X144474874Y-96125126D03*
X142678823Y-94329075D03*
D16*
X149880762Y-86619238D03*
D17*
X150800000Y-85700000D03*
D30*
X150402872Y-90996949D03*
X151300898Y-90098924D03*
X152198924Y-89200898D03*
X153096949Y-88302872D03*
X156597128Y-91803051D03*
X155699102Y-92701076D03*
X154801076Y-93599102D03*
X153903051Y-94497128D03*
D22*
X160600000Y-129100000D03*
D31*
X176959611Y-122133012D03*
X176429031Y-120152864D03*
D22*
X121394029Y-59598065D03*
D23*
X119200583Y-57548870D03*
X117751015Y-58998438D03*
D22*
X119800210Y-61191884D03*
D32*
X148666377Y-99333623D03*
X150133623Y-97866377D03*
D21*
X158805971Y-112001935D03*
D18*
X160999417Y-114051130D03*
X162448985Y-112601562D03*
D21*
X160399790Y-110408116D03*
X162505971Y-108401935D03*
D18*
X164699417Y-110451130D03*
X166148985Y-109001562D03*
D21*
X164099790Y-106808116D03*
D33*
X150392893Y-101007107D03*
X151807107Y-99592893D03*
D16*
X146280762Y-83019238D03*
D17*
X147200000Y-82100000D03*
D34*
X171562099Y-125177416D03*
X173434867Y-126011226D03*
D22*
X180700000Y-109600000D03*
M02*
