G04 #@! TF.GenerationSoftware,KiCad,Pcbnew,8.0.2-8.0.2-0~ubuntu22.04.1*
G04 #@! TF.CreationDate,2024-05-25T22:25:35+02:00*
G04 #@! TF.ProjectId,ctfl-rakete-tht,6374666c-2d72-4616-9b65-74652d746874,rev?*
G04 #@! TF.SameCoordinates,Original*
G04 #@! TF.FileFunction,Paste,Bot*
G04 #@! TF.FilePolarity,Positive*
%FSLAX46Y46*%
G04 Gerber Fmt 4.6, Leading zero omitted, Abs format (unit mm)*
G04 Created by KiCad (PCBNEW 8.0.2-8.0.2-0~ubuntu22.04.1) date 2024-05-25 22:25:35*
%MOMM*%
%LPD*%
G01*
G04 APERTURE LIST*
G04 Aperture macros list*
%AMRoundRect*
0 Rectangle with rounded corners*
0 $1 Rounding radius*
0 $2 $3 $4 $5 $6 $7 $8 $9 X,Y pos of 4 corners*
0 Add a 4 corners polygon primitive as box body*
4,1,4,$2,$3,$4,$5,$6,$7,$8,$9,$2,$3,0*
0 Add four circle primitives for the rounded corners*
1,1,$1+$1,$2,$3*
1,1,$1+$1,$4,$5*
1,1,$1+$1,$6,$7*
1,1,$1+$1,$8,$9*
0 Add four rect primitives between the rounded corners*
20,1,$1+$1,$2,$3,$4,$5,0*
20,1,$1+$1,$4,$5,$6,$7,0*
20,1,$1+$1,$6,$7,$8,$9,0*
20,1,$1+$1,$8,$9,$2,$3,0*%
%AMRotRect*
0 Rectangle, with rotation*
0 The origin of the aperture is its center*
0 $1 length*
0 $2 width*
0 $3 Rotation angle, in degrees counterclockwise*
0 Add horizontal line*
21,1,$1,$2,0,0,$3*%
G04 Aperture macros list end*
%ADD10RotRect,5.000000X5.000000X315.000000*%
%ADD11RotRect,4.000000X4.000000X315.000000*%
%ADD12RoundRect,0.250000X0.546382X0.097939X0.078811X0.549467X-0.546382X-0.097939X-0.078811X-0.549467X0*%
%ADD13RoundRect,0.250000X0.088388X-0.548008X0.548008X-0.088388X-0.088388X0.548008X-0.548008X0.088388X0*%
%ADD14RoundRect,0.250000X0.551142X-0.066087X0.236016X0.502416X-0.551142X0.066087X-0.236016X-0.502416X0*%
%ADD15RoundRect,0.375000X0.883883X-1.414214X1.414214X-0.883883X-0.883883X1.414214X-1.414214X0.883883X0*%
%ADD16RoundRect,0.375000X-0.883883X1.414214X-1.414214X0.883883X0.883883X-1.414214X1.414214X-0.883883X0*%
%ADD17RoundRect,0.250000X-0.088388X0.548008X-0.548008X0.088388X0.088388X-0.548008X0.548008X-0.088388X0*%
%ADD18RoundRect,0.250000X0.574524X0.097227X0.097227X0.574524X-0.574524X-0.097227X-0.097227X-0.574524X0*%
%ADD19RoundRect,0.375000X-1.026620X-1.314268X-0.346889X-1.631232X1.026620X1.314268X0.346889X1.631232X0*%
%ADD20RoundRect,0.375000X-1.631232X-0.346889X-1.314268X-1.026620X1.631232X0.346889X1.314268X1.026620X0*%
%ADD21RoundRect,0.250000X-0.538219X-0.135814X-0.040290X-0.553626X0.538219X0.135814X0.040290X0.553626X0*%
%ADD22RoundRect,0.250000X-0.530373X-0.163796X-0.011260X-0.554976X0.530373X0.163796X0.011260X0.554976X0*%
%ADD23RotRect,3.150000X1.000000X225.000000*%
%ADD24RoundRect,0.200000X1.131371X0.707107X0.707107X1.131371X-1.131371X-0.707107X-0.707107X-1.131371X0*%
%ADD25RoundRect,0.150000X-0.689429X0.477297X0.477297X-0.689429X0.689429X-0.477297X-0.477297X0.689429X0*%
%ADD26RoundRect,0.250000X0.518783X-0.197457X0.350550X0.430394X-0.518783X0.197457X-0.350550X-0.430394X0*%
%ADD27RoundRect,0.250000X0.097227X-0.574524X0.574524X-0.097227X-0.097227X0.574524X-0.574524X0.097227X0*%
%ADD28RoundRect,0.250000X0.070711X-0.565685X0.565685X-0.070711X-0.070711X0.565685X-0.565685X0.070711X0*%
%ADD29RoundRect,0.250000X-0.479934X-0.278906X0.113871X-0.543285X0.479934X0.278906X-0.113871X0.543285X0*%
G04 APERTURE END LIST*
D10*
G04 #@! TO.C,BT1*
X124542967Y-69542967D03*
X142857033Y-87857033D03*
D11*
X133700000Y-78700000D03*
G04 #@! TD*
D12*
G04 #@! TO.C,D6*
X171763669Y-111587824D03*
X170289023Y-110163774D03*
G04 #@! TD*
D13*
G04 #@! TO.C,D14*
X178299417Y-128551130D03*
X179748985Y-127101562D03*
G04 #@! TD*
D14*
G04 #@! TO.C,D8*
X175021341Y-116278255D03*
X174027481Y-114485285D03*
G04 #@! TD*
D15*
G04 #@! TO.C,D10*
X166205971Y-104601935D03*
D13*
X168399417Y-106651130D03*
X169848985Y-105201562D03*
D15*
X167799790Y-103008116D03*
G04 #@! TD*
D16*
G04 #@! TO.C,D2*
X117694029Y-63398065D03*
D17*
X115500583Y-61348870D03*
X114051015Y-62798438D03*
D16*
X116100210Y-64991884D03*
G04 #@! TD*
G04 #@! TO.C,D1*
X114094029Y-67198065D03*
D17*
X111900583Y-65148870D03*
X110451015Y-66598438D03*
D16*
X112500210Y-68791884D03*
G04 #@! TD*
D18*
G04 #@! TO.C,C1*
X151533623Y-94833623D03*
X150066377Y-93366377D03*
G04 #@! TD*
D19*
G04 #@! TO.C,H3*
X104600000Y-61600000D03*
G04 #@! TD*
D20*
G04 #@! TO.C,H4*
X113900000Y-52700000D03*
G04 #@! TD*
D15*
G04 #@! TO.C,D11*
X154705971Y-115501935D03*
D13*
X156899417Y-117551130D03*
X158348985Y-116101562D03*
D15*
X156299790Y-113908116D03*
G04 #@! TD*
D21*
G04 #@! TO.C,D7*
X161390393Y-118159373D03*
X162960785Y-119477087D03*
G04 #@! TD*
D22*
G04 #@! TO.C,D9*
X165755053Y-121807341D03*
X167392255Y-123041061D03*
G04 #@! TD*
D23*
G04 #@! TO.C,J1*
X154189393Y-101518504D03*
X150618504Y-105089393D03*
X155985445Y-103314555D03*
X152414555Y-106885445D03*
X157781496Y-105110607D03*
X154210607Y-108681496D03*
G04 #@! TD*
D24*
G04 #@! TO.C,SW1*
X146270925Y-97921177D03*
X144474874Y-96125126D03*
X142678823Y-94329075D03*
G04 #@! TD*
D25*
G04 #@! TO.C,U1*
X150402872Y-90996949D03*
X151300898Y-90098924D03*
X152198924Y-89200898D03*
X153096949Y-88302872D03*
X156597128Y-91803051D03*
X155699102Y-92701076D03*
X154801076Y-93599102D03*
X153903051Y-94497128D03*
G04 #@! TD*
D16*
G04 #@! TO.C,H2*
X160600000Y-129100000D03*
G04 #@! TD*
D26*
G04 #@! TO.C,D12*
X176959611Y-122133012D03*
X176429031Y-120152864D03*
G04 #@! TD*
D16*
G04 #@! TO.C,D3*
X121394029Y-59598065D03*
D17*
X119200583Y-57548870D03*
X117751015Y-58998438D03*
D16*
X119800210Y-61191884D03*
G04 #@! TD*
D27*
G04 #@! TO.C,C2*
X148666377Y-99333623D03*
X150133623Y-97866377D03*
G04 #@! TD*
D15*
G04 #@! TO.C,D5*
X158805971Y-112001935D03*
D13*
X160999417Y-114051130D03*
X162448985Y-112601562D03*
D15*
X160399790Y-110408116D03*
G04 #@! TD*
G04 #@! TO.C,D4*
X162505971Y-108401935D03*
D13*
X164699417Y-110451130D03*
X166148985Y-109001562D03*
D15*
X164099790Y-106808116D03*
G04 #@! TD*
D28*
G04 #@! TO.C,R1*
X150392893Y-101007107D03*
X151807107Y-99592893D03*
G04 #@! TD*
D29*
G04 #@! TO.C,D13*
X171562099Y-125177416D03*
X173434867Y-126011226D03*
G04 #@! TD*
D16*
G04 #@! TO.C,H1*
X180700000Y-109600000D03*
G04 #@! TD*
M02*
