%TF.GenerationSoftware,KiCad,Pcbnew,8.0.2-8.0.2-0~ubuntu22.04.1*%
%TF.CreationDate,2024-05-31T00:17:07+02:00*%
%TF.ProjectId,ctfl-rakete-tht,6374666c-2d72-4616-9b65-74652d746874,rev?*%
%TF.SameCoordinates,Original*%
%TF.FileFunction,Drillmap*%
%TF.FilePolarity,Positive*%
%FSLAX45Y45*%
G04 Gerber Fmt 4.5, Leading zero omitted, Abs format (unit mm)*
G04 Created by KiCad (PCBNEW 8.0.2-8.0.2-0~ubuntu22.04.1) date 2024-05-31 00:17:07*
%MOMM*%
%LPD*%
G01*
G04 APERTURE LIST*
%ADD10C,0.122369*%
%ADD11C,0.200000*%
G04 APERTURE END LIST*
D10*
X11679692Y-5025170D02*
X11689249Y-5027371D01*
X11698600Y-5030577D01*
X11707757Y-5034723D01*
X11716735Y-5039745D01*
X11725547Y-5045579D01*
X11734205Y-5052160D01*
X11742723Y-5059423D01*
X11759394Y-5075743D01*
X11775665Y-5094024D01*
X11791644Y-5113752D01*
X11854755Y-5196852D01*
X11870865Y-5216104D01*
X11887321Y-5233717D01*
X11904229Y-5249179D01*
X11912886Y-5255943D01*
X11921696Y-5261976D01*
X11926875Y-5265238D01*
X11932152Y-5268395D01*
X11937524Y-5271430D01*
X11942982Y-5274328D01*
X11948521Y-5277071D01*
X11954136Y-5279644D01*
X11959819Y-5282030D01*
X11965566Y-5284214D01*
X11971369Y-5286178D01*
X11977223Y-5287907D01*
X11983121Y-5289385D01*
X11989058Y-5290595D01*
X11995028Y-5291521D01*
X12001023Y-5292147D01*
X12007040Y-5292457D01*
X12013070Y-5292434D01*
X12056177Y-5292570D01*
X12098259Y-5295032D01*
X12139290Y-5299784D01*
X12179243Y-5306792D01*
X12218090Y-5316021D01*
X12255805Y-5327435D01*
X12292361Y-5341000D01*
X12327731Y-5356681D01*
X12361888Y-5374443D01*
X12394806Y-5394250D01*
X12426457Y-5416068D01*
X12456815Y-5439862D01*
X12485853Y-5465597D01*
X12513543Y-5493237D01*
X12539860Y-5522749D01*
X12564776Y-5554096D01*
X12592510Y-5589099D01*
X12621866Y-5622570D01*
X12652671Y-5654676D01*
X12684753Y-5685581D01*
X12717940Y-5715450D01*
X12752061Y-5744447D01*
X12822414Y-5800486D01*
X12966760Y-5909355D01*
X13038002Y-5964822D01*
X13072789Y-5993390D01*
X13106790Y-6022734D01*
X13119131Y-6033648D01*
X13131278Y-6044626D01*
X13143294Y-6055734D01*
X13155246Y-6067037D01*
X13167111Y-6078534D01*
X13178782Y-6090227D01*
X13184524Y-6096166D01*
X13190193Y-6102178D01*
X13195781Y-6108272D01*
X13201279Y-6114454D01*
X13206640Y-6120745D01*
X13211846Y-6127142D01*
X13216939Y-6133619D01*
X13221959Y-6140153D01*
X13231943Y-6153295D01*
X13236987Y-6159854D01*
X13242121Y-6166372D01*
X13243943Y-6168703D01*
X13244865Y-6169858D01*
X13245798Y-6171001D01*
X13246748Y-6172128D01*
X13247718Y-6173234D01*
X13248712Y-6174317D01*
X13249735Y-6175371D01*
X13249389Y-6175717D01*
X13259953Y-6187767D01*
X13270826Y-6199566D01*
X13281926Y-6211187D01*
X13293172Y-6222702D01*
X13315778Y-6245708D01*
X13326975Y-6257344D01*
X13337994Y-6269168D01*
X13407823Y-6346784D01*
X13442834Y-6385495D01*
X13478170Y-6423881D01*
X13504302Y-6451137D01*
X13517692Y-6464668D01*
X13524525Y-6471324D01*
X13531472Y-6477875D01*
X13534428Y-6480670D01*
X13537794Y-6483948D01*
X13541492Y-6487445D01*
X13543442Y-6489193D01*
X13545446Y-6490897D01*
X13547495Y-6492524D01*
X13549579Y-6494041D01*
X13551688Y-6495415D01*
X13553812Y-6496614D01*
X13555943Y-6497603D01*
X13557008Y-6498009D01*
X13558070Y-6498350D01*
X13559130Y-6498623D01*
X13560185Y-6498823D01*
X13561234Y-6498946D01*
X13562276Y-6498988D01*
X13565147Y-6498579D01*
X13568362Y-6497451D01*
X13571899Y-6495653D01*
X13575739Y-6493235D01*
X13584249Y-6486733D01*
X13593729Y-6478340D01*
X13614964Y-6457458D01*
X13638162Y-6433745D01*
X13662041Y-6410357D01*
X13673835Y-6399770D01*
X13685320Y-6390448D01*
X13696334Y-6382785D01*
X13701614Y-6379699D01*
X13706717Y-6377176D01*
X13711622Y-6375264D01*
X13716309Y-6374014D01*
X13720758Y-6373474D01*
X13724950Y-6373694D01*
X13734320Y-6376436D01*
X13745898Y-6382143D01*
X13759419Y-6390546D01*
X13774617Y-6401373D01*
X13791227Y-6414353D01*
X13808983Y-6429217D01*
X13846869Y-6463511D01*
X13886150Y-6502088D01*
X13924701Y-6542782D01*
X13960397Y-6583427D01*
X13976510Y-6603055D01*
X13991112Y-6621858D01*
X14010197Y-6646362D01*
X14029379Y-6669470D01*
X14048788Y-6691508D01*
X14068555Y-6712799D01*
X14088808Y-6733669D01*
X14109677Y-6754441D01*
X14153785Y-6796992D01*
X14195838Y-6835583D01*
X14217643Y-6855983D01*
X14227718Y-6865833D01*
X14236853Y-6875214D01*
X14278676Y-6917858D01*
X14321202Y-6959119D01*
X14407530Y-7039228D01*
X14494183Y-7119013D01*
X14537114Y-7159869D01*
X14579505Y-7201945D01*
X15052297Y-7683736D01*
X15052678Y-7684149D01*
X15053044Y-7684608D01*
X15053394Y-7685110D01*
X15053729Y-7685653D01*
X15054049Y-7686233D01*
X15054355Y-7686848D01*
X15054926Y-7688170D01*
X15055443Y-7689598D01*
X15055911Y-7691110D01*
X15056333Y-7692682D01*
X15056710Y-7694292D01*
X15057047Y-7695919D01*
X15057347Y-7697540D01*
X15057846Y-7700674D01*
X15058527Y-7705887D01*
X15058550Y-7706706D01*
X15058429Y-7707663D01*
X15057790Y-7709953D01*
X15056677Y-7712681D01*
X15055158Y-7715768D01*
X15053301Y-7719136D01*
X15051172Y-7722710D01*
X15046370Y-7730158D01*
X15041293Y-7737494D01*
X15036479Y-7744095D01*
X15032468Y-7749341D01*
X15029800Y-7752612D01*
X14995535Y-7792070D01*
X14987841Y-7801265D01*
X14981615Y-7809170D01*
X14979227Y-7812479D01*
X14977417Y-7815274D01*
X14976253Y-7817491D01*
X14975936Y-7818363D01*
X14975807Y-7819066D01*
X14962394Y-7846409D01*
X14960570Y-7851573D01*
X14959799Y-7854219D01*
X14959143Y-7856896D01*
X14958618Y-7859594D01*
X14958240Y-7862307D01*
X14958027Y-7865025D01*
X14957992Y-7867739D01*
X14958154Y-7870441D01*
X14958527Y-7873122D01*
X14959128Y-7875773D01*
X14959973Y-7878387D01*
X14961078Y-7880954D01*
X14962460Y-7883466D01*
X14964133Y-7885914D01*
X14966115Y-7888289D01*
X14968884Y-7891586D01*
X14971844Y-7895326D01*
X14978197Y-7903832D01*
X14991641Y-7922814D01*
X14998164Y-7932074D01*
X15004177Y-7940369D01*
X15009394Y-7947089D01*
X15011616Y-7949670D01*
X15013533Y-7951628D01*
X15026750Y-7963875D01*
X15036268Y-7973477D01*
X15043612Y-7981781D01*
X15050307Y-7990133D01*
X15057879Y-7999881D01*
X15067851Y-8012371D01*
X15081750Y-8028949D01*
X15101099Y-8050963D01*
X15144537Y-8099765D01*
X15169338Y-8127573D01*
X15183821Y-8143375D01*
X15347532Y-8309856D01*
X15356584Y-8317045D01*
X15367230Y-8326473D01*
X15392392Y-8350832D01*
X15421180Y-8380522D01*
X15451756Y-8413128D01*
X15510926Y-8477435D01*
X15535844Y-8504309D01*
X15555201Y-8524446D01*
X15563697Y-8533383D01*
X15573117Y-8544034D01*
X15594107Y-8569333D01*
X15640345Y-8627848D01*
X15663112Y-8656457D01*
X15683988Y-8681561D01*
X15693329Y-8692079D01*
X15701733Y-8700857D01*
X15709043Y-8707607D01*
X15715106Y-8712041D01*
X15755209Y-8735926D01*
X15789568Y-8757509D01*
X15818921Y-8777224D01*
X15844006Y-8795503D01*
X15865560Y-8812777D01*
X15884321Y-8829481D01*
X15901027Y-8846045D01*
X15916414Y-8862903D01*
X15931222Y-8880487D01*
X15946187Y-8899229D01*
X15979542Y-8941919D01*
X15999407Y-8966732D01*
X16022380Y-8994433D01*
X16049199Y-9025456D01*
X16080602Y-9060231D01*
X16083428Y-9063269D01*
X16086076Y-9066043D01*
X16090910Y-9070906D01*
X16095240Y-9075040D01*
X16099206Y-9078662D01*
X16106593Y-9085249D01*
X16110291Y-9088652D01*
X16114175Y-9092420D01*
X16246316Y-9228060D01*
X16374377Y-9365038D01*
X16624780Y-9640059D01*
X16750383Y-9776624D01*
X16878428Y-9911574D01*
X17010545Y-10044173D01*
X17148365Y-10173680D01*
X17178466Y-10200165D01*
X17208810Y-10225441D01*
X17239404Y-10249623D01*
X17270257Y-10272826D01*
X17332766Y-10316746D01*
X17396399Y-10358116D01*
X17461216Y-10397846D01*
X17527279Y-10436851D01*
X17663383Y-10516333D01*
X17742617Y-10565500D01*
X17819989Y-10618010D01*
X17895448Y-10673693D01*
X17968942Y-10732379D01*
X18040417Y-10793898D01*
X18109823Y-10858080D01*
X18177106Y-10924755D01*
X18242215Y-10993754D01*
X18305097Y-11064907D01*
X18365700Y-11138044D01*
X18423972Y-11212995D01*
X18479860Y-11289590D01*
X18533313Y-11367659D01*
X18584277Y-11447033D01*
X18632702Y-11527542D01*
X18678535Y-11609015D01*
X18700402Y-11650070D01*
X18721669Y-11691433D01*
X18742417Y-11733056D01*
X18762727Y-11774890D01*
X18802357Y-11858996D01*
X18841208Y-11943361D01*
X19281465Y-12901404D01*
X19352526Y-13056691D01*
X19387376Y-13134703D01*
X19421382Y-13213080D01*
X19454252Y-13291912D01*
X19485694Y-13371287D01*
X19515416Y-13451295D01*
X19543127Y-13532025D01*
X19557108Y-13575973D01*
X19570545Y-13620067D01*
X19596082Y-13708628D01*
X19620320Y-13797580D01*
X19643846Y-13886791D01*
X19845284Y-14528486D01*
X19860537Y-14583178D01*
X19876716Y-14635435D01*
X19910353Y-14736154D01*
X19927067Y-14786368D01*
X19943213Y-14837652D01*
X19958417Y-14890884D01*
X19965550Y-14918503D01*
X19972308Y-14946938D01*
X19646601Y-14832107D01*
X19322366Y-14713209D01*
X18999647Y-14590262D01*
X18678491Y-14463287D01*
X18358940Y-14332306D01*
X18041041Y-14197337D01*
X17724837Y-14058401D01*
X17410372Y-13915519D01*
X17201752Y-13817536D01*
X17098213Y-13766983D01*
X16995468Y-13714946D01*
X16893730Y-13661091D01*
X16793208Y-13605087D01*
X16694114Y-13546600D01*
X16596658Y-13485299D01*
X16513470Y-13429497D01*
X16431892Y-13371411D01*
X16351977Y-13311095D01*
X16273777Y-13248600D01*
X16197346Y-13183980D01*
X16122736Y-13117288D01*
X16050000Y-13048575D01*
X15979191Y-12977896D01*
X15919854Y-12916209D01*
X15861296Y-12853143D01*
X15804749Y-12788293D01*
X15777616Y-12755072D01*
X15751448Y-12721252D01*
X15726399Y-12686784D01*
X15702624Y-12651616D01*
X15680277Y-12615697D01*
X15659511Y-12578978D01*
X15640482Y-12541407D01*
X15623343Y-12502933D01*
X15608247Y-12463506D01*
X15595351Y-12423075D01*
X15555850Y-12278616D01*
X15545012Y-12242856D01*
X15533098Y-12207505D01*
X15526631Y-12190026D01*
X15519766Y-12172699D01*
X15512459Y-12155541D01*
X15504668Y-12138569D01*
X15494447Y-12118269D01*
X15483543Y-12098367D01*
X15472005Y-12078841D01*
X15459879Y-12059666D01*
X15447214Y-12040820D01*
X15434057Y-12022279D01*
X15406459Y-11986020D01*
X15377465Y-11950701D01*
X15347457Y-11916137D01*
X15285924Y-11848526D01*
X14522051Y-11020967D01*
X14493744Y-10989669D01*
X14464715Y-10956709D01*
X14404977Y-10888492D01*
X14374513Y-10854582D01*
X14343813Y-10821703D01*
X14312999Y-10790526D01*
X14282193Y-10761727D01*
X14278783Y-10758620D01*
X14275292Y-10755562D01*
X14271704Y-10752601D01*
X14269868Y-10751172D01*
X14268002Y-10749786D01*
X14266104Y-10748449D01*
X14264171Y-10747166D01*
X14262201Y-10745944D01*
X14260193Y-10744789D01*
X14258144Y-10743707D01*
X14256053Y-10742704D01*
X14253917Y-10741786D01*
X14251735Y-10740960D01*
X14248612Y-10740024D01*
X14245474Y-10739282D01*
X14242322Y-10738717D01*
X14239156Y-10738310D01*
X14235978Y-10738046D01*
X14232790Y-10737906D01*
X14229591Y-10737874D01*
X14226383Y-10737932D01*
X14223166Y-10738063D01*
X14219943Y-10738250D01*
X14213479Y-10738722D01*
X14206999Y-10739210D01*
X14200511Y-10739576D01*
X14192031Y-10739769D01*
X14183658Y-10739518D01*
X14175390Y-10738837D01*
X14167223Y-10737745D01*
X14151183Y-10734395D01*
X14135517Y-10729604D01*
X14120204Y-10723506D01*
X14105222Y-10716238D01*
X14090551Y-10707935D01*
X14076169Y-10698735D01*
X14062055Y-10688771D01*
X14048187Y-10678182D01*
X14034544Y-10667101D01*
X14021105Y-10655665D01*
X13968960Y-10609091D01*
X13924930Y-10569063D01*
X13903071Y-10548386D01*
X13881561Y-10527230D01*
X13860585Y-10505569D01*
X13840326Y-10483377D01*
X13820968Y-10460626D01*
X13802696Y-10437289D01*
X13785693Y-10413340D01*
X13770144Y-10388751D01*
X13756233Y-10363496D01*
X13744143Y-10337549D01*
X13734059Y-10310881D01*
X13729827Y-10297268D01*
X13726165Y-10283466D01*
X13723096Y-10269470D01*
X13720644Y-10255278D01*
X13718832Y-10240885D01*
X13717681Y-10226289D01*
X13694145Y-10109302D01*
X13693273Y-10097646D01*
X13691970Y-10086040D01*
X13690259Y-10074486D01*
X13688164Y-10062988D01*
X13685708Y-10051546D01*
X13682914Y-10040163D01*
X13679806Y-10028841D01*
X13676407Y-10017582D01*
X13672740Y-10006388D01*
X13668829Y-9995260D01*
X13660367Y-9973214D01*
X13651207Y-9951460D01*
X13641536Y-9930015D01*
X13606240Y-9856055D01*
X13568593Y-9783068D01*
X13548749Y-9747132D01*
X13528154Y-9711671D01*
X13506751Y-9676762D01*
X13484487Y-9642481D01*
X13461306Y-9608906D01*
X13437153Y-9576114D01*
X13411974Y-9544181D01*
X13385715Y-9513186D01*
X13358319Y-9483204D01*
X13329733Y-9454314D01*
X13299902Y-9426592D01*
X13268771Y-9400115D01*
X11823745Y-8038848D01*
X11810202Y-8042429D01*
X11796696Y-8045509D01*
X11783226Y-8048083D01*
X11769789Y-8050145D01*
X11756383Y-8051691D01*
X11743004Y-8052713D01*
X11729651Y-8053208D01*
X11716320Y-8053168D01*
X11703010Y-8052589D01*
X11689717Y-8051466D01*
X11676440Y-8049791D01*
X11663175Y-8047560D01*
X11649921Y-8044768D01*
X11636674Y-8041408D01*
X11623432Y-8037475D01*
X11610193Y-8032964D01*
X11595735Y-8027406D01*
X11581552Y-8021272D01*
X11567629Y-8014602D01*
X11553949Y-8007438D01*
X11540497Y-7999820D01*
X11527255Y-7991787D01*
X11514209Y-7983382D01*
X11501340Y-7974644D01*
X11476074Y-7956332D01*
X11451327Y-7937177D01*
X11402871Y-7897633D01*
X11082023Y-7630780D01*
X11067188Y-7618248D01*
X11052441Y-7605481D01*
X11038036Y-7592341D01*
X11031039Y-7585588D01*
X11024222Y-7578690D01*
X11017616Y-7571629D01*
X11011252Y-7564389D01*
X11005162Y-7556953D01*
X10999378Y-7549302D01*
X10993930Y-7541421D01*
X10988850Y-7533290D01*
X10984169Y-7524895D01*
X10979920Y-7516216D01*
X10968929Y-7530054D01*
X10957637Y-7543660D01*
X10946049Y-7557027D01*
X10934173Y-7570150D01*
X10909582Y-7595643D01*
X10883916Y-7620093D01*
X10857228Y-7643457D01*
X10829571Y-7665689D01*
X10800997Y-7686744D01*
X10771559Y-7706579D01*
X10766477Y-7709794D01*
X10761343Y-7712901D01*
X10758750Y-7714389D01*
X10756136Y-7715820D01*
X10753499Y-7717186D01*
X10750835Y-7718476D01*
X10748144Y-7719681D01*
X10745421Y-7720792D01*
X10742665Y-7721797D01*
X10739873Y-7722689D01*
X10737043Y-7723457D01*
X10734171Y-7724092D01*
X10731256Y-7724584D01*
X10728295Y-7724923D01*
X10723582Y-7725163D01*
X10718919Y-7724992D01*
X10714308Y-7724440D01*
X10709751Y-7723533D01*
X10705248Y-7722299D01*
X10700801Y-7720767D01*
X10696412Y-7718965D01*
X10692083Y-7716919D01*
X10687814Y-7714658D01*
X10683608Y-7712211D01*
X10679465Y-7709604D01*
X10675388Y-7706865D01*
X10667436Y-7701106D01*
X10659764Y-7695157D01*
X10622817Y-7665218D01*
X10584134Y-7632247D01*
X10544292Y-7596821D01*
X10503867Y-7559518D01*
X10423576Y-7481589D01*
X10384862Y-7442118D01*
X10347872Y-7403080D01*
X10313182Y-7365052D01*
X10281368Y-7328611D01*
X10253006Y-7294335D01*
X10228674Y-7262801D01*
X10208947Y-7234587D01*
X10194402Y-7210271D01*
X10185616Y-7190429D01*
X10183563Y-7182367D01*
X10183165Y-7175640D01*
X10189679Y-7160949D01*
X10198087Y-7145368D01*
X10208242Y-7128997D01*
X10219994Y-7111933D01*
X10233194Y-7094278D01*
X10247693Y-7076129D01*
X10279991Y-7038752D01*
X10315696Y-7000595D01*
X10353616Y-6962455D01*
X10392558Y-6925126D01*
X10431329Y-6889404D01*
X10166552Y-6585862D01*
X10155229Y-6573973D01*
X10143979Y-6561883D01*
X10133004Y-6549516D01*
X10127684Y-6543206D01*
X10122509Y-6536800D01*
X10117504Y-6530289D01*
X10112695Y-6523663D01*
X10108106Y-6516913D01*
X10103765Y-6510030D01*
X10099694Y-6503006D01*
X10095922Y-6495830D01*
X10092471Y-6488494D01*
X10089368Y-6480989D01*
X10086738Y-6473214D01*
X10084569Y-6465236D01*
X10082876Y-6457106D01*
X10081673Y-6448871D01*
X10080974Y-6440581D01*
X10080796Y-6432286D01*
X10081152Y-6424035D01*
X10082057Y-6415876D01*
X10083525Y-6407860D01*
X10085573Y-6400034D01*
X10088213Y-6392449D01*
X10089760Y-6388762D01*
X10091461Y-6385153D01*
X10093318Y-6381630D01*
X10095332Y-6378196D01*
X10097506Y-6374860D01*
X10099840Y-6371627D01*
X10102338Y-6368504D01*
X10105001Y-6365495D01*
X10107830Y-6362608D01*
X10110827Y-6359849D01*
X10113353Y-6357657D01*
X10115972Y-6355484D01*
X10121357Y-6351148D01*
X10126701Y-6346738D01*
X10129270Y-6344474D01*
X10131724Y-6342154D01*
X10134028Y-6339765D01*
X10136147Y-6337294D01*
X10138046Y-6334729D01*
X10138902Y-6333407D01*
X10139690Y-6332057D01*
X10140406Y-6330677D01*
X10141044Y-6329266D01*
X10141601Y-6327821D01*
X10142073Y-6326342D01*
X10142455Y-6324826D01*
X10142742Y-6323273D01*
X10142931Y-6321680D01*
X10143016Y-6320046D01*
X10143019Y-6318918D01*
X10142966Y-6317803D01*
X10142858Y-6316702D01*
X10142698Y-6315615D01*
X10142227Y-6313481D01*
X10141572Y-6311399D01*
X10140748Y-6309367D01*
X10139773Y-6307385D01*
X10138663Y-6305451D01*
X10137435Y-6303562D01*
X10136105Y-6301719D01*
X10134691Y-6299918D01*
X10133209Y-6298159D01*
X10131675Y-6296440D01*
X10128522Y-6293116D01*
X10125364Y-6289934D01*
X10108556Y-6273330D01*
X10091878Y-6256394D01*
X10075718Y-6238986D01*
X10067955Y-6230063D01*
X10060468Y-6220971D01*
X10053305Y-6211692D01*
X10046515Y-6202209D01*
X10040147Y-6192505D01*
X10034250Y-6182563D01*
X10028871Y-6172365D01*
X10024061Y-6161895D01*
X10019867Y-6151135D01*
X10016338Y-6140067D01*
X10013948Y-6130486D01*
X10012218Y-6120840D01*
X10011130Y-6111153D01*
X10010666Y-6101447D01*
X10010809Y-6091748D01*
X10011540Y-6082078D01*
X10012843Y-6072461D01*
X10014700Y-6062921D01*
X10017092Y-6053482D01*
X10020003Y-6044168D01*
X10023414Y-6035003D01*
X10027308Y-6026009D01*
X10031667Y-6017212D01*
X10036474Y-6008634D01*
X10041710Y-6000300D01*
X10047359Y-5992233D01*
X10053402Y-5984457D01*
X10059822Y-5976996D01*
X10066601Y-5969873D01*
X10073721Y-5963113D01*
X10081165Y-5956738D01*
X10088915Y-5950774D01*
X10096953Y-5945243D01*
X10105263Y-5940170D01*
X10113825Y-5935578D01*
X10122622Y-5931490D01*
X10131637Y-5927931D01*
X10140852Y-5924925D01*
X10150249Y-5922495D01*
X10159811Y-5920665D01*
X10169520Y-5919459D01*
X10179358Y-5918900D01*
X10188768Y-5918944D01*
X10198176Y-5919416D01*
X10207581Y-5920239D01*
X10216982Y-5921339D01*
X10235763Y-5924065D01*
X10254508Y-5926990D01*
X10263863Y-5928339D01*
X10273204Y-5929510D01*
X10282530Y-5930429D01*
X10291840Y-5931019D01*
X10301131Y-5931206D01*
X10310402Y-5930915D01*
X10319652Y-5930068D01*
X10324269Y-5929413D01*
X10328879Y-5928591D01*
X10338965Y-5926118D01*
X10348724Y-5922888D01*
X10358171Y-5918957D01*
X10367320Y-5914379D01*
X10376184Y-5909208D01*
X10384779Y-5903501D01*
X10393119Y-5897310D01*
X10401217Y-5890692D01*
X10409088Y-5883700D01*
X10416746Y-5876390D01*
X10424206Y-5868817D01*
X10431480Y-5861034D01*
X10445533Y-5845061D01*
X10459018Y-5828910D01*
X10682262Y-5559288D01*
X10674950Y-5551216D01*
X10668269Y-5543336D01*
X10662129Y-5535622D01*
X10656438Y-5528046D01*
X10646043Y-5513201D01*
X10636358Y-5498588D01*
X10626657Y-5483991D01*
X10616213Y-5469195D01*
X10610486Y-5461656D01*
X10604301Y-5453986D01*
X10597568Y-5446159D01*
X10590195Y-5438148D01*
X10585017Y-5432380D01*
X10579873Y-5426029D01*
X10574773Y-5419168D01*
X10569726Y-5411870D01*
X10564742Y-5404209D01*
X10559830Y-5396259D01*
X10550262Y-5379784D01*
X10541100Y-5363034D01*
X10532421Y-5346595D01*
X10516819Y-5317008D01*
X10510271Y-5304479D01*
X10504376Y-5292056D01*
X10499123Y-5279715D01*
X10494500Y-5267433D01*
X10490496Y-5255184D01*
X10487098Y-5242947D01*
X10484296Y-5230696D01*
X10482078Y-5218409D01*
X10480431Y-5206060D01*
X10479345Y-5193627D01*
X10478807Y-5181085D01*
X10478806Y-5168411D01*
X10479330Y-5155581D01*
X10480368Y-5142571D01*
X10481908Y-5129357D01*
X10483938Y-5115916D01*
X10537914Y-5139312D01*
X10590871Y-5164334D01*
X10616873Y-5177578D01*
X10642506Y-5191376D01*
X10667733Y-5205777D01*
X10692515Y-5220831D01*
X10716815Y-5236587D01*
X10740593Y-5253094D01*
X10763813Y-5270400D01*
X10786437Y-5288556D01*
X10808425Y-5307611D01*
X10829741Y-5327612D01*
X10850345Y-5348611D01*
X10870202Y-5370656D01*
X10965404Y-5308980D01*
X11058136Y-5252095D01*
X11104061Y-5225526D01*
X11149952Y-5200248D01*
X11196001Y-5176291D01*
X11242404Y-5153685D01*
X11289354Y-5132463D01*
X11337046Y-5112655D01*
X11385674Y-5094292D01*
X11435433Y-5077405D01*
X11486515Y-5062025D01*
X11539116Y-5048182D01*
X11593430Y-5035908D01*
X11649650Y-5025234D01*
X11659906Y-5024037D01*
X11669916Y-5024037D01*
X11679692Y-5025170D01*
D11*
X10265324Y-15264540D02*
X10265324Y-15064540D01*
X10265324Y-15064540D02*
X10312943Y-15064540D01*
X10312943Y-15064540D02*
X10341515Y-15074064D01*
X10341515Y-15074064D02*
X10360562Y-15093111D01*
X10360562Y-15093111D02*
X10370086Y-15112159D01*
X10370086Y-15112159D02*
X10379610Y-15150254D01*
X10379610Y-15150254D02*
X10379610Y-15178826D01*
X10379610Y-15178826D02*
X10370086Y-15216921D01*
X10370086Y-15216921D02*
X10360562Y-15235969D01*
X10360562Y-15235969D02*
X10341515Y-15255016D01*
X10341515Y-15255016D02*
X10312943Y-15264540D01*
X10312943Y-15264540D02*
X10265324Y-15264540D01*
X10465324Y-15264540D02*
X10465324Y-15131207D01*
X10465324Y-15169302D02*
X10474848Y-15150254D01*
X10474848Y-15150254D02*
X10484372Y-15140730D01*
X10484372Y-15140730D02*
X10503420Y-15131207D01*
X10503420Y-15131207D02*
X10522467Y-15131207D01*
X10589134Y-15264540D02*
X10589134Y-15131207D01*
X10589134Y-15064540D02*
X10579610Y-15074064D01*
X10579610Y-15074064D02*
X10589134Y-15083588D01*
X10589134Y-15083588D02*
X10598658Y-15074064D01*
X10598658Y-15074064D02*
X10589134Y-15064540D01*
X10589134Y-15064540D02*
X10589134Y-15083588D01*
X10712943Y-15264540D02*
X10693896Y-15255016D01*
X10693896Y-15255016D02*
X10684372Y-15235969D01*
X10684372Y-15235969D02*
X10684372Y-15064540D01*
X10817705Y-15264540D02*
X10798658Y-15255016D01*
X10798658Y-15255016D02*
X10789134Y-15235969D01*
X10789134Y-15235969D02*
X10789134Y-15064540D01*
X11046277Y-15264540D02*
X11046277Y-15064540D01*
X11046277Y-15064540D02*
X11112943Y-15207397D01*
X11112943Y-15207397D02*
X11179610Y-15064540D01*
X11179610Y-15064540D02*
X11179610Y-15264540D01*
X11360562Y-15264540D02*
X11360562Y-15159778D01*
X11360562Y-15159778D02*
X11351039Y-15140730D01*
X11351039Y-15140730D02*
X11331991Y-15131207D01*
X11331991Y-15131207D02*
X11293896Y-15131207D01*
X11293896Y-15131207D02*
X11274848Y-15140730D01*
X11360562Y-15255016D02*
X11341515Y-15264540D01*
X11341515Y-15264540D02*
X11293896Y-15264540D01*
X11293896Y-15264540D02*
X11274848Y-15255016D01*
X11274848Y-15255016D02*
X11265324Y-15235969D01*
X11265324Y-15235969D02*
X11265324Y-15216921D01*
X11265324Y-15216921D02*
X11274848Y-15197873D01*
X11274848Y-15197873D02*
X11293896Y-15188350D01*
X11293896Y-15188350D02*
X11341515Y-15188350D01*
X11341515Y-15188350D02*
X11360562Y-15178826D01*
X11455800Y-15131207D02*
X11455800Y-15331207D01*
X11455800Y-15140730D02*
X11474848Y-15131207D01*
X11474848Y-15131207D02*
X11512943Y-15131207D01*
X11512943Y-15131207D02*
X11531991Y-15140730D01*
X11531991Y-15140730D02*
X11541515Y-15150254D01*
X11541515Y-15150254D02*
X11551039Y-15169302D01*
X11551039Y-15169302D02*
X11551039Y-15226445D01*
X11551039Y-15226445D02*
X11541515Y-15245492D01*
X11541515Y-15245492D02*
X11531991Y-15255016D01*
X11531991Y-15255016D02*
X11512943Y-15264540D01*
X11512943Y-15264540D02*
X11474848Y-15264540D01*
X11474848Y-15264540D02*
X11455800Y-15255016D01*
X11636753Y-15245492D02*
X11646277Y-15255016D01*
X11646277Y-15255016D02*
X11636753Y-15264540D01*
X11636753Y-15264540D02*
X11627229Y-15255016D01*
X11627229Y-15255016D02*
X11636753Y-15245492D01*
X11636753Y-15245492D02*
X11636753Y-15264540D01*
X11636753Y-15140730D02*
X11646277Y-15150254D01*
X11646277Y-15150254D02*
X11636753Y-15159778D01*
X11636753Y-15159778D02*
X11627229Y-15150254D01*
X11627229Y-15150254D02*
X11636753Y-15140730D01*
X11636753Y-15140730D02*
X11636753Y-15159778D01*
M02*
