G04 #@! TF.GenerationSoftware,KiCad,Pcbnew,8.0.2-8.0.2-0~ubuntu22.04.1*
G04 #@! TF.CreationDate,2024-05-31T00:16:28+02:00*
G04 #@! TF.ProjectId,ctfl-rakete-tht,6374666c-2d72-4616-9b65-74652d746874,rev?*
G04 #@! TF.SameCoordinates,Original*
G04 #@! TF.FileFunction,Copper,L2,Bot*
G04 #@! TF.FilePolarity,Positive*
%FSLAX46Y46*%
G04 Gerber Fmt 4.6, Leading zero omitted, Abs format (unit mm)*
G04 Created by KiCad (PCBNEW 8.0.2-8.0.2-0~ubuntu22.04.1) date 2024-05-31 00:16:28*
%MOMM*%
%LPD*%
G01*
G04 APERTURE LIST*
G04 Aperture macros list*
%AMRoundRect*
0 Rectangle with rounded corners*
0 $1 Rounding radius*
0 $2 $3 $4 $5 $6 $7 $8 $9 X,Y pos of 4 corners*
0 Add a 4 corners polygon primitive as box body*
4,1,4,$2,$3,$4,$5,$6,$7,$8,$9,$2,$3,0*
0 Add four circle primitives for the rounded corners*
1,1,$1+$1,$2,$3*
1,1,$1+$1,$4,$5*
1,1,$1+$1,$6,$7*
1,1,$1+$1,$8,$9*
0 Add four rect primitives between the rounded corners*
20,1,$1+$1,$2,$3,$4,$5,0*
20,1,$1+$1,$4,$5,$6,$7,0*
20,1,$1+$1,$6,$7,$8,$9,0*
20,1,$1+$1,$8,$9,$2,$3,0*%
%AMRotRect*
0 Rectangle, with rotation*
0 The origin of the aperture is its center*
0 $1 length*
0 $2 width*
0 $3 Rotation angle, in degrees counterclockwise*
0 Add horizontal line*
21,1,$1,$2,0,0,$3*%
%AMFreePoly0*
4,1,19,0.499999,-0.750000,0.000000,-0.750000,0.000000,-0.744912,-0.071157,-0.744911,-0.207708,-0.704816,-0.327430,-0.627875,-0.420627,-0.520320,-0.479746,-0.390866,-0.500000,-0.250000,-0.500000,0.250000,-0.479746,0.390866,-0.420627,0.520320,-0.327430,0.627875,-0.207708,0.704816,-0.071157,0.744911,0.000000,0.744912,0.000000,0.750000,0.499999,0.750000,0.499999,-0.750000,0.499999,-0.750000,
$1*%
%AMFreePoly1*
4,1,19,0.000000,0.744912,0.071157,0.744911,0.207708,0.704816,0.327430,0.627875,0.420627,0.520320,0.479746,0.390866,0.500000,0.250000,0.500000,-0.250000,0.479746,-0.390866,0.420627,-0.520320,0.327430,-0.627875,0.207708,-0.704816,0.071157,-0.744911,0.000000,-0.744912,0.000000,-0.750000,-0.499999,-0.750000,-0.499999,0.750000,0.000000,0.750000,0.000000,0.744912,0.000000,0.744912,
$1*%
G04 Aperture macros list end*
%ADD10C,0.200000*%
G04 #@! TA.AperFunction,NonConductor*
%ADD11C,0.200000*%
G04 #@! TD*
G04 #@! TA.AperFunction,SMDPad,CuDef*
%ADD12RotRect,5.000000X5.000000X315.000000*%
G04 #@! TD*
G04 #@! TA.AperFunction,SMDPad,CuDef*
%ADD13RotRect,4.000000X4.000000X315.000000*%
G04 #@! TD*
G04 #@! TA.AperFunction,SMDPad,CuDef*
%ADD14RoundRect,0.250000X0.546382X0.097939X0.078811X0.549467X-0.546382X-0.097939X-0.078811X-0.549467X0*%
G04 #@! TD*
G04 #@! TA.AperFunction,SMDPad,CuDef*
%ADD15FreePoly0,315.000000*%
G04 #@! TD*
G04 #@! TA.AperFunction,SMDPad,CuDef*
%ADD16FreePoly1,315.000000*%
G04 #@! TD*
G04 #@! TA.AperFunction,SMDPad,CuDef*
%ADD17FreePoly0,45.000000*%
G04 #@! TD*
G04 #@! TA.AperFunction,SMDPad,CuDef*
%ADD18FreePoly1,45.000000*%
G04 #@! TD*
G04 #@! TA.AperFunction,SMDPad,CuDef*
%ADD19RoundRect,0.250000X0.088388X-0.548008X0.548008X-0.088388X-0.088388X0.548008X-0.548008X0.088388X0*%
G04 #@! TD*
G04 #@! TA.AperFunction,SMDPad,CuDef*
%ADD20RoundRect,0.250000X0.574524X0.097227X0.097227X0.574524X-0.574524X-0.097227X-0.097227X-0.574524X0*%
G04 #@! TD*
G04 #@! TA.AperFunction,SMDPad,CuDef*
%ADD21RoundRect,0.250000X0.551142X-0.066087X0.236016X0.502416X-0.551142X0.066087X-0.236016X-0.502416X0*%
G04 #@! TD*
G04 #@! TA.AperFunction,SMDPad,CuDef*
%ADD22RoundRect,0.375000X0.883883X-1.414214X1.414214X-0.883883X-0.883883X1.414214X-1.414214X0.883883X0*%
G04 #@! TD*
G04 #@! TA.AperFunction,SMDPad,CuDef*
%ADD23RoundRect,0.375000X-0.883883X1.414214X-1.414214X0.883883X0.883883X-1.414214X1.414214X-0.883883X0*%
G04 #@! TD*
G04 #@! TA.AperFunction,SMDPad,CuDef*
%ADD24RoundRect,0.250000X-0.088388X0.548008X-0.548008X0.088388X0.088388X-0.548008X0.548008X-0.088388X0*%
G04 #@! TD*
G04 #@! TA.AperFunction,SMDPad,CuDef*
%ADD25RoundRect,0.375000X-1.026620X-1.314268X-0.346889X-1.631232X1.026620X1.314268X0.346889X1.631232X0*%
G04 #@! TD*
G04 #@! TA.AperFunction,SMDPad,CuDef*
%ADD26RoundRect,0.375000X-1.631232X-0.346889X-1.314268X-1.026620X1.631232X0.346889X1.314268X1.026620X0*%
G04 #@! TD*
G04 #@! TA.AperFunction,SMDPad,CuDef*
%ADD27RoundRect,0.250000X-0.538219X-0.135814X-0.040290X-0.553626X0.538219X0.135814X0.040290X0.553626X0*%
G04 #@! TD*
G04 #@! TA.AperFunction,SMDPad,CuDef*
%ADD28RoundRect,0.250000X-0.530373X-0.163796X-0.011260X-0.554976X0.530373X0.163796X0.011260X0.554976X0*%
G04 #@! TD*
G04 #@! TA.AperFunction,SMDPad,CuDef*
%ADD29RotRect,3.150000X1.000000X225.000000*%
G04 #@! TD*
G04 #@! TA.AperFunction,SMDPad,CuDef*
%ADD30RoundRect,0.200000X1.131371X0.707107X0.707107X1.131371X-1.131371X-0.707107X-0.707107X-1.131371X0*%
G04 #@! TD*
G04 #@! TA.AperFunction,SMDPad,CuDef*
%ADD31RoundRect,0.150000X-0.689429X0.477297X0.477297X-0.689429X0.689429X-0.477297X-0.477297X0.689429X0*%
G04 #@! TD*
G04 #@! TA.AperFunction,SMDPad,CuDef*
%ADD32RoundRect,0.250000X0.518783X-0.197457X0.350550X0.430394X-0.518783X0.197457X-0.350550X-0.430394X0*%
G04 #@! TD*
G04 #@! TA.AperFunction,SMDPad,CuDef*
%ADD33RoundRect,0.250000X0.097227X-0.574524X0.574524X-0.097227X-0.097227X0.574524X-0.574524X0.097227X0*%
G04 #@! TD*
G04 #@! TA.AperFunction,SMDPad,CuDef*
%ADD34RoundRect,0.250000X0.070711X-0.565685X0.565685X-0.070711X-0.070711X0.565685X-0.565685X0.070711X0*%
G04 #@! TD*
G04 #@! TA.AperFunction,SMDPad,CuDef*
%ADD35RoundRect,0.250000X-0.479934X-0.278906X0.113871X-0.543285X0.479934X0.278906X-0.113871X0.543285X0*%
G04 #@! TD*
G04 #@! TA.AperFunction,Conductor*
%ADD36C,0.200000*%
G04 #@! TD*
G04 APERTURE END LIST*
D10*
D11*
X142734479Y-74648941D02*
X142768150Y-74749956D01*
X142768150Y-74749956D02*
X142902838Y-74884643D01*
X142902838Y-74884643D02*
X143003853Y-74918315D01*
X143003853Y-74918315D02*
X143071196Y-74918315D01*
X143071196Y-74918315D02*
X143172212Y-74884643D01*
X143172212Y-74884643D02*
X143374242Y-74682612D01*
X143374242Y-74682612D02*
X143407914Y-74581597D01*
X143407914Y-74581597D02*
X143407914Y-74514254D01*
X143407914Y-74514254D02*
X143374242Y-74413238D01*
X143374242Y-74413238D02*
X143239555Y-74278551D01*
X143239555Y-74278551D02*
X143138540Y-74244880D01*
X142970181Y-74009177D02*
X142700807Y-73739803D01*
X143104868Y-73672460D02*
X142498776Y-74278551D01*
X142498776Y-74278551D02*
X142397761Y-74312223D01*
X142397761Y-74312223D02*
X142296746Y-74278551D01*
X142296746Y-74278551D02*
X142229402Y-74211208D01*
X142566120Y-73605116D02*
X142296746Y-73335742D01*
X141993700Y-73975505D02*
X142599791Y-73369414D01*
X142599791Y-73369414D02*
X142633463Y-73268398D01*
X142633463Y-73268398D02*
X142599791Y-73167383D01*
X142599791Y-73167383D02*
X142532448Y-73100040D01*
X141488623Y-73470429D02*
X141589638Y-73504100D01*
X141589638Y-73504100D02*
X141690654Y-73470429D01*
X141690654Y-73470429D02*
X142296745Y-72864337D01*
X141488623Y-72931680D02*
X140949875Y-72392932D01*
X140343784Y-72325589D02*
X140815188Y-71854184D01*
X140680501Y-71988871D02*
X140714173Y-71887856D01*
X140714173Y-71887856D02*
X140714173Y-71820513D01*
X140714173Y-71820513D02*
X140680501Y-71719497D01*
X140680501Y-71719497D02*
X140613158Y-71652154D01*
X139603005Y-71584810D02*
X139973394Y-71214421D01*
X139973394Y-71214421D02*
X140074409Y-71180749D01*
X140074409Y-71180749D02*
X140175424Y-71214421D01*
X140175424Y-71214421D02*
X140310111Y-71349108D01*
X140310111Y-71349108D02*
X140343783Y-71450123D01*
X139636676Y-71551138D02*
X139670348Y-71652154D01*
X139670348Y-71652154D02*
X139838707Y-71820512D01*
X139838707Y-71820512D02*
X139939722Y-71854184D01*
X139939722Y-71854184D02*
X140040737Y-71820512D01*
X140040737Y-71820512D02*
X140108081Y-71753169D01*
X140108081Y-71753169D02*
X140141753Y-71652154D01*
X140141753Y-71652154D02*
X140108081Y-71551138D01*
X140108081Y-71551138D02*
X139939722Y-71382780D01*
X139939722Y-71382780D02*
X139906050Y-71281764D01*
X139266287Y-71248093D02*
X139973394Y-70540986D01*
X139468318Y-70911375D02*
X138996913Y-70978718D01*
X139468318Y-70507314D02*
X139468318Y-71046062D01*
X138458165Y-70372627D02*
X138491837Y-70473642D01*
X138491837Y-70473642D02*
X138626524Y-70608329D01*
X138626524Y-70608329D02*
X138727539Y-70642001D01*
X138727539Y-70642001D02*
X138828554Y-70608329D01*
X138828554Y-70608329D02*
X139097928Y-70338955D01*
X139097928Y-70338955D02*
X139131600Y-70237940D01*
X139131600Y-70237940D02*
X139097928Y-70136925D01*
X139097928Y-70136925D02*
X138963241Y-70002238D01*
X138963241Y-70002238D02*
X138862226Y-69968566D01*
X138862226Y-69968566D02*
X138761211Y-70002238D01*
X138761211Y-70002238D02*
X138693867Y-70069581D01*
X138693867Y-70069581D02*
X138963241Y-70473642D01*
X138660195Y-69699192D02*
X138390821Y-69429818D01*
X138794882Y-69362474D02*
X138188791Y-69968566D01*
X138188791Y-69968566D02*
X138087776Y-70002237D01*
X138087776Y-70002237D02*
X137986760Y-69968566D01*
X137986760Y-69968566D02*
X137919417Y-69901222D01*
X137448012Y-69362474D02*
X137481684Y-69463489D01*
X137481684Y-69463489D02*
X137616371Y-69598176D01*
X137616371Y-69598176D02*
X137717386Y-69631848D01*
X137717386Y-69631848D02*
X137818401Y-69598176D01*
X137818401Y-69598176D02*
X138087775Y-69328802D01*
X138087775Y-69328802D02*
X138121447Y-69227787D01*
X138121447Y-69227787D02*
X138087775Y-69126772D01*
X138087775Y-69126772D02*
X137953088Y-68992085D01*
X137953088Y-68992085D02*
X137852073Y-68958413D01*
X137852073Y-68958413D02*
X137751058Y-68992085D01*
X137751058Y-68992085D02*
X137683714Y-69059428D01*
X137683714Y-69059428D02*
X137953088Y-69463489D01*
X141932794Y-76730151D02*
X142000137Y-76730151D01*
X142000137Y-76730151D02*
X142168496Y-76696479D01*
X142168496Y-76696479D02*
X142269511Y-76662808D01*
X142269511Y-76662808D02*
X142404198Y-76595464D01*
X142404198Y-76595464D02*
X142606229Y-76460777D01*
X142606229Y-76460777D02*
X142740916Y-76326090D01*
X142740916Y-76326090D02*
X142875603Y-76124060D01*
X142875603Y-76124060D02*
X142942946Y-75989373D01*
X142942946Y-75989373D02*
X142976618Y-75888357D01*
X142976618Y-75888357D02*
X143010290Y-75719999D01*
X143010290Y-75719999D02*
X143010290Y-75652655D01*
X141663419Y-75854685D02*
X141697091Y-75955701D01*
X141697091Y-75955701D02*
X141831778Y-76090388D01*
X141831778Y-76090388D02*
X141932793Y-76124059D01*
X141932793Y-76124059D02*
X142000137Y-76124059D01*
X142000137Y-76124059D02*
X142101152Y-76090388D01*
X142101152Y-76090388D02*
X142303183Y-75888357D01*
X142303183Y-75888357D02*
X142336855Y-75787342D01*
X142336855Y-75787342D02*
X142336855Y-75719998D01*
X142336855Y-75719998D02*
X142303183Y-75618983D01*
X142303183Y-75618983D02*
X142168496Y-75484296D01*
X142168496Y-75484296D02*
X142067480Y-75450624D01*
X141124671Y-75922029D02*
X141124671Y-75854685D01*
X141124671Y-75854685D02*
X141158343Y-75686326D01*
X141158343Y-75686326D02*
X141192015Y-75585311D01*
X141192015Y-75585311D02*
X141259358Y-75450624D01*
X141259358Y-75450624D02*
X141394045Y-75248594D01*
X141394045Y-75248594D02*
X141528732Y-75113907D01*
X141528732Y-75113907D02*
X141730763Y-74979220D01*
X141730763Y-74979220D02*
X141865450Y-74911876D01*
X141865450Y-74911876D02*
X141966465Y-74878204D01*
X141966465Y-74878204D02*
X142134824Y-74844533D01*
X142134824Y-74844533D02*
X142202167Y-74844533D01*
X140888969Y-73733364D02*
X140821625Y-73666021D01*
X140821625Y-73666021D02*
X140720610Y-73632349D01*
X140720610Y-73632349D02*
X140653266Y-73632349D01*
X140653266Y-73632349D02*
X140552251Y-73666021D01*
X140552251Y-73666021D02*
X140383892Y-73767036D01*
X140383892Y-73767036D02*
X140215534Y-73935395D01*
X140215534Y-73935395D02*
X140114518Y-74103754D01*
X140114518Y-74103754D02*
X140080847Y-74204769D01*
X140080847Y-74204769D02*
X140080847Y-74272113D01*
X140080847Y-74272113D02*
X140114518Y-74373128D01*
X140114518Y-74373128D02*
X140181862Y-74440471D01*
X140181862Y-74440471D02*
X140282877Y-74474143D01*
X140282877Y-74474143D02*
X140350221Y-74474143D01*
X140350221Y-74474143D02*
X140451236Y-74440471D01*
X140451236Y-74440471D02*
X140619595Y-74339456D01*
X140619595Y-74339456D02*
X140787953Y-74171097D01*
X140787953Y-74171097D02*
X140888969Y-74002739D01*
X140888969Y-74002739D02*
X140922640Y-73901723D01*
X140922640Y-73901723D02*
X140922640Y-73834380D01*
X140922640Y-73834380D02*
X140888969Y-73733364D01*
X140013503Y-72857899D02*
X140350221Y-73194616D01*
X140350221Y-73194616D02*
X140047175Y-73565006D01*
X140047175Y-73565006D02*
X140047175Y-73497662D01*
X140047175Y-73497662D02*
X140013503Y-73396647D01*
X140013503Y-73396647D02*
X139845144Y-73228288D01*
X139845144Y-73228288D02*
X139744129Y-73194616D01*
X139744129Y-73194616D02*
X139676786Y-73194616D01*
X139676786Y-73194616D02*
X139575770Y-73228288D01*
X139575770Y-73228288D02*
X139407412Y-73396647D01*
X139407412Y-73396647D02*
X139373740Y-73497662D01*
X139373740Y-73497662D02*
X139373740Y-73565006D01*
X139373740Y-73565006D02*
X139407412Y-73666021D01*
X139407412Y-73666021D02*
X139575770Y-73834380D01*
X139575770Y-73834380D02*
X139676786Y-73868051D01*
X139676786Y-73868051D02*
X139744129Y-73868051D01*
X139239053Y-72958914D02*
X138700305Y-72420166D01*
X138767648Y-71746731D02*
X138767648Y-71679388D01*
X138767648Y-71679388D02*
X138733977Y-71578373D01*
X138733977Y-71578373D02*
X138565618Y-71410014D01*
X138565618Y-71410014D02*
X138464603Y-71376342D01*
X138464603Y-71376342D02*
X138397259Y-71376342D01*
X138397259Y-71376342D02*
X138296244Y-71410014D01*
X138296244Y-71410014D02*
X138228900Y-71477357D01*
X138228900Y-71477357D02*
X138161557Y-71612044D01*
X138161557Y-71612044D02*
X138161557Y-72420166D01*
X138161557Y-72420166D02*
X137723824Y-71982434D01*
X137993198Y-70837594D02*
X137925855Y-70770250D01*
X137925855Y-70770250D02*
X137824839Y-70736579D01*
X137824839Y-70736579D02*
X137757496Y-70736579D01*
X137757496Y-70736579D02*
X137656481Y-70770250D01*
X137656481Y-70770250D02*
X137488122Y-70871266D01*
X137488122Y-70871266D02*
X137319763Y-71039624D01*
X137319763Y-71039624D02*
X137218748Y-71207983D01*
X137218748Y-71207983D02*
X137185076Y-71308998D01*
X137185076Y-71308998D02*
X137185076Y-71376342D01*
X137185076Y-71376342D02*
X137218748Y-71477357D01*
X137218748Y-71477357D02*
X137286091Y-71544701D01*
X137286091Y-71544701D02*
X137387107Y-71578372D01*
X137387107Y-71578372D02*
X137454450Y-71578372D01*
X137454450Y-71578372D02*
X137555465Y-71544701D01*
X137555465Y-71544701D02*
X137723824Y-71443685D01*
X137723824Y-71443685D02*
X137892183Y-71275327D01*
X137892183Y-71275327D02*
X137993198Y-71106968D01*
X137993198Y-71106968D02*
X138026870Y-71005953D01*
X138026870Y-71005953D02*
X138026870Y-70938609D01*
X138026870Y-70938609D02*
X137993198Y-70837594D01*
X137420778Y-70399861D02*
X137420778Y-70332518D01*
X137420778Y-70332518D02*
X137387107Y-70231502D01*
X137387107Y-70231502D02*
X137218748Y-70063144D01*
X137218748Y-70063144D02*
X137117733Y-70029472D01*
X137117733Y-70029472D02*
X137050389Y-70029472D01*
X137050389Y-70029472D02*
X136949374Y-70063144D01*
X136949374Y-70063144D02*
X136882030Y-70130487D01*
X136882030Y-70130487D02*
X136814687Y-70265174D01*
X136814687Y-70265174D02*
X136814687Y-71073296D01*
X136814687Y-71073296D02*
X136376954Y-70635563D01*
X136242267Y-69558067D02*
X135770862Y-70029472D01*
X136680000Y-69457052D02*
X136343282Y-70130487D01*
X136343282Y-70130487D02*
X135905549Y-69692754D01*
X141417319Y-77818045D02*
X141417319Y-77885389D01*
X141417319Y-77885389D02*
X141484662Y-78020076D01*
X141484662Y-78020076D02*
X141552006Y-78087419D01*
X141552006Y-78087419D02*
X141686693Y-78154763D01*
X141686693Y-78154763D02*
X141821380Y-78154763D01*
X141821380Y-78154763D02*
X141922395Y-78121091D01*
X141922395Y-78121091D02*
X142090754Y-78020076D01*
X142090754Y-78020076D02*
X142191769Y-77919061D01*
X142191769Y-77919061D02*
X142292785Y-77750702D01*
X142292785Y-77750702D02*
X142326456Y-77649687D01*
X142326456Y-77649687D02*
X142326456Y-77515000D01*
X142326456Y-77515000D02*
X142259113Y-77380313D01*
X142259113Y-77380313D02*
X142191769Y-77312969D01*
X142191769Y-77312969D02*
X142057082Y-77245626D01*
X142057082Y-77245626D02*
X141989739Y-77245626D01*
X140710212Y-77110939D02*
X140710212Y-77178282D01*
X140710212Y-77178282D02*
X140777556Y-77312969D01*
X140777556Y-77312969D02*
X140844899Y-77380313D01*
X140844899Y-77380313D02*
X140979586Y-77447656D01*
X140979586Y-77447656D02*
X141114273Y-77447656D01*
X141114273Y-77447656D02*
X141215288Y-77413984D01*
X141215288Y-77413984D02*
X141383647Y-77312969D01*
X141383647Y-77312969D02*
X141484662Y-77211954D01*
X141484662Y-77211954D02*
X141585678Y-77043595D01*
X141585678Y-77043595D02*
X141619349Y-76942580D01*
X141619349Y-76942580D02*
X141619349Y-76807893D01*
X141619349Y-76807893D02*
X141552006Y-76673206D01*
X141552006Y-76673206D02*
X141484662Y-76605862D01*
X141484662Y-76605862D02*
X141349975Y-76538519D01*
X141349975Y-76538519D02*
X141282632Y-76538519D01*
X140609197Y-76605862D02*
X140070449Y-76067114D01*
X139599045Y-75393679D02*
X139464358Y-75326336D01*
X139464358Y-75326336D02*
X139397014Y-75326336D01*
X139397014Y-75326336D02*
X139295999Y-75360008D01*
X139295999Y-75360008D02*
X139194984Y-75461023D01*
X139194984Y-75461023D02*
X139161312Y-75562038D01*
X139161312Y-75562038D02*
X139161312Y-75629382D01*
X139161312Y-75629382D02*
X139194984Y-75730397D01*
X139194984Y-75730397D02*
X139464358Y-75999771D01*
X139464358Y-75999771D02*
X140171464Y-75292664D01*
X140171464Y-75292664D02*
X139935762Y-75056962D01*
X139935762Y-75056962D02*
X139834747Y-75023290D01*
X139834747Y-75023290D02*
X139767403Y-75023290D01*
X139767403Y-75023290D02*
X139666388Y-75056962D01*
X139666388Y-75056962D02*
X139599045Y-75124305D01*
X139599045Y-75124305D02*
X139565373Y-75225321D01*
X139565373Y-75225321D02*
X139565373Y-75292664D01*
X139565373Y-75292664D02*
X139599045Y-75393679D01*
X139599045Y-75393679D02*
X139834747Y-75629382D01*
X138959281Y-74821260D02*
X138622564Y-75157977D01*
X139565373Y-74686573D02*
X138959281Y-74821260D01*
X138959281Y-74821260D02*
X139093968Y-74215168D01*
X138420533Y-74417199D02*
X137881785Y-73878451D01*
X137343037Y-73811107D02*
X137208350Y-73743764D01*
X137208350Y-73743764D02*
X137039992Y-73575405D01*
X137039992Y-73575405D02*
X137006320Y-73474390D01*
X137006320Y-73474390D02*
X137006320Y-73407046D01*
X137006320Y-73407046D02*
X137039992Y-73306031D01*
X137039992Y-73306031D02*
X137107335Y-73238687D01*
X137107335Y-73238687D02*
X137208350Y-73205016D01*
X137208350Y-73205016D02*
X137275694Y-73205016D01*
X137275694Y-73205016D02*
X137376709Y-73238687D01*
X137376709Y-73238687D02*
X137545068Y-73339703D01*
X137545068Y-73339703D02*
X137646083Y-73373374D01*
X137646083Y-73373374D02*
X137713427Y-73373374D01*
X137713427Y-73373374D02*
X137814442Y-73339703D01*
X137814442Y-73339703D02*
X137881785Y-73272359D01*
X137881785Y-73272359D02*
X137915457Y-73171344D01*
X137915457Y-73171344D02*
X137915457Y-73104000D01*
X137915457Y-73104000D02*
X137881785Y-73002985D01*
X137881785Y-73002985D02*
X137713427Y-72834626D01*
X137713427Y-72834626D02*
X137578740Y-72767283D01*
X136837961Y-72969313D02*
X136501243Y-72632596D01*
X136703274Y-73238687D02*
X137174679Y-72295878D01*
X137174679Y-72295878D02*
X136231869Y-72767283D01*
X135625778Y-71218382D02*
X135154373Y-71689787D01*
X136063510Y-71117367D02*
X135726793Y-71790802D01*
X135726793Y-71790802D02*
X135289060Y-71353069D01*
X134851327Y-71252054D02*
X134783984Y-71252054D01*
X134783984Y-71252054D02*
X134783984Y-71319397D01*
X134783984Y-71319397D02*
X134851327Y-71319397D01*
X134851327Y-71319397D02*
X134851327Y-71252054D01*
X134851327Y-71252054D02*
X134783984Y-71319397D01*
X135019686Y-70140886D02*
X134952343Y-70073543D01*
X134952343Y-70073543D02*
X134851328Y-70039871D01*
X134851328Y-70039871D02*
X134783984Y-70039871D01*
X134783984Y-70039871D02*
X134682969Y-70073543D01*
X134682969Y-70073543D02*
X134514610Y-70174558D01*
X134514610Y-70174558D02*
X134346251Y-70342917D01*
X134346251Y-70342917D02*
X134245236Y-70511276D01*
X134245236Y-70511276D02*
X134211564Y-70612291D01*
X134211564Y-70612291D02*
X134211564Y-70679634D01*
X134211564Y-70679634D02*
X134245236Y-70780650D01*
X134245236Y-70780650D02*
X134312580Y-70847993D01*
X134312580Y-70847993D02*
X134413595Y-70881665D01*
X134413595Y-70881665D02*
X134480938Y-70881665D01*
X134480938Y-70881665D02*
X134581954Y-70847993D01*
X134581954Y-70847993D02*
X134750312Y-70746978D01*
X134750312Y-70746978D02*
X134918671Y-70578619D01*
X134918671Y-70578619D02*
X135019686Y-70410260D01*
X135019686Y-70410260D02*
X135053358Y-70309245D01*
X135053358Y-70309245D02*
X135053358Y-70241902D01*
X135053358Y-70241902D02*
X135019686Y-70140886D01*
X142837971Y-80235975D02*
X142332895Y-80741051D01*
X142332895Y-80741051D02*
X142265551Y-80875738D01*
X142265551Y-80875738D02*
X142265551Y-81010425D01*
X142265551Y-81010425D02*
X142332895Y-81145112D01*
X142332895Y-81145112D02*
X142400238Y-81212456D01*
X141693131Y-80505349D02*
X141794147Y-80539021D01*
X141794147Y-80539021D02*
X141861490Y-80539021D01*
X141861490Y-80539021D02*
X141962506Y-80505349D01*
X141962506Y-80505349D02*
X142164536Y-80303318D01*
X142164536Y-80303318D02*
X142198208Y-80202303D01*
X142198208Y-80202303D02*
X142198208Y-80134960D01*
X142198208Y-80134960D02*
X142164536Y-80033944D01*
X142164536Y-80033944D02*
X142063521Y-79932929D01*
X142063521Y-79932929D02*
X141962506Y-79899257D01*
X141962506Y-79899257D02*
X141895162Y-79899257D01*
X141895162Y-79899257D02*
X141794147Y-79932929D01*
X141794147Y-79932929D02*
X141592116Y-80134960D01*
X141592116Y-80134960D02*
X141558444Y-80235975D01*
X141558444Y-80235975D02*
X141558444Y-80303318D01*
X141558444Y-80303318D02*
X141592116Y-80404334D01*
X141592116Y-80404334D02*
X141693131Y-80505349D01*
X141221727Y-79966601D02*
X141120712Y-79932929D01*
X141120712Y-79932929D02*
X140986025Y-79798242D01*
X140986025Y-79798242D02*
X140952353Y-79697227D01*
X140952353Y-79697227D02*
X140986025Y-79596212D01*
X140986025Y-79596212D02*
X141019696Y-79562540D01*
X141019696Y-79562540D02*
X141120712Y-79528868D01*
X141120712Y-79528868D02*
X141221727Y-79562540D01*
X141221727Y-79562540D02*
X141322742Y-79663555D01*
X141322742Y-79663555D02*
X141423757Y-79697227D01*
X141423757Y-79697227D02*
X141524773Y-79663555D01*
X141524773Y-79663555D02*
X141558444Y-79629883D01*
X141558444Y-79629883D02*
X141592116Y-79528868D01*
X141592116Y-79528868D02*
X141558444Y-79427853D01*
X141558444Y-79427853D02*
X141457429Y-79326838D01*
X141457429Y-79326838D02*
X141356414Y-79293166D01*
X141154383Y-79023792D02*
X140885009Y-78754418D01*
X141289070Y-78687074D02*
X140682979Y-79293166D01*
X140682979Y-79293166D02*
X140581963Y-79326837D01*
X140581963Y-79326837D02*
X140480948Y-79293166D01*
X140480948Y-79293166D02*
X140413605Y-79225822D01*
X139706497Y-78451371D02*
X139571810Y-78384028D01*
X139571810Y-78384028D02*
X139403452Y-78215669D01*
X139403452Y-78215669D02*
X139369780Y-78114654D01*
X139369780Y-78114654D02*
X139369780Y-78047310D01*
X139369780Y-78047310D02*
X139403452Y-77946295D01*
X139403452Y-77946295D02*
X139470795Y-77878952D01*
X139470795Y-77878952D02*
X139571810Y-77845280D01*
X139571810Y-77845280D02*
X139639154Y-77845280D01*
X139639154Y-77845280D02*
X139740169Y-77878952D01*
X139740169Y-77878952D02*
X139908528Y-77979967D01*
X139908528Y-77979967D02*
X140009543Y-78013639D01*
X140009543Y-78013639D02*
X140076887Y-78013639D01*
X140076887Y-78013639D02*
X140177902Y-77979967D01*
X140177902Y-77979967D02*
X140245246Y-77912623D01*
X140245246Y-77912623D02*
X140278917Y-77811608D01*
X140278917Y-77811608D02*
X140278917Y-77744265D01*
X140278917Y-77744265D02*
X140245246Y-77643249D01*
X140245246Y-77643249D02*
X140076887Y-77474891D01*
X140076887Y-77474891D02*
X139942200Y-77407547D01*
X138662673Y-77474891D02*
X139033062Y-77104501D01*
X139033062Y-77104501D02*
X139134078Y-77070830D01*
X139134078Y-77070830D02*
X139235093Y-77104501D01*
X139235093Y-77104501D02*
X139369780Y-77239188D01*
X139369780Y-77239188D02*
X139403452Y-77340204D01*
X138696345Y-77441219D02*
X138730017Y-77542234D01*
X138730017Y-77542234D02*
X138898375Y-77710593D01*
X138898375Y-77710593D02*
X138999391Y-77744265D01*
X138999391Y-77744265D02*
X139100406Y-77710593D01*
X139100406Y-77710593D02*
X139167749Y-77643249D01*
X139167749Y-77643249D02*
X139201421Y-77542234D01*
X139201421Y-77542234D02*
X139167749Y-77441219D01*
X139167749Y-77441219D02*
X138999391Y-77272860D01*
X138999391Y-77272860D02*
X138965719Y-77171845D01*
X138224940Y-77037158D02*
X138325956Y-77070829D01*
X138325956Y-77070829D02*
X138426971Y-77037158D01*
X138426971Y-77037158D02*
X139033062Y-76431066D01*
X137652520Y-76464738D02*
X138022909Y-76094348D01*
X138022909Y-76094348D02*
X138123925Y-76060677D01*
X138123925Y-76060677D02*
X138224940Y-76094348D01*
X138224940Y-76094348D02*
X138359627Y-76229035D01*
X138359627Y-76229035D02*
X138393299Y-76330051D01*
X137686192Y-76431066D02*
X137719864Y-76532081D01*
X137719864Y-76532081D02*
X137888222Y-76700440D01*
X137888222Y-76700440D02*
X137989238Y-76734112D01*
X137989238Y-76734112D02*
X138090253Y-76700440D01*
X138090253Y-76700440D02*
X138157596Y-76633096D01*
X138157596Y-76633096D02*
X138191268Y-76532081D01*
X138191268Y-76532081D02*
X138157596Y-76431066D01*
X138157596Y-76431066D02*
X137989238Y-76262707D01*
X137989238Y-76262707D02*
X137955566Y-76161692D01*
X137888222Y-75757631D02*
X137618848Y-75488257D01*
X138022909Y-75420913D02*
X137416818Y-76027005D01*
X137416818Y-76027005D02*
X137315803Y-76060676D01*
X137315803Y-76060676D02*
X137214787Y-76027005D01*
X137214787Y-76027005D02*
X137147444Y-75959661D01*
X136911741Y-75723959D02*
X137618848Y-75016852D01*
X136608696Y-75420913D02*
X136979085Y-75050524D01*
X136979085Y-75050524D02*
X137080100Y-75016852D01*
X137080100Y-75016852D02*
X137181115Y-75050524D01*
X137181115Y-75050524D02*
X137282131Y-75151539D01*
X137282131Y-75151539D02*
X137315802Y-75252554D01*
X137315802Y-75252554D02*
X137315802Y-75319898D01*
X136036276Y-74781150D02*
X136069947Y-74882165D01*
X136069947Y-74882165D02*
X136204634Y-75016852D01*
X136204634Y-75016852D02*
X136305650Y-75050524D01*
X136305650Y-75050524D02*
X136406665Y-75016852D01*
X136406665Y-75016852D02*
X136676039Y-74747478D01*
X136676039Y-74747478D02*
X136709711Y-74646463D01*
X136709711Y-74646463D02*
X136676039Y-74545447D01*
X136676039Y-74545447D02*
X136541352Y-74410760D01*
X136541352Y-74410760D02*
X136440337Y-74377089D01*
X136440337Y-74377089D02*
X136339321Y-74410760D01*
X136339321Y-74410760D02*
X136271978Y-74478104D01*
X136271978Y-74478104D02*
X136541352Y-74882165D01*
X136810726Y-74141386D02*
X136810726Y-74343417D01*
X135396512Y-73669982D02*
X134857764Y-73131233D01*
X133308864Y-72121081D02*
X133881283Y-72020066D01*
X133712925Y-72525142D02*
X134420031Y-71818035D01*
X134420031Y-71818035D02*
X134150657Y-71548661D01*
X134150657Y-71548661D02*
X134049642Y-71514989D01*
X134049642Y-71514989D02*
X133982299Y-71514989D01*
X133982299Y-71514989D02*
X133881283Y-71548661D01*
X133881283Y-71548661D02*
X133780268Y-71649676D01*
X133780268Y-71649676D02*
X133746596Y-71750692D01*
X133746596Y-71750692D02*
X133746596Y-71818035D01*
X133746596Y-71818035D02*
X133780268Y-71919050D01*
X133780268Y-71919050D02*
X134049642Y-72188424D01*
X132770116Y-71514989D02*
X132803787Y-71616005D01*
X132803787Y-71616005D02*
X132938474Y-71750692D01*
X132938474Y-71750692D02*
X133039490Y-71784363D01*
X133039490Y-71784363D02*
X133140505Y-71750692D01*
X133140505Y-71750692D02*
X133409879Y-71481318D01*
X133409879Y-71481318D02*
X133443551Y-71380302D01*
X133443551Y-71380302D02*
X133409879Y-71279287D01*
X133409879Y-71279287D02*
X133275192Y-71144600D01*
X133275192Y-71144600D02*
X133174177Y-71110928D01*
X133174177Y-71110928D02*
X133073161Y-71144600D01*
X133073161Y-71144600D02*
X133005818Y-71211944D01*
X133005818Y-71211944D02*
X133275192Y-71616005D01*
X132938474Y-70807883D02*
X132298711Y-71110928D01*
X132298711Y-71110928D02*
X132601757Y-70471165D01*
X131928321Y-70605852D02*
X131860978Y-70605852D01*
X131860978Y-70605852D02*
X131860978Y-70673195D01*
X131860978Y-70673195D02*
X131928321Y-70673195D01*
X131928321Y-70673195D02*
X131928321Y-70605852D01*
X131928321Y-70605852D02*
X131860978Y-70673195D01*
X131759963Y-70168119D02*
X131423246Y-69831402D01*
X131625276Y-70437493D02*
X132096681Y-69494684D01*
X132096681Y-69494684D02*
X131153872Y-69966089D01*
D12*
X124542967Y-69542967D03*
X142857033Y-87857033D03*
D13*
X133700000Y-78700000D03*
D14*
X171763669Y-111587824D03*
X170289023Y-110163774D03*
D15*
X145340381Y-92340381D03*
D16*
X146259619Y-93259619D03*
D17*
X158380762Y-95119238D03*
D18*
X159300000Y-94200000D03*
D19*
X178299417Y-128551130D03*
X179748985Y-127101562D03*
D20*
X149297263Y-95904334D03*
X147830017Y-94437088D03*
D21*
X175021341Y-116278255D03*
X174027481Y-114485285D03*
D22*
X166205971Y-104601935D03*
D19*
X168399417Y-106651130D03*
X169848985Y-105201562D03*
D22*
X167799790Y-103008116D03*
D23*
X117694029Y-63398065D03*
D24*
X115500583Y-61348870D03*
X114051015Y-62798438D03*
D23*
X116100210Y-64991884D03*
X114094029Y-67198065D03*
D24*
X111900583Y-65148870D03*
X110451015Y-66598438D03*
D23*
X112500210Y-68791884D03*
D20*
X151533623Y-94833623D03*
X150066377Y-93366377D03*
D25*
X104600000Y-61600000D03*
D26*
X113900000Y-52700000D03*
D22*
X154705971Y-115501935D03*
D19*
X156899417Y-117551130D03*
X158348985Y-116101562D03*
D22*
X156299790Y-113908116D03*
D17*
X160180762Y-96919238D03*
D18*
X161100000Y-96000000D03*
D27*
X161390393Y-118159373D03*
X162960785Y-119477087D03*
D17*
X148080762Y-84819238D03*
D18*
X149000000Y-83900000D03*
D28*
X165755053Y-121807341D03*
X167392255Y-123041061D03*
D29*
X154189393Y-101518504D03*
X150618504Y-105089393D03*
X155985445Y-103314555D03*
X152414555Y-106885445D03*
X157781496Y-105110607D03*
X154210607Y-108681496D03*
D30*
X146270925Y-97921177D03*
X144474874Y-96125126D03*
X142678823Y-94329075D03*
D17*
X149880762Y-86619238D03*
D18*
X150800000Y-85700000D03*
D31*
X150402872Y-90996949D03*
X151300898Y-90098924D03*
X152198924Y-89200898D03*
X153096949Y-88302872D03*
X156597128Y-91803051D03*
X155699102Y-92701076D03*
X154801076Y-93599102D03*
X153903051Y-94497128D03*
D23*
X160600000Y-129100000D03*
D32*
X176959611Y-122133012D03*
X176429031Y-120152864D03*
D23*
X121394029Y-59598065D03*
D24*
X119200583Y-57548870D03*
X117751015Y-58998438D03*
D23*
X119800210Y-61191884D03*
D33*
X148666377Y-99333623D03*
X150133623Y-97866377D03*
D22*
X158805971Y-112001935D03*
D19*
X160999417Y-114051130D03*
X162448985Y-112601562D03*
D22*
X160399790Y-110408116D03*
X162505971Y-108401935D03*
D19*
X164699417Y-110451130D03*
X166148985Y-109001562D03*
D22*
X164099790Y-106808116D03*
D34*
X150392893Y-101007107D03*
X151807107Y-99592893D03*
D17*
X146280762Y-83019238D03*
D18*
X147200000Y-82100000D03*
D35*
X171562099Y-125177416D03*
X173434867Y-126011226D03*
D23*
X180700000Y-109600000D03*
D36*
X168399417Y-106651130D02*
X166350222Y-104601935D01*
X110486369Y-65148870D02*
X111900583Y-65148870D01*
X139700000Y-98000000D02*
X144400000Y-98000000D01*
X146495666Y-95904334D02*
X149297263Y-95904334D01*
X150966377Y-94833623D02*
X151533623Y-94833623D01*
X156899417Y-117551130D02*
X154850222Y-115501935D01*
X158805971Y-112001935D02*
X158000000Y-111195964D01*
X109300000Y-67800000D02*
X109300000Y-66335239D01*
X176959610Y-122133011D02*
X176959610Y-127211323D01*
X149297263Y-96502737D02*
X148500000Y-97300000D01*
X111900583Y-63534656D02*
X114086369Y-61348870D01*
X148500000Y-97300000D02*
X148500000Y-99167246D01*
X161390395Y-119360240D02*
X162630155Y-120600000D01*
X171562099Y-124378673D02*
X175021339Y-120919433D01*
X115500583Y-61348870D02*
X115500583Y-59834656D01*
X154705971Y-115501935D02*
X153900000Y-114695964D01*
X133700000Y-78700000D02*
X133700000Y-92000000D01*
X167077799Y-124200000D02*
X170584682Y-124200000D01*
X155755214Y-110226103D02*
X154210607Y-108681496D01*
X111900583Y-65148870D02*
X113949778Y-67198065D01*
X165755053Y-122877254D02*
X167077799Y-124200000D01*
X149297263Y-95904334D02*
X149297263Y-96502737D01*
X120200000Y-78700000D02*
X133700000Y-78700000D01*
X149895666Y-95904334D02*
X150966377Y-94833623D01*
X170584682Y-124200000D02*
X171562099Y-125177417D01*
X171763669Y-110015382D02*
X168399417Y-106651130D01*
X158000000Y-109555214D02*
X159955214Y-107600000D01*
X158004036Y-111200000D02*
X158805971Y-112001935D01*
X160999417Y-114051130D02*
X160999417Y-117768395D01*
X119200583Y-57548870D02*
X121249778Y-59598065D01*
X149297263Y-95904334D02*
X149895666Y-95904334D01*
X152000000Y-109400000D02*
X153492103Y-109400000D01*
X155755214Y-111200000D02*
X158004036Y-111200000D01*
X115500583Y-59834656D02*
X117786369Y-57548870D01*
X144400000Y-98000000D02*
X146495666Y-95904334D01*
X151533623Y-94833623D02*
X152367246Y-94000000D01*
X153405923Y-94000000D02*
X153903051Y-94497128D01*
X176959610Y-127211323D02*
X178299417Y-128551130D01*
X162630155Y-120600000D02*
X164547713Y-120600000D01*
X153900000Y-114695964D02*
X153900000Y-113055214D01*
X158000000Y-111195964D02*
X158000000Y-109555214D01*
X109300000Y-66335239D02*
X110486369Y-65148870D01*
X175021339Y-116278254D02*
X175021339Y-120919433D01*
X164547713Y-120600000D02*
X165755053Y-121807340D01*
X153492103Y-109400000D02*
X154210607Y-108681496D01*
X161704036Y-107600000D02*
X162505971Y-108401935D01*
X133700000Y-92000000D02*
X139700000Y-98000000D01*
X148666377Y-106066377D02*
X152000000Y-109400000D01*
X113949778Y-67198065D02*
X114094029Y-67198065D01*
X165755053Y-121807340D02*
X165755053Y-122877254D01*
X171763669Y-111587823D02*
X172650880Y-111587823D01*
X117549778Y-63398065D02*
X117694029Y-63398065D01*
X159955214Y-107600000D02*
X161704036Y-107600000D01*
X158950222Y-112001935D02*
X158805971Y-112001935D01*
X155755214Y-111200000D02*
X155755214Y-110226103D01*
X160999417Y-114051130D02*
X158950222Y-112001935D01*
X176234917Y-122133011D02*
X176959610Y-122133011D01*
X161390395Y-118159373D02*
X161390395Y-119360240D01*
X162650222Y-108401935D02*
X162505971Y-108401935D01*
X121249778Y-59598065D02*
X121394029Y-59598065D01*
X175131884Y-114068827D02*
X175131884Y-116167709D01*
X160999417Y-117768395D02*
X161390395Y-118159373D01*
X115500583Y-61348870D02*
X117549778Y-63398065D01*
X148666377Y-99333623D02*
X148666377Y-106066377D01*
X114086369Y-61348870D02*
X115500583Y-61348870D01*
X154850222Y-115501935D02*
X154705971Y-115501935D01*
X111900583Y-65148870D02*
X111900583Y-63534656D01*
X175131884Y-116167709D02*
X175021339Y-116278254D01*
X164699417Y-110451130D02*
X162650222Y-108401935D01*
X153900000Y-113055214D02*
X155755214Y-111200000D01*
X175021339Y-120919433D02*
X176234917Y-122133011D01*
X151367246Y-95000000D02*
X151533623Y-94833623D01*
X109300000Y-67800000D02*
X120200000Y-78700000D01*
X117786369Y-57548870D02*
X119200583Y-57548870D01*
X148500000Y-99167246D02*
X148666377Y-99333623D01*
X172650880Y-111587823D02*
X175131884Y-114068827D01*
X171763669Y-111587823D02*
X171763669Y-110015382D01*
X152367246Y-94000000D02*
X153405923Y-94000000D01*
X166350222Y-104601935D02*
X166205971Y-104601935D01*
X171562099Y-125177417D02*
X171562099Y-124378673D01*
X145013568Y-92340381D02*
X145340381Y-92340381D01*
X142857033Y-87857033D02*
X142857033Y-94150865D01*
X128078501Y-69542967D02*
X142857033Y-84321499D01*
X142857033Y-84321499D02*
X142857033Y-87857033D01*
X124542967Y-69542967D02*
X128078501Y-69542967D01*
X142678823Y-94329075D02*
X143024874Y-94329075D01*
X143024874Y-94329075D02*
X145013568Y-92340381D01*
X142857033Y-94150865D02*
X142678823Y-94329075D01*
X150132754Y-93300000D02*
X153554451Y-93300000D01*
X158200000Y-93100000D02*
X159300000Y-94200000D01*
X156368974Y-90160683D02*
X155039317Y-90160683D01*
X152565686Y-85700000D02*
X155039317Y-88173631D01*
X158200000Y-91991709D02*
X156368974Y-90160683D01*
X153700000Y-91500000D02*
X150905923Y-91500000D01*
X153903303Y-96300000D02*
X150250430Y-96300000D01*
X150800000Y-85700000D02*
X152565686Y-85700000D01*
X147830017Y-94437088D02*
X148462912Y-94437088D01*
X159300000Y-94200000D02*
X161100000Y-96000000D01*
X147200000Y-82100000D02*
X149000000Y-83900000D01*
X149000000Y-83900000D02*
X150800000Y-85700000D01*
X148900000Y-97650430D02*
X148900000Y-98100000D01*
X149533623Y-93366377D02*
X150066377Y-93366377D01*
X155039317Y-90160683D02*
X153700000Y-91500000D01*
X146259619Y-93840381D02*
X146259619Y-93259619D01*
X158200000Y-91991709D02*
X158200000Y-93100000D01*
X150066377Y-93366377D02*
X150900000Y-92532754D01*
X150250430Y-96300000D02*
X148900000Y-97650430D01*
X150618504Y-105089393D02*
X151300000Y-104407897D01*
X155100000Y-94845549D02*
X155100000Y-95103303D01*
X151300000Y-102900000D02*
X150392893Y-101992893D01*
X150066377Y-93366377D02*
X150132754Y-93300000D01*
X150900000Y-91494077D02*
X150402872Y-90996949D01*
X144474874Y-96125126D02*
X144474874Y-95625126D01*
X150905923Y-91500000D02*
X150402872Y-90996949D01*
X148462912Y-94437088D02*
X149533623Y-93366377D01*
X150392893Y-99592893D02*
X150392893Y-101007107D01*
X147437088Y-94437088D02*
X147830017Y-94437088D01*
X155039317Y-89460683D02*
X155039317Y-90160683D01*
X148900000Y-98100000D02*
X150392893Y-99592893D01*
X153554451Y-93300000D02*
X155100000Y-94845549D01*
X155039317Y-88173631D02*
X155039317Y-89460683D01*
X150392893Y-101992893D02*
X150392893Y-101007107D01*
X144474874Y-95625126D02*
X146259619Y-93840381D01*
X151300000Y-104407897D02*
X151300000Y-102900000D01*
X150900000Y-92532754D02*
X150900000Y-91494077D01*
X155100000Y-95103303D02*
X153903303Y-96300000D01*
X146259619Y-93259619D02*
X147437088Y-94437088D01*
X150133623Y-97866377D02*
X151807107Y-99539861D01*
X151807107Y-99092893D02*
X156200000Y-94700000D01*
X156200000Y-94700000D02*
X156200000Y-93201974D01*
X151807107Y-99592893D02*
X153732718Y-101518504D01*
X156200000Y-93201974D02*
X155699102Y-92701076D01*
X153732718Y-101518504D02*
X154189393Y-101518504D01*
X151807107Y-99592893D02*
X151807107Y-99092893D01*
X151807107Y-99539861D02*
X151807107Y-99592893D01*
X149880762Y-86619238D02*
X150461524Y-87200000D01*
X112500210Y-68647633D02*
X112500210Y-68791884D01*
X147904857Y-88804857D02*
X143257033Y-84157033D01*
X152200000Y-86700000D02*
X153000000Y-86700000D01*
X153000000Y-86700000D02*
X154639317Y-88339317D01*
X153300000Y-90600000D02*
X151801974Y-90600000D01*
X122600000Y-65500000D02*
X118500000Y-69600000D01*
X143257033Y-84155813D02*
X124601220Y-65500000D01*
X150461524Y-87200000D02*
X151700000Y-87200000D01*
X143257033Y-84157033D02*
X143257033Y-84155813D01*
X113308326Y-69600000D02*
X112500210Y-68791884D01*
X151700000Y-87200000D02*
X152200000Y-86700000D01*
X110451015Y-66598438D02*
X112500210Y-68647633D01*
X118500000Y-69600000D02*
X113308326Y-69600000D01*
X150006831Y-88804857D02*
X147904857Y-88804857D01*
X151801974Y-90600000D02*
X151300898Y-90098924D01*
X151300898Y-90098924D02*
X150006831Y-88804857D01*
X154639317Y-88339317D02*
X154639317Y-89260683D01*
X154639317Y-89260683D02*
X153300000Y-90600000D01*
X124601220Y-65500000D02*
X122600000Y-65500000D01*
X152198924Y-89200898D02*
X152698026Y-89700000D01*
X152800000Y-87100000D02*
X152400000Y-87100000D01*
X151331372Y-88400000D02*
X151326515Y-88404857D01*
X151066655Y-87600000D02*
X151061798Y-87604857D01*
X116100210Y-64847633D02*
X116100210Y-64991884D01*
X152698026Y-89700000D02*
X153502945Y-89700000D01*
X151398026Y-88400000D02*
X151331372Y-88400000D01*
X151900000Y-87600000D02*
X151066655Y-87600000D01*
X121700000Y-64100000D02*
X120000000Y-65800000D01*
X153502945Y-89700000D02*
X154239317Y-88963628D01*
X151061798Y-87604857D02*
X149704857Y-87604857D01*
X116908326Y-65800000D02*
X116100210Y-64991884D01*
X151326515Y-88404857D02*
X148104857Y-88404857D01*
X120000000Y-65800000D02*
X116908326Y-65800000D01*
X149704857Y-87604857D02*
X148080762Y-85980762D01*
X152400000Y-87100000D02*
X151900000Y-87600000D01*
X148080762Y-85980762D02*
X148080762Y-84819238D01*
X148104857Y-88404857D02*
X123800000Y-64100000D01*
X154239317Y-88539317D02*
X152800000Y-87100000D01*
X154239317Y-88963628D02*
X154239317Y-88539317D01*
X114051015Y-62798438D02*
X116100210Y-64847633D01*
X123800000Y-64100000D02*
X121700000Y-64100000D01*
X152198924Y-89200898D02*
X151398026Y-88400000D01*
X153096949Y-88302872D02*
X152798934Y-88004857D01*
X148304857Y-88004857D02*
X146280762Y-85980762D01*
X117751015Y-58998438D02*
X119800210Y-61047633D01*
X120708326Y-62100000D02*
X119800210Y-61191884D01*
X152798934Y-88004857D02*
X151568569Y-88004857D01*
X151563712Y-88000000D02*
X151232340Y-88000000D01*
X151232340Y-88000000D02*
X151227483Y-88004857D01*
X146280762Y-83019238D02*
X143319238Y-83019238D01*
X143319238Y-83019238D02*
X122400000Y-62100000D01*
X151568569Y-88004857D02*
X151563712Y-88000000D01*
X119800210Y-61047633D02*
X119800210Y-61191884D01*
X151227483Y-88004857D02*
X148304857Y-88004857D01*
X122400000Y-62100000D02*
X120708326Y-62100000D01*
X146280762Y-85980762D02*
X146280762Y-83019238D01*
X155458708Y-91558708D02*
X157000000Y-93100000D01*
X162448985Y-112601562D02*
X160399790Y-110552367D01*
X156995143Y-94681489D02*
X156995143Y-95495143D01*
X155454760Y-91554760D02*
X155454760Y-91142295D01*
X162960783Y-119477087D02*
X164898194Y-119477087D01*
X164099790Y-106952367D02*
X164099790Y-106808116D01*
X154400000Y-93198026D02*
X154400000Y-92197054D01*
X167392255Y-121971148D02*
X167392255Y-123041062D01*
X155038346Y-91558708D02*
X155458708Y-91558708D01*
X166148985Y-109001562D02*
X169126810Y-109001562D01*
X163200000Y-101700000D02*
X163200000Y-105908326D01*
X162960783Y-113113360D02*
X162960783Y-119477087D01*
X155936372Y-90660683D02*
X156303288Y-90660683D01*
X163963199Y-112601562D02*
X166148985Y-110415776D01*
X166148985Y-109001562D02*
X164099790Y-106952367D01*
X169126810Y-109001562D02*
X170289023Y-110163775D01*
X173238439Y-114485286D02*
X174027483Y-114485286D01*
X166148985Y-110415776D02*
X166148985Y-109001562D01*
X157000000Y-94676632D02*
X156995143Y-94681489D01*
X156995143Y-95495143D02*
X163200000Y-101700000D01*
X154801076Y-93599102D02*
X154400000Y-93198026D01*
X156303288Y-90660683D02*
X157800000Y-92157395D01*
X157800000Y-92157395D02*
X157800000Y-94538476D01*
X162448985Y-112601562D02*
X163963199Y-112601562D01*
X170289023Y-111535870D02*
X173238439Y-114485286D01*
X160399790Y-110552367D02*
X160399790Y-110408116D01*
X155454760Y-91142295D02*
X155936372Y-90660683D01*
X155458708Y-91558708D02*
X155454760Y-91554760D01*
X157000000Y-93100000D02*
X157000000Y-94676632D01*
X162448985Y-112601562D02*
X162960783Y-113113360D01*
X163200000Y-105908326D02*
X164099790Y-106808116D01*
X164898194Y-119477087D02*
X167392255Y-121971148D01*
X157800000Y-94538476D02*
X158380762Y-95119238D01*
X154400000Y-92197054D02*
X155038346Y-91558708D01*
X170289023Y-110163775D02*
X170289023Y-111535870D01*
X156597128Y-91803051D02*
X157400000Y-92605923D01*
X163300000Y-121000000D02*
X166900000Y-124600000D01*
X174511225Y-126011225D02*
X178154036Y-129654036D01*
X166900000Y-124600000D02*
X169400000Y-124600000D01*
X173434867Y-126011225D02*
X174511225Y-126011225D01*
X157395143Y-94847175D02*
X157395143Y-95295143D01*
X173170580Y-126275512D02*
X173434867Y-126011225D01*
X167799790Y-103152367D02*
X167799790Y-103008116D01*
X172200000Y-109886027D02*
X169848985Y-107535012D01*
X157400000Y-94842318D02*
X157395143Y-94847175D01*
X158348985Y-116101562D02*
X156299790Y-114052367D01*
X178154036Y-129654036D02*
X178645964Y-129654036D01*
X158348985Y-116884516D02*
X162464469Y-121000000D01*
X176200000Y-115900000D02*
X175531884Y-115231884D01*
X156299790Y-114052367D02*
X156299790Y-113908116D01*
X171075512Y-126275512D02*
X173170580Y-126275512D01*
X175531884Y-115231884D02*
X175531884Y-113831884D01*
X159019238Y-96919238D02*
X160180762Y-96919238D01*
X179748985Y-128551015D02*
X179748985Y-127101562D01*
X169848985Y-107535012D02*
X169848985Y-105201562D01*
X175531884Y-113831884D02*
X172200000Y-110500000D01*
X178031110Y-121641905D02*
X178031110Y-125331110D01*
X178031110Y-125331110D02*
X179748985Y-127048985D01*
X157395143Y-95295143D02*
X159019238Y-96919238D01*
X172200000Y-110500000D02*
X172200000Y-109886027D01*
X179748985Y-127048985D02*
X179748985Y-127101562D01*
X166891674Y-102100000D02*
X167799790Y-103008116D01*
X162464469Y-121000000D02*
X163300000Y-121000000D01*
X178645964Y-129654036D02*
X179748985Y-128551015D01*
X176542070Y-120152865D02*
X178031110Y-121641905D01*
X176200000Y-119923833D02*
X176200000Y-115900000D01*
X158348985Y-116101562D02*
X158348985Y-116884516D01*
X169848985Y-105201562D02*
X167799790Y-103152367D01*
X157400000Y-92605923D02*
X157400000Y-94842318D01*
X176429032Y-120152865D02*
X176200000Y-119923833D01*
X164200000Y-102100000D02*
X166891674Y-102100000D01*
X169400000Y-124600000D02*
X171075512Y-126275512D01*
X160180762Y-98080762D02*
X164200000Y-102100000D01*
X160180762Y-96919238D02*
X160180762Y-98080762D01*
X176429032Y-120152865D02*
X176542070Y-120152865D01*
M02*
