G04 #@! TF.GenerationSoftware,KiCad,Pcbnew,8.0.3-8.0.3-0~ubuntu22.04.1*
G04 #@! TF.CreationDate,2024-06-25T00:34:49+02:00*
G04 #@! TF.ProjectId,ctfl-rakete-tht,6374666c-2d72-4616-9b65-74652d746874,Rev.A*
G04 #@! TF.SameCoordinates,Original*
G04 #@! TF.FileFunction,Profile,NP*
%FSLAX46Y46*%
G04 Gerber Fmt 4.6, Leading zero omitted, Abs format (unit mm)*
G04 Created by KiCad (PCBNEW 8.0.3-8.0.3-0~ubuntu22.04.1) date 2024-06-25 00:34:49*
%MOMM*%
%LPD*%
G01*
G04 APERTURE LIST*
G04 #@! TA.AperFunction,Profile*
%ADD10C,0.050000*%
G04 #@! TD*
G04 #@! TA.AperFunction,Profile*
%ADD11C,0.122369*%
G04 #@! TD*
G04 APERTURE END LIST*
D10*
X114286981Y-79401341D02*
G75*
G02*
X107582089Y-77181721I-3586981J401341D01*
G01*
X109475000Y-75600000D02*
X109700000Y-75525000D01*
X114275000Y-79250000D02*
X114286982Y-79401341D01*
X107582089Y-77181721D02*
X107775000Y-76950000D01*
X109700000Y-75525000D02*
X109925000Y-75550000D01*
X114175000Y-79100000D02*
X114275000Y-79250000D01*
D11*
X116796922Y-50251697D02*
X116892493Y-50273713D01*
X116985998Y-50305772D01*
X117077574Y-50347233D01*
X117167353Y-50397451D01*
X117255467Y-50455786D01*
X117342049Y-50521595D01*
X117427234Y-50594233D01*
X117593942Y-50757432D01*
X117756655Y-50940243D01*
X117916437Y-51137523D01*
X118547555Y-51968521D01*
X118708655Y-52161035D01*
X118873212Y-52337173D01*
X119042293Y-52491794D01*
X119128861Y-52559429D01*
X119216961Y-52619757D01*
X119268746Y-52652381D01*
X119321524Y-52683950D01*
X119375237Y-52714303D01*
X119429820Y-52743277D01*
X119485214Y-52770709D01*
X119541360Y-52796438D01*
X119598194Y-52820301D01*
X119655658Y-52842136D01*
X119713690Y-52861781D01*
X119772227Y-52879073D01*
X119831212Y-52893851D01*
X119890583Y-52905951D01*
X119950277Y-52915213D01*
X120010235Y-52921472D01*
X120070397Y-52924569D01*
X120130700Y-52924339D01*
X120561770Y-52925700D01*
X120982593Y-52950317D01*
X121392902Y-52997840D01*
X121792427Y-53067921D01*
X122180898Y-53160207D01*
X122558049Y-53274351D01*
X122923609Y-53410003D01*
X123277311Y-53566811D01*
X123618883Y-53744427D01*
X123948061Y-53942500D01*
X124264574Y-54160681D01*
X124568153Y-54398621D01*
X124858530Y-54655967D01*
X125135435Y-54932373D01*
X125398600Y-55227487D01*
X125647757Y-55540959D01*
X125925105Y-55890985D01*
X126218663Y-56225703D01*
X126526710Y-56546764D01*
X126847529Y-56855814D01*
X127179401Y-57154500D01*
X127520606Y-57444471D01*
X128224143Y-58004857D01*
X129667601Y-59093549D01*
X130380021Y-59648217D01*
X130727888Y-59933898D01*
X131067902Y-60227342D01*
X131191313Y-60336478D01*
X131312777Y-60446262D01*
X131432944Y-60557343D01*
X131552462Y-60670369D01*
X131671114Y-60785344D01*
X131787819Y-60902266D01*
X131845239Y-60961659D01*
X131901929Y-61021782D01*
X131957808Y-61082717D01*
X132012794Y-61144544D01*
X132066400Y-61207454D01*
X132118465Y-61271419D01*
X132169395Y-61336192D01*
X132219595Y-61401535D01*
X132319428Y-61532950D01*
X132369871Y-61598537D01*
X132421206Y-61663719D01*
X132439433Y-61687026D01*
X132448647Y-61698579D01*
X132457983Y-61710010D01*
X132467481Y-61721278D01*
X132477181Y-61732345D01*
X132487124Y-61743168D01*
X132497352Y-61753706D01*
X132493888Y-61757170D01*
X132599534Y-61877674D01*
X132708264Y-61995663D01*
X132819264Y-62111869D01*
X132931724Y-62227020D01*
X133157781Y-62457078D01*
X133269754Y-62573445D01*
X133379943Y-62691679D01*
X134078229Y-63467841D01*
X134428344Y-63854948D01*
X134781704Y-64238809D01*
X135043021Y-64511374D01*
X135176925Y-64646683D01*
X135245255Y-64713242D01*
X135314721Y-64778747D01*
X135344282Y-64806700D01*
X135377939Y-64839479D01*
X135414924Y-64874449D01*
X135434421Y-64891931D01*
X135454462Y-64908972D01*
X135474949Y-64925244D01*
X135495786Y-64940414D01*
X135516876Y-64954154D01*
X135538124Y-64966136D01*
X135559433Y-64976028D01*
X135570079Y-64980088D01*
X135580705Y-64983502D01*
X135591299Y-64986229D01*
X135601847Y-64988228D01*
X135612338Y-64989458D01*
X135622760Y-64989877D01*
X135651474Y-64985792D01*
X135683618Y-64974513D01*
X135718992Y-64956535D01*
X135757394Y-64932349D01*
X135842487Y-64867329D01*
X135937293Y-64783399D01*
X136149640Y-64574580D01*
X136381618Y-64337452D01*
X136620410Y-64103567D01*
X136738355Y-63997703D01*
X136853199Y-63904483D01*
X136963336Y-63827854D01*
X137016140Y-63796992D01*
X137067167Y-63771757D01*
X137116217Y-63752642D01*
X137163088Y-63740139D01*
X137207583Y-63734742D01*
X137249499Y-63736944D01*
X137343197Y-63764357D01*
X137458979Y-63821430D01*
X137594190Y-63905456D01*
X137746173Y-64013726D01*
X137912271Y-64143535D01*
X138089827Y-64292173D01*
X138468687Y-64635109D01*
X138861499Y-65020878D01*
X139247011Y-65427819D01*
X139603968Y-65834273D01*
X139765097Y-66030548D01*
X139911117Y-66218581D01*
X140101966Y-66463618D01*
X140293789Y-66694703D01*
X140487883Y-66915080D01*
X140685546Y-67127994D01*
X140888076Y-67336690D01*
X141096773Y-67544412D01*
X141537853Y-67969917D01*
X141958379Y-68355835D01*
X142176432Y-68559826D01*
X142277184Y-68658334D01*
X142368527Y-68752136D01*
X142786764Y-69178579D01*
X143212018Y-69591191D01*
X144075302Y-70392283D01*
X144941830Y-71190130D01*
X145371139Y-71598686D01*
X145795054Y-72019451D01*
X150522972Y-76837357D01*
X150526785Y-76841489D01*
X150530440Y-76846081D01*
X150533940Y-76851104D01*
X150537290Y-76856529D01*
X150540492Y-76862330D01*
X150543552Y-76868478D01*
X150549256Y-76881704D01*
X150554433Y-76895984D01*
X150559113Y-76911097D01*
X150563326Y-76926818D01*
X150567103Y-76942924D01*
X150570475Y-76959192D01*
X150573471Y-76975399D01*
X150578460Y-77006739D01*
X150585274Y-77058871D01*
X150585501Y-77067058D01*
X150584292Y-77076630D01*
X150577899Y-77099533D01*
X150566772Y-77126808D01*
X150551583Y-77157676D01*
X150533007Y-77191364D01*
X150511719Y-77227096D01*
X150463703Y-77301584D01*
X150412929Y-77374938D01*
X150364791Y-77440949D01*
X150324684Y-77493413D01*
X150298001Y-77526125D01*
X149955351Y-77920697D01*
X149878407Y-78012646D01*
X149816148Y-78091698D01*
X149792273Y-78124790D01*
X149774168Y-78152742D01*
X149762532Y-78174913D01*
X149759359Y-78183632D01*
X149758066Y-78190665D01*
X149623944Y-78464095D01*
X149605705Y-78515734D01*
X149597991Y-78542191D01*
X149591429Y-78568956D01*
X149586180Y-78595944D01*
X149582405Y-78623070D01*
X149580266Y-78650246D01*
X149579924Y-78677387D01*
X149581537Y-78704406D01*
X149585269Y-78731216D01*
X149591280Y-78757734D01*
X149599731Y-78783870D01*
X149610783Y-78809541D01*
X149624596Y-78834658D01*
X149641333Y-78859138D01*
X149661154Y-78882892D01*
X149688837Y-78915863D01*
X149718437Y-78953264D01*
X149781966Y-79038319D01*
X149916409Y-79228141D01*
X149981644Y-79320740D01*
X150041767Y-79403686D01*
X150093941Y-79470894D01*
X150116160Y-79496696D01*
X150135327Y-79516281D01*
X150267500Y-79638746D01*
X150362682Y-79734766D01*
X150436123Y-79817806D01*
X150503075Y-79901333D01*
X150578787Y-79998813D01*
X150678511Y-80123711D01*
X150817496Y-80289495D01*
X151010995Y-80509628D01*
X151445369Y-80997646D01*
X151693381Y-81275727D01*
X151838208Y-81433750D01*
X153475323Y-83098556D01*
X153565836Y-83170454D01*
X153672304Y-83264726D01*
X153923920Y-83508323D01*
X154211797Y-83805217D01*
X154517562Y-84131276D01*
X155109257Y-84774345D01*
X155358439Y-85043090D01*
X155552012Y-85244464D01*
X155636971Y-85333826D01*
X155731168Y-85440344D01*
X155941067Y-85693333D01*
X156403452Y-86278482D01*
X156631117Y-86564567D01*
X156839880Y-86815609D01*
X156933295Y-86920788D01*
X157017331Y-87008567D01*
X157090435Y-87076066D01*
X157151057Y-87120405D01*
X157552090Y-87359256D01*
X157895683Y-87575093D01*
X158189215Y-87772242D01*
X158440063Y-87955027D01*
X158655602Y-88127773D01*
X158843211Y-88294807D01*
X159010266Y-88460450D01*
X159164144Y-88629028D01*
X159312222Y-88804868D01*
X159461875Y-88992292D01*
X159795422Y-89419194D01*
X159994068Y-89667322D01*
X160223798Y-89944333D01*
X160491990Y-90254555D01*
X160806020Y-90602308D01*
X160834279Y-90632693D01*
X160860763Y-90660432D01*
X160909097Y-90709064D01*
X160952402Y-90750395D01*
X160992056Y-90786616D01*
X161065930Y-90852486D01*
X161102907Y-90886515D01*
X161141750Y-90924195D01*
X162463162Y-92280598D01*
X163743771Y-93650384D01*
X166247799Y-96400585D01*
X167503830Y-97766235D01*
X168784279Y-99115742D01*
X170105451Y-100441725D01*
X171483653Y-101736802D01*
X171784662Y-102001647D01*
X172088101Y-102254412D01*
X172394044Y-102496233D01*
X172702568Y-102728256D01*
X173327662Y-103167462D01*
X173963991Y-103581157D01*
X174612164Y-103978464D01*
X175272788Y-104368513D01*
X176633828Y-105163332D01*
X177426165Y-105655004D01*
X178199890Y-106180103D01*
X178954481Y-106736930D01*
X179689417Y-107323786D01*
X180404173Y-107938975D01*
X181098228Y-108580796D01*
X181771061Y-109247552D01*
X182422147Y-109937543D01*
X183050967Y-110649072D01*
X183656997Y-111380439D01*
X184239715Y-112129948D01*
X184798599Y-112895898D01*
X185333125Y-113676593D01*
X185842774Y-114470331D01*
X186327022Y-115275418D01*
X186785347Y-116090152D01*
X187004020Y-116500702D01*
X187216690Y-116914335D01*
X187424169Y-117330564D01*
X187627268Y-117748902D01*
X188023568Y-118589959D01*
X188412083Y-119433611D01*
X192814645Y-129014042D01*
X193525264Y-130566908D01*
X193873758Y-131347031D01*
X194213815Y-132130805D01*
X194542515Y-132919121D01*
X194856938Y-133712873D01*
X195154164Y-134512951D01*
X195431273Y-135320248D01*
X195571080Y-135759728D01*
X195705454Y-136200669D01*
X195960818Y-137086284D01*
X196203204Y-137975796D01*
X196438457Y-138867907D01*
X198452840Y-145284863D01*
X198605374Y-145831777D01*
X198767155Y-146354355D01*
X199103534Y-147361545D01*
X199270670Y-147863681D01*
X199432126Y-148376524D01*
X199584172Y-148908837D01*
X199655501Y-149185032D01*
X199723078Y-149469379D01*
X196466005Y-148321074D01*
X193223655Y-147132086D01*
X189996473Y-145902618D01*
X186784908Y-144632874D01*
X183589404Y-143323056D01*
X180410408Y-141973367D01*
X177248365Y-140584010D01*
X174103722Y-139155187D01*
X172017521Y-138175360D01*
X170982126Y-137669832D01*
X169954681Y-137149457D01*
X168937296Y-136610912D01*
X167932077Y-136050870D01*
X166941137Y-135466003D01*
X165966582Y-134852990D01*
X165134699Y-134294969D01*
X164318918Y-133714113D01*
X163519766Y-133110948D01*
X162737771Y-132486002D01*
X161973460Y-131839803D01*
X161227360Y-131172877D01*
X160500000Y-130485752D01*
X159791906Y-129778956D01*
X159198538Y-129162090D01*
X158612957Y-128531433D01*
X158047494Y-127882929D01*
X157776160Y-127550718D01*
X157514479Y-127212524D01*
X157263993Y-126867839D01*
X157026243Y-126516159D01*
X156802770Y-126156975D01*
X156595115Y-125789780D01*
X156404821Y-125414067D01*
X156233426Y-125029330D01*
X156082475Y-124635061D01*
X155953507Y-124230753D01*
X155558502Y-122786159D01*
X155450118Y-122428559D01*
X155330985Y-122075055D01*
X155266311Y-121900259D01*
X155197657Y-121726988D01*
X155124592Y-121555410D01*
X155046685Y-121385694D01*
X154944472Y-121182691D01*
X154835434Y-120983674D01*
X154720049Y-120788408D01*
X154598792Y-120596661D01*
X154472141Y-120408200D01*
X154340572Y-120222790D01*
X154064587Y-119860196D01*
X153774649Y-119507011D01*
X153474571Y-119161370D01*
X152859245Y-118485258D01*
X145220508Y-110209671D01*
X144937437Y-109896693D01*
X144647147Y-109567087D01*
X144049774Y-108884917D01*
X143745127Y-108545820D01*
X143438126Y-108217025D01*
X143129988Y-107905264D01*
X142821932Y-107617272D01*
X142787834Y-107586201D01*
X142752925Y-107555618D01*
X142717042Y-107526009D01*
X142698685Y-107511722D01*
X142680024Y-107497859D01*
X142661038Y-107484485D01*
X142641708Y-107471657D01*
X142622012Y-107459438D01*
X142601931Y-107447888D01*
X142581444Y-107437069D01*
X142560532Y-107427041D01*
X142539175Y-107417864D01*
X142517351Y-107409601D01*
X142486122Y-107400244D01*
X142454741Y-107392824D01*
X142423217Y-107387168D01*
X142391562Y-107383104D01*
X142359785Y-107380459D01*
X142327896Y-107379062D01*
X142295907Y-107378739D01*
X142263826Y-107379319D01*
X142231663Y-107380629D01*
X142199429Y-107382497D01*
X142134791Y-107387215D01*
X142069988Y-107392096D01*
X142005106Y-107395760D01*
X141920310Y-107397694D01*
X141836583Y-107395175D01*
X141753898Y-107388371D01*
X141672227Y-107377454D01*
X141511827Y-107343954D01*
X141355168Y-107296036D01*
X141202038Y-107235056D01*
X141052224Y-107162376D01*
X140905513Y-107079353D01*
X140761691Y-106987346D01*
X140620547Y-106887714D01*
X140481867Y-106781815D01*
X140345438Y-106671007D01*
X140211046Y-106556651D01*
X139689604Y-106090912D01*
X139249303Y-105690630D01*
X139030712Y-105483855D01*
X138815613Y-105272298D01*
X138605848Y-105055693D01*
X138403257Y-104833768D01*
X138209681Y-104606257D01*
X138026959Y-104372889D01*
X137856933Y-104133397D01*
X137701443Y-103887510D01*
X137562328Y-103634963D01*
X137441431Y-103375485D01*
X137340590Y-103108807D01*
X137298266Y-102972684D01*
X137261647Y-102834661D01*
X137230963Y-102694703D01*
X137206442Y-102552778D01*
X137188316Y-102408851D01*
X137176814Y-102262889D01*
X136941455Y-101093022D01*
X136932733Y-100976455D01*
X136919702Y-100860395D01*
X136902594Y-100744863D01*
X136881642Y-100629878D01*
X136857081Y-100515461D01*
X136829144Y-100401632D01*
X136798063Y-100288411D01*
X136764071Y-100175819D01*
X136727403Y-100063876D01*
X136688291Y-99952602D01*
X136603668Y-99732143D01*
X136512069Y-99514604D01*
X136415359Y-99300149D01*
X136062405Y-98560547D01*
X135685926Y-97830680D01*
X135487495Y-97471322D01*
X135281541Y-97116712D01*
X135067514Y-96767617D01*
X134844869Y-96424809D01*
X134613057Y-96089058D01*
X134371532Y-95761135D01*
X134119744Y-95441811D01*
X133857147Y-95131857D01*
X133583193Y-94832043D01*
X133297334Y-94543139D01*
X132999024Y-94265916D01*
X132687714Y-94001145D01*
X122550000Y-84450000D01*
X121800000Y-83875000D01*
X121050000Y-83600000D01*
X120025000Y-83425000D01*
X118850000Y-83425000D01*
X117700000Y-83650000D01*
X116750000Y-84050000D01*
X116000000Y-84525000D01*
X115225000Y-85175000D01*
X114475000Y-85675000D01*
X113650000Y-86075000D01*
X113025000Y-86300000D01*
X112425000Y-86475000D01*
X111700000Y-86600000D01*
X111100000Y-86650000D01*
X110350000Y-86650000D01*
X109600000Y-86575000D01*
X108950000Y-86450000D01*
X108400000Y-86300000D01*
X107869189Y-86122330D01*
X107350000Y-85900000D01*
X106875000Y-85650000D01*
X106425000Y-85350000D01*
X105975000Y-85025000D01*
X105525000Y-84650000D01*
X105125000Y-84250000D01*
X104700000Y-83775000D01*
X104400000Y-83375000D01*
X104125000Y-82900000D01*
X103850000Y-82400000D01*
X103575000Y-81775000D01*
X103375000Y-81200000D01*
X103200000Y-80575000D01*
X103100000Y-80050000D01*
X103050000Y-79450000D01*
X103025000Y-78825000D01*
X103075000Y-78200000D01*
X103175000Y-77575000D01*
X103300000Y-77000000D01*
X103500000Y-76425000D01*
X103700000Y-75900000D01*
X103825000Y-75325000D01*
X103800000Y-74800000D01*
X103675000Y-74400000D01*
X103478722Y-74030801D01*
X103131818Y-73650518D01*
X102813676Y-73286109D01*
X102530061Y-72943348D01*
X102286738Y-72628012D01*
X102089471Y-72345874D01*
X101944024Y-72102709D01*
X101856163Y-71904293D01*
X101835628Y-71823670D01*
X101831651Y-71756399D01*
X101896787Y-71609494D01*
X101980874Y-71453685D01*
X102082421Y-71289967D01*
X102199939Y-71119334D01*
X102331937Y-70942778D01*
X102476925Y-70761295D01*
X102799907Y-70387519D01*
X103156958Y-70005955D01*
X103536156Y-69624554D01*
X103925575Y-69251264D01*
X104313289Y-68894037D01*
X101665517Y-65858617D01*
X101552287Y-65739735D01*
X101439786Y-65618826D01*
X101330043Y-65495157D01*
X101276841Y-65432060D01*
X101225087Y-65368001D01*
X101175038Y-65302887D01*
X101126945Y-65236627D01*
X101081063Y-65169129D01*
X101037645Y-65100303D01*
X100996944Y-65030058D01*
X100959215Y-64958302D01*
X100924710Y-64884943D01*
X100893683Y-64809893D01*
X100867383Y-64732139D01*
X100845694Y-64652363D01*
X100828758Y-64571056D01*
X100816726Y-64488709D01*
X100809744Y-64405815D01*
X100807959Y-64322865D01*
X100811517Y-64240351D01*
X100820566Y-64158765D01*
X100835254Y-64078599D01*
X100855725Y-64000344D01*
X100882129Y-63924492D01*
X100897602Y-63887621D01*
X100914612Y-63851535D01*
X100933180Y-63816296D01*
X100953321Y-63781964D01*
X100975057Y-63748604D01*
X100998402Y-63716273D01*
X101023380Y-63685036D01*
X101050005Y-63654952D01*
X101078296Y-63626084D01*
X101108273Y-63598493D01*
X101133525Y-63576569D01*
X101159724Y-63554843D01*
X101213567Y-63511478D01*
X101267005Y-63467382D01*
X101292697Y-63444743D01*
X101317240Y-63421541D01*
X101340280Y-63397651D01*
X101361471Y-63372943D01*
X101380461Y-63347294D01*
X101389021Y-63334075D01*
X101396900Y-63320574D01*
X101404055Y-63306773D01*
X101410440Y-63292658D01*
X101416013Y-63278211D01*
X101420730Y-63263418D01*
X101424546Y-63248262D01*
X101427420Y-63232728D01*
X101429306Y-63216799D01*
X101430160Y-63200462D01*
X101430194Y-63189176D01*
X101429660Y-63178029D01*
X101428581Y-63167021D01*
X101426976Y-63156149D01*
X101422273Y-63134807D01*
X101415720Y-63113987D01*
X101407484Y-63093674D01*
X101397732Y-63073852D01*
X101386631Y-63054508D01*
X101374349Y-63035625D01*
X101361053Y-63017187D01*
X101346910Y-62999181D01*
X101332088Y-62981591D01*
X101316753Y-62964400D01*
X101285218Y-62931162D01*
X101253641Y-62899342D01*
X101085560Y-62733302D01*
X100918776Y-62563936D01*
X100757184Y-62389865D01*
X100679552Y-62300634D01*
X100604678Y-62209710D01*
X100533048Y-62116920D01*
X100465151Y-62022092D01*
X100401471Y-61925053D01*
X100342497Y-61825632D01*
X100288713Y-61723655D01*
X100240610Y-61618950D01*
X100198670Y-61511346D01*
X100163383Y-61400668D01*
X100139483Y-61304865D01*
X100122180Y-61208405D01*
X100111299Y-61111530D01*
X100106659Y-61014474D01*
X100108086Y-60917477D01*
X100115402Y-60820777D01*
X100128431Y-60724609D01*
X100146996Y-60629213D01*
X100170920Y-60534825D01*
X100200026Y-60441685D01*
X100234137Y-60350029D01*
X100273077Y-60260095D01*
X100316669Y-60172120D01*
X100364736Y-60086342D01*
X100417101Y-60003000D01*
X100473587Y-59922330D01*
X100534017Y-59844570D01*
X100598215Y-59769957D01*
X100666005Y-59698731D01*
X100737208Y-59631127D01*
X100811648Y-59567385D01*
X100889149Y-59507740D01*
X100969533Y-59452433D01*
X101052625Y-59401699D01*
X101138246Y-59355776D01*
X101226220Y-59314902D01*
X101316371Y-59279315D01*
X101408521Y-59249253D01*
X101502493Y-59224952D01*
X101598112Y-59206651D01*
X101695200Y-59194588D01*
X101793579Y-59189000D01*
X101887677Y-59189441D01*
X101981759Y-59194157D01*
X102075810Y-59202392D01*
X102169816Y-59213390D01*
X102357631Y-59240653D01*
X102545080Y-59269904D01*
X102638630Y-59283386D01*
X102732042Y-59295099D01*
X102825303Y-59304286D01*
X102918397Y-59310194D01*
X103011307Y-59312065D01*
X103104020Y-59309146D01*
X103196520Y-59300680D01*
X103242686Y-59294131D01*
X103288793Y-59285912D01*
X103389649Y-59261180D01*
X103487240Y-59228885D01*
X103581708Y-59189571D01*
X103673196Y-59143789D01*
X103761844Y-59092085D01*
X103847794Y-59035006D01*
X103931189Y-58973102D01*
X104012171Y-58906918D01*
X104090882Y-58837002D01*
X104167463Y-58763903D01*
X104242056Y-58688167D01*
X104314804Y-58610342D01*
X104455332Y-58450615D01*
X104590181Y-58289104D01*
X106822616Y-55592877D01*
X106749496Y-55512158D01*
X106682690Y-55433360D01*
X106621287Y-55356215D01*
X106564382Y-55280456D01*
X106460433Y-55132011D01*
X106363582Y-54985879D01*
X106266569Y-54839910D01*
X106162132Y-54691953D01*
X106104862Y-54616557D01*
X106043014Y-54539859D01*
X105975680Y-54461589D01*
X105901952Y-54381478D01*
X105850172Y-54323802D01*
X105798733Y-54260290D01*
X105747730Y-54191679D01*
X105697258Y-54118701D01*
X105647416Y-54042094D01*
X105598298Y-53962592D01*
X105502622Y-53797843D01*
X105411004Y-53630336D01*
X105324212Y-53465952D01*
X105168189Y-53170079D01*
X105102705Y-53044790D01*
X105043757Y-52920560D01*
X104991227Y-52797151D01*
X104944999Y-52674325D01*
X104904957Y-52551844D01*
X104870984Y-52429470D01*
X104842963Y-52306963D01*
X104820777Y-52184087D01*
X104804311Y-52060602D01*
X104793446Y-51936270D01*
X104788068Y-51810854D01*
X104788058Y-51684114D01*
X104793302Y-51555813D01*
X104803681Y-51425712D01*
X104819080Y-51293573D01*
X104839382Y-51159157D01*
X105379137Y-51393115D01*
X105908712Y-51643337D01*
X106168731Y-51775778D01*
X106425064Y-51913759D01*
X106677331Y-52057774D01*
X106925152Y-52208314D01*
X107168146Y-52365871D01*
X107405933Y-52530937D01*
X107638132Y-52704003D01*
X107864365Y-52885562D01*
X108084249Y-53076105D01*
X108297406Y-53276123D01*
X108503454Y-53486110D01*
X108702015Y-53706555D01*
X109654038Y-53089803D01*
X110581360Y-52520953D01*
X111040613Y-52255263D01*
X111499515Y-52002478D01*
X111960010Y-51762905D01*
X112424038Y-51536853D01*
X112893542Y-51324633D01*
X113370465Y-51126553D01*
X113856745Y-50942923D01*
X114354327Y-50774051D01*
X114865151Y-50620247D01*
X115391161Y-50481821D01*
X115934297Y-50359082D01*
X116496502Y-50252338D01*
X116599060Y-50240367D01*
X116699156Y-50240367D01*
X116796922Y-50251697D01*
D10*
X107775000Y-76950000D02*
X109250000Y-75725000D01*
X110075000Y-75625000D02*
X114175000Y-79100000D01*
X109250000Y-75725000D02*
X109475000Y-75600000D01*
X109925000Y-75550000D02*
X110075000Y-75625000D01*
M02*
